<svg xmlns="http://www.w3.org/2000/svg" width="920" height="360" viewBox="0 0 920 360">
<rect width="100%" height="100%" fill="#ffffff"/>
<text x="24" y="26" font-family="Arial" font-size="18" font-weight="700" fill="#101418">ADAUSD 6m</text>
<text x="24" y="44" font-family="Arial" font-size="12" fill="#68707a">Crypto; normalized close, start=100, change=-53.4%</text>
<line x1='62' y1='318.0' x2='902' y2='318.0' stroke='#e6e8eb'/><text x='12' y='322.0' font-family='Arial' font-size='11' fill='#68707a'>40.9</text><line x1='62' y1='250.5' x2='902' y2='250.5' stroke='#e6e8eb'/><text x='12' y='254.5' font-family='Arial' font-size='11' fill='#68707a'>58.2</text><line x1='62' y1='183.0' x2='902' y2='183.0' stroke='#e6e8eb'/><text x='12' y='187.0' font-family='Arial' font-size='11' fill='#68707a'>75.4</text><line x1='62' y1='115.5' x2='902' y2='115.5' stroke='#e6e8eb'/><text x='12' y='119.5' font-family='Arial' font-size='11' fill='#68707a'>92.7</text><line x1='62' y1='48.0' x2='902' y2='48.0' stroke='#e6e8eb'/><text x='12' y='52.0' font-family='Arial' font-size='11' fill='#68707a'>110.0</text>
<line x1="62" y1="48" x2="62" y2="318" stroke="#c8cdd2"/>
<line x1="62" y1="318" x2="902" y2="318" stroke="#c8cdd2"/>
<polyline points="62.0,87.1 66.6,97.0 71.3,117.0 75.9,119.1 80.6,116.6 85.2,103.2 89.8,70.5 94.5,84.4 99.1,109.2 103.8,123.2 108.4,121.6 113.0,134.1 117.7,141.4 122.3,143.5 127.0,160.1 131.6,173.2 136.3,151.4 140.9,154.4 145.5,160.7 150.2,156.4 154.8,163.3 159.5,168.9 164.1,180.3 168.7,174.8 173.4,157.5 178.0,158.4 182.7,171.9 187.3,173.5 191.9,189.3 196.6,169.0 201.2,136.5 205.9,140.3 210.5,131.0 215.1,112.2 219.8,114.1 224.4,129.5 229.1,134.9 233.7,139.2 238.4,141.6 243.0,139.5 247.6,143.3 252.3,112.6 256.9,118.5 261.6,136.8 266.2,135.0 270.8,134.0 275.5,152.2 280.1,157.0 284.8,174.1 289.4,160.8 294.0,166.7 298.7,165.7 303.3,167.4 308.0,184.2 312.6,172.7 317.2,165.5 321.9,167.6 326.5,188.3 331.2,200.1 335.8,223.4 340.5,229.8 345.1,218.7 349.7,225.7 354.4,229.6 359.0,265.5 363.7,238.3 368.3,241.7 372.9,243.5 377.6,244.0 382.2,250.9 386.9,256.2 391.5,248.7 396.1,241.4 400.8,221.8 405.4,233.5 410.1,230.3 414.7,234.2 419.3,240.6 424.0,241.5 428.6,230.8 433.3,235.0 437.9,242.5 442.6,250.4 447.2,253.4 451.8,220.6 456.5,229.0 461.1,237.1 465.8,233.7 470.4,240.6 475.0,237.8 479.7,249.9 484.3,238.4 489.0,244.6 493.6,253.2 498.2,257.0 502.9,261.7 507.5,256.7 512.2,250.6 516.8,250.2 521.4,249.6 526.1,247.4 530.7,249.4 535.4,243.8 540.0,226.1 544.7,227.2 549.3,240.1 553.9,246.0 558.6,247.1 563.2,254.3 567.9,260.5 572.5,251.0 577.1,247.0 581.8,243.4 586.4,256.9 591.1,264.5 595.7,264.8 600.3,270.1 605.0,266.9 609.6,268.3 614.3,262.7 618.9,270.2 623.5,264.4 628.2,262.8 632.8,260.7 637.5,264.4 642.1,249.1 646.8,260.4 651.4,257.7 656.0,257.3 660.7,261.3 665.3,272.9 670.0,262.3 674.6,270.0 679.2,264.6 683.9,253.0 688.5,253.4 693.2,261.5 697.8,267.5 702.4,262.5 707.1,261.3 711.7,262.3 716.4,261.0 721.0,260.6 725.6,260.8 730.3,259.0 734.9,262.6 739.6,263.8 744.2,265.8 748.9,264.3 753.5,262.7 758.1,261.0 762.8,261.5 767.4,261.1 772.1,250.5 776.7,246.6 781.3,250.1 786.0,240.9 790.6,243.0 795.3,232.9 799.9,234.6 804.5,242.9 809.2,248.3 813.8,243.6 818.5,251.1 823.1,256.7 827.7,259.4 832.4,259.9 837.0,262.6 841.7,261.9 846.3,260.8 851.0,267.6 855.6,264.6 860.2,267.8 864.9,266.7 869.5,269.9 874.2,272.2 878.8,274.5 883.4,276.1 888.1,273.6 892.7,273.8 897.4,277.9 902.0,295.5" fill="none" stroke="#d62728" stroke-width="2.2" stroke-linejoin="round" stroke-linecap="round"/>
<text x="62" y="346" font-family="Arial" font-size="11" fill="#68707a">2025-12-03</text>
<text x="834" y="346" font-family="Arial" font-size="11" fill="#68707a">2026-06-03</text>
<text x="792" y="28" font-family="Arial" font-size="12" fill="#d62728">0.2102</text>
</svg>
