<svg xmlns="http://www.w3.org/2000/svg" width="920" height="360" viewBox="0 0 920 360">
<rect width="100%" height="100%" fill="#ffffff"/>
<text x="24" y="26" font-family="Arial" font-size="18" font-weight="700" fill="#101418">ADAUSD 12m</text>
<text x="24" y="44" font-family="Arial" font-size="12" fill="#68707a">Crypto; normalized close, start=100, change=-69.3%</text>
<line x1='62' y1='318.0' x2='902' y2='318.0' stroke='#e6e8eb'/><text x='12' y='322.0' font-family='Arial' font-size='11' fill='#68707a'>19.7</text><line x1='62' y1='250.5' x2='902' y2='250.5' stroke='#e6e8eb'/><text x='12' y='254.5' font-family='Arial' font-size='11' fill='#68707a'>52.7</text><line x1='62' y1='183.0' x2='902' y2='183.0' stroke='#e6e8eb'/><text x='12' y='187.0' font-family='Arial' font-size='11' fill='#68707a'>85.6</text><line x1='62' y1='115.5' x2='902' y2='115.5' stroke='#e6e8eb'/><text x='12' y='119.5' font-family='Arial' font-size='11' fill='#68707a'>118.5</text><line x1='62' y1='48.0' x2='902' y2='48.0' stroke='#e6e8eb'/><text x='12' y='52.0' font-family='Arial' font-size='11' fill='#68707a'>151.5</text>
<line x1="62" y1="48" x2="62" y2="318" stroke="#c8cdd2"/>
<line x1="62" y1="318" x2="902" y2="318" stroke="#c8cdd2"/>
<polyline points="62.0,153.5 64.3,159.1 66.6,170.6 68.9,161.9 71.2,159.4 73.5,157.9 75.8,147.4 78.2,144.1 80.5,149.4 82.8,159.7 85.1,166.2 87.4,171.4 89.7,168.7 92.0,169.4 94.3,175.7 96.6,177.8 98.9,178.2 101.2,185.6 103.5,192.5 105.8,196.5 108.2,183.8 110.5,182.6 112.8,188.7 115.1,192.6 117.4,191.2 119.7,189.1 122.0,185.4 124.3,187.2 126.6,196.1 128.9,183.6 131.2,179.1 133.5,186.9 135.8,186.0 138.2,183.0 140.5,184.7 142.8,182.3 145.1,171.8 147.4,155.9 149.7,145.7 152.0,146.4 154.3,137.7 156.6,138.6 158.9,134.9 161.2,129.6 163.5,111.8 165.8,114.2 168.2,109.9 170.5,101.4 172.8,91.9 175.1,88.1 177.4,114.1 179.7,117.3 182.0,114.1 184.3,113.0 186.6,109.4 188.9,121.7 191.2,124.2 193.5,129.9 195.8,136.9 198.2,144.2 200.5,149.6 202.8,140.8 205.1,132.5 207.4,141.1 209.7,136.4 212.0,123.0 214.3,121.6 216.6,117.7 218.9,118.3 221.2,126.7 223.5,106.6 225.8,87.3 228.2,81.4 230.5,75.9 232.8,82.7 235.1,70.5 237.4,82.1 239.7,105.5 242.0,94.8 244.3,103.7 246.6,80.1 248.9,85.1 251.2,86.1 253.5,107.7 255.8,99.0 258.2,103.9 260.5,101.7 262.8,110.8 265.1,112.3 267.4,115.6 269.7,118.9 272.0,108.6 274.3,108.0 276.6,116.0 278.9,109.7 281.2,113.4 283.5,108.5 285.8,99.5 288.2,99.5 290.5,93.6 292.8,90.8 295.1,83.9 297.4,80.1 299.7,92.3 302.0,99.9 304.3,94.8 306.6,85.1 308.9,81.4 311.2,91.7 313.5,90.8 315.8,93.4 318.2,111.2 320.5,116.7 322.8,115.0 325.1,130.1 327.4,121.3 329.7,124.4 332.0,116.5 334.3,116.9 336.6,116.8 338.9,104.0 341.2,97.9 343.5,99.1 345.8,107.0 348.2,107.8 350.5,97.5 352.8,112.7 355.1,107.3 357.4,114.3 359.7,168.4 362.0,169.2 364.3,148.4 366.6,140.1 368.9,149.0 371.2,158.2 373.5,165.4 375.8,171.4 378.2,168.5 380.5,163.1 382.8,159.9 385.1,166.0 387.4,171.6 389.7,166.0 392.0,162.1 394.3,162.5 396.6,154.6 398.9,158.7 401.2,165.0 403.5,166.8 405.8,178.5 408.2,176.1 410.5,175.2 412.8,175.6 415.1,193.1 417.4,202.3 419.7,194.9 422.0,199.5 424.3,186.0 426.6,188.3 428.9,185.2 431.2,180.9 433.5,191.8 435.8,195.2 438.2,199.4 440.5,209.2 442.8,207.7 445.1,213.3 447.4,219.1 449.7,216.2 452.0,219.8 454.3,229.0 456.6,236.0 458.9,237.3 461.2,236.1 463.5,230.4 465.8,232.2 468.2,228.0 470.5,228.6 472.8,232.6 475.1,234.1 477.4,233.9 479.7,243.0 482.0,228.5 484.3,223.5 486.6,226.9 488.9,233.8 491.2,234.5 493.5,233.7 495.8,229.1 498.2,217.7 500.5,222.6 502.8,231.1 505.1,236.0 507.4,235.4 509.7,239.7 512.0,242.3 514.3,243.0 516.6,248.7 518.9,253.2 521.2,245.7 523.5,246.7 525.8,248.9 528.2,247.4 530.5,249.8 532.8,251.7 535.1,255.7 537.4,253.8 539.7,247.8 542.0,248.1 544.3,252.8 546.6,253.3 548.9,258.8 551.2,251.8 553.5,240.6 555.8,241.9 558.2,238.7 560.5,232.1 562.8,232.8 565.1,238.1 567.4,240.0 569.7,241.5 572.0,242.3 574.3,241.6 576.6,242.9 578.9,232.3 581.2,234.3 583.5,240.6 585.8,240.0 588.2,239.7 590.5,246.0 592.8,247.6 595.1,253.5 597.4,249.0 599.7,251.0 602.0,250.6 604.3,251.2 606.6,257.0 608.9,253.1 611.2,250.6 613.5,251.3 615.8,258.4 618.2,262.5 620.5,270.6 622.8,272.8 625.1,268.9 627.4,271.4 629.7,272.7 632.0,285.1 634.3,275.7 636.6,276.9 638.9,277.5 641.2,277.7 643.5,280.1 645.8,281.9 648.2,279.3 650.5,276.8 652.8,270.0 655.1,274.1 657.4,273.0 659.7,274.3 662.0,276.5 664.3,276.8 666.6,273.1 668.9,274.6 671.2,277.2 673.5,279.9 675.8,281.0 678.2,269.6 680.5,272.5 682.8,275.3 685.1,274.1 687.4,276.5 689.7,275.6 692.0,279.7 694.3,275.8 696.6,277.9 698.9,280.9 701.2,282.2 703.5,283.8 705.8,282.1 708.2,280.0 710.5,279.8 712.8,279.6 715.1,278.9 717.4,279.6 719.7,277.6 722.0,271.5 724.3,271.9 726.6,276.3 728.9,278.4 731.2,278.8 733.5,281.3 735.8,283.4 738.2,280.1 740.5,278.7 742.8,277.5 745.1,282.2 747.4,284.8 749.7,284.9 752.0,286.7 754.3,285.6 756.6,286.1 758.9,284.2 761.2,286.8 763.5,284.7 765.8,284.2 768.2,283.5 770.5,284.8 772.8,279.5 775.1,283.4 777.4,282.4 779.7,282.3 782.0,283.7 784.3,287.7 786.6,284.0 788.9,286.7 791.2,284.8 793.5,280.8 795.8,280.9 798.2,283.7 800.5,285.8 802.8,284.1 805.1,283.7 807.4,284.0 809.7,283.6 812.0,283.5 814.3,283.5 816.6,282.9 818.9,284.1 821.2,284.5 823.5,285.2 825.8,284.7 828.2,284.1 830.5,283.6 832.8,283.8 835.1,283.6 837.4,280.0 839.7,278.6 842.0,279.8 844.3,276.6 846.6,277.4 848.9,273.9 851.2,274.4 853.5,277.3 855.8,279.2 858.2,277.6 860.5,280.1 862.8,282.1 865.1,283.0 867.4,283.2 869.7,284.1 872.0,283.9 874.3,283.5 876.6,285.9 878.9,284.8 881.2,285.9 883.5,285.5 885.8,286.6 888.2,287.5 890.5,288.3 892.8,288.8 895.1,287.9 897.4,288.0 899.7,289.4 902.0,295.5" fill="none" stroke="#d62728" stroke-width="2.2" stroke-linejoin="round" stroke-linecap="round"/>
<text x="62" y="346" font-family="Arial" font-size="11" fill="#68707a">2025-06-03</text>
<text x="834" y="346" font-family="Arial" font-size="11" fill="#68707a">2026-06-03</text>
<text x="792" y="28" font-family="Arial" font-size="12" fill="#d62728">0.2102</text>
</svg>
