<svg xmlns="http://www.w3.org/2000/svg" width="920" height="360" viewBox="0 0 920 360">
<rect width="100%" height="100%" fill="#ffffff"/>
<text x="24" y="26" font-family="Arial" font-size="18" font-weight="700" fill="#101418">AUDCAD 12m</text>
<text x="24" y="44" font-family="Arial" font-size="12" fill="#68707a">Forex cross; normalized close, start=100, change=+11.5%</text>
<line x1='62' y1='318.0' x2='902' y2='318.0' stroke='#e6e8eb'/><text x='12' y='322.0' font-family='Arial' font-size='11' fill='#68707a'>97.7</text><line x1='62' y1='250.5' x2='902' y2='250.5' stroke='#e6e8eb'/><text x='12' y='254.5' font-family='Arial' font-size='11' fill='#68707a'>101.5</text><line x1='62' y1='183.0' x2='902' y2='183.0' stroke='#e6e8eb'/><text x='12' y='187.0' font-family='Arial' font-size='11' fill='#68707a'>105.3</text><line x1='62' y1='115.5' x2='902' y2='115.5' stroke='#e6e8eb'/><text x='12' y='119.5' font-family='Arial' font-size='11' fill='#68707a'>109.0</text><line x1='62' y1='48.0' x2='902' y2='48.0' stroke='#e6e8eb'/><text x='12' y='52.0' font-family='Arial' font-size='11' fill='#68707a'>112.8</text>
<line x1="62" y1="48" x2="62" y2="318" stroke="#c8cdd2"/>
<line x1="62" y1="318" x2="902" y2="318" stroke="#c8cdd2"/>
<polyline points="62.0,276.9 65.2,285.0 68.5,283.0 71.7,279.3 75.0,278.9 78.2,273.0 81.5,275.2 84.7,279.7 87.9,283.7 91.2,295.5 94.4,291.8 97.7,285.4 100.9,277.4 104.2,282.2 107.4,287.4 110.6,280.0 113.9,275.9 117.1,270.0 120.4,272.6 123.6,272.0 126.9,269.2 130.1,263.8 133.4,270.0 136.6,273.1 139.8,276.3 143.1,281.7 146.3,275.2 149.6,269.7 152.8,258.6 156.1,258.7 159.3,265.0 162.5,270.4 165.8,272.7 169.0,273.6 172.3,271.3 175.5,273.3 178.8,275.4 182.0,262.9 185.2,259.9 188.5,258.1 191.7,267.5 195.0,264.5 198.2,276.3 201.5,277.0 204.7,276.2 207.9,275.7 211.2,276.1 214.4,272.7 217.7,266.4 220.9,266.0 224.2,264.2 227.4,260.5 230.6,256.6 233.9,263.7 237.1,260.2 240.4,265.9 243.6,268.8 246.9,273.1 250.1,272.5 253.4,265.2 256.6,262.2 259.8,261.7 263.1,264.0 266.3,262.3 269.6,260.8 272.8,255.9 276.1,261.7 279.3,253.3 282.5,256.7 285.8,245.1 289.0,238.2 292.3,235.1 295.5,223.7 298.8,214.2 302.0,218.3 305.2,220.3 308.5,220.7 311.7,226.5 315.0,233.2 318.2,242.1 321.5,233.5 324.7,232.5 327.9,228.1 331.2,236.0 334.4,232.2 337.7,227.6 340.9,217.7 344.2,214.7 347.4,216.4 350.6,217.2 353.9,213.1 357.1,222.4 360.4,220.8 363.6,219.0 366.9,239.4 370.1,230.3 373.4,235.3 376.6,230.5 379.8,237.7 383.1,236.1 386.3,229.5 389.6,238.3 392.8,243.5 396.1,236.2 399.3,230.1 402.5,223.3 405.8,222.9 409.0,225.5 412.3,224.6 415.5,223.9 418.8,220.7 422.0,229.7 425.2,222.9 428.5,228.9 431.7,232.3 435.0,225.8 438.2,228.4 441.5,227.3 444.7,226.1 447.9,227.2 451.2,234.3 454.4,238.2 457.7,236.7 460.9,241.0 464.2,237.1 467.4,234.1 470.6,233.7 473.9,226.7 477.1,225.3 480.4,228.4 483.6,227.0 486.9,222.0 490.1,215.6 493.4,214.2 496.6,222.6 499.8,223.1 503.1,220.5 506.3,217.9 509.6,223.1 512.8,228.3 516.1,229.6 519.3,233.9 522.5,238.8 525.8,236.3 529.0,235.6 532.3,227.8 535.5,224.2 538.8,224.9 542.0,223.4 545.2,226.2 548.5,224.8 551.7,226.5 555.0,221.0 558.2,210.2 561.5,197.5 564.7,195.4 567.9,201.3 571.2,198.2 574.4,196.9 577.7,202.3 580.9,203.2 584.2,197.1 587.4,199.6 590.6,196.7 593.9,196.4 597.1,188.3 600.4,172.6 603.6,163.7 606.9,162.1 610.1,157.7 613.4,152.6 616.6,156.7 619.8,164.2 623.1,156.3 626.3,142.8 629.6,146.5 632.8,162.5 636.1,137.0 639.3,137.0 642.5,141.0 645.8,124.2 649.0,130.2 652.3,132.8 655.5,129.4 658.8,126.3 662.0,129.0 665.2,127.0 668.5,117.1 671.7,124.8 675.0,124.8 678.2,111.0 681.5,116.0 684.7,128.9 687.9,115.5 691.2,133.0 694.4,127.5 697.7,141.7 700.9,163.5 704.2,137.8 707.4,124.3 710.6,118.9 713.9,129.3 717.1,137.2 720.4,123.7 723.6,111.7 726.9,128.6 730.1,113.3 733.4,137.1 736.6,134.4 739.8,133.3 743.1,140.6 746.3,150.6 749.6,154.3 752.8,151.6 756.1,134.0 759.3,137.8 762.5,135.0 765.8,138.3 769.0,133.8 772.3,99.0 775.5,108.2 778.8,102.4 782.0,110.9 785.2,101.1 788.5,95.6 791.7,87.9 795.0,96.5 798.2,103.0 801.5,100.7 804.7,103.8 807.9,101.7 811.2,104.9 814.4,104.5 817.7,99.4 820.9,91.7 824.2,110.3 827.4,102.5 830.6,99.0 833.9,105.6 837.1,98.3 840.4,84.9 843.6,89.0 846.9,78.3 850.1,75.8 853.4,75.7 856.6,70.5 859.8,78.2 863.1,96.1 866.3,88.1 869.6,104.7 872.8,93.2 876.1,89.7 879.3,82.5 882.5,78.9 885.8,78.1 889.0,83.1 892.3,83.5 895.5,77.2 898.8,74.8 902.0,71.8" fill="none" stroke="#1f77b4" stroke-width="2.2" stroke-linejoin="round" stroke-linecap="round"/>
<text x="62" y="346" font-family="Arial" font-size="11" fill="#68707a">2025-06-03</text>
<text x="834" y="346" font-family="Arial" font-size="11" fill="#68707a">2026-06-03</text>
<text x="792" y="28" font-family="Arial" font-size="12" fill="#1f77b4">0.99313</text>
</svg>
