<svg xmlns="http://www.w3.org/2000/svg" width="920" height="360" viewBox="0 0 920 360">
<rect width="100%" height="100%" fill="#ffffff"/>
<text x="24" y="26" font-family="Arial" font-size="18" font-weight="700" fill="#101418">AUDCHF 12m</text>
<text x="24" y="44" font-family="Arial" font-size="12" fill="#68707a">Forex cross; normalized close, start=100, change=+6.7%</text>
<line x1='62' y1='318.0' x2='902' y2='318.0' stroke='#e6e8eb'/><text x='12' y='322.0' font-family='Arial' font-size='11' fill='#68707a'>95.8</text><line x1='62' y1='250.5' x2='902' y2='250.5' stroke='#e6e8eb'/><text x='12' y='254.5' font-family='Arial' font-size='11' fill='#68707a'>98.8</text><line x1='62' y1='183.0' x2='902' y2='183.0' stroke='#e6e8eb'/><text x='12' y='187.0' font-family='Arial' font-size='11' fill='#68707a'>101.9</text><line x1='62' y1='115.5' x2='902' y2='115.5' stroke='#e6e8eb'/><text x='12' y='119.5' font-family='Arial' font-size='11' fill='#68707a'>104.9</text><line x1='62' y1='48.0' x2='902' y2='48.0' stroke='#e6e8eb'/><text x='12' y='52.0' font-family='Arial' font-size='11' fill='#68707a'>107.9</text>
<line x1="62" y1="48" x2="62" y2="318" stroke="#c8cdd2"/>
<line x1="62" y1="318" x2="902" y2="318" stroke="#c8cdd2"/>
<polyline points="62.0,224.7 65.2,216.9 68.5,221.4 71.7,211.5 75.0,209.4 78.2,205.7 81.5,198.2 84.7,213.5 87.9,233.0 91.2,235.9 94.4,227.3 97.7,228.2 100.9,213.3 104.2,227.6 107.4,237.3 110.6,240.7 113.9,255.5 117.1,249.8 120.4,249.3 123.6,261.3 126.9,261.7 130.1,265.7 133.4,262.5 136.6,257.6 139.8,266.6 143.1,273.3 146.3,270.6 149.6,274.8 152.8,245.1 156.1,250.7 159.3,259.8 162.5,257.3 165.8,257.0 169.0,260.3 172.3,260.2 175.5,263.3 178.8,268.2 182.0,255.4 185.2,249.5 188.5,256.6 191.7,251.4 195.0,248.1 198.2,249.6 201.5,253.9 204.7,267.0 207.9,256.7 211.2,257.9 214.4,251.0 217.7,243.1 220.9,241.1 224.2,230.1 227.4,240.6 230.6,237.1 233.9,247.8 237.1,245.7 240.4,249.2 243.6,263.6 246.9,278.0 250.1,269.1 253.4,266.5 256.6,256.7 259.8,258.6 263.1,259.4 266.3,252.2 269.6,251.0 272.8,247.9 276.1,246.8 279.3,242.2 282.5,246.2 285.8,251.4 289.0,254.6 292.3,246.3 295.5,231.1 298.8,222.9 302.0,226.9 305.2,224.2 308.5,243.5 311.7,248.9 315.0,248.8 318.2,248.0 321.5,255.4 324.7,258.3 327.9,253.2 331.2,255.0 334.4,257.3 337.7,248.4 340.9,240.5 344.2,237.8 347.4,242.8 350.6,243.9 353.9,242.5 357.1,244.5 360.4,234.8 363.6,230.1 366.9,261.7 370.1,252.1 373.4,266.1 376.6,274.3 379.8,295.5 383.1,284.5 386.3,282.7 389.6,279.1 392.8,282.6 396.1,275.8 399.3,267.1 402.5,262.5 405.8,258.7 409.0,241.7 412.3,243.3 415.5,238.6 418.8,232.4 422.0,244.4 425.2,237.9 428.5,256.3 431.7,247.5 435.0,241.8 438.2,256.6 441.5,261.4 444.7,276.4 447.9,272.0 451.2,279.8 454.4,265.7 457.7,256.3 460.9,269.5 464.2,256.6 467.4,255.6 470.6,255.9 473.9,249.9 477.1,244.7 480.4,241.2 483.6,240.5 486.9,234.8 490.1,235.1 493.4,221.5 496.6,208.6 499.8,206.1 503.1,203.9 506.3,210.9 509.6,227.5 512.8,228.8 516.1,230.9 519.3,236.9 522.5,246.8 525.8,245.9 529.0,242.2 532.3,240.1 535.5,235.0 538.8,232.2 542.0,225.9 545.2,233.5 548.5,224.7 551.7,229.9 555.0,224.4 558.2,217.9 561.5,201.3 564.7,201.9 567.9,205.3 571.2,200.9 574.4,205.1 577.7,203.1 580.9,207.1 584.2,190.3 587.4,208.3 590.6,203.1 593.9,219.2 597.1,192.4 600.4,184.7 603.6,192.7 606.9,194.4 610.1,209.3 613.4,187.6 616.6,188.9 619.8,195.0 623.1,176.1 626.3,163.6 629.6,168.4 632.8,192.6 636.1,159.7 639.3,169.4 642.5,169.6 645.8,144.1 649.0,161.1 652.3,169.9 655.5,167.5 658.8,160.1 662.0,166.6 665.2,153.9 668.5,146.7 671.7,155.8 675.0,158.0 678.2,142.4 681.5,145.5 684.7,170.4 687.9,127.8 691.2,139.7 694.4,136.0 697.7,152.5 700.9,166.3 704.2,142.2 707.4,123.6 710.6,111.2 713.9,117.8 717.1,127.4 720.4,112.3 723.6,108.4 726.9,111.8 730.1,105.6 733.4,132.8 736.6,136.9 739.8,135.9 743.1,143.8 746.3,153.2 749.6,150.7 752.8,151.8 756.1,133.4 759.3,143.0 762.5,133.9 765.8,135.1 769.0,133.1 772.3,102.4 775.5,111.8 778.8,101.8 782.0,115.1 785.2,118.9 788.5,113.8 791.7,97.0 795.0,97.0 798.2,104.3 801.5,106.1 804.7,105.6 807.9,92.8 811.2,97.3 814.4,92.6 817.7,80.0 820.9,70.5 824.2,85.3 827.4,87.8 830.6,86.1 833.9,91.6 837.1,87.7 840.4,84.9 843.6,89.1 846.9,88.8 850.1,83.7 853.4,79.5 856.6,71.0 859.8,75.8 863.1,94.3 866.3,89.4 869.6,98.4 872.8,88.8 876.1,90.3 879.3,100.4 882.5,94.1 885.8,87.1 889.0,91.3 892.3,94.0 895.5,93.8 898.8,85.8 902.0,76.6" fill="none" stroke="#1f77b4" stroke-width="2.2" stroke-linejoin="round" stroke-linecap="round"/>
<text x="62" y="346" font-family="Arial" font-size="11" fill="#68707a">2025-06-03</text>
<text x="834" y="346" font-family="Arial" font-size="11" fill="#68707a">2026-06-03</text>
<text x="792" y="28" font-family="Arial" font-size="12" fill="#1f77b4">0.56548</text>
</svg>
