<svg xmlns="http://www.w3.org/2000/svg" width="920" height="360" viewBox="0 0 920 360">
<rect width="100%" height="100%" fill="#ffffff"/>
<text x="24" y="26" font-family="Arial" font-size="18" font-weight="700" fill="#101418">AUDCAD 6m</text>
<text x="24" y="44" font-family="Arial" font-size="12" fill="#68707a">Forex cross; normalized close, start=100, change=+8.2%</text>
<line x1='62' y1='318.0' x2='902' y2='318.0' stroke='#e6e8eb'/><text x='12' y='322.0' font-family='Arial' font-size='11' fill='#68707a'>98.2</text><line x1='62' y1='250.5' x2='902' y2='250.5' stroke='#e6e8eb'/><text x='12' y='254.5' font-family='Arial' font-size='11' fill='#68707a'>100.9</text><line x1='62' y1='183.0' x2='902' y2='183.0' stroke='#e6e8eb'/><text x='12' y='187.0' font-family='Arial' font-size='11' fill='#68707a'>103.7</text><line x1='62' y1='115.5' x2='902' y2='115.5' stroke='#e6e8eb'/><text x='12' y='119.5' font-family='Arial' font-size='11' fill='#68707a'>106.4</text><line x1='62' y1='48.0' x2='902' y2='48.0' stroke='#e6e8eb'/><text x='12' y='52.0' font-family='Arial' font-size='11' fill='#68707a'>109.1</text>
<line x1="62" y1="48" x2="62" y2="318" stroke="#c8cdd2"/>
<line x1="62" y1="318" x2="902" y2="318" stroke="#c8cdd2"/>
<polyline points="62.0,273.1 68.6,264.5 75.1,262.6 81.7,273.9 88.2,274.5 94.8,271.1 101.4,267.6 107.9,274.6 114.5,281.4 121.1,283.2 127.6,289.0 134.2,295.5 140.8,292.2 147.3,291.2 153.9,280.9 160.4,276.1 167.0,276.9 173.6,275.0 180.1,278.7 186.7,276.8 193.2,279.1 199.8,271.7 206.4,257.3 212.9,240.2 219.5,237.5 226.1,245.4 232.6,241.2 239.2,239.5 245.8,246.7 252.3,247.9 258.9,239.8 265.4,243.1 272.0,239.2 278.6,238.8 285.1,228.1 291.7,207.1 298.2,195.1 304.8,193.0 311.4,187.1 317.9,180.3 324.5,185.7 331.1,195.8 337.6,185.2 344.2,167.1 350.8,172.2 357.3,193.5 363.9,159.4 370.4,159.4 377.0,164.7 383.6,142.2 390.1,150.3 396.7,153.8 403.2,149.3 409.8,145.2 416.4,148.7 422.9,146.0 429.5,132.8 436.1,143.1 442.6,143.1 449.2,124.7 455.8,131.3 462.3,148.6 468.9,130.7 475.4,154.0 482.0,146.7 488.6,165.7 495.1,194.9 501.7,160.5 508.2,142.4 514.8,135.2 521.4,149.1 527.9,159.6 534.5,141.6 541.1,125.6 547.6,148.1 554.2,127.7 560.8,159.6 567.3,155.9 573.9,154.5 580.4,164.2 587.0,177.6 593.6,182.5 600.1,178.9 606.7,155.3 613.2,160.5 619.8,156.8 626.4,161.1 632.9,155.2 639.5,108.6 646.1,121.0 652.6,113.1 659.2,124.5 665.8,111.4 672.3,104.1 678.9,93.8 685.4,105.3 692.0,114.0 698.6,110.9 705.1,115.0 711.7,112.3 718.2,116.5 724.8,115.9 731.4,109.2 737.9,98.9 744.5,123.8 751.1,113.3 757.6,108.6 764.2,117.5 770.8,107.6 777.3,89.7 783.9,95.2 790.4,81.0 797.0,77.6 803.6,77.4 810.1,70.5 816.7,80.7 823.2,104.7 829.8,94.0 836.4,116.3 842.9,100.8 849.5,96.1 856.1,86.5 862.6,81.7 869.2,80.7 875.8,87.4 882.3,87.9 888.9,79.4 895.4,76.3 902.0,72.2" fill="none" stroke="#1f77b4" stroke-width="2.2" stroke-linejoin="round" stroke-linecap="round"/>
<text x="62" y="346" font-family="Arial" font-size="11" fill="#68707a">2025-12-03</text>
<text x="834" y="346" font-family="Arial" font-size="11" fill="#68707a">2026-06-03</text>
<text x="792" y="28" font-family="Arial" font-size="12" fill="#1f77b4">0.99313</text>
</svg>
