<svg xmlns="http://www.w3.org/2000/svg" width="920" height="360" viewBox="0 0 920 360">
<rect width="100%" height="100%" fill="#ffffff"/>
<text x="24" y="26" font-family="Arial" font-size="18" font-weight="700" fill="#101418">AUDCHF 6m</text>
<text x="24" y="44" font-family="Arial" font-size="12" fill="#68707a">Forex cross; normalized close, start=100, change=+7.1%</text>
<line x1='62' y1='318.0' x2='902' y2='318.0' stroke='#e6e8eb'/><text x='12' y='322.0' font-family='Arial' font-size='11' fill='#68707a'>98.7</text><line x1='62' y1='250.5' x2='902' y2='250.5' stroke='#e6e8eb'/><text x='12' y='254.5' font-family='Arial' font-size='11' fill='#68707a'>101.1</text><line x1='62' y1='183.0' x2='902' y2='183.0' stroke='#e6e8eb'/><text x='12' y='187.0' font-family='Arial' font-size='11' fill='#68707a'>103.4</text><line x1='62' y1='115.5' x2='902' y2='115.5' stroke='#e6e8eb'/><text x='12' y='119.5' font-family='Arial' font-size='11' fill='#68707a'>105.8</text><line x1='62' y1='48.0' x2='902' y2='48.0' stroke='#e6e8eb'/><text x='12' y='52.0' font-family='Arial' font-size='11' fill='#68707a'>108.2</text>
<line x1="62" y1="48" x2="62" y2="318" stroke="#c8cdd2"/>
<line x1="62" y1="318" x2="902" y2="318" stroke="#c8cdd2"/>
<polyline points="62.0,280.2 68.6,280.5 75.1,263.2 81.7,246.8 88.2,243.5 94.8,240.7 101.4,249.7 107.9,270.9 114.5,272.5 121.1,275.2 127.6,282.9 134.2,295.5 140.8,294.3 147.3,289.6 153.9,286.9 160.4,280.4 167.0,276.9 173.6,268.8 180.1,278.5 186.7,267.3 193.2,274.0 199.8,266.9 206.4,258.6 212.9,237.4 219.5,238.2 226.1,242.5 232.6,236.9 239.2,242.3 245.8,239.7 252.3,244.9 258.9,223.4 265.4,246.4 272.0,239.8 278.6,260.3 285.1,226.1 291.7,216.3 298.2,226.4 304.8,228.6 311.4,247.6 317.9,219.9 324.5,221.6 331.1,229.4 337.6,205.3 344.2,189.4 350.8,195.4 357.3,226.3 363.9,184.3 370.4,196.7 377.0,197.0 383.6,164.5 390.1,186.1 396.7,197.3 403.2,194.3 409.8,184.9 416.4,193.2 422.9,177.0 429.5,167.7 436.1,179.4 442.6,182.2 449.2,162.3 455.8,166.2 462.3,198.0 468.9,143.6 475.4,158.7 482.0,154.1 488.6,175.1 495.1,192.7 501.7,162.0 508.2,138.2 514.8,122.5 521.4,130.9 527.9,143.2 534.5,123.9 541.1,118.9 547.6,123.2 554.2,115.3 560.8,150.0 567.3,155.3 573.9,154.0 580.4,164.0 587.0,176.0 593.6,172.8 600.1,174.2 606.7,150.8 613.2,163.0 619.8,151.4 626.4,153.0 632.9,150.4 639.5,111.2 646.1,123.2 652.6,110.5 659.2,127.4 665.8,132.3 672.3,125.7 678.9,104.3 685.4,104.4 692.0,113.6 698.6,116.0 705.1,115.4 711.7,98.9 718.2,104.7 724.8,98.7 731.4,82.6 737.9,70.5 744.5,89.4 751.1,92.5 757.6,90.4 764.2,97.5 770.8,92.4 777.3,88.9 783.9,94.3 790.4,93.8 797.0,87.4 803.6,82.0 810.1,71.2 816.7,77.3 823.2,100.8 829.8,94.6 836.4,106.2 842.9,93.9 849.5,95.8 856.1,108.7 862.6,100.6 869.2,91.7 875.8,97.0 882.3,100.5 888.9,100.3 895.4,90.0 902.0,78.3" fill="none" stroke="#1f77b4" stroke-width="2.2" stroke-linejoin="round" stroke-linecap="round"/>
<text x="62" y="346" font-family="Arial" font-size="11" fill="#68707a">2025-12-03</text>
<text x="834" y="346" font-family="Arial" font-size="11" fill="#68707a">2026-06-03</text>
<text x="792" y="28" font-family="Arial" font-size="12" fill="#1f77b4">0.56548</text>
</svg>
