<svg xmlns="http://www.w3.org/2000/svg" width="920" height="360" viewBox="0 0 920 360">
<rect width="100%" height="100%" fill="#ffffff"/>
<text x="24" y="26" font-family="Arial" font-size="18" font-weight="700" fill="#101418">AUDJPY 6m</text>
<text x="24" y="44" font-family="Arial" font-size="12" fill="#68707a">Forex cross; normalized close, start=100, change=+12.0%</text>
<line x1='62' y1='318.0' x2='902' y2='318.0' stroke='#e6e8eb'/><text x='12' y='322.0' font-family='Arial' font-size='11' fill='#68707a'>98.8</text><line x1='62' y1='250.5' x2='902' y2='250.5' stroke='#e6e8eb'/><text x='12' y='254.5' font-family='Arial' font-size='11' fill='#68707a'>102.4</text><line x1='62' y1='183.0' x2='902' y2='183.0' stroke='#e6e8eb'/><text x='12' y='187.0' font-family='Arial' font-size='11' fill='#68707a'>106.0</text><line x1='62' y1='115.5' x2='902' y2='115.5' stroke='#e6e8eb'/><text x='12' y='119.5' font-family='Arial' font-size='11' fill='#68707a'>109.6</text><line x1='62' y1='48.0' x2='902' y2='48.0' stroke='#e6e8eb'/><text x='12' y='52.0' font-family='Arial' font-size='11' fill='#68707a'>113.2</text>
<line x1="62" y1="48" x2="62" y2="318" stroke="#c8cdd2"/>
<line x1="62" y1="318" x2="902" y2="318" stroke="#c8cdd2"/>
<polyline points="62.0,295.5 68.6,295.2 75.1,294.3 81.7,283.5 88.2,279.7 94.8,264.0 101.4,266.9 107.9,273.0 114.5,273.6 121.1,285.7 127.6,291.3 134.2,291.4 140.8,286.8 147.3,262.4 153.9,258.7 160.4,255.0 167.0,254.4 173.6,247.2 180.1,258.2 186.7,253.2 193.2,254.3 199.8,249.5 206.4,245.5 212.9,238.3 219.5,241.6 226.1,246.5 232.6,234.7 239.2,230.3 245.8,222.7 252.3,232.4 258.9,224.6 265.4,241.7 272.0,227.4 278.6,221.3 285.1,211.0 291.7,185.6 298.2,206.3 304.8,216.6 311.4,217.8 317.9,197.2 324.5,194.2 331.1,196.8 337.6,191.0 344.2,167.6 350.8,160.9 357.3,185.2 363.9,145.4 370.4,145.5 377.0,169.4 383.6,170.9 390.1,187.5 396.7,192.7 403.2,181.2 409.8,184.5 416.4,175.5 422.9,165.9 429.5,160.8 436.1,171.7 442.6,155.6 449.2,134.4 455.8,143.8 462.3,146.2 468.9,124.4 475.4,136.4 482.0,136.6 488.6,148.0 495.1,149.7 501.7,127.5 508.2,109.3 514.8,93.8 521.4,107.9 527.9,123.6 534.5,111.3 541.1,102.1 547.6,113.8 554.2,122.9 560.8,127.2 567.3,137.7 573.9,137.3 580.4,144.4 587.0,156.6 593.6,160.5 600.1,167.1 606.7,161.7 613.2,159.1 619.8,152.5 626.4,156.3 632.9,148.1 639.5,113.9 646.1,125.6 652.6,109.1 659.2,118.0 665.8,100.7 672.3,97.5 678.9,83.7 685.4,83.5 692.0,91.4 698.6,83.7 705.1,82.1 711.7,80.2 718.2,85.2 724.8,83.2 731.4,72.1 737.9,70.6 744.5,80.0 751.1,100.6 757.6,99.6 764.2,107.6 770.8,90.5 777.3,97.0 783.9,100.3 790.4,92.5 797.0,84.1 803.6,80.9 810.1,73.8 816.7,78.9 823.2,96.6 829.8,84.5 836.4,101.6 842.9,90.5 849.5,89.0 856.1,87.3 862.6,84.5 869.2,79.4 875.8,86.3 882.3,81.7 888.9,75.1 895.4,76.0 902.0,70.5" fill="none" stroke="#1f77b4" stroke-width="2.2" stroke-linejoin="round" stroke-linecap="round"/>
<text x="62" y="346" font-family="Arial" font-size="11" fill="#68707a">2025-12-03</text>
<text x="834" y="346" font-family="Arial" font-size="11" fill="#68707a">2026-06-03</text>
<text x="792" y="28" font-family="Arial" font-size="12" fill="#1f77b4">114.67</text>
</svg>
