<svg xmlns="http://www.w3.org/2000/svg" width="920" height="360" viewBox="0 0 920 360">
<rect width="100%" height="100%" fill="#ffffff"/>
<text x="24" y="26" font-family="Arial" font-size="18" font-weight="700" fill="#101418">AUDJPY 12m</text>
<text x="24" y="44" font-family="Arial" font-size="12" fill="#68707a">Forex cross; normalized close, start=100, change=+23.9%</text>
<line x1='62' y1='318.0' x2='902' y2='318.0' stroke='#e6e8eb'/><text x='12' y='322.0' font-family='Arial' font-size='11' fill='#68707a'>97.6</text><line x1='62' y1='250.5' x2='902' y2='250.5' stroke='#e6e8eb'/><text x='12' y='254.5' font-family='Arial' font-size='11' fill='#68707a'>104.8</text><line x1='62' y1='183.0' x2='902' y2='183.0' stroke='#e6e8eb'/><text x='12' y='187.0' font-family='Arial' font-size='11' fill='#68707a'>111.9</text><line x1='62' y1='115.5' x2='902' y2='115.5' stroke='#e6e8eb'/><text x='12' y='119.5' font-family='Arial' font-size='11' fill='#68707a'>119.1</text><line x1='62' y1='48.0' x2='902' y2='48.0' stroke='#e6e8eb'/><text x='12' y='52.0' font-family='Arial' font-size='11' fill='#68707a'>126.3</text>
<line x1="62" y1="48" x2="62" y2="318" stroke="#c8cdd2"/>
<line x1="62" y1="318" x2="902" y2="318" stroke="#c8cdd2"/>
<polyline points="62.0,295.5 65.2,291.1 68.5,294.9 71.7,286.6 75.0,280.4 78.2,278.8 81.5,275.6 84.7,282.3 87.9,286.4 91.2,285.1 94.4,279.0 97.7,278.9 100.9,277.7 104.2,279.1 107.4,278.3 110.6,275.6 113.9,279.6 117.1,275.8 120.4,273.6 123.6,276.9 126.9,275.1 130.1,277.3 133.4,276.1 136.6,269.1 139.8,274.1 143.1,271.6 146.3,262.5 149.6,265.7 152.8,255.9 156.1,251.8 159.3,253.3 162.5,250.8 165.8,255.0 169.0,255.9 172.3,253.9 175.5,258.3 178.8,258.5 182.0,254.4 185.2,250.8 188.5,249.2 191.7,252.2 195.0,253.7 198.2,258.5 201.5,251.1 204.7,267.5 207.9,270.4 211.2,265.6 214.4,263.9 217.7,262.4 220.9,258.1 224.2,255.5 227.4,255.7 230.6,256.6 233.9,261.0 237.1,261.7 240.4,259.9 243.6,267.1 246.9,272.6 250.1,267.3 253.4,266.0 256.6,262.5 259.8,262.8 263.1,261.3 266.3,261.7 269.6,258.0 272.8,256.1 276.1,252.1 279.3,251.9 282.5,252.7 285.8,248.0 289.0,248.1 292.3,249.9 295.5,245.0 298.8,238.8 302.0,238.4 305.2,236.5 308.5,240.8 311.7,243.1 315.0,241.1 318.2,244.5 321.5,245.2 324.7,246.4 327.9,240.5 331.2,240.6 334.4,241.3 337.7,242.7 340.9,241.9 344.2,247.4 347.4,249.6 350.6,233.7 353.9,225.3 357.1,219.3 360.4,214.4 363.6,216.2 366.9,232.0 370.1,227.4 373.4,235.1 376.6,237.7 379.8,247.2 383.1,239.1 386.3,237.7 389.6,234.0 392.8,234.2 396.1,225.8 399.3,219.8 402.5,218.4 405.8,220.7 409.0,215.3 412.3,210.2 415.5,210.4 418.8,211.5 422.0,224.0 425.2,216.8 428.5,228.3 431.7,219.7 435.0,212.7 438.2,213.7 441.5,208.4 444.7,210.2 447.9,209.8 451.2,211.6 454.4,207.3 457.7,200.7 460.9,204.6 464.2,207.0 467.4,204.9 470.6,209.0 473.9,200.2 477.1,198.1 480.4,198.0 483.6,201.9 486.9,195.2 490.1,195.0 493.4,194.5 496.6,188.6 499.8,186.5 503.1,177.7 506.3,179.4 509.6,182.7 512.8,183.0 516.1,189.7 519.3,192.9 522.5,192.9 525.8,190.4 529.0,176.9 532.3,174.8 535.5,172.8 538.8,172.4 542.0,168.4 545.2,174.5 548.5,171.8 551.7,172.4 555.0,169.7 558.2,167.5 561.5,163.5 564.7,165.3 567.9,168.0 571.2,161.5 574.4,159.1 577.7,154.9 580.9,160.2 584.2,155.9 587.4,165.4 590.6,157.4 593.9,154.1 597.1,148.4 600.4,134.3 603.6,145.8 606.9,151.5 610.1,152.1 613.4,140.7 616.6,139.1 619.8,140.5 623.1,137.3 626.3,124.3 629.6,120.6 632.8,134.0 636.1,112.0 639.3,112.0 642.5,125.3 645.8,126.2 649.0,135.3 652.3,138.2 655.5,131.9 658.8,133.7 662.0,128.7 665.2,123.4 668.5,120.6 671.7,126.6 675.0,117.7 678.2,105.9 681.5,111.1 684.7,112.5 687.9,100.4 691.2,107.0 694.4,107.1 697.7,113.5 700.9,114.4 704.2,102.1 707.4,92.0 710.6,83.4 713.9,91.2 717.1,99.9 720.4,93.1 723.6,88.0 726.9,94.5 730.1,99.6 733.4,101.9 736.6,107.7 739.8,107.5 743.1,111.5 746.3,118.2 749.6,120.4 752.8,124.0 756.1,121.0 759.3,119.6 762.5,116.0 765.8,118.1 769.0,113.5 772.3,94.5 775.5,101.0 778.8,91.9 782.0,96.8 785.2,87.3 788.5,85.5 791.7,77.8 795.0,77.7 798.2,82.1 801.5,77.8 804.7,76.9 807.9,75.9 811.2,78.7 814.4,77.5 817.7,71.4 820.9,70.6 824.2,75.7 827.4,87.2 830.6,86.6 833.9,91.1 837.1,81.6 840.4,85.2 843.6,87.0 846.9,82.7 850.1,78.0 853.4,76.3 856.6,72.3 859.8,75.2 863.1,84.9 866.3,78.3 869.6,87.7 872.8,81.6 876.1,80.7 879.3,79.8 882.5,78.2 885.8,75.4 889.0,79.2 892.3,76.7 895.5,73.1 898.8,73.6 902.0,70.5" fill="none" stroke="#1f77b4" stroke-width="2.2" stroke-linejoin="round" stroke-linecap="round"/>
<text x="62" y="346" font-family="Arial" font-size="11" fill="#68707a">2025-06-03</text>
<text x="834" y="346" font-family="Arial" font-size="11" fill="#68707a">2026-06-03</text>
<text x="792" y="28" font-family="Arial" font-size="12" fill="#1f77b4">114.67</text>
</svg>
