<svg xmlns="http://www.w3.org/2000/svg" width="920" height="360" viewBox="0 0 920 360">
<rect width="100%" height="100%" fill="#ffffff"/>
<text x="24" y="26" font-family="Arial" font-size="18" font-weight="700" fill="#101418">AUDNZD 6m</text>
<text x="24" y="44" font-family="Arial" font-size="12" fill="#68707a">Forex cross; normalized close, start=100, change=+5.8%</text>
<line x1='62' y1='318.0' x2='902' y2='318.0' stroke='#e6e8eb'/><text x='12' y='322.0' font-family='Arial' font-size='11' fill='#68707a'>99.1</text><line x1='62' y1='250.5' x2='902' y2='250.5' stroke='#e6e8eb'/><text x='12' y='254.5' font-family='Arial' font-size='11' fill='#68707a'>101.3</text><line x1='62' y1='183.0' x2='902' y2='183.0' stroke='#e6e8eb'/><text x='12' y='187.0' font-family='Arial' font-size='11' fill='#68707a'>103.5</text><line x1='62' y1='115.5' x2='902' y2='115.5' stroke='#e6e8eb'/><text x='12' y='119.5' font-family='Arial' font-size='11' fill='#68707a'>105.7</text><line x1='62' y1='48.0' x2='902' y2='48.0' stroke='#e6e8eb'/><text x='12' y='52.0' font-family='Arial' font-size='11' fill='#68707a'>107.9</text>
<line x1="62" y1="48" x2="62" y2="318" stroke="#c8cdd2"/>
<line x1="62" y1="318" x2="902" y2="318" stroke="#c8cdd2"/>
<polyline points="62.0,291.8 68.6,295.5 75.1,286.9 81.7,282.1 88.2,285.8 94.8,281.8 101.4,288.0 107.9,287.0 114.5,290.3 121.1,284.5 127.6,287.6 134.2,294.9 140.8,292.1 147.3,282.3 153.9,282.8 160.4,286.9 167.0,281.8 173.6,272.2 180.1,271.7 186.7,261.8 193.2,252.3 199.8,248.3 206.4,251.1 212.9,238.3 219.5,240.5 226.1,240.7 232.6,233.3 239.2,248.8 245.8,239.6 252.3,242.8 258.9,233.7 265.4,250.9 272.0,256.9 278.6,264.8 285.1,259.8 291.7,262.2 298.2,252.0 304.8,257.1 311.4,252.8 317.9,250.0 324.5,252.0 331.1,265.7 337.6,259.4 344.2,245.9 350.8,235.4 357.3,239.7 363.9,235.8 370.4,224.2 377.0,222.2 383.6,203.4 390.1,212.0 396.7,220.1 403.2,220.0 409.8,222.3 416.4,197.2 422.9,193.3 429.5,185.9 436.1,185.5 442.6,189.0 449.2,180.4 455.8,177.6 462.3,185.6 468.9,159.0 475.4,156.3 482.0,166.6 488.6,174.3 495.1,169.1 501.7,164.2 508.2,139.6 514.8,119.5 521.4,120.8 527.9,121.6 534.5,124.2 541.1,108.2 547.6,109.5 554.2,126.1 560.8,139.4 567.3,154.9 573.9,148.3 580.4,155.7 587.0,156.8 593.6,154.9 600.1,151.3 606.7,137.9 613.2,133.1 619.8,120.8 626.4,117.8 632.9,116.2 639.5,95.5 646.1,121.8 652.6,118.8 659.2,118.9 665.8,119.9 672.3,123.6 678.9,107.2 685.4,100.4 692.0,100.4 698.6,104.8 705.1,108.4 711.7,111.8 718.2,95.8 724.8,99.1 731.4,100.5 737.9,88.9 744.5,89.3 751.1,93.2 757.6,88.2 764.2,89.0 770.8,89.6 777.3,103.4 783.9,107.0 790.4,101.6 797.0,104.8 803.6,101.5 810.1,83.0 816.7,84.9 823.2,83.9 829.8,88.5 836.4,96.0 842.9,96.9 849.5,101.2 856.1,94.2 862.6,82.8 869.2,70.5 875.8,115.7 882.3,131.2 888.9,143.0 895.4,125.6 902.0,112.9" fill="none" stroke="#1f77b4" stroke-width="2.2" stroke-linejoin="round" stroke-linecap="round"/>
<text x="62" y="346" font-family="Arial" font-size="11" fill="#68707a">2025-12-03</text>
<text x="834" y="346" font-family="Arial" font-size="11" fill="#68707a">2026-06-03</text>
<text x="792" y="28" font-family="Arial" font-size="12" fill="#1f77b4">1.2116</text>
</svg>
