<svg xmlns="http://www.w3.org/2000/svg" width="920" height="360" viewBox="0 0 920 360">
<rect width="100%" height="100%" fill="#ffffff"/>
<text x="24" y="26" font-family="Arial" font-size="18" font-weight="700" fill="#101418">AUDNZD 12m</text>
<text x="24" y="44" font-family="Arial" font-size="12" fill="#68707a">Forex cross; normalized close, start=100, change=+12.8%</text>
<line x1='62' y1='318.0' x2='902' y2='318.0' stroke='#e6e8eb'/><text x='12' y='322.0' font-family='Arial' font-size='11' fill='#68707a'>98.6</text><line x1='62' y1='250.5' x2='902' y2='250.5' stroke='#e6e8eb'/><text x='12' y='254.5' font-family='Arial' font-size='11' fill='#68707a'>102.8</text><line x1='62' y1='183.0' x2='902' y2='183.0' stroke='#e6e8eb'/><text x='12' y='187.0' font-family='Arial' font-size='11' fill='#68707a'>107.1</text><line x1='62' y1='115.5' x2='902' y2='115.5' stroke='#e6e8eb'/><text x='12' y='119.5' font-family='Arial' font-size='11' fill='#68707a'>111.4</text><line x1='62' y1='48.0' x2='902' y2='48.0' stroke='#e6e8eb'/><text x='12' y='52.0' font-family='Arial' font-size='11' fill='#68707a'>115.7</text>
<line x1="62" y1="48" x2="62" y2="318" stroke="#c8cdd2"/>
<line x1="62" y1="318" x2="902" y2="318" stroke="#c8cdd2"/>
<polyline points="62.0,295.5 65.2,292.5 68.5,292.1 71.7,291.1 75.0,288.9 78.2,291.5 81.5,291.4 84.7,289.9 87.9,292.8 91.2,293.2 94.4,293.4 97.7,292.3 100.9,288.4 104.2,286.0 107.4,285.6 110.6,286.6 113.9,286.8 117.1,291.4 120.4,288.0 123.6,291.4 126.9,288.2 130.1,289.5 133.4,285.7 136.6,284.6 139.8,283.4 143.1,283.1 146.3,274.8 149.6,273.2 152.8,270.7 156.1,265.6 159.3,264.0 162.5,265.6 165.8,263.5 169.0,268.0 172.3,267.9 175.5,267.5 178.8,269.1 182.0,270.4 185.2,269.0 188.5,271.4 191.7,269.6 195.0,267.2 198.2,270.9 201.5,270.1 204.7,267.0 207.9,266.5 211.2,264.8 214.4,263.2 217.7,268.2 220.9,264.5 224.2,262.9 227.4,263.8 230.6,264.7 233.9,261.8 237.1,260.4 240.4,263.3 243.6,266.2 246.9,251.7 250.1,252.7 253.4,249.8 256.6,246.1 259.8,245.1 263.1,241.9 266.3,243.2 269.6,243.7 272.8,243.0 276.1,240.4 279.3,239.1 282.5,236.4 285.8,238.8 289.0,243.5 292.3,241.7 295.5,237.9 298.8,235.6 302.0,233.2 305.2,231.5 308.5,233.4 311.7,227.0 315.0,224.9 318.2,219.5 321.5,221.6 324.7,219.0 327.9,210.5 331.2,207.7 334.4,208.1 337.7,202.2 340.9,198.3 344.2,204.6 347.4,208.3 350.6,211.0 353.9,209.9 357.1,206.5 360.4,201.3 363.6,198.4 366.9,206.9 370.1,200.8 373.4,204.6 376.6,201.4 379.8,211.0 383.1,208.6 386.3,207.5 389.6,213.1 392.8,212.4 396.1,211.0 399.3,207.5 402.5,205.6 405.8,201.2 409.0,197.7 412.3,196.6 415.5,193.4 418.8,190.8 422.0,185.2 425.2,186.3 428.5,184.6 431.7,176.3 435.0,172.9 438.2,178.2 441.5,178.0 444.7,176.9 447.9,183.0 451.2,187.0 454.4,184.3 457.7,176.7 460.9,179.3 464.2,182.4 467.4,181.7 470.6,183.9 473.9,193.9 477.1,198.1 480.4,196.0 483.6,195.5 486.9,191.6 490.1,193.6 493.4,188.9 496.6,186.3 499.8,188.3 503.1,186.1 506.3,189.5 509.6,188.9 512.8,190.8 516.1,187.6 519.3,189.3 522.5,193.2 525.8,191.8 529.0,186.3 532.3,186.6 535.5,188.9 538.8,186.1 542.0,180.8 545.2,180.6 548.5,175.1 551.7,170.0 555.0,167.7 558.2,169.3 561.5,162.3 564.7,163.5 567.9,163.6 571.2,159.6 574.4,168.0 577.7,163.0 580.9,164.8 584.2,159.8 587.4,169.2 590.6,172.5 593.9,176.8 597.1,174.1 600.4,175.4 603.6,169.8 606.9,172.6 610.1,170.2 613.4,168.7 616.6,169.8 619.8,177.3 623.1,173.8 626.3,166.5 629.6,160.7 632.8,163.1 636.1,160.9 639.3,154.6 642.5,153.5 645.8,143.2 649.0,147.9 652.3,152.3 655.5,152.3 658.8,153.6 662.0,139.8 665.2,137.7 668.5,133.7 671.7,133.4 675.0,135.3 678.2,130.6 681.5,129.1 684.7,133.4 687.9,118.9 691.2,117.4 694.4,123.1 697.7,127.3 700.9,124.4 704.2,121.8 707.4,108.3 710.6,97.3 713.9,98.0 717.1,98.5 720.4,99.9 723.6,91.1 726.9,91.9 730.1,100.9 733.4,108.2 736.6,116.7 739.8,113.1 743.1,117.1 746.3,117.7 749.6,116.7 752.8,114.7 756.1,107.4 759.3,104.8 762.5,98.0 765.8,96.4 769.0,95.5 772.3,84.2 775.5,98.5 778.8,96.9 782.0,97.0 785.2,97.5 788.5,99.6 791.7,90.6 795.0,86.9 798.2,86.9 801.5,89.3 804.7,91.2 807.9,93.1 811.2,84.4 814.4,86.1 817.7,86.9 820.9,80.5 824.2,80.8 827.4,82.9 830.6,80.2 833.9,80.6 837.1,80.9 840.4,88.5 843.6,90.5 846.9,87.5 850.1,89.3 853.4,87.5 856.6,77.3 859.8,78.4 863.1,77.8 866.3,80.3 869.6,84.5 872.8,84.9 876.1,87.3 879.3,83.4 882.5,77.2 885.8,70.5 889.0,95.2 892.3,103.7 895.5,110.2 898.8,100.6 902.0,93.7" fill="none" stroke="#1f77b4" stroke-width="2.2" stroke-linejoin="round" stroke-linecap="round"/>
<text x="62" y="346" font-family="Arial" font-size="11" fill="#68707a">2025-06-03</text>
<text x="834" y="346" font-family="Arial" font-size="11" fill="#68707a">2026-06-03</text>
<text x="792" y="28" font-family="Arial" font-size="12" fill="#1f77b4">1.2116</text>
</svg>
