<svg xmlns="http://www.w3.org/2000/svg" width="920" height="360" viewBox="0 0 920 360">
<rect width="100%" height="100%" fill="#ffffff"/>
<text x="24" y="26" font-family="Arial" font-size="18" font-weight="700" fill="#101418">AUDUSD 6m</text>
<text x="24" y="44" font-family="Arial" font-size="12" fill="#68707a">Forex major; normalized close, start=100, change=+9.1%</text>
<line x1='62' y1='318.0' x2='902' y2='318.0' stroke='#e6e8eb'/><text x='12' y='322.0' font-family='Arial' font-size='11' fill='#68707a'>99.0</text><line x1='62' y1='250.5' x2='902' y2='250.5' stroke='#e6e8eb'/><text x='12' y='254.5' font-family='Arial' font-size='11' fill='#68707a'>102.1</text><line x1='62' y1='183.0' x2='902' y2='183.0' stroke='#e6e8eb'/><text x='12' y='187.0' font-family='Arial' font-size='11' fill='#68707a'>105.2</text><line x1='62' y1='115.5' x2='902' y2='115.5' stroke='#e6e8eb'/><text x='12' y='119.5' font-family='Arial' font-size='11' fill='#68707a'>108.3</text><line x1='62' y1='48.0' x2='902' y2='48.0' stroke='#e6e8eb'/><text x='12' y='52.0' font-family='Arial' font-size='11' fill='#68707a'>111.4</text>
<line x1="62" y1="48" x2="62" y2="318" stroke="#c8cdd2"/>
<line x1="62" y1="318" x2="902" y2="318" stroke="#c8cdd2"/>
<polyline points="62.0,295.5 68.6,285.2 75.1,284.7 81.7,275.1 88.2,277.8 94.8,273.3 101.4,262.2 107.9,265.3 114.5,271.2 121.1,273.0 127.6,275.6 134.2,286.3 140.8,282.3 147.3,283.4 153.9,267.5 160.4,253.2 167.0,251.9 173.6,249.1 180.1,255.3 186.7,254.5 193.2,261.0 199.8,259.1 206.4,249.4 212.9,241.6 219.5,246.5 226.1,253.4 232.6,258.5 239.2,251.2 245.8,259.2 252.3,259.5 258.9,252.4 265.4,257.9 272.0,250.5 278.6,243.3 285.1,235.7 291.7,207.4 298.2,183.1 304.8,182.9 311.4,156.1 317.9,141.6 324.5,139.1 331.1,172.5 337.6,169.4 344.2,147.3 350.8,156.6 357.3,182.3 363.9,143.6 370.4,127.1 377.0,130.0 383.6,113.3 390.1,125.9 396.7,131.5 403.2,130.6 409.8,127.2 416.4,140.3 422.9,136.2 429.5,117.9 436.1,134.7 442.6,134.6 449.2,114.9 455.8,121.1 462.3,135.5 468.9,119.8 475.4,141.3 482.0,129.6 488.6,151.0 495.1,165.9 501.7,132.1 508.2,114.8 514.8,112.0 521.4,129.8 527.9,152.8 534.5,132.1 541.1,118.7 547.6,145.0 554.2,127.9 560.8,152.1 567.3,152.7 573.9,155.7 580.4,173.6 587.0,191.9 593.6,204.0 600.1,205.6 606.7,181.0 613.2,179.8 619.8,183.9 626.4,192.5 632.9,182.2 639.5,129.4 646.1,141.7 652.6,129.7 659.2,148.1 665.8,121.9 672.3,112.0 678.9,96.7 685.4,102.2 692.0,110.1 698.6,97.2 705.1,103.1 711.7,102.5 718.2,111.9 724.8,107.3 731.4,91.7 737.9,92.9 744.5,111.4 751.1,88.4 757.6,84.4 764.2,99.4 770.8,87.4 777.3,77.1 783.9,85.8 790.4,76.4 797.0,73.4 803.6,76.2 810.1,70.5 816.7,83.9 823.2,111.7 829.8,97.6 836.4,119.5 842.9,105.2 849.5,105.7 856.1,102.8 862.6,98.5 869.2,98.3 875.8,110.7 882.3,100.5 888.9,95.1 895.4,100.5 902.0,97.0" fill="none" stroke="#1f77b4" stroke-width="2.2" stroke-linejoin="round" stroke-linecap="round"/>
<text x="62" y="346" font-family="Arial" font-size="11" fill="#68707a">2025-12-03</text>
<text x="834" y="346" font-family="Arial" font-size="11" fill="#68707a">2026-06-03</text>
<text x="792" y="28" font-family="Arial" font-size="12" fill="#1f77b4">0.71746</text>
</svg>
