<svg xmlns="http://www.w3.org/2000/svg" width="920" height="360" viewBox="0 0 920 360">
<rect width="100%" height="100%" fill="#ffffff"/>
<text x="24" y="26" font-family="Arial" font-size="18" font-weight="700" fill="#101418">AUDUSD 12m</text>
<text x="24" y="44" font-family="Arial" font-size="12" fill="#68707a">Forex major; normalized close, start=100, change=+10.4%</text>
<line x1='62' y1='318.0' x2='902' y2='318.0' stroke='#e6e8eb'/><text x='12' y='322.0' font-family='Arial' font-size='11' fill='#68707a'>97.6</text><line x1='62' y1='250.5' x2='902' y2='250.5' stroke='#e6e8eb'/><text x='12' y='254.5' font-family='Arial' font-size='11' fill='#68707a'>101.4</text><line x1='62' y1='183.0' x2='902' y2='183.0' stroke='#e6e8eb'/><text x='12' y='187.0' font-family='Arial' font-size='11' fill='#68707a'>105.3</text><line x1='62' y1='115.5' x2='902' y2='115.5' stroke='#e6e8eb'/><text x='12' y='119.5' font-family='Arial' font-size='11' fill='#68707a'>109.1</text><line x1='62' y1='48.0' x2='902' y2='48.0' stroke='#e6e8eb'/><text x='12' y='52.0' font-family='Arial' font-size='11' fill='#68707a'>112.9</text>
<line x1="62" y1="48" x2="62" y2="318" stroke="#c8cdd2"/>
<line x1="62" y1="318" x2="902" y2="318" stroke="#c8cdd2"/>
<polyline points="62.0,275.7 65.2,284.5 68.5,277.8 71.7,272.4 75.0,275.2 78.2,270.4 81.5,267.9 84.7,272.7 87.9,267.7 91.2,275.3 94.4,272.3 97.7,280.8 100.9,273.3 104.2,278.3 107.4,289.7 110.6,281.3 113.9,276.4 117.1,269.0 120.4,262.7 123.6,266.3 126.9,254.1 130.1,252.7 133.4,252.8 136.6,254.3 139.8,261.2 143.1,273.6 146.3,268.6 149.6,265.6 152.8,249.8 156.1,254.1 159.3,263.2 162.5,270.1 165.8,268.5 169.0,275.8 172.3,272.0 175.5,267.7 178.8,260.5 182.0,247.1 185.2,248.9 188.5,255.5 191.7,268.8 195.0,271.7 198.2,289.6 201.5,294.5 204.7,283.7 207.9,282.1 211.2,282.6 214.4,275.2 217.7,268.3 220.9,270.5 224.2,271.4 227.4,267.2 230.6,261.3 233.9,276.0 237.1,271.8 240.4,276.7 243.6,287.6 246.9,292.6 250.1,295.5 253.4,279.4 256.6,280.4 259.8,276.4 263.1,272.2 266.3,266.5 269.6,263.5 272.8,259.9 276.1,270.3 279.3,263.2 282.5,269.3 285.8,260.5 289.0,248.7 292.3,252.3 295.5,242.9 298.8,229.7 302.0,234.9 305.2,228.4 308.5,224.0 311.7,233.9 315.0,243.3 318.2,251.1 321.5,247.6 324.7,248.8 327.9,251.7 331.2,265.2 334.4,260.6 337.7,253.1 340.9,245.3 344.2,244.0 347.4,248.7 350.6,250.0 353.9,243.7 357.1,253.5 360.4,252.4 363.6,258.7 366.9,275.7 370.1,272.1 373.4,277.7 376.6,273.1 379.8,280.1 383.1,274.8 386.3,270.9 389.6,277.5 392.8,278.0 396.1,271.3 399.3,266.1 402.5,259.4 405.8,252.2 409.0,254.5 412.3,259.2 415.5,262.9 418.8,264.1 422.0,279.2 425.2,272.6 428.5,279.7 431.7,274.6 435.0,265.8 438.2,267.3 441.5,265.4 444.7,267.4 447.9,266.3 451.2,277.3 454.4,272.8 457.7,278.0 460.9,289.0 464.2,285.5 467.4,284.6 470.6,283.3 473.9,268.5 477.1,265.6 480.4,261.4 483.6,263.4 486.9,255.3 490.1,246.8 493.4,246.4 496.6,238.6 499.8,240.8 503.1,237.0 506.3,228.0 509.6,230.5 512.8,235.3 516.1,236.8 519.3,238.9 522.5,247.8 525.8,244.4 529.0,245.4 532.3,232.3 535.5,220.5 538.8,219.5 542.0,217.2 545.2,222.3 548.5,221.6 551.7,226.9 555.0,225.4 558.2,217.4 561.5,211.0 564.7,215.0 567.9,220.8 571.2,224.9 574.4,218.9 577.7,225.5 580.9,225.7 584.2,219.9 587.4,224.4 590.6,218.4 593.9,212.4 597.1,206.2 600.4,182.9 603.6,163.0 606.9,162.8 610.1,140.8 613.4,128.9 616.6,126.8 619.8,154.2 623.1,151.7 626.3,133.6 629.6,141.2 632.8,162.3 636.1,130.5 639.3,117.0 642.5,119.4 645.8,105.7 649.0,116.0 652.3,120.6 655.5,119.9 658.8,117.1 662.0,127.8 665.2,124.4 668.5,109.5 671.7,123.2 675.0,123.1 678.2,107.0 681.5,112.1 684.7,123.9 687.9,111.0 691.2,128.6 694.4,119.1 697.7,136.6 700.9,148.8 704.2,121.1 707.4,106.8 710.6,104.6 713.9,119.2 717.1,138.1 720.4,121.1 723.6,110.1 726.9,131.7 730.1,117.7 733.4,137.6 736.6,138.0 739.8,140.5 743.1,155.2 746.3,170.2 749.6,180.1 752.8,181.5 756.1,161.2 759.3,160.3 762.5,163.7 765.8,170.7 769.0,162.2 772.3,118.8 775.5,129.0 778.8,119.1 782.0,134.3 785.2,112.7 788.5,104.6 791.7,92.0 795.0,96.5 798.2,103.0 801.5,92.4 804.7,97.3 807.9,96.8 811.2,104.5 814.4,100.7 817.7,87.9 820.9,88.9 824.2,104.1 827.4,85.2 830.6,81.9 833.9,94.2 837.1,84.4 840.4,75.9 843.6,83.1 846.9,75.4 850.1,72.9 853.4,75.2 856.6,70.5 859.8,81.5 863.1,104.4 866.3,92.8 869.6,110.8 872.8,99.0 876.1,99.4 879.3,97.0 882.5,93.5 885.8,93.3 889.0,103.5 892.3,95.1 895.5,90.7 898.8,95.1 902.0,92.3" fill="none" stroke="#1f77b4" stroke-width="2.2" stroke-linejoin="round" stroke-linecap="round"/>
<text x="62" y="346" font-family="Arial" font-size="11" fill="#68707a">2025-06-03</text>
<text x="834" y="346" font-family="Arial" font-size="11" fill="#68707a">2026-06-03</text>
<text x="792" y="28" font-family="Arial" font-size="12" fill="#1f77b4">0.71746</text>
</svg>
