<svg xmlns="http://www.w3.org/2000/svg" width="920" height="360" viewBox="0 0 920 360">
<rect width="100%" height="100%" fill="#ffffff"/>
<text x="24" y="26" font-family="Arial" font-size="18" font-weight="700" fill="#101418">BRENT 6m</text>
<text x="24" y="44" font-family="Arial" font-size="12" fill="#68707a">Energy; normalized close, start=100, change=+54.9%</text>
<line x1='62' y1='318.0' x2='902' y2='318.0' stroke='#e6e8eb'/><text x='12' y='322.0' font-family='Arial' font-size='11' fill='#68707a'>84.5</text><line x1='62' y1='250.5' x2='902' y2='250.5' stroke='#e6e8eb'/><text x='12' y='254.5' font-family='Arial' font-size='11' fill='#68707a'>113.0</text><line x1='62' y1='183.0' x2='902' y2='183.0' stroke='#e6e8eb'/><text x='12' y='187.0' font-family='Arial' font-size='11' fill='#68707a'>141.4</text><line x1='62' y1='115.5' x2='902' y2='115.5' stroke='#e6e8eb'/><text x='12' y='119.5' font-family='Arial' font-size='11' fill='#68707a'>169.9</text><line x1='62' y1='48.0' x2='902' y2='48.0' stroke='#e6e8eb'/><text x='12' y='52.0' font-family='Arial' font-size='11' fill='#68707a'>198.3</text>
<line x1="62" y1="48" x2="62" y2="318" stroke="#c8cdd2"/>
<line x1="62" y1="318" x2="902" y2="318" stroke="#c8cdd2"/>
<polyline points="62.0,281.3 68.8,279.1 75.5,277.2 82.3,282.0 89.1,284.1 95.9,283.0 102.6,286.6 109.4,287.2 116.2,289.3 123.0,295.5 129.7,292.6 136.5,292.1 143.3,289.6 150.1,283.6 156.8,282.4 163.6,282.9 170.4,289.0 177.2,284.1 183.9,284.1 190.7,288.2 197.5,288.6 204.3,284.7 211.0,288.8 217.8,291.6 224.6,283.9 231.4,278.8 238.1,276.8 244.9,270.7 251.7,266.7 258.5,277.2 265.2,275.8 272.0,272.8 278.8,271.6 285.5,276.0 292.3,269.1 299.1,270.2 305.9,262.8 312.6,259.6 319.4,250.9 326.2,250.9 333.0,267.6 339.7,263.7 346.5,255.6 353.3,262.8 360.1,260.9 366.8,257.2 373.6,258.1 380.4,255.8 387.2,262.9 393.9,262.1 400.7,263.3 407.5,252.2 414.3,247.3 421.0,246.9 427.8,247.9 434.6,250.6 441.4,250.3 448.1,250.7 454.9,244.2 461.7,224.2 468.5,210.4 475.2,210.4 482.0,195.2 488.8,167.6 495.5,143.9 502.3,186.2 509.1,170.3 515.9,138.2 522.6,128.1 529.4,139.2 536.2,127.0 543.0,112.0 549.7,107.2 556.5,93.8 563.3,140.2 570.1,123.0 576.8,131.6 583.6,109.6 590.4,92.4 597.2,91.6 603.9,70.5 610.7,135.6 617.5,105.8 624.3,103.0 631.0,104.9 637.8,159.8 644.6,155.4 651.4,158.1 658.1,142.4 664.9,159.7 671.7,159.2 678.5,142.3 685.2,176.4 692.0,157.1 698.8,145.7 705.5,132.7 712.3,120.8 719.1,119.8 725.9,108.8 732.6,97.3 739.4,71.7 746.2,86.9 753.0,109.0 759.7,85.3 766.5,102.6 773.3,135.2 780.1,139.7 786.8,135.1 793.6,124.0 800.4,110.6 807.2,118.7 813.9,118.3 820.7,104.9 827.5,94.2 834.3,97.3 841.0,121.0 847.8,130.2 854.6,126.6 861.4,141.6 868.1,161.6 874.9,163.8 881.7,170.1 888.5,159.0 895.2,155.1 902.0,151.0" fill="none" stroke="#1f77b4" stroke-width="2.2" stroke-linejoin="round" stroke-linecap="round"/>
<text x="62" y="346" font-family="Arial" font-size="11" fill="#68707a">2025-12-03</text>
<text x="834" y="346" font-family="Arial" font-size="11" fill="#68707a">2026-06-03</text>
<text x="792" y="28" font-family="Arial" font-size="12" fill="#1f77b4">97.08</text>
</svg>
