<svg xmlns="http://www.w3.org/2000/svg" width="920" height="360" viewBox="0 0 920 360">
<rect width="100%" height="100%" fill="#ffffff"/>
<text x="24" y="26" font-family="Arial" font-size="18" font-weight="700" fill="#101418">BRENT 12m</text>
<text x="24" y="44" font-family="Arial" font-size="12" fill="#68707a">Energy; normalized close, start=100, change=+47.9%</text>
<line x1='62' y1='318.0' x2='902' y2='318.0' stroke='#e6e8eb'/><text x='12' y='322.0' font-family='Arial' font-size='11' fill='#68707a'>80.7</text><line x1='62' y1='250.5' x2='902' y2='250.5' stroke='#e6e8eb'/><text x='12' y='254.5' font-family='Arial' font-size='11' fill='#68707a'>107.9</text><line x1='62' y1='183.0' x2='902' y2='183.0' stroke='#e6e8eb'/><text x='12' y='187.0' font-family='Arial' font-size='11' fill='#68707a'>135.1</text><line x1='62' y1='115.5' x2='902' y2='115.5' stroke='#e6e8eb'/><text x='12' y='119.5' font-family='Arial' font-size='11' fill='#68707a'>162.2</text><line x1='62' y1='48.0' x2='902' y2='48.0' stroke='#e6e8eb'/><text x='12' y='52.0' font-family='Arial' font-size='11' fill='#68707a'>189.4</text>
<line x1="62" y1="48" x2="62" y2="318" stroke="#c8cdd2"/>
<line x1="62" y1="318" x2="902" y2="318" stroke="#c8cdd2"/>
<polyline points="62.0,270.1 65.3,273.0 68.7,271.2 72.0,266.9 75.3,264.8 78.7,265.4 82.0,254.4 85.3,256.0 88.7,237.5 92.0,241.3 95.3,229.1 98.7,228.2 102.0,227.0 105.3,247.9 108.7,264.4 112.0,262.3 115.3,262.1 118.7,262.0 122.0,262.6 125.3,264.5 128.7,256.9 132.0,258.1 135.3,260.0 138.7,255.1 142.0,253.0 145.3,252.8 148.7,258.7 152.0,252.2 155.3,256.5 158.7,258.4 162.0,259.2 165.3,255.4 168.7,256.3 172.0,256.5 175.3,258.9 178.7,259.2 182.0,256.7 185.3,259.5 188.7,253.4 192.0,244.0 195.3,241.3 198.7,244.0 202.0,254.8 205.3,258.2 208.7,262.5 212.0,265.3 215.3,267.1 218.7,266.5 222.0,266.3 225.3,268.2 228.7,270.1 232.0,265.5 235.3,269.3 238.7,266.4 242.0,269.5 245.3,265.5 248.7,262.4 252.0,262.1 255.3,258.1 258.7,264.1 262.0,260.9 265.3,258.8 268.7,260.7 272.0,256.8 275.3,262.6 278.7,264.9 282.0,270.6 285.3,268.6 288.7,267.2 292.0,263.1 295.3,267.3 298.7,264.9 302.0,263.2 305.3,259.3 308.7,261.3 312.0,263.2 315.3,266.1 318.7,266.5 322.0,262.5 325.3,256.2 328.7,255.7 332.0,253.1 335.3,261.2 338.7,264.8 342.0,271.2 345.3,275.9 348.7,274.3 352.0,270.7 355.3,270.8 358.7,267.7 362.0,271.6 365.3,281.1 368.7,278.8 372.0,282.4 375.3,284.2 378.7,287.4 382.0,286.5 385.3,287.6 388.7,286.4 392.0,281.6 395.3,268.7 398.7,268.9 402.0,270.1 405.3,274.8 408.7,272.8 412.0,272.5 415.3,272.2 418.7,272.9 422.0,274.6 425.3,278.1 428.7,278.6 432.0,277.7 435.3,276.0 438.7,271.9 442.0,281.2 445.3,280.0 448.7,274.8 452.0,275.5 455.3,272.9 458.7,278.1 462.0,278.6 465.3,281.7 468.7,278.7 472.0,282.0 475.3,279.6 478.7,279.3 482.0,279.4 485.3,282.1 488.7,281.3 492.0,279.1 495.3,277.2 498.7,282.0 502.0,284.1 505.3,283.0 508.7,286.6 512.0,287.2 515.3,289.3 518.7,295.5 522.0,292.6 525.3,292.1 528.7,289.6 532.0,283.6 535.3,282.4 538.7,282.9 542.0,289.0 545.3,284.1 548.7,284.1 552.0,288.2 555.3,288.6 558.7,284.7 562.0,288.8 565.3,291.6 568.7,283.9 572.0,278.8 575.3,276.8 578.7,270.7 582.0,266.7 585.3,277.2 588.7,275.8 592.0,272.8 595.3,271.6 598.7,276.0 602.0,269.1 605.3,270.2 608.7,262.8 612.0,259.6 615.3,250.9 618.7,250.9 622.0,267.6 625.3,263.7 628.7,255.6 632.0,262.8 635.3,260.9 638.7,257.2 642.0,258.1 645.3,255.8 648.7,262.9 652.0,262.1 655.3,263.3 658.7,252.2 662.0,247.3 665.3,246.9 668.7,247.9 672.0,250.6 675.3,250.3 678.7,250.7 682.0,244.2 685.3,224.2 688.7,210.4 692.0,210.4 695.3,195.2 698.7,167.6 702.0,143.9 705.3,186.2 708.7,170.3 712.0,138.2 715.3,128.1 718.7,139.2 722.0,127.0 725.3,112.0 728.7,107.2 732.0,93.8 735.3,140.2 738.7,123.0 742.0,131.6 745.3,109.6 748.7,92.4 752.0,91.6 755.3,70.5 758.7,135.6 762.0,105.8 765.3,103.0 768.7,104.9 772.0,159.8 775.3,155.4 778.7,158.1 782.0,142.4 785.3,159.7 788.7,159.2 792.0,142.3 795.3,176.4 798.7,157.1 802.0,145.7 805.3,132.7 808.7,120.8 812.0,119.8 815.3,108.8 818.7,97.3 822.0,71.7 825.3,86.9 828.7,109.0 832.0,85.3 835.3,102.6 838.7,135.2 842.0,139.7 845.3,135.1 848.7,124.0 852.0,110.6 855.3,118.7 858.7,118.3 862.0,104.9 865.3,94.2 868.7,97.3 872.0,121.0 875.3,130.2 878.7,126.6 882.0,141.6 885.3,161.6 888.7,163.8 892.0,170.1 895.3,159.0 898.7,155.1 902.0,151.0" fill="none" stroke="#1f77b4" stroke-width="2.2" stroke-linejoin="round" stroke-linecap="round"/>
<text x="62" y="346" font-family="Arial" font-size="11" fill="#68707a">2025-06-03</text>
<text x="834" y="346" font-family="Arial" font-size="11" fill="#68707a">2026-06-03</text>
<text x="792" y="28" font-family="Arial" font-size="12" fill="#1f77b4">97.08</text>
</svg>
