<svg xmlns="http://www.w3.org/2000/svg" width="920" height="360" viewBox="0 0 920 360">
<rect width="100%" height="100%" fill="#ffffff"/>
<text x="24" y="26" font-family="Arial" font-size="18" font-weight="700" fill="#101418">BTCUSD 6m</text>
<text x="24" y="44" font-family="Arial" font-size="12" fill="#68707a">Crypto; normalized close, start=100, change=-29.0%</text>
<line x1='62' y1='318.0' x2='902' y2='318.0' stroke='#e6e8eb'/><text x='12' y='322.0' font-family='Arial' font-size='11' fill='#68707a'>63.4</text><line x1='62' y1='250.5' x2='902' y2='250.5' stroke='#e6e8eb'/><text x='12' y='254.5' font-family='Arial' font-size='11' fill='#68707a'>74.4</text><line x1='62' y1='183.0' x2='902' y2='183.0' stroke='#e6e8eb'/><text x='12' y='187.0' font-family='Arial' font-size='11' fill='#68707a'>85.3</text><line x1='62' y1='115.5' x2='902' y2='115.5' stroke='#e6e8eb'/><text x='12' y='119.5' font-family='Arial' font-size='11' fill='#68707a'>96.3</text><line x1='62' y1='48.0' x2='902' y2='48.0' stroke='#e6e8eb'/><text x='12' y='52.0' font-family='Arial' font-size='11' fill='#68707a'>107.3</text>
<line x1="62" y1="48" x2="62" y2="318" stroke="#c8cdd2"/>
<line x1="62" y1="318" x2="902" y2="318" stroke="#c8cdd2"/>
<polyline points="62.0,92.9 66.6,102.0 71.3,120.1 75.9,120.8 80.6,113.4 85.2,111.8 89.8,98.4 94.5,102.8 99.1,99.5 103.8,114.3 108.4,114.1 113.0,128.0 117.7,139.6 122.3,130.2 127.0,141.4 131.6,145.9 136.3,128.5 140.9,126.9 145.5,125.1 150.2,126.0 154.8,133.1 159.5,131.7 164.1,134.2 168.7,133.8 173.4,130.5 178.0,130.3 182.7,134.9 187.3,126.4 191.9,132.4 196.6,124.4 201.2,116.4 205.9,112.1 210.5,106.8 215.1,90.5 219.8,91.5 224.4,107.5 229.1,109.3 233.7,112.7 238.4,113.5 243.0,110.6 247.6,108.2 252.3,81.1 256.9,70.5 261.6,79.6 266.2,79.7 270.8,82.5 275.5,92.2 280.1,99.3 284.8,127.2 289.4,120.1 294.0,119.6 298.7,119.3 303.3,121.9 308.0,138.6 312.6,127.4 317.2,122.0 321.9,121.4 326.5,151.8 331.2,154.6 335.8,190.9 340.5,201.7 345.1,190.4 349.7,210.5 354.4,227.7 359.0,295.5 363.7,243.9 368.3,252.2 372.9,245.8 377.6,246.7 382.2,255.5 386.9,267.3 391.5,272.4 396.1,255.0 400.8,249.1 405.4,255.5 410.1,255.1 414.7,264.0 419.3,271.0 424.0,267.5 428.6,260.6 433.3,260.6 437.9,262.9 442.6,282.9 447.2,286.4 451.8,260.9 456.5,264.3 461.1,274.6 465.8,267.3 470.4,275.5 475.0,255.6 479.7,258.7 484.3,229.7 489.0,242.0 493.6,259.8 498.2,265.5 502.9,274.0 507.5,258.0 512.2,248.0 516.8,246.2 521.4,244.3 526.1,241.2 530.7,239.5 535.4,229.2 540.0,215.6 544.7,221.7 549.3,239.3 553.9,248.1 558.6,244.1 563.2,256.0 567.9,261.7 572.5,241.5 577.1,244.1 581.8,238.9 586.4,255.5 591.1,271.6 595.7,271.7 600.3,274.1 605.0,269.3 609.6,259.1 614.3,260.2 618.9,268.0 623.5,267.7 628.2,265.3 632.8,254.2 637.5,255.0 642.1,234.8 646.8,240.1 651.4,235.9 656.0,227.9 660.7,227.4 665.3,242.6 670.0,218.0 674.6,220.0 679.2,215.9 683.9,213.7 688.5,200.7 693.2,209.9 697.8,222.2 702.4,208.9 707.1,205.8 711.7,193.6 716.4,193.2 721.0,198.5 725.6,197.5 730.3,190.6 734.9,199.1 739.6,205.8 744.2,209.6 748.9,206.1 753.5,193.8 758.1,190.6 762.8,191.4 767.4,182.9 772.1,175.7 776.7,172.4 781.3,181.7 786.0,180.6 790.6,177.4 795.3,167.7 799.9,170.4 804.5,178.6 809.2,186.5 813.8,174.9 818.5,187.9 823.1,194.1 827.7,198.7 832.4,201.8 837.0,203.1 841.7,198.5 846.3,198.0 851.0,211.4 855.6,203.7 860.2,201.6 864.9,199.7 869.5,209.2 874.2,219.0 878.8,224.3 883.4,225.4 888.1,222.8 892.7,224.0 897.4,238.8 902.0,271.4" fill="none" stroke="#d62728" stroke-width="2.2" stroke-linejoin="round" stroke-linecap="round"/>
<text x="62" y="346" font-family="Arial" font-size="11" fill="#68707a">2025-12-03</text>
<text x="834" y="346" font-family="Arial" font-size="11" fill="#68707a">2026-06-03</text>
<text x="792" y="28" font-family="Arial" font-size="12" fill="#d62728">66361</text>
</svg>
