<svg xmlns="http://www.w3.org/2000/svg" width="920" height="360" viewBox="0 0 920 360">
<rect width="100%" height="100%" fill="#ffffff"/>
<text x="24" y="26" font-family="Arial" font-size="18" font-weight="700" fill="#101418">BTCUSD 12m</text>
<text x="24" y="44" font-family="Arial" font-size="12" fill="#68707a">Crypto; normalized close, start=100, change=-37.1%</text>
<line x1='62' y1='318.0' x2='902' y2='318.0' stroke='#e6e8eb'/><text x='12' y='322.0' font-family='Arial' font-size='11' fill='#68707a'>53.6</text><line x1='62' y1='250.5' x2='902' y2='250.5' stroke='#e6e8eb'/><text x='12' y='254.5' font-family='Arial' font-size='11' fill='#68707a'>71.2</text><line x1='62' y1='183.0' x2='902' y2='183.0' stroke='#e6e8eb'/><text x='12' y='187.0' font-family='Arial' font-size='11' fill='#68707a'>88.9</text><line x1='62' y1='115.5' x2='902' y2='115.5' stroke='#e6e8eb'/><text x='12' y='119.5' font-family='Arial' font-size='11' fill='#68707a'>106.6</text><line x1='62' y1='48.0' x2='902' y2='48.0' stroke='#e6e8eb'/><text x='12' y='52.0' font-family='Arial' font-size='11' fill='#68707a'>124.2</text>
<line x1="62" y1="48" x2="62" y2="318" stroke="#c8cdd2"/>
<line x1="62" y1="318" x2="902" y2="318" stroke="#c8cdd2"/>
<polyline points="62.0,140.6 64.3,143.1 66.6,154.5 68.9,144.3 71.2,139.9 73.5,139.2 75.8,122.9 78.2,123.1 80.5,128.8 82.8,138.8 85.1,138.2 87.4,140.4 89.7,140.1 92.0,135.6 94.3,143.6 96.6,142.5 98.9,143.3 101.2,148.3 103.5,152.1 105.8,156.7 108.2,140.0 110.5,138.3 112.8,133.6 115.1,135.0 117.4,134.6 119.7,133.7 122.0,129.8 124.3,134.4 126.6,139.6 128.9,128.1 131.2,125.3 133.5,131.1 135.8,130.4 138.2,126.8 140.5,130.2 142.8,127.8 145.1,119.2 147.4,102.3 149.7,96.7 152.0,97.0 154.3,90.9 156.6,88.3 158.9,95.8 161.2,92.3 163.5,90.3 165.8,95.0 168.2,95.2 170.5,97.5 172.8,97.0 175.1,87.7 177.4,92.2 179.7,93.7 182.0,96.3 184.3,95.2 186.6,89.7 188.9,95.3 191.2,95.3 193.5,95.6 195.8,103.1 198.2,112.0 200.5,114.8 202.8,108.7 205.1,105.6 207.4,109.0 209.7,105.8 212.0,96.8 214.3,99.7 216.6,100.4 218.9,90.2 221.2,92.3 223.5,87.1 225.8,75.6 228.2,93.7 230.5,97.2 232.8,96.8 235.1,97.0 237.4,101.3 239.7,113.7 242.0,108.5 244.3,115.2 246.6,99.1 248.9,104.5 251.2,111.5 253.5,123.5 255.8,117.5 258.2,119.6 260.5,114.8 262.8,129.8 265.1,128.3 267.4,130.4 269.7,126.7 272.0,119.6 274.3,117.7 276.6,121.4 278.9,121.6 281.2,123.2 283.5,119.8 285.8,116.5 288.2,118.4 290.5,109.7 292.8,104.0 295.1,101.9 297.4,102.4 299.7,104.4 302.0,104.3 304.3,99.2 306.6,100.5 308.9,98.1 311.2,103.4 313.5,103.2 315.8,104.8 318.2,114.0 320.5,116.7 322.8,111.9 325.1,127.4 327.4,125.0 329.7,125.1 332.0,116.3 334.3,108.0 336.6,109.3 338.9,92.6 341.2,85.3 343.5,79.5 345.8,78.9 348.2,75.0 350.5,70.5 352.8,82.5 355.1,75.6 357.4,81.5 359.7,112.3 362.0,121.1 364.3,105.2 366.6,104.9 368.9,112.7 371.2,121.2 373.5,130.6 375.8,136.8 378.2,134.2 380.5,128.8 382.8,121.9 385.1,129.5 387.4,132.4 389.7,123.7 392.0,120.2 394.3,118.0 396.6,107.8 398.9,109.1 401.2,113.3 403.5,123.8 405.8,130.1 408.2,125.6 410.5,123.8 412.8,121.7 415.1,136.5 417.4,154.5 419.7,146.1 422.0,155.5 424.3,148.0 426.6,152.0 428.9,143.1 431.2,138.5 433.5,149.4 435.8,154.2 438.2,161.4 440.5,180.6 442.8,176.4 445.1,181.4 447.4,188.9 449.7,185.8 452.0,191.2 454.3,208.7 456.6,214.3 458.9,215.9 461.2,208.1 463.5,202.8 465.8,206.2 468.2,194.6 470.5,191.9 472.8,193.2 475.1,193.4 477.4,195.1 479.7,209.9 482.0,191.6 484.3,183.7 486.6,188.7 488.9,198.7 491.2,199.2 493.5,195.0 495.8,194.2 498.2,186.8 500.5,189.2 502.8,187.4 505.1,195.5 507.4,195.4 509.7,203.1 512.0,209.5 514.3,204.3 516.6,210.5 518.9,213.0 521.2,203.4 523.5,202.5 525.8,201.5 528.2,202.0 530.5,205.9 532.8,205.2 535.1,206.5 537.4,206.3 539.7,204.5 542.0,204.4 544.3,206.9 546.6,202.2 548.9,205.5 551.2,201.1 553.5,196.7 555.8,194.3 558.2,191.4 560.5,182.4 562.8,183.0 565.1,191.8 567.4,192.8 569.7,194.7 572.0,195.1 574.3,193.5 576.6,192.2 578.9,177.2 581.2,171.4 583.5,176.4 585.8,176.5 588.2,178.0 590.5,183.3 592.8,187.3 595.1,202.6 597.4,198.8 599.7,198.5 602.0,198.3 604.3,199.7 606.6,208.9 608.9,202.8 611.2,199.8 613.5,199.5 615.8,216.2 618.2,217.8 620.5,237.8 622.8,243.7 625.1,237.5 627.4,248.6 629.7,258.1 632.0,295.5 634.3,267.0 636.6,271.6 638.9,268.1 641.2,268.6 643.5,273.4 645.8,279.9 648.2,282.7 650.5,273.2 652.8,269.9 655.1,273.4 657.4,273.2 659.7,278.1 662.0,282.0 664.3,280.1 666.6,276.3 668.9,276.3 671.2,277.5 673.5,288.6 675.8,290.5 678.2,276.4 680.5,278.3 682.8,284.0 685.1,279.9 687.4,284.5 689.7,273.5 692.0,275.2 694.3,259.2 696.6,266.0 698.9,275.8 701.2,278.9 703.5,283.7 705.8,274.8 708.2,269.3 710.5,268.3 712.8,267.2 715.1,265.5 717.4,264.6 719.7,258.9 722.0,251.4 724.3,254.8 726.6,264.5 728.9,269.4 731.2,267.1 733.5,273.7 735.8,276.9 738.2,265.7 740.5,267.2 742.8,264.3 745.1,273.4 747.4,282.3 749.7,282.4 752.0,283.7 754.3,281.0 756.6,275.4 758.9,276.0 761.2,280.3 763.5,280.2 765.8,278.9 768.2,272.7 770.5,273.2 772.8,262.0 775.1,265.0 777.4,262.6 779.7,258.2 782.0,258.0 784.3,266.3 786.6,252.8 788.9,253.9 791.2,251.6 793.5,250.4 795.8,243.2 798.2,248.3 800.5,255.1 802.8,247.7 805.1,246.0 807.4,239.3 809.7,239.1 812.0,242.0 814.3,241.4 816.6,237.6 818.9,242.3 821.2,246.0 823.5,248.1 825.8,246.2 828.2,239.4 830.5,237.6 832.8,238.1 835.1,233.4 837.4,229.4 839.7,227.6 842.0,232.7 844.3,232.1 846.6,230.4 848.9,225.0 851.2,226.5 853.5,231.0 855.8,235.4 858.2,229.0 860.5,236.2 862.8,239.6 865.1,242.1 867.4,243.8 869.7,244.6 872.0,242.0 874.3,241.7 876.6,249.1 878.9,244.8 881.2,243.7 883.5,242.6 885.8,247.9 888.2,253.3 890.5,256.2 892.8,256.8 895.1,255.4 897.4,256.1 899.7,264.3 902.0,282.2" fill="none" stroke="#d62728" stroke-width="2.2" stroke-linejoin="round" stroke-linecap="round"/>
<text x="62" y="346" font-family="Arial" font-size="11" fill="#68707a">2025-06-03</text>
<text x="834" y="346" font-family="Arial" font-size="11" fill="#68707a">2026-06-03</text>
<text x="792" y="28" font-family="Arial" font-size="12" fill="#d62728">66361</text>
</svg>
