<svg xmlns="http://www.w3.org/2000/svg" width="920" height="360" viewBox="0 0 920 360">
<rect width="100%" height="100%" fill="#ffffff"/>
<text x="24" y="26" font-family="Arial" font-size="18" font-weight="700" fill="#101418">CADCHF 6m</text>
<text x="24" y="44" font-family="Arial" font-size="12" fill="#68707a">Forex cross; normalized close, start=100, change=-0.9%</text>
<line x1='62' y1='318.0' x2='902' y2='318.0' stroke='#e6e8eb'/><text x='12' y='322.0' font-family='Arial' font-size='11' fill='#68707a'>97.2</text><line x1='62' y1='250.5' x2='902' y2='250.5' stroke='#e6e8eb'/><text x='12' y='254.5' font-family='Arial' font-size='11' fill='#68707a'>98.4</text><line x1='62' y1='183.0' x2='902' y2='183.0' stroke='#e6e8eb'/><text x='12' y='187.0' font-family='Arial' font-size='11' fill='#68707a'>99.5</text><line x1='62' y1='115.5' x2='902' y2='115.5' stroke='#e6e8eb'/><text x='12' y='119.5' font-family='Arial' font-size='11' fill='#68707a'>100.7</text><line x1='62' y1='48.0' x2='902' y2='48.0' stroke='#e6e8eb'/><text x='12' y='52.0' font-family='Arial' font-size='11' fill='#68707a'>101.9</text>
<line x1="62" y1="48" x2="62" y2="318" stroke="#c8cdd2"/>
<line x1="62" y1="318" x2="902" y2="318" stroke="#c8cdd2"/>
<polyline points="62.0,155.8 68.6,171.3 75.1,145.1 81.7,84.5 88.2,77.0 94.8,80.8 101.4,109.6 107.9,133.4 114.5,120.2 121.1,121.4 127.6,121.5 134.2,133.7 140.8,139.9 147.3,134.0 153.9,146.7 160.4,148.8 167.0,139.2 173.6,128.6 180.1,139.3 186.7,120.8 193.2,128.7 199.8,131.3 206.4,151.5 212.9,143.2 219.5,151.1 226.1,139.5 232.6,141.8 239.2,156.6 245.8,134.3 252.3,143.0 258.9,117.6 265.4,156.8 272.0,151.9 278.6,194.9 285.1,149.9 291.7,179.0 298.2,225.6 304.8,235.3 311.4,289.0 317.9,247.8 324.5,238.3 331.1,230.8 337.6,206.4 344.2,215.9 350.8,217.5 357.3,231.8 363.9,223.2 370.4,247.4 377.0,232.5 383.6,226.9 390.1,255.2 396.7,263.4 403.2,259.4 409.8,256.4 416.4,264.2 422.9,238.4 429.5,250.1 436.1,250.1 442.6,256.4 449.2,258.1 455.8,249.8 462.3,274.2 468.9,207.4 475.4,184.8 482.0,192.7 488.6,192.3 495.1,159.5 501.7,178.0 508.2,171.2 514.8,155.5 521.4,141.9 527.9,141.4 534.5,144.6 541.1,170.6 547.6,129.4 554.2,160.3 560.8,156.2 567.3,173.8 573.9,175.1 580.4,172.9 587.0,169.3 593.6,148.6 600.1,160.1 606.7,164.7 613.2,181.7 619.8,164.5 626.4,158.1 632.9,166.0 639.5,193.1 646.1,189.3 652.6,181.7 659.2,189.7 665.8,222.5 672.3,231.0 678.9,213.5 685.4,186.4 692.0,185.4 698.6,197.7 705.1,188.2 711.7,161.7 718.2,163.3 724.8,156.1 731.4,137.6 737.9,135.3 744.5,123.8 751.1,146.8 757.6,154.0 764.2,147.1 770.8,159.0 777.3,191.9 783.9,190.1 790.4,219.5 797.0,214.4 803.6,204.9 810.1,199.7 816.7,189.0 823.2,182.3 829.8,193.3 836.4,165.6 842.9,177.6 849.5,193.8 856.1,240.0 862.6,230.4 869.2,217.2 875.8,212.5 882.3,216.8 888.9,236.8 895.4,222.5 902.0,209.6" fill="none" stroke="#d62728" stroke-width="2.2" stroke-linejoin="round" stroke-linecap="round"/>
<text x="62" y="346" font-family="Arial" font-size="11" fill="#68707a">2025-12-03</text>
<text x="834" y="346" font-family="Arial" font-size="11" fill="#68707a">2026-06-03</text>
<text x="792" y="28" font-family="Arial" font-size="12" fill="#d62728">0.56931</text>
</svg>
