<svg xmlns="http://www.w3.org/2000/svg" width="920" height="360" viewBox="0 0 920 360">
<rect width="100%" height="100%" fill="#ffffff"/>
<text x="24" y="26" font-family="Arial" font-size="18" font-weight="700" fill="#101418">CADCHF 12m</text>
<text x="24" y="44" font-family="Arial" font-size="12" fill="#68707a">Forex cross; normalized close, start=100, change=-4.3%</text>
<line x1='62' y1='318.0' x2='902' y2='318.0' stroke='#e6e8eb'/><text x='12' y='322.0' font-family='Arial' font-size='11' fill='#68707a'>93.7</text><line x1='62' y1='250.5' x2='902' y2='250.5' stroke='#e6e8eb'/><text x='12' y='254.5' font-family='Arial' font-size='11' fill='#68707a'>95.7</text><line x1='62' y1='183.0' x2='902' y2='183.0' stroke='#e6e8eb'/><text x='12' y='187.0' font-family='Arial' font-size='11' fill='#68707a'>97.7</text><line x1='62' y1='115.5' x2='902' y2='115.5' stroke='#e6e8eb'/><text x='12' y='119.5' font-family='Arial' font-size='11' fill='#68707a'>99.7</text><line x1='62' y1='48.0' x2='902' y2='48.0' stroke='#e6e8eb'/><text x='12' y='52.0' font-family='Arial' font-size='11' fill='#68707a'>101.7</text>
<line x1="62" y1="48" x2="62" y2="318" stroke="#c8cdd2"/>
<line x1="62" y1="318" x2="902" y2="318" stroke="#c8cdd2"/>
<polyline points="62.0,105.7 65.2,77.9 68.5,89.6 71.7,81.2 75.0,78.8 78.2,81.0 81.5,70.5 84.7,84.0 87.9,105.8 91.2,95.1 94.4,81.1 97.7,95.6 100.9,89.4 104.2,100.2 107.4,105.2 110.6,124.0 113.9,154.1 117.1,156.5 120.4,151.6 123.6,171.6 126.9,175.7 130.1,193.4 133.4,178.8 136.6,162.8 139.8,170.2 143.1,172.2 146.3,178.3 149.6,194.6 152.8,171.8 156.1,178.7 159.3,178.7 162.5,166.9 165.8,162.4 169.0,165.7 172.3,169.7 175.5,170.8 178.8,171.9 182.0,177.8 185.2,175.8 188.5,188.4 191.7,163.7 195.0,163.9 198.2,144.6 201.5,149.6 204.7,170.9 207.9,156.2 211.2,157.5 214.4,153.3 217.7,153.1 220.9,150.6 224.2,137.5 227.4,160.2 230.6,161.9 233.9,165.0 237.1,169.4 240.4,163.1 243.6,176.9 246.9,193.2 250.1,181.3 253.4,190.3 256.6,181.5 259.8,185.0 263.1,182.0 266.3,174.3 269.6,175.5 272.8,179.7 276.1,167.4 279.3,175.3 282.5,175.4 285.8,204.2 289.0,221.2 292.3,213.9 295.5,212.6 298.8,217.6 302.0,215.8 305.2,208.6 308.5,236.1 311.7,233.5 315.0,221.5 318.2,204.2 321.5,229.8 324.7,237.1 327.9,237.0 331.2,225.7 334.4,235.3 337.7,230.9 340.9,236.6 344.2,238.1 347.4,242.5 350.6,243.0 353.9,247.6 357.1,234.3 360.4,222.8 363.6,219.0 366.9,229.6 370.1,231.1 373.4,243.5 376.6,264.1 379.8,282.6 383.1,269.0 386.3,277.6 389.6,257.4 392.8,252.8 396.1,256.4 399.3,254.0 402.5,259.4 405.8,254.3 409.0,225.6 412.3,228.4 415.5,223.6 418.8,219.5 422.0,221.5 425.2,224.2 428.5,240.8 431.7,221.3 435.0,224.6 438.2,241.9 441.5,250.5 444.7,274.7 447.9,266.7 451.2,266.4 454.4,235.3 457.7,227.5 460.9,238.6 464.2,226.3 467.4,230.1 470.6,231.0 473.9,234.6 477.1,227.1 480.4,219.0 483.6,222.9 486.9,221.0 490.1,229.7 493.4,215.0 496.6,181.2 499.8,177.0 503.1,179.1 506.3,195.2 509.6,208.5 512.8,201.1 516.1,201.8 519.3,201.9 522.5,208.6 525.8,212.1 529.0,208.8 532.3,215.9 535.5,217.1 538.8,211.8 542.0,205.8 545.2,211.8 548.5,201.5 551.7,205.9 555.0,207.3 558.2,218.6 561.5,214.0 564.7,218.4 567.9,211.9 571.2,213.2 574.4,221.5 577.7,209.0 580.9,213.8 584.2,199.7 587.4,221.6 590.6,218.8 593.9,242.9 597.1,217.7 600.4,234.0 603.6,260.0 606.9,265.5 610.1,295.5 613.4,272.5 616.6,267.2 619.8,263.0 623.1,249.3 626.3,254.6 629.6,255.5 632.8,263.6 636.1,258.7 639.3,272.3 642.5,263.9 645.8,260.8 649.0,276.6 652.3,281.2 655.5,279.0 658.8,277.3 662.0,281.6 665.2,267.2 668.5,273.8 671.7,273.8 675.0,277.3 678.2,278.3 681.5,273.6 684.7,287.2 687.9,249.9 691.2,237.3 694.4,241.7 697.7,241.4 700.9,223.1 704.2,233.5 707.4,229.6 710.6,220.9 713.9,213.2 717.1,213.0 720.4,214.8 723.6,229.3 726.9,206.3 730.1,223.5 733.4,221.3 736.6,231.1 739.8,231.8 743.1,230.6 746.3,228.5 749.6,217.0 752.8,223.4 756.1,226.0 759.3,235.5 762.5,225.9 765.8,222.3 769.0,226.7 772.3,241.9 775.5,239.7 778.8,235.5 782.0,240.0 785.2,258.3 788.5,263.1 791.7,253.3 795.0,238.2 798.2,237.6 801.5,244.4 804.7,239.1 807.9,224.3 811.2,225.2 814.4,221.2 817.7,210.8 820.9,209.5 824.2,203.1 827.4,216.0 830.6,220.0 833.9,216.2 837.1,222.8 840.4,241.2 843.6,240.2 846.9,256.7 850.1,253.8 853.4,248.5 856.6,245.6 859.8,239.6 863.1,235.8 866.3,242.0 869.6,226.5 872.8,233.2 876.1,242.3 879.3,268.1 882.5,262.8 885.8,255.4 889.0,252.8 892.3,255.1 895.5,266.3 898.8,258.3 902.0,251.1" fill="none" stroke="#d62728" stroke-width="2.2" stroke-linejoin="round" stroke-linecap="round"/>
<text x="62" y="346" font-family="Arial" font-size="11" fill="#68707a">2025-06-03</text>
<text x="834" y="346" font-family="Arial" font-size="11" fill="#68707a">2026-06-03</text>
<text x="792" y="28" font-family="Arial" font-size="12" fill="#d62728">0.56931</text>
</svg>
