<svg xmlns="http://www.w3.org/2000/svg" width="920" height="360" viewBox="0 0 920 360">
<rect width="100%" height="100%" fill="#ffffff"/>
<text x="24" y="26" font-family="Arial" font-size="18" font-weight="700" fill="#101418">CADJPY 12m</text>
<text x="24" y="44" font-family="Arial" font-size="12" fill="#68707a">Forex cross; normalized close, start=100, change=+11.1%</text>
<line x1='62' y1='318.0' x2='902' y2='318.0' stroke='#e6e8eb'/><text x='12' y='322.0' font-family='Arial' font-size='11' fill='#68707a'>98.7</text><line x1='62' y1='250.5' x2='902' y2='250.5' stroke='#e6e8eb'/><text x='12' y='254.5' font-family='Arial' font-size='11' fill='#68707a'>102.6</text><line x1='62' y1='183.0' x2='902' y2='183.0' stroke='#e6e8eb'/><text x='12' y='187.0' font-family='Arial' font-size='11' fill='#68707a'>106.4</text><line x1='62' y1='115.5' x2='902' y2='115.5' stroke='#e6e8eb'/><text x='12' y='119.5' font-family='Arial' font-size='11' fill='#68707a'>110.2</text><line x1='62' y1='48.0' x2='902' y2='48.0' stroke='#e6e8eb'/><text x='12' y='52.0' font-family='Arial' font-size='11' fill='#68707a'>114.1</text>
<line x1="62" y1="48" x2="62" y2="318" stroke="#c8cdd2"/>
<line x1="62" y1="318" x2="902" y2="318" stroke="#c8cdd2"/>
<polyline points="62.0,295.5 65.2,278.9 68.5,288.0 71.7,276.4 75.0,265.2 78.2,268.1 81.5,260.6 84.7,268.1 87.9,271.5 91.2,259.9 94.4,249.4 97.7,255.8 100.9,262.7 104.2,259.3 107.4,252.7 110.6,255.0 113.9,266.7 117.1,265.4 120.4,259.2 123.6,266.4 126.9,265.1 130.1,274.9 133.4,266.2 136.6,250.0 139.8,256.1 143.1,247.0 146.3,235.6 149.6,247.0 152.8,241.3 156.1,232.4 159.3,228.8 162.5,218.4 165.8,224.1 169.0,224.9 172.3,223.5 175.5,229.6 178.8,227.8 182.0,232.9 185.2,230.0 188.5,228.1 191.7,224.3 195.0,229.9 198.2,227.1 201.5,212.4 204.7,244.0 207.9,249.6 211.2,240.4 214.4,240.7 217.7,244.2 220.9,236.7 224.2,233.7 227.4,237.8 230.6,243.3 233.9,244.3 237.1,249.8 240.4,240.1 243.6,251.3 246.9,256.6 250.1,247.2 253.4,252.2 256.6,248.7 259.8,249.8 263.1,244.7 266.3,247.0 269.6,241.7 272.8,243.1 276.1,229.9 279.3,238.1 282.5,236.1 285.8,239.1 289.0,246.0 292.3,252.3 295.5,255.2 298.8,252.8 302.0,248.1 305.2,242.7 308.5,250.2 311.7,248.4 315.0,238.3 318.2,235.3 321.5,245.7 324.7,248.7 327.9,242.5 331.2,235.0 334.4,239.7 337.7,246.7 340.9,254.9 344.2,268.0 347.4,270.0 350.6,240.8 353.9,229.4 357.1,209.5 360.4,202.1 363.6,207.1 366.9,215.4 370.1,216.2 373.4,225.4 376.6,234.6 379.8,244.9 383.1,231.6 386.3,235.4 389.6,220.3 392.8,215.4 396.1,207.3 399.3,202.6 402.5,206.8 405.8,211.6 409.0,199.5 412.3,190.8 415.5,191.9 418.8,197.0 422.0,210.9 425.2,204.6 428.5,219.6 431.7,200.3 435.0,193.8 438.2,193.3 441.5,184.6 444.7,189.3 447.9,187.5 451.2,183.9 454.4,171.9 457.7,161.7 460.9,163.7 464.2,172.3 467.4,171.3 470.6,179.1 473.9,170.8 477.1,168.0 480.4,164.8 483.6,173.3 486.9,166.2 490.1,172.4 493.4,173.0 496.6,153.5 499.8,149.3 503.1,136.7 506.3,141.6 509.6,142.7 512.8,137.7 516.1,148.4 519.3,149.5 522.5,144.5 525.8,142.7 529.0,119.3 532.3,122.9 535.5,123.2 538.8,121.9 542.0,116.0 545.2,124.2 548.5,120.9 551.7,120.1 555.0,121.1 558.2,129.2 561.5,134.5 564.7,139.4 567.9,138.8 571.2,130.2 574.4,126.9 577.7,113.8 580.9,122.8 584.2,121.2 587.4,135.7 590.6,124.3 593.9,118.8 597.1,116.5 600.4,107.8 603.6,137.3 606.9,149.2 610.1,155.6 613.4,139.9 616.6,132.6 619.8,127.6 623.1,129.9 626.3,120.6 629.6,111.0 632.8,118.7 636.1,105.5 639.3,105.5 642.5,124.7 645.8,142.9 649.0,153.7 652.3,155.1 655.5,147.4 658.8,153.2 662.0,142.3 665.2,135.2 668.5,140.0 671.7,142.7 675.0,128.4 678.2,120.8 681.5,125.1 684.7,114.4 687.9,107.1 691.2,101.2 694.4,106.6 697.7,103.6 700.9,82.8 704.2,87.6 707.4,83.8 710.6,74.4 713.9,77.5 717.1,84.3 720.4,86.4 723.6,89.4 726.9,83.8 730.1,108.1 733.4,88.4 736.6,100.6 739.8,101.5 743.1,101.1 746.3,102.6 749.6,103.0 752.8,112.0 756.1,123.7 759.3,118.5 762.5,114.4 765.8,115.0 769.0,111.3 772.3,113.5 775.5,115.3 778.8,105.9 782.0,105.8 785.2,99.3 788.5,101.6 791.7,96.3 795.0,87.3 798.2,88.6 801.5,83.5 804.7,78.9 807.9,79.3 811.2,80.2 814.4,79.2 817.7,73.9 820.9,80.0 824.2,70.5 827.4,97.3 830.6,100.3 833.9,100.7 837.1,92.3 840.4,111.5 843.6,110.9 846.9,113.8 850.1,108.4 853.4,105.8 856.6,104.9 859.8,100.6 863.1,100.3 866.3,97.0 869.6,96.3 872.8,97.8 876.1,100.6 879.3,104.7 882.5,105.3 885.8,102.0 889.0,103.2 892.3,98.2 895.5,99.2 898.8,101.8 902.0,99.9" fill="none" stroke="#1f77b4" stroke-width="2.2" stroke-linejoin="round" stroke-linecap="round"/>
<text x="62" y="346" font-family="Arial" font-size="11" fill="#68707a">2025-06-03</text>
<text x="834" y="346" font-family="Arial" font-size="11" fill="#68707a">2026-06-03</text>
<text x="792" y="28" font-family="Arial" font-size="12" fill="#1f77b4">115.44</text>
</svg>
