<svg xmlns="http://www.w3.org/2000/svg" width="920" height="360" viewBox="0 0 920 360">
<rect width="100%" height="100%" fill="#ffffff"/>
<text x="24" y="26" font-family="Arial" font-size="18" font-weight="700" fill="#101418">CADJPY 6m</text>
<text x="24" y="44" font-family="Arial" font-size="12" fill="#68707a">Forex cross; normalized close, start=100, change=+3.5%</text>
<line x1='62' y1='318.0' x2='902' y2='318.0' stroke='#e6e8eb'/><text x='12' y='322.0' font-family='Arial' font-size='11' fill='#68707a'>99.1</text><line x1='62' y1='250.5' x2='902' y2='250.5' stroke='#e6e8eb'/><text x='12' y='254.5' font-family='Arial' font-size='11' fill='#68707a'>100.7</text><line x1='62' y1='183.0' x2='902' y2='183.0' stroke='#e6e8eb'/><text x='12' y='187.0' font-family='Arial' font-size='11' fill='#68707a'>102.4</text><line x1='62' y1='115.5' x2='902' y2='115.5' stroke='#e6e8eb'/><text x='12' y='119.5' font-family='Arial' font-size='11' fill='#68707a'>104.0</text><line x1='62' y1='48.0' x2='902' y2='48.0' stroke='#e6e8eb'/><text x='12' y='52.0' font-family='Arial' font-size='11' fill='#68707a'>105.6</text>
<line x1="62" y1="48" x2="62" y2="318" stroke="#c8cdd2"/>
<line x1="62" y1="318" x2="902" y2="318" stroke="#c8cdd2"/>
<polyline points="62.0,280.7 68.6,294.3 75.1,295.5 81.7,252.7 88.2,243.4 94.8,215.9 101.4,226.5 107.9,229.0 114.5,218.0 121.1,241.6 127.6,244.1 134.2,233.0 140.8,229.0 147.3,177.7 153.9,185.6 160.4,186.2 167.0,183.3 173.6,170.4 180.1,188.5 186.7,181.2 193.2,179.4 199.8,181.6 206.4,199.4 212.9,210.9 219.5,221.8 226.1,220.4 232.6,201.7 239.2,194.4 245.8,165.7 252.3,185.5 258.9,181.8 265.4,213.7 272.0,188.7 278.6,176.5 285.1,171.4 291.7,152.4 298.2,217.1 304.8,243.4 311.4,257.3 317.9,222.9 324.5,206.9 331.1,195.8 337.6,200.8 344.2,180.4 350.8,159.5 357.3,176.2 363.9,147.3 370.4,147.4 377.0,189.5 383.6,229.5 390.1,253.2 396.7,256.4 403.2,239.3 409.8,252.2 416.4,228.2 422.9,212.6 429.5,223.1 436.1,229.1 442.6,197.6 449.2,180.9 455.8,190.4 462.3,166.9 468.9,150.9 475.4,138.0 482.0,149.7 488.6,143.1 495.1,97.4 501.7,108.1 508.2,99.8 514.8,79.1 521.4,85.8 527.9,100.9 534.5,105.3 541.1,111.9 547.6,99.6 554.2,153.0 560.8,109.7 567.3,136.5 573.9,138.6 580.4,137.7 587.0,141.1 593.6,142.0 600.1,161.6 606.7,187.3 613.2,176.0 619.8,166.9 626.4,168.2 632.9,160.0 639.5,164.9 646.1,168.8 652.6,148.2 659.2,148.1 665.8,133.7 672.3,138.8 678.9,127.3 685.4,107.3 692.0,110.3 698.6,99.1 705.1,89.0 711.7,89.8 718.2,91.8 724.8,89.6 731.4,77.9 737.9,91.3 744.5,70.5 751.1,129.3 757.6,135.8 764.2,136.8 770.8,118.4 777.3,160.5 783.9,159.2 790.4,165.5 797.0,153.7 803.6,148.0 810.1,146.0 816.7,136.7 823.2,136.0 829.8,128.6 836.4,127.1 842.9,130.5 849.5,136.7 856.1,145.7 862.6,146.9 869.2,139.6 875.8,142.2 882.3,131.3 888.9,133.5 895.4,139.2 902.0,135.0" fill="none" stroke="#1f77b4" stroke-width="2.2" stroke-linejoin="round" stroke-linecap="round"/>
<text x="62" y="346" font-family="Arial" font-size="11" fill="#68707a">2025-12-03</text>
<text x="834" y="346" font-family="Arial" font-size="11" fill="#68707a">2026-06-03</text>
<text x="792" y="28" font-family="Arial" font-size="12" fill="#1f77b4">115.44</text>
</svg>
