<svg xmlns="http://www.w3.org/2000/svg" width="920" height="360" viewBox="0 0 920 360">
<rect width="100%" height="100%" fill="#ffffff"/>
<text x="24" y="26" font-family="Arial" font-size="18" font-weight="700" fill="#101418">CHFJPY 12m</text>
<text x="24" y="44" font-family="Arial" font-size="12" fill="#68707a">Forex cross; normalized close, start=100, change=+16.2%</text>
<line x1='62' y1='318.0' x2='902' y2='318.0' stroke='#e6e8eb'/><text x='12' y='322.0' font-family='Arial' font-size='11' fill='#68707a'>98.2</text><line x1='62' y1='250.5' x2='902' y2='250.5' stroke='#e6e8eb'/><text x='12' y='254.5' font-family='Arial' font-size='11' fill='#68707a'>103.3</text><line x1='62' y1='183.0' x2='902' y2='183.0' stroke='#e6e8eb'/><text x='12' y='187.0' font-family='Arial' font-size='11' fill='#68707a'>108.5</text><line x1='62' y1='115.5' x2='902' y2='115.5' stroke='#e6e8eb'/><text x='12' y='119.5' font-family='Arial' font-size='11' fill='#68707a'>113.6</text><line x1='62' y1='48.0' x2='902' y2='48.0' stroke='#e6e8eb'/><text x='12' y='52.0' font-family='Arial' font-size='11' fill='#68707a'>118.7</text>
<line x1="62" y1="48" x2="62" y2="318" stroke="#c8cdd2"/>
<line x1="62" y1="318" x2="902" y2="318" stroke="#c8cdd2"/>
<polyline points="62.0,294.8 65.2,293.1 68.5,295.5 71.7,290.1 75.0,282.8 78.2,283.9 81.5,282.5 84.7,282.8 87.9,276.6 91.2,272.1 94.4,270.0 97.7,269.1 100.9,276.7 104.2,269.7 107.4,262.8 110.6,256.9 113.9,253.5 117.1,251.4 120.4,248.7 123.6,246.0 126.9,243.2 130.1,243.3 133.4,243.7 136.6,236.9 139.8,239.2 143.1,230.9 146.3,219.5 149.6,221.3 152.8,226.3 156.1,216.9 159.3,214.1 162.5,211.1 165.8,217.4 169.0,216.7 172.3,213.7 175.5,218.1 178.8,216.1 182.0,217.6 185.2,216.3 188.5,209.4 191.7,216.8 195.0,221.2 198.2,227.3 201.5,213.9 204.7,229.0 207.9,239.4 211.2,232.0 214.4,234.0 217.7,236.6 220.9,232.0 224.2,235.3 227.4,228.7 230.6,232.3 233.9,231.8 237.1,234.1 240.4,229.4 243.6,231.8 246.9,229.3 250.1,227.1 253.4,227.2 256.6,228.3 259.8,227.3 263.1,224.9 266.3,230.1 269.6,225.5 272.8,224.6 276.1,219.7 279.3,222.6 282.5,221.1 285.8,211.1 289.0,209.1 292.3,217.0 295.5,219.6 298.8,216.0 302.0,213.1 305.2,212.0 308.5,205.9 311.7,205.7 315.0,202.9 318.2,208.2 321.5,204.9 324.7,204.3 327.9,199.2 331.2,198.3 334.4,198.1 337.7,205.5 340.9,209.4 344.2,219.0 347.4,218.7 350.6,195.5 353.9,184.5 357.1,174.9 360.4,174.2 363.6,179.8 366.9,181.4 370.1,181.4 373.4,183.1 376.6,181.5 379.8,181.0 383.1,176.9 386.3,175.9 389.6,173.1 392.8,171.2 396.1,163.2 399.3,160.8 402.5,161.6 405.8,167.5 409.0,171.0 412.3,162.7 415.5,166.0 418.8,171.8 422.0,181.7 425.2,175.8 428.5,179.9 431.7,173.4 435.0,166.8 438.2,158.8 441.5,148.1 444.7,140.6 447.9,142.8 451.2,140.0 454.4,144.6 457.7,140.3 460.9,137.0 464.2,149.4 467.4,146.9 470.6,152.5 473.9,144.2 477.1,145.7 480.4,146.8 483.6,152.8 486.9,147.5 490.1,147.9 493.4,154.9 496.6,155.0 499.8,153.7 503.1,143.1 506.3,140.8 509.6,134.5 512.8,133.9 516.1,141.9 519.3,142.7 522.5,136.0 525.8,132.7 529.0,116.4 532.3,116.0 535.5,115.2 538.8,116.8 542.0,114.9 545.2,119.0 548.5,120.7 551.7,118.1 555.0,118.3 558.2,119.3 561.5,125.5 564.7,128.8 567.9,130.2 571.2,122.6 574.4,116.1 577.7,111.8 580.9,116.6 584.2,121.8 587.4,123.0 590.6,115.4 593.9,99.9 597.1,109.8 600.4,95.4 603.6,106.2 606.9,113.0 610.1,104.0 613.4,102.8 616.6,99.4 619.8,97.4 623.1,105.5 626.3,95.8 629.6,87.9 632.8,89.9 636.1,81.8 639.3,75.4 642.5,94.6 645.8,111.5 649.0,112.8 652.3,111.1 655.5,105.5 658.8,111.1 662.0,100.1 665.2,101.2 668.5,102.0 671.7,104.3 675.0,91.3 678.2,84.9 681.5,90.4 684.7,75.2 687.9,87.4 691.2,88.6 694.4,90.9 697.7,88.7 700.9,81.1 704.2,80.0 707.4,78.8 710.6,75.7 713.9,81.7 717.1,87.0 720.4,87.7 723.6,83.5 726.9,89.8 730.1,100.6 733.4,86.1 736.6,91.1 739.8,91.6 743.1,92.0 746.3,94.7 749.6,99.5 752.8,103.4 756.1,111.6 759.3,103.2 762.5,104.6 765.8,106.5 769.0,101.4 772.3,96.2 775.5,98.7 778.8,93.1 782.0,91.0 785.2,77.2 788.5,76.7 791.7,77.3 795.0,77.4 798.2,78.9 801.5,71.6 804.7,70.5 807.9,77.7 811.2,78.1 814.4,79.9 817.7,80.1 820.9,85.6 824.2,82.5 827.4,95.4 830.6,96.0 833.9,98.3 837.1,88.6 840.4,94.9 843.6,94.9 846.9,89.3 850.1,86.5 853.4,87.1 856.6,87.3 859.8,87.2 863.1,88.7 866.3,83.1 869.6,89.9 872.8,88.1 876.1,85.9 879.3,77.9 882.5,79.9 885.8,80.7 889.0,82.8 892.3,77.8 895.5,73.1 898.8,79.3 902.0,81.1" fill="none" stroke="#1f77b4" stroke-width="2.2" stroke-linejoin="round" stroke-linecap="round"/>
<text x="62" y="346" font-family="Arial" font-size="11" fill="#68707a">2025-06-03</text>
<text x="834" y="346" font-family="Arial" font-size="11" fill="#68707a">2026-06-03</text>
<text x="792" y="28" font-family="Arial" font-size="12" fill="#1f77b4">202.74</text>
</svg>
