<svg xmlns="http://www.w3.org/2000/svg" width="920" height="360" viewBox="0 0 920 360">
<rect width="100%" height="100%" fill="#ffffff"/>
<text x="24" y="26" font-family="Arial" font-size="18" font-weight="700" fill="#101418">CHFJPY 6m</text>
<text x="24" y="44" font-family="Arial" font-size="12" fill="#68707a">Forex cross; normalized close, start=100, change=+4.5%</text>
<line x1='62' y1='318.0' x2='902' y2='318.0' stroke='#e6e8eb'/><text x='12' y='322.0' font-family='Arial' font-size='11' fill='#68707a'>98.9</text><line x1='62' y1='250.5' x2='902' y2='250.5' stroke='#e6e8eb'/><text x='12' y='254.5' font-family='Arial' font-size='11' fill='#68707a'>100.6</text><line x1='62' y1='183.0' x2='902' y2='183.0' stroke='#e6e8eb'/><text x='12' y='187.0' font-family='Arial' font-size='11' fill='#68707a'>102.4</text><line x1='62' y1='115.5' x2='902' y2='115.5' stroke='#e6e8eb'/><text x='12' y='119.5' font-family='Arial' font-size='11' fill='#68707a'>104.1</text><line x1='62' y1='48.0' x2='902' y2='48.0' stroke='#e6e8eb'/><text x='12' y='52.0' font-family='Arial' font-size='11' fill='#68707a'>105.8</text>
<line x1="62" y1="48" x2="62" y2="318" stroke="#c8cdd2"/>
<line x1="62" y1="318" x2="902" y2="318" stroke="#c8cdd2"/>
<polyline points="62.0,275.6 68.6,276.6 75.1,295.2 81.7,295.5 88.2,291.9 94.8,263.8 101.4,257.7 107.9,240.7 114.5,239.2 121.1,260.6 127.6,262.6 134.2,244.8 140.8,236.1 147.3,192.5 153.9,191.6 160.4,189.6 167.0,193.7 173.6,188.7 180.1,199.5 186.7,204.1 193.2,197.1 199.8,197.6 206.4,200.3 212.9,216.8 219.5,225.6 226.1,229.4 232.6,209.2 239.2,191.9 245.8,180.5 252.3,193.2 258.9,207.0 265.4,210.2 272.0,189.9 278.6,148.7 285.1,175.2 291.7,136.8 298.2,165.5 304.8,183.6 311.4,159.8 317.9,156.5 324.5,147.5 331.1,142.0 337.6,163.8 344.2,137.7 350.8,116.8 357.3,122.2 363.9,100.6 370.4,83.5 377.0,134.7 383.6,179.6 390.1,183.2 396.7,178.7 403.2,163.6 409.8,178.6 416.4,149.2 422.9,152.2 429.5,154.5 436.1,160.5 442.6,125.8 449.2,108.8 455.8,123.4 462.3,82.9 468.9,115.6 475.4,118.6 482.0,124.7 488.6,118.9 495.1,98.7 501.7,95.8 508.2,92.5 514.8,84.3 521.4,100.3 527.9,114.3 534.5,116.4 541.1,105.0 547.6,121.9 554.2,150.6 560.8,112.0 567.3,125.4 573.9,126.5 580.4,127.6 587.0,135.0 593.6,147.6 600.1,157.9 606.7,180.0 613.2,157.6 619.8,161.2 626.4,166.2 632.9,152.8 639.5,138.9 646.1,145.6 652.6,130.6 659.2,125.1 665.8,88.4 672.3,86.9 678.9,88.6 685.4,88.7 692.0,92.9 698.6,73.4 705.1,70.5 711.7,89.7 718.2,90.6 724.8,95.6 731.4,96.1 737.9,110.8 744.5,102.3 751.1,136.6 757.6,138.3 764.2,144.5 770.8,118.6 777.3,135.5 783.9,135.6 790.4,120.6 797.0,113.0 803.6,114.8 810.1,115.3 816.7,115.0 823.2,119.0 829.8,104.2 836.4,122.1 842.9,117.4 849.5,111.5 856.1,90.2 862.6,95.6 869.2,97.8 875.8,103.4 882.3,89.9 888.9,77.5 895.4,93.8 902.0,98.8" fill="none" stroke="#1f77b4" stroke-width="2.2" stroke-linejoin="round" stroke-linecap="round"/>
<text x="62" y="346" font-family="Arial" font-size="11" fill="#68707a">2025-12-03</text>
<text x="834" y="346" font-family="Arial" font-size="11" fill="#68707a">2026-06-03</text>
<text x="792" y="28" font-family="Arial" font-size="12" fill="#1f77b4">202.74</text>
</svg>
