<svg xmlns="http://www.w3.org/2000/svg" width="920" height="360" viewBox="0 0 920 360">
<rect width="100%" height="100%" fill="#ffffff"/>
<text x="24" y="26" font-family="Arial" font-size="18" font-weight="700" fill="#101418">.DE40C 12m</text>
<text x="24" y="44" font-family="Arial" font-size="12" fill="#68707a">Index; normalized close, start=100, change=+5.0%</text>
<line x1='62' y1='318.0' x2='902' y2='318.0' stroke='#e6e8eb'/><text x='12' y='322.0' font-family='Arial' font-size='11' fill='#68707a'>91.9</text><line x1='62' y1='250.5' x2='902' y2='250.5' stroke='#e6e8eb'/><text x='12' y='254.5' font-family='Arial' font-size='11' fill='#68707a'>95.8</text><line x1='62' y1='183.0' x2='902' y2='183.0' stroke='#e6e8eb'/><text x='12' y='187.0' font-family='Arial' font-size='11' fill='#68707a'>99.7</text><line x1='62' y1='115.5' x2='902' y2='115.5' stroke='#e6e8eb'/><text x='12' y='119.5' font-family='Arial' font-size='11' fill='#68707a'>103.6</text><line x1='62' y1='48.0' x2='902' y2='48.0' stroke='#e6e8eb'/><text x='12' y='52.0' font-family='Arial' font-size='11' fill='#68707a'>107.5</text>
<line x1="62" y1="48" x2="62" y2="318" stroke="#c8cdd2"/>
<line x1="62" y1="318" x2="902" y2="318" stroke="#c8cdd2"/>
<polyline points="62.0,178.0 65.3,166.3 68.6,153.0 72.0,149.6 75.3,151.0 78.6,160.4 81.9,173.9 85.2,176.6 88.6,189.4 91.9,207.8 95.2,194.7 98.5,213.7 101.8,222.2 105.2,240.9 108.5,219.8 111.8,225.7 115.1,198.8 118.4,209.1 121.8,198.2 125.1,170.6 128.4,179.5 131.7,196.5 135.0,188.1 138.4,177.7 141.7,188.3 145.0,167.6 148.3,158.0 151.6,133.3 155.0,140.0 158.3,154.5 161.6,161.4 164.9,168.6 168.2,172.3 171.6,146.2 174.9,152.1 178.2,150.8 181.5,169.9 184.8,155.6 188.2,151.6 191.5,157.3 194.8,175.1 198.1,157.3 201.4,154.0 204.8,168.2 208.1,214.4 211.4,190.4 214.7,184.1 218.0,178.4 221.4,159.1 224.7,161.2 228.0,167.1 231.3,171.2 234.6,159.6 238.0,145.7 241.3,147.0 244.6,150.3 247.9,142.4 251.2,153.0 254.6,151.8 257.9,146.8 261.2,153.3 264.5,161.9 267.8,169.6 271.2,170.1 274.5,180.0 277.8,170.3 281.1,209.9 284.5,202.2 287.8,189.5 291.1,202.0 294.4,186.9 297.7,193.3 301.1,199.4 304.4,194.3 307.7,194.7 311.0,191.1 314.3,221.3 317.7,219.2 321.0,196.4 324.3,199.0 327.6,207.1 330.9,201.0 334.3,197.0 337.6,206.5 340.9,191.7 344.2,191.3 347.5,181.6 350.9,164.8 354.2,142.5 357.5,145.6 360.8,145.7 364.1,145.1 367.5,129.9 370.8,128.9 374.1,155.5 377.4,145.0 380.7,155.9 384.1,159.9 387.4,153.3 390.7,185.1 394.0,154.3 397.3,149.2 400.7,162.1 404.0,158.0 407.3,155.7 410.6,150.7 413.9,152.9 417.3,164.0 420.6,164.4 423.9,176.0 427.2,163.4 430.5,176.6 433.9,169.4 437.2,192.1 440.5,204.0 443.8,175.8 447.1,166.6 450.5,145.4 453.8,170.0 457.1,181.9 460.4,202.5 463.7,232.1 467.1,233.3 470.4,225.0 473.7,238.4 477.0,227.8 480.3,211.6 483.7,192.7 487.0,189.7 490.3,184.7 493.6,202.6 496.9,193.8 500.3,195.0 503.6,181.5 506.9,170.9 510.2,169.6 513.5,161.2 516.9,163.6 520.2,151.7 523.5,159.5 526.8,156.4 530.1,167.4 533.5,175.8 536.8,158.6 540.1,152.2 543.4,152.5 546.7,148.4 550.1,147.6 553.4,137.6 556.7,134.1 560.0,110.3 563.3,108.6 566.7,92.0 570.0,91.6 573.3,82.0 576.6,71.6 579.9,70.5 583.3,80.2 586.6,75.4 589.9,79.4 593.2,103.8 596.5,122.2 599.9,132.5 603.2,111.2 606.5,108.0 609.8,105.7 613.1,108.4 616.5,113.6 619.8,150.6 623.1,134.1 626.4,115.4 629.7,116.6 633.1,129.5 636.4,137.5 639.7,120.9 643.0,99.8 646.3,101.7 649.7,111.2 653.0,111.5 656.3,107.0 659.6,115.2 662.9,101.0 666.3,80.8 669.6,97.7 672.9,82.0 676.2,101.4 679.5,101.8 682.9,88.1 686.2,80.0 689.5,80.3 692.8,126.9 696.2,188.1 699.5,158.1 702.8,186.2 706.1,202.4 709.4,215.5 712.8,175.2 716.1,198.9 719.4,202.5 722.7,212.8 726.0,204.4 729.4,192.4 732.7,208.9 736.0,256.6 739.3,289.8 742.6,270.0 746.0,271.3 749.3,248.2 752.6,273.0 755.9,295.5 759.2,276.6 762.6,268.1 765.9,223.5 769.2,233.0 772.5,250.7 775.8,167.1 779.2,186.9 782.5,187.1 785.8,191.5 789.1,169.8 792.4,168.1 795.8,161.8 799.1,122.3 802.4,142.8 805.7,153.4 809.0,158.9 812.4,161.7 815.7,163.7 819.0,166.9 822.3,171.6 825.6,176.2 829.0,151.9 832.3,173.6 835.6,144.0 838.9,106.7 842.2,125.1 845.6,148.5 848.9,147.7 852.2,176.2 855.5,163.1 858.8,140.1 862.2,176.5 865.5,150.7 868.8,144.1 872.1,119.8 875.4,129.2 878.8,108.9 882.1,72.8 885.4,87.5 888.7,88.0 892.0,94.2 895.4,93.3 898.7,100.6 902.0,91.9" fill="none" stroke="#1f77b4" stroke-width="2.2" stroke-linejoin="round" stroke-linecap="round"/>
<text x="62" y="346" font-family="Arial" font-size="11" fill="#68707a">2025-06-02</text>
<text x="834" y="346" font-family="Arial" font-size="11" fill="#68707a">2026-06-02</text>
<text x="792" y="28" font-family="Arial" font-size="12" fill="#1f77b4">25124</text>
</svg>
