<svg xmlns="http://www.w3.org/2000/svg" width="920" height="360" viewBox="0 0 920 360">
<rect width="100%" height="100%" fill="#ffffff"/>
<text x="24" y="26" font-family="Arial" font-size="18" font-weight="700" fill="#101418">.DE40C 6m</text>
<text x="24" y="44" font-family="Arial" font-size="12" fill="#68707a">Index; normalized close, start=100, change=+6.0%</text>
<line x1='62' y1='318.0' x2='902' y2='318.0' stroke='#e6e8eb'/><text x='12' y='322.0' font-family='Arial' font-size='11' fill='#68707a'>92.7</text><line x1='62' y1='250.5' x2='902' y2='250.5' stroke='#e6e8eb'/><text x='12' y='254.5' font-family='Arial' font-size='11' fill='#68707a'>96.7</text><line x1='62' y1='183.0' x2='902' y2='183.0' stroke='#e6e8eb'/><text x='12' y='187.0' font-family='Arial' font-size='11' fill='#68707a'>100.6</text><line x1='62' y1='115.5' x2='902' y2='115.5' stroke='#e6e8eb'/><text x='12' y='119.5' font-family='Arial' font-size='11' fill='#68707a'>104.6</text><line x1='62' y1='48.0' x2='902' y2='48.0' stroke='#e6e8eb'/><text x='12' y='52.0' font-family='Arial' font-size='11' fill='#68707a'>108.5</text>
<line x1="62" y1="48" x2="62" y2="318" stroke="#c8cdd2"/>
<line x1="62" y1="318" x2="902" y2="318" stroke="#c8cdd2"/>
<polyline points="62.0,193.8 68.9,195.0 75.8,181.5 82.7,170.9 89.5,169.6 96.4,161.2 103.3,163.6 110.2,151.7 117.1,159.5 124.0,156.4 130.9,167.4 137.7,175.8 144.6,158.6 151.5,152.2 158.4,152.5 165.3,148.4 172.2,147.6 179.0,137.6 185.9,134.1 192.8,110.3 199.7,108.6 206.6,92.0 213.5,91.6 220.4,82.0 227.2,71.6 234.1,70.5 241.0,80.2 247.9,75.4 254.8,79.4 261.7,103.8 268.6,122.2 275.4,132.5 282.3,111.2 289.2,108.0 296.1,105.7 303.0,108.4 309.9,113.6 316.8,150.6 323.6,134.1 330.5,115.4 337.4,116.6 344.3,129.5 351.2,137.5 358.1,120.9 365.0,99.8 371.8,101.7 378.7,111.2 385.6,111.5 392.5,107.0 399.4,115.2 406.3,101.0 413.1,80.8 420.0,97.7 426.9,82.0 433.8,101.4 440.7,101.8 447.6,88.1 454.5,80.0 461.3,80.3 468.2,126.9 475.1,188.1 482.0,158.1 488.9,186.2 495.8,202.4 502.7,215.5 509.5,175.2 516.4,198.9 523.3,202.5 530.2,212.8 537.1,204.4 544.0,192.4 550.9,208.9 557.7,256.6 564.6,289.8 571.5,270.0 578.4,271.3 585.3,248.2 592.2,273.0 599.0,295.5 605.9,276.6 612.8,268.1 619.7,223.5 626.6,233.0 633.5,250.7 640.4,167.1 647.2,186.9 654.1,187.1 661.0,191.5 667.9,169.8 674.8,168.1 681.7,161.8 688.6,122.3 695.4,142.8 702.3,153.4 709.2,158.9 716.1,161.7 723.0,163.7 729.9,166.9 736.8,171.6 743.6,176.2 750.5,151.9 757.4,173.6 764.3,144.0 771.2,106.7 778.1,125.1 785.0,148.5 791.8,147.7 798.7,176.2 805.6,163.1 812.5,140.1 819.4,176.5 826.3,150.7 833.1,144.1 840.0,119.8 846.9,129.2 853.8,108.9 860.7,72.8 867.6,87.5 874.5,88.0 881.3,94.2 888.2,93.3 895.1,100.6 902.0,91.9" fill="none" stroke="#1f77b4" stroke-width="2.2" stroke-linejoin="round" stroke-linecap="round"/>
<text x="62" y="346" font-family="Arial" font-size="11" fill="#68707a">2025-12-02</text>
<text x="834" y="346" font-family="Arial" font-size="11" fill="#68707a">2026-06-02</text>
<text x="792" y="28" font-family="Arial" font-size="12" fill="#1f77b4">25124</text>
</svg>
