<svg xmlns="http://www.w3.org/2000/svg" width="920" height="360" viewBox="0 0 920 360">
<rect width="100%" height="100%" fill="#ffffff"/>
<text x="24" y="26" font-family="Arial" font-size="18" font-weight="700" fill="#101418">DOGEUSD 12m</text>
<text x="24" y="44" font-family="Arial" font-size="12" fill="#68707a">Crypto; normalized close, start=100, change=-52.2%</text>
<line x1='62' y1='318.0' x2='902' y2='318.0' stroke='#e6e8eb'/><text x='12' y='322.0' font-family='Arial' font-size='11' fill='#68707a'>35.3</text><line x1='62' y1='250.5' x2='902' y2='250.5' stroke='#e6e8eb'/><text x='12' y='254.5' font-family='Arial' font-size='11' fill='#68707a'>66.5</text><line x1='62' y1='183.0' x2='902' y2='183.0' stroke='#e6e8eb'/><text x='12' y='187.0' font-family='Arial' font-size='11' fill='#68707a'>97.8</text><line x1='62' y1='115.5' x2='902' y2='115.5' stroke='#e6e8eb'/><text x='12' y='119.5' font-family='Arial' font-size='11' fill='#68707a'>129.0</text><line x1='62' y1='48.0' x2='902' y2='48.0' stroke='#e6e8eb'/><text x='12' y='52.0' font-family='Arial' font-size='11' fill='#68707a'>160.3</text>
<line x1="62" y1="48" x2="62" y2="318" stroke="#c8cdd2"/>
<line x1="62" y1="318" x2="902" y2="318" stroke="#c8cdd2"/>
<polyline points="62.0,178.2 64.3,183.7 66.6,202.3 68.9,194.1 71.2,187.1 73.5,188.3 75.8,176.2 78.2,172.5 80.5,178.4 82.8,191.2 85.1,192.5 87.4,194.6 89.7,197.8 92.0,201.1 94.3,204.5 96.6,203.4 98.9,203.0 101.2,212.5 103.5,221.8 105.8,225.0 108.2,210.4 110.5,208.9 112.8,210.2 115.1,215.3 117.4,214.1 119.7,211.2 122.0,204.6 124.3,209.5 126.6,217.8 128.9,205.5 131.2,201.8 133.5,212.1 135.8,210.5 138.2,201.9 140.5,206.4 142.8,203.0 145.1,192.1 147.4,176.4 149.7,169.2 152.0,173.5 154.3,172.1 156.6,173.4 158.9,171.5 161.2,156.3 163.5,150.4 165.8,130.2 168.2,124.2 170.5,89.0 172.8,90.3 175.1,91.8 177.4,125.1 179.7,134.8 182.0,129.4 184.3,130.8 186.6,124.9 188.9,142.3 191.2,143.9 193.5,148.3 195.8,159.5 198.2,169.2 200.5,180.4 202.8,171.8 205.1,158.9 207.4,170.8 209.7,164.7 212.0,145.5 214.3,136.8 216.6,125.5 218.9,132.4 221.2,145.3 223.5,130.7 225.8,120.0 228.2,143.8 230.5,138.6 232.8,135.6 235.1,131.9 237.4,145.5 239.7,160.4 242.0,146.6 244.3,154.1 246.6,125.2 248.9,130.3 251.2,135.0 253.5,159.6 255.8,149.9 258.2,149.4 260.5,143.3 262.8,154.9 265.1,152.7 267.4,155.1 269.7,159.1 272.0,154.0 274.3,147.6 276.6,156.6 278.9,150.5 281.2,152.8 283.5,138.7 285.8,123.7 288.2,125.0 290.5,119.8 292.8,108.3 295.1,86.2 297.4,70.5 299.7,82.7 302.0,93.8 304.3,92.5 306.6,78.3 308.9,82.5 311.2,97.4 313.5,94.8 315.8,102.2 318.2,124.3 320.5,128.7 322.8,124.4 325.1,145.2 327.4,134.1 329.7,136.1 332.0,128.7 334.3,131.3 336.6,133.8 338.9,116.5 341.2,101.3 343.5,105.0 345.8,113.6 348.2,111.3 350.5,96.4 352.8,117.6 355.1,108.4 357.4,116.2 359.7,178.2 362.0,186.8 364.3,161.8 366.6,154.9 368.9,165.5 371.2,174.7 373.5,183.6 375.8,187.5 378.2,182.2 380.5,175.8 382.8,170.4 385.1,176.8 387.4,181.7 389.7,176.3 392.0,173.1 394.3,174.4 396.6,164.2 398.9,170.1 401.2,177.5 403.5,179.1 405.8,189.9 408.2,185.7 410.5,184.8 412.8,185.6 415.1,207.2 417.4,212.3 419.7,207.0 422.0,213.7 424.3,194.4 426.6,197.2 428.9,193.8 431.2,190.9 433.5,201.8 435.8,204.0 438.2,210.5 440.5,218.1 442.8,211.8 445.1,216.8 447.4,224.4 449.7,213.4 452.0,221.6 454.3,227.5 456.6,237.5 458.9,237.3 461.2,232.3 463.5,224.5 465.8,223.2 468.2,221.1 470.5,223.5 472.8,226.2 475.1,228.1 477.4,230.2 479.7,242.6 482.0,231.0 484.3,224.3 486.6,229.3 488.9,238.1 491.2,237.9 493.5,239.3 495.8,234.8 498.2,228.7 500.5,233.7 502.8,237.2 505.1,241.1 507.4,238.6 509.7,244.2 512.0,249.1 514.3,246.9 516.6,253.1 518.9,257.7 521.2,246.4 523.5,246.7 525.8,247.7 528.2,246.1 530.5,249.7 532.8,250.5 535.1,256.1 537.4,257.8 539.7,255.3 542.0,255.8 544.3,257.0 546.6,256.4 548.9,263.1 551.2,252.6 553.5,235.8 555.8,234.2 558.2,227.3 560.5,224.4 562.8,225.8 565.1,230.7 567.4,235.4 569.7,237.1 572.0,238.3 574.3,240.2 576.6,241.5 578.9,228.6 581.2,229.6 583.5,237.7 585.8,239.8 588.2,240.1 590.5,247.0 592.8,249.9 595.1,256.4 597.4,252.8 599.7,255.3 602.0,254.8 604.3,255.4 606.6,260.8 608.9,257.5 611.2,253.3 613.5,254.6 615.8,263.3 618.2,264.9 620.5,277.8 622.8,277.5 625.1,273.6 627.4,276.1 629.7,278.2 632.0,295.5 634.3,284.1 636.6,284.3 638.9,286.0 641.2,286.8 643.5,290.6 645.8,292.4 648.2,290.2 650.5,286.2 652.8,269.9 655.1,279.4 657.4,281.3 659.7,281.7 662.0,284.1 664.3,284.3 666.6,282.3 668.9,284.1 671.2,287.5 673.5,290.7 675.8,291.9 678.2,281.6 680.5,285.7 682.8,289.8 685.1,289.0 687.4,291.4 689.7,289.6 692.0,293.5 694.3,283.5 696.6,289.6 698.9,292.2 701.2,293.7 703.5,294.5 705.8,293.2 708.2,288.5 710.5,290.4 712.8,288.3 715.1,286.9 717.4,286.9 719.7,285.3 722.0,278.9 724.3,282.2 726.6,287.8 728.9,289.6 731.2,288.9 733.5,292.2 735.8,293.5 738.2,288.9 740.5,287.9 742.8,286.7 745.1,291.3 747.4,293.6 749.7,292.6 752.0,293.1 754.3,292.8 756.6,291.1 758.9,291.1 761.2,293.2 763.5,291.9 765.8,291.3 768.2,291.0 770.5,292.9 772.8,288.0 775.1,290.9 777.4,290.8 779.7,289.4 782.0,290.1 784.3,292.7 786.6,289.0 788.9,290.2 791.2,288.1 793.5,283.3 795.8,282.9 798.2,288.1 800.5,290.2 802.8,287.7 805.1,287.8 807.4,287.2 809.7,285.5 812.0,284.1 814.3,284.6 816.6,283.2 818.9,283.5 821.2,283.1 823.5,277.9 825.8,275.1 828.2,273.0 830.5,273.0 832.8,273.1 835.1,271.0 837.4,265.8 839.7,268.5 842.0,273.7 844.3,271.8 846.6,272.6 848.9,268.4 851.2,269.8 853.5,271.2 855.8,268.2 858.2,265.3 860.5,267.5 862.8,271.9 865.1,272.6 867.4,277.2 869.7,279.1 872.0,278.4 874.3,276.3 876.6,279.9 878.9,279.1 881.2,279.9 883.5,280.1 885.8,281.4 888.2,281.9 890.5,283.1 892.8,282.8 895.1,282.0 897.4,282.1 899.7,281.6 902.0,291.1" fill="none" stroke="#d62728" stroke-width="2.2" stroke-linejoin="round" stroke-linecap="round"/>
<text x="62" y="346" font-family="Arial" font-size="11" fill="#68707a">2025-06-03</text>
<text x="834" y="346" font-family="Arial" font-size="11" fill="#68707a">2026-06-03</text>
<text x="792" y="28" font-family="Arial" font-size="12" fill="#d62728">0.09226</text>
</svg>
