<svg xmlns="http://www.w3.org/2000/svg" width="920" height="360" viewBox="0 0 920 360">
<rect width="100%" height="100%" fill="#ffffff"/>
<text x="24" y="26" font-family="Arial" font-size="18" font-weight="700" fill="#101418">DOGEUSD 6m</text>
<text x="24" y="44" font-family="Arial" font-size="12" fill="#68707a">Crypto; normalized close, start=100, change=-39.3%</text>
<line x1='62' y1='318.0' x2='902' y2='318.0' stroke='#e6e8eb'/><text x='12' y='322.0' font-family='Arial' font-size='11' fill='#68707a'>53.9</text><line x1='62' y1='250.5' x2='902' y2='250.5' stroke='#e6e8eb'/><text x='12' y='254.5' font-family='Arial' font-size='11' fill='#68707a'>66.5</text><line x1='62' y1='183.0' x2='902' y2='183.0' stroke='#e6e8eb'/><text x='12' y='187.0' font-family='Arial' font-size='11' fill='#68707a'>79.1</text><line x1='62' y1='115.5' x2='902' y2='115.5' stroke='#e6e8eb'/><text x='12' y='119.5' font-family='Arial' font-size='11' fill='#68707a'>91.6</text><line x1='62' y1='48.0' x2='902' y2='48.0' stroke='#e6e8eb'/><text x='12' y='52.0' font-family='Arial' font-size='11' fill='#68707a'>104.2</text>
<line x1="62" y1="48" x2="62" y2="318" stroke="#c8cdd2"/>
<line x1="62" y1="318" x2="902" y2="318" stroke="#c8cdd2"/>
<polyline points="62.0,70.5 66.6,86.2 71.3,114.0 75.9,113.6 80.6,117.7 85.2,103.5 89.8,84.3 94.5,100.3 99.1,111.4 103.8,123.5 108.4,115.7 113.0,133.3 117.7,149.0 122.3,141.9 127.0,161.6 131.6,176.2 136.3,140.2 140.9,141.2 145.5,144.3 150.2,139.5 154.8,150.9 159.5,153.3 164.1,170.9 168.7,176.3 173.4,168.5 178.0,169.9 182.7,173.8 187.3,171.8 191.9,193.0 196.6,159.8 201.2,106.8 205.9,101.9 210.5,79.8 215.1,70.9 219.8,75.1 224.4,90.6 229.1,105.7 233.7,111.0 238.4,114.6 243.0,120.7 247.6,124.9 252.3,84.1 256.9,87.2 261.6,112.7 266.2,119.6 270.8,120.5 275.5,142.2 280.1,151.4 284.8,171.9 289.4,160.5 294.0,168.5 298.7,167.0 303.3,168.9 308.0,185.9 312.6,175.3 317.2,162.2 321.9,166.2 326.5,193.7 331.2,198.7 335.8,239.6 340.5,238.7 345.1,226.3 349.7,234.1 354.4,240.8 359.0,295.5 363.7,259.4 368.3,260.2 372.9,265.6 377.6,268.2 382.2,279.9 386.9,285.7 391.5,278.9 396.1,266.2 400.8,214.6 405.4,244.7 410.1,250.6 414.7,251.9 419.3,259.4 424.0,260.1 428.6,253.7 433.3,259.5 437.9,270.2 442.6,280.3 447.2,284.3 451.8,251.5 456.5,264.6 461.1,277.5 465.8,275.1 470.4,282.6 475.0,276.9 479.7,289.3 484.3,257.5 489.0,276.9 493.6,285.0 498.2,289.7 502.9,292.4 507.5,288.1 512.2,273.4 516.8,279.2 521.4,272.7 526.1,268.4 530.7,268.3 535.4,263.3 540.0,243.0 544.7,253.5 549.3,271.1 553.9,276.9 558.6,274.7 563.2,285.1 567.9,289.1 572.5,274.6 577.1,271.4 581.8,267.8 586.4,282.3 591.1,289.4 595.7,286.3 600.3,288.0 605.0,286.9 609.6,281.6 614.3,281.7 618.9,288.1 623.5,284.0 628.2,282.3 632.8,281.4 637.5,287.3 642.1,271.6 646.8,281.0 651.4,280.5 656.0,276.2 660.7,278.4 665.3,286.5 670.0,274.9 674.6,278.8 679.2,272.1 683.9,256.9 688.5,255.7 693.2,272.1 697.8,278.6 702.4,270.9 707.1,271.2 711.7,269.2 716.4,264.0 721.0,259.6 725.6,261.0 730.3,256.6 734.9,257.7 739.6,256.3 744.2,239.9 748.9,231.1 753.5,224.4 758.1,224.2 762.8,224.9 767.4,218.1 772.1,201.5 776.7,210.2 781.3,226.5 786.0,220.7 790.6,223.3 795.3,209.9 799.9,214.2 804.5,218.7 809.2,209.2 813.8,200.1 818.5,206.9 823.1,221.0 827.7,223.1 832.4,237.7 837.0,243.8 841.7,241.5 846.3,234.7 851.0,246.1 855.6,243.6 860.2,246.3 864.9,246.8 869.5,250.9 874.2,252.6 878.8,256.2 883.4,255.4 888.1,252.7 892.7,253.2 897.4,251.5 902.0,281.5" fill="none" stroke="#d62728" stroke-width="2.2" stroke-linejoin="round" stroke-linecap="round"/>
<text x="62" y="346" font-family="Arial" font-size="11" fill="#68707a">2025-12-03</text>
<text x="834" y="346" font-family="Arial" font-size="11" fill="#68707a">2026-06-03</text>
<text x="792" y="28" font-family="Arial" font-size="12" fill="#d62728">0.09226</text>
</svg>
