<svg xmlns="http://www.w3.org/2000/svg" width="920" height="360" viewBox="0 0 920 360">
<rect width="100%" height="100%" fill="#ffffff"/>
<text x="24" y="26" font-family="Arial" font-size="18" font-weight="700" fill="#101418">ETHUSD 12m</text>
<text x="24" y="44" font-family="Arial" font-size="12" fill="#68707a">Crypto; normalized close, start=100, change=-29.0%</text>
<line x1='62' y1='318.0' x2='902' y2='318.0' stroke='#e6e8eb'/><text x='12' y='322.0' font-family='Arial' font-size='11' fill='#68707a'>58.6</text><line x1='62' y1='250.5' x2='902' y2='250.5' stroke='#e6e8eb'/><text x='12' y='254.5' font-family='Arial' font-size='11' fill='#68707a'>93.5</text><line x1='62' y1='183.0' x2='902' y2='183.0' stroke='#e6e8eb'/><text x='12' y='187.0' font-family='Arial' font-size='11' fill='#68707a'>128.3</text><line x1='62' y1='115.5' x2='902' y2='115.5' stroke='#e6e8eb'/><text x='12' y='119.5' font-family='Arial' font-size='11' fill='#68707a'>163.1</text><line x1='62' y1='48.0' x2='902' y2='48.0' stroke='#e6e8eb'/><text x='12' y='52.0' font-family='Arial' font-size='11' fill='#68707a'>197.9</text>
<line x1="62" y1="48" x2="62" y2="318" stroke="#c8cdd2"/>
<line x1="62" y1="318" x2="902" y2="318" stroke="#c8cdd2"/>
<polyline points="62.0,237.8 64.3,236.7 66.6,251.0 68.9,246.5 71.2,242.8 73.5,244.0 75.8,231.2 78.2,221.4 80.5,224.3 82.8,233.4 85.1,238.8 87.4,242.3 89.7,241.3 92.0,241.8 94.3,244.0 96.6,243.0 98.9,243.2 101.2,251.7 103.5,259.7 105.8,265.1 108.2,250.6 110.5,248.7 112.8,250.8 115.1,251.1 117.4,250.5 119.7,249.5 122.0,244.7 124.3,245.8 126.6,251.8 128.9,239.5 131.2,238.0 133.5,244.2 135.8,243.5 138.2,239.5 140.5,241.6 142.8,236.2 145.1,224.5 147.4,210.8 149.7,210.6 152.0,211.7 154.3,209.4 156.6,206.4 158.9,197.0 161.2,179.6 163.5,171.8 165.8,166.4 168.2,162.9 170.5,150.6 172.8,150.3 175.1,151.4 177.4,160.3 179.7,154.5 182.0,153.0 184.3,152.0 186.6,142.0 188.9,148.5 191.2,148.1 193.5,147.0 195.8,155.3 198.2,170.9 200.5,178.0 202.8,170.2 205.1,153.7 207.4,161.7 209.7,156.3 212.0,139.1 214.3,131.9 216.6,112.9 218.9,113.6 221.2,115.7 223.5,88.5 225.8,76.1 228.2,91.7 230.5,99.8 232.8,100.8 235.1,97.3 237.4,109.3 239.7,127.2 242.0,107.6 244.3,116.0 246.6,70.5 248.9,74.6 251.2,74.4 253.5,104.8 255.8,87.8 258.2,95.0 260.5,94.7 262.8,105.7 265.1,104.7 267.4,103.5 269.7,109.1 272.0,108.3 274.3,99.0 276.6,110.3 278.9,109.7 281.2,112.1 283.5,109.8 285.8,109.6 288.2,109.5 290.5,106.5 292.8,98.2 295.1,79.2 297.4,82.7 299.7,87.1 302.0,93.3 304.3,95.0 306.6,88.3 308.9,88.5 311.2,97.4 313.5,96.6 315.8,98.9 318.2,117.5 320.5,120.3 322.8,121.2 325.1,142.5 327.4,130.0 329.7,131.3 332.0,122.1 334.3,116.4 336.6,121.7 338.9,106.4 341.2,96.2 343.5,94.2 345.8,96.1 348.2,94.1 350.5,81.2 352.8,98.9 355.1,93.2 357.4,105.1 359.7,144.4 362.0,151.3 364.3,120.4 366.6,114.3 368.9,123.3 371.2,133.6 373.5,140.5 375.8,145.2 378.2,140.8 380.5,133.8 382.8,134.1 385.1,141.9 387.4,147.0 389.7,143.4 392.0,137.5 394.3,136.1 396.6,120.8 398.9,123.7 401.2,134.0 403.5,139.9 405.8,147.3 408.2,144.1 410.5,142.1 412.8,139.3 415.1,162.4 417.4,185.5 419.7,175.6 422.0,184.1 424.3,174.9 426.6,177.5 428.9,163.9 431.2,164.9 433.5,176.4 435.8,176.5 438.2,190.0 440.5,199.7 442.8,195.0 445.1,200.5 447.4,205.6 449.7,198.2 452.0,205.7 454.3,220.0 456.6,224.9 458.9,224.8 461.2,222.2 463.5,210.9 465.8,210.6 468.2,205.3 470.5,206.3 472.8,205.0 475.1,208.0 477.4,208.0 479.7,222.3 482.0,207.6 484.3,193.1 486.6,197.4 488.9,205.6 491.2,204.4 493.5,202.8 495.8,198.1 498.2,183.4 500.5,183.1 502.8,189.7 505.1,201.1 507.4,198.7 509.7,202.9 512.0,210.1 514.3,210.1 516.6,220.0 518.9,220.3 521.2,209.1 523.5,209.1 525.8,207.3 528.2,207.0 530.5,210.1 532.8,211.5 535.1,214.6 537.4,213.0 539.7,211.3 542.0,211.3 544.3,212.3 546.6,209.5 548.9,209.9 551.2,207.4 553.5,198.1 555.8,198.0 558.2,196.9 560.5,190.5 562.8,185.3 565.1,194.9 567.4,199.6 569.7,201.2 572.0,201.3 574.3,198.5 576.6,200.5 578.9,183.3 581.2,180.9 583.5,183.7 585.8,185.3 588.2,184.3 590.5,186.4 592.8,193.5 595.1,212.2 597.4,209.0 599.7,211.2 602.0,210.9 604.3,211.2 606.6,221.2 608.9,212.9 611.2,205.7 613.5,206.9 615.8,221.0 618.2,229.7 620.5,248.9 622.8,262.1 625.1,256.4 627.4,265.2 629.7,271.4 632.0,295.5 634.3,277.4 636.6,275.4 638.9,275.5 641.2,274.4 643.5,280.7 645.8,286.6 648.2,286.1 650.5,278.5 652.8,275.7 655.1,284.7 657.4,282.3 659.7,282.8 662.0,285.6 664.3,286.0 666.6,284.5 668.9,284.1 671.2,285.3 673.5,293.0 675.8,293.2 678.2,278.1 680.5,280.2 682.8,287.3 685.1,284.8 687.4,286.7 689.7,280.1 692.0,283.5 694.3,272.7 696.6,276.8 698.9,283.8 701.2,284.5 703.5,286.9 705.8,282.7 708.2,279.4 710.5,278.3 712.8,276.7 715.1,275.2 717.4,274.9 719.7,268.9 722.0,255.9 724.3,258.4 726.6,266.9 728.9,271.9 731.2,271.2 733.5,276.4 735.8,278.2 738.2,270.8 740.5,270.5 742.8,269.6 745.1,277.7 747.4,282.8 749.7,282.7 752.0,283.5 754.3,280.4 756.6,274.3 758.9,271.8 761.2,277.9 763.5,278.2 765.8,277.3 768.2,274.0 770.5,274.1 772.8,264.1 775.1,267.9 777.4,268.0 779.7,263.8 782.0,260.8 784.3,267.8 786.6,254.5 788.9,258.0 791.2,255.3 793.5,256.1 795.8,250.7 798.2,255.9 800.5,262.4 802.8,258.6 805.1,257.7 807.4,254.1 809.7,257.4 812.0,258.6 814.3,258.3 816.6,254.5 818.9,259.5 821.2,260.5 823.5,263.2 825.8,263.0 828.2,260.1 830.5,258.5 832.8,258.1 835.1,256.3 837.4,255.2 839.7,255.9 842.0,260.4 844.3,259.2 846.6,257.7 848.9,254.6 851.2,256.8 853.5,261.6 855.8,262.9 858.2,261.2 860.5,265.5 862.8,268.7 865.1,272.6 867.4,272.6 869.7,273.9 872.0,272.7 874.3,272.3 876.6,277.3 878.9,273.5 881.2,274.8 883.5,273.8 885.8,276.9 888.2,280.5 890.5,281.6 892.8,281.3 895.1,280.7 897.4,281.8 899.7,281.9 902.0,294.1" fill="none" stroke="#d62728" stroke-width="2.2" stroke-linejoin="round" stroke-linecap="round"/>
<text x="62" y="346" font-family="Arial" font-size="11" fill="#68707a">2025-06-03</text>
<text x="834" y="346" font-family="Arial" font-size="11" fill="#68707a">2026-06-03</text>
<text x="792" y="28" font-family="Arial" font-size="12" fill="#d62728">1840.7</text>
</svg>
