<svg xmlns="http://www.w3.org/2000/svg" width="920" height="360" viewBox="0 0 920 360">
<rect width="100%" height="100%" fill="#ffffff"/>
<text x="24" y="26" font-family="Arial" font-size="18" font-weight="700" fill="#101418">ETHUSD 6m</text>
<text x="24" y="44" font-family="Arial" font-size="12" fill="#68707a">Crypto; normalized close, start=100, change=-42.3%</text>
<line x1='62' y1='318.0' x2='902' y2='318.0' stroke='#e6e8eb'/><text x='12' y='322.0' font-family='Arial' font-size='11' fill='#68707a'>52.3</text><line x1='62' y1='250.5' x2='902' y2='250.5' stroke='#e6e8eb'/><text x='12' y='254.5' font-family='Arial' font-size='11' fill='#68707a'>66.7</text><line x1='62' y1='183.0' x2='902' y2='183.0' stroke='#e6e8eb'/><text x='12' y='187.0' font-family='Arial' font-size='11' fill='#68707a'>81.1</text><line x1='62' y1='115.5' x2='902' y2='115.5' stroke='#e6e8eb'/><text x='12' y='119.5' font-family='Arial' font-size='11' fill='#68707a'>95.5</text><line x1='62' y1='48.0' x2='902' y2='48.0' stroke='#e6e8eb'/><text x='12' y='52.0' font-family='Arial' font-size='11' fill='#68707a'>109.9</text>
<line x1="62" y1="48" x2="62" y2="318" stroke="#c8cdd2"/>
<line x1="62" y1="318" x2="902" y2="318" stroke="#c8cdd2"/>
<polyline points="62.0,94.4 66.6,102.8 71.3,119.0 75.9,116.7 80.6,113.6 85.2,104.2 89.8,75.4 94.5,74.8 99.1,87.8 103.8,110.2 108.4,105.4 113.0,113.7 117.7,127.8 122.3,127.8 127.0,147.3 131.6,147.9 136.3,125.8 140.9,125.9 145.5,122.3 150.2,121.7 154.8,127.9 159.5,130.5 164.1,136.7 168.7,133.5 173.4,130.2 178.0,130.1 182.7,132.2 187.3,126.8 191.9,127.4 196.6,122.5 201.2,104.3 205.9,104.1 210.5,101.9 215.1,89.4 219.8,79.1 224.4,98.1 229.1,107.2 233.7,110.4 238.4,110.5 243.0,105.1 247.6,109.0 252.3,75.3 256.9,70.5 261.6,76.0 266.2,79.2 270.8,77.2 275.5,81.3 280.1,95.2 284.8,132.0 289.4,125.7 294.0,130.0 298.7,129.4 303.3,130.1 308.0,149.6 312.6,133.4 317.2,119.3 321.9,121.6 326.5,149.2 331.2,166.2 335.8,204.0 340.5,230.0 345.1,218.8 349.7,235.9 354.4,248.3 359.0,295.5 363.7,260.0 368.3,256.0 372.9,256.3 377.6,254.1 382.2,266.5 386.9,278.0 391.5,277.1 396.1,262.2 400.8,256.7 405.4,274.3 410.1,269.6 414.7,270.5 419.3,276.1 424.0,276.9 428.6,273.9 433.3,273.2 437.9,275.5 442.6,290.5 447.2,290.9 451.8,261.3 456.5,265.4 461.1,279.5 465.8,274.5 470.4,278.3 475.0,265.3 479.7,271.9 484.3,250.8 489.0,258.8 493.6,272.4 498.2,273.8 502.9,278.6 507.5,270.4 512.2,263.9 516.8,261.8 521.4,258.6 526.1,255.7 530.7,255.1 535.4,243.3 540.0,217.8 544.7,222.6 549.3,239.4 553.9,249.2 558.6,247.8 563.2,258.1 567.9,261.5 572.5,247.0 577.1,246.5 581.8,244.7 586.4,260.6 591.1,270.6 595.7,270.4 600.3,271.9 605.0,265.9 609.6,254.0 614.3,249.0 618.9,261.0 623.5,261.5 628.2,259.7 632.8,253.3 637.5,253.5 642.1,233.8 646.8,241.4 651.4,241.6 656.0,233.3 660.7,227.4 665.3,241.1 670.0,214.9 674.6,221.9 679.2,216.6 683.9,218.2 688.5,207.5 693.2,217.8 697.8,230.4 702.4,223.1 707.1,221.2 711.7,214.1 716.4,220.7 721.0,223.0 725.6,222.5 730.3,215.1 734.9,224.8 739.6,226.9 744.2,232.1 748.9,231.7 753.5,226.0 758.1,222.9 762.8,222.1 767.4,218.5 772.1,216.3 776.7,217.8 781.3,226.6 786.0,224.3 790.6,221.4 795.3,215.2 799.9,219.5 804.5,229.0 809.2,231.5 813.8,228.1 818.5,236.6 823.1,242.9 827.7,250.6 832.4,250.5 837.0,253.2 841.7,250.7 846.3,250.0 851.0,259.8 855.6,252.3 860.2,254.9 864.9,253.0 869.5,258.9 874.2,266.1 878.8,268.2 883.4,267.6 888.1,266.5 892.7,268.7 897.4,268.9 902.0,292.7" fill="none" stroke="#d62728" stroke-width="2.2" stroke-linejoin="round" stroke-linecap="round"/>
<text x="62" y="346" font-family="Arial" font-size="11" fill="#68707a">2025-12-03</text>
<text x="834" y="346" font-family="Arial" font-size="11" fill="#68707a">2026-06-03</text>
<text x="792" y="28" font-family="Arial" font-size="12" fill="#d62728">1840.7</text>
</svg>
