<svg xmlns="http://www.w3.org/2000/svg" width="920" height="360" viewBox="0 0 920 360">
<rect width="100%" height="100%" fill="#ffffff"/>
<text x="24" y="26" font-family="Arial" font-size="18" font-weight="700" fill="#101418">EURAUD 6m</text>
<text x="24" y="44" font-family="Arial" font-size="12" fill="#68707a">Forex cross; normalized close, start=100, change=-8.5%</text>
<line x1='62' y1='318.0' x2='902' y2='318.0' stroke='#e6e8eb'/><text x='12' y='322.0' font-family='Arial' font-size='11' fill='#68707a'>90.1</text><line x1='62' y1='250.5' x2='902' y2='250.5' stroke='#e6e8eb'/><text x='12' y='254.5' font-family='Arial' font-size='11' fill='#68707a'>92.9</text><line x1='62' y1='183.0' x2='902' y2='183.0' stroke='#e6e8eb'/><text x='12' y='187.0' font-family='Arial' font-size='11' fill='#68707a'>95.6</text><line x1='62' y1='115.5' x2='902' y2='115.5' stroke='#e6e8eb'/><text x='12' y='119.5' font-family='Arial' font-size='11' fill='#68707a'>98.4</text><line x1='62' y1='48.0' x2='902' y2='48.0' stroke='#e6e8eb'/><text x='12' y='52.0' font-family='Arial' font-size='11' fill='#68707a'>101.2</text>
<line x1="62" y1="48" x2="62" y2="318" stroke="#c8cdd2"/>
<line x1="62" y1="318" x2="902" y2="318" stroke="#c8cdd2"/>
<polyline points="62.0,76.6 68.6,84.1 75.1,87.2 81.7,93.0 88.2,104.2 94.8,101.2 101.4,108.3 107.9,105.7 114.5,93.6 121.1,88.4 127.6,82.8 134.2,80.4 140.8,70.5 147.3,78.5 153.9,81.1 160.4,87.0 167.0,96.3 173.6,99.9 180.1,105.5 186.7,98.4 193.2,104.3 199.8,97.0 206.4,108.5 212.9,116.9 219.5,131.1 226.1,127.8 232.6,123.5 239.2,125.8 245.8,124.7 252.3,121.0 258.9,120.0 265.4,134.4 272.0,126.3 278.6,131.1 285.1,120.8 291.7,140.2 298.2,153.5 304.8,158.0 311.4,154.8 317.9,154.3 324.5,177.4 331.1,181.6 337.6,170.7 344.2,183.9 350.8,202.8 357.3,196.3 363.9,174.9 370.4,204.7 377.0,205.7 383.6,205.7 390.1,224.6 396.7,213.8 403.2,208.4 409.8,212.7 416.4,215.8 422.9,215.1 429.5,222.9 436.1,228.1 442.6,219.6 449.2,223.0 455.8,234.8 462.3,231.2 468.9,225.5 475.4,253.2 482.0,248.7 488.6,255.5 495.1,239.9 501.7,242.1 508.2,256.6 514.8,273.9 521.4,290.2 527.9,277.4 534.5,272.1 541.1,279.5 547.6,284.6 554.2,274.0 560.8,268.3 567.3,248.2 573.9,238.3 580.4,233.9 587.0,226.7 593.6,213.4 600.1,209.8 606.7,215.1 613.2,216.7 619.8,214.5 626.4,220.2 632.9,217.9 639.5,222.0 646.1,245.7 652.6,239.0 659.2,244.4 665.8,229.5 672.3,238.0 678.9,240.7 685.4,254.0 692.0,253.5 698.6,253.6 705.1,257.8 711.7,259.8 718.2,267.7 724.8,262.9 731.4,263.1 737.9,274.8 744.5,274.4 751.1,262.8 757.6,276.7 764.2,280.2 770.8,273.3 777.3,280.2 783.9,283.8 790.4,278.8 797.0,279.9 803.6,281.3 810.1,286.9 816.7,295.5 823.2,293.7 829.8,276.7 836.4,281.5 842.9,269.9 849.5,280.6 856.1,281.6 862.6,279.7 869.2,284.4 875.8,285.0 882.3,276.9 888.9,279.7 895.4,285.7 902.0,283.4" fill="none" stroke="#d62728" stroke-width="2.2" stroke-linejoin="round" stroke-linecap="round"/>
<text x="62" y="346" font-family="Arial" font-size="11" fill="#68707a">2025-12-02</text>
<text x="834" y="346" font-family="Arial" font-size="11" fill="#68707a">2026-06-02</text>
<text x="792" y="28" font-family="Arial" font-size="12" fill="#d62728">1.6239</text>
</svg>
