<svg xmlns="http://www.w3.org/2000/svg" width="920" height="360" viewBox="0 0 920 360">
<rect width="100%" height="100%" fill="#ffffff"/>
<text x="24" y="26" font-family="Arial" font-size="18" font-weight="700" fill="#101418">EURAUD 12m</text>
<text x="24" y="44" font-family="Arial" font-size="12" fill="#68707a">Forex cross; normalized close, start=100, change=-7.8%</text>
<line x1='62' y1='318.0' x2='902' y2='318.0' stroke='#e6e8eb'/><text x='12' y='322.0' font-family='Arial' font-size='11' fill='#68707a'>90.6</text><line x1='62' y1='250.5' x2='902' y2='250.5' stroke='#e6e8eb'/><text x='12' y='254.5' font-family='Arial' font-size='11' fill='#68707a'>93.9</text><line x1='62' y1='183.0' x2='902' y2='183.0' stroke='#e6e8eb'/><text x='12' y='187.0' font-family='Arial' font-size='11' fill='#68707a'>97.2</text><line x1='62' y1='115.5' x2='902' y2='115.5' stroke='#e6e8eb'/><text x='12' y='119.5' font-family='Arial' font-size='11' fill='#68707a'>100.5</text><line x1='62' y1='48.0' x2='902' y2='48.0' stroke='#e6e8eb'/><text x='12' y='52.0' font-family='Arial' font-size='11' fill='#68707a'>103.9</text>
<line x1="62" y1="48" x2="62" y2="318" stroke="#c8cdd2"/>
<line x1="62" y1="318" x2="902" y2="318" stroke="#c8cdd2"/>
<polyline points="62.0,126.4 65.2,125.8 68.5,127.9 71.7,128.7 75.0,129.4 78.2,134.4 81.5,136.4 84.7,137.5 87.9,119.4 91.2,109.1 94.4,106.7 97.7,111.6 100.9,114.7 104.2,124.5 107.4,111.5 110.6,101.0 113.9,93.3 117.1,96.2 120.4,92.6 123.6,98.7 126.9,88.2 130.1,91.3 133.4,89.3 136.6,91.0 139.8,94.5 143.1,84.7 146.3,78.0 149.6,85.9 152.8,88.3 156.1,111.8 159.3,109.8 162.5,102.5 165.8,104.9 169.0,101.4 172.3,96.8 175.5,98.6 178.8,92.8 182.0,92.9 185.2,101.7 188.5,102.8 191.7,95.0 195.0,107.6 198.2,113.1 201.5,113.9 204.7,109.2 207.9,92.8 211.2,95.0 214.4,95.3 217.7,89.2 220.9,94.8 224.2,97.3 227.4,101.6 230.6,96.0 233.9,96.5 237.1,90.4 240.4,85.1 243.6,86.4 246.9,78.1 250.1,70.5 253.4,74.0 256.6,76.1 259.8,91.7 263.1,91.9 266.3,95.4 269.6,96.1 272.8,98.0 276.1,97.7 279.3,100.0 282.5,103.6 285.8,97.1 289.0,97.5 292.3,101.3 295.5,108.8 298.8,119.2 302.0,128.6 305.2,124.5 308.5,125.3 311.7,111.6 315.0,108.2 318.2,103.9 321.5,104.0 324.7,96.5 327.9,93.3 331.2,102.0 334.4,100.9 337.7,97.9 340.9,101.8 344.2,111.0 347.4,112.7 350.6,108.8 353.9,109.9 357.1,117.2 360.4,115.9 363.6,121.4 366.9,125.3 370.1,99.3 373.4,109.8 376.6,97.1 379.8,94.4 383.1,76.9 386.3,90.6 389.6,97.5 392.8,97.6 396.1,94.9 399.3,101.8 402.5,105.3 405.8,109.6 409.0,116.7 412.3,123.7 415.5,123.8 418.8,127.4 422.0,126.6 425.2,116.3 428.5,121.6 431.7,104.2 435.0,111.1 438.2,118.8 441.5,111.8 444.7,113.1 447.9,103.9 451.2,108.0 454.4,99.6 457.7,106.4 460.9,107.7 464.2,95.8 467.4,104.8 470.6,103.7 473.9,97.1 477.1,107.5 480.4,111.5 483.6,116.1 486.9,112.1 490.1,118.4 493.4,121.0 496.6,125.9 499.8,135.3 503.1,132.7 506.3,138.6 509.6,136.5 512.8,126.3 516.1,122.0 519.3,117.3 522.5,115.3 525.8,107.0 529.0,113.7 532.3,115.9 535.5,120.8 538.8,128.6 542.0,131.6 545.2,136.4 548.5,130.4 551.7,135.3 555.0,129.2 558.2,138.8 561.5,145.9 564.7,157.7 567.9,155.0 571.2,151.4 574.4,153.3 577.7,152.4 580.9,149.3 584.2,148.4 587.4,160.5 590.6,153.8 593.9,157.8 597.1,149.1 600.4,165.4 603.6,176.5 606.9,180.3 610.1,177.6 613.4,177.2 616.6,196.6 619.8,200.1 623.1,191.0 626.3,202.0 629.6,217.8 632.8,212.4 636.1,194.4 639.3,219.4 642.5,220.3 645.8,220.2 649.0,236.1 652.3,227.0 655.5,222.5 658.8,226.1 662.0,228.7 665.2,228.1 668.5,234.7 671.7,239.0 675.0,231.9 678.2,234.8 681.5,244.7 684.7,241.6 687.9,236.8 691.2,260.0 694.4,256.3 697.7,262.0 700.9,249.0 704.2,250.7 707.4,262.9 710.6,277.4 713.9,291.0 717.1,280.4 720.4,275.9 723.6,282.1 726.9,286.4 730.1,277.5 733.4,272.7 736.6,255.8 739.8,247.6 743.1,243.9 746.3,237.8 749.6,226.8 752.8,223.7 756.1,228.2 759.3,229.4 762.5,227.6 765.8,232.4 769.0,230.5 772.3,233.9 775.5,253.8 778.8,248.2 782.0,252.7 785.2,240.2 788.5,247.3 791.7,249.6 795.0,260.7 798.2,260.3 801.5,260.4 804.7,263.9 807.9,265.6 811.2,272.2 814.4,268.2 817.7,268.4 820.9,278.1 824.2,277.9 827.4,268.1 830.6,279.8 833.9,282.7 837.1,276.9 840.4,282.6 843.6,285.7 846.9,281.5 850.1,282.4 853.4,283.6 856.6,288.3 859.8,295.5 863.1,294.0 866.3,279.7 869.6,283.7 872.8,274.1 876.1,283.0 879.3,283.8 882.5,282.3 885.8,286.2 889.0,286.7 892.3,279.9 895.5,282.3 898.8,287.3 902.0,285.3" fill="none" stroke="#d62728" stroke-width="2.2" stroke-linejoin="round" stroke-linecap="round"/>
<text x="62" y="346" font-family="Arial" font-size="11" fill="#68707a">2025-06-02</text>
<text x="834" y="346" font-family="Arial" font-size="11" fill="#68707a">2026-06-02</text>
<text x="792" y="28" font-family="Arial" font-size="12" fill="#d62728">1.6239</text>
</svg>
