<svg xmlns="http://www.w3.org/2000/svg" width="920" height="360" viewBox="0 0 920 360">
<rect width="100%" height="100%" fill="#ffffff"/>
<text x="24" y="26" font-family="Arial" font-size="18" font-weight="700" fill="#101418">EURCHF 12m</text>
<text x="24" y="44" font-family="Arial" font-size="12" fill="#68707a">Forex cross; normalized close, start=100, change=-2.0%</text>
<line x1='62' y1='318.0' x2='902' y2='318.0' stroke='#e6e8eb'/><text x='12' y='322.0' font-family='Arial' font-size='11' fill='#68707a'>95.9</text><line x1='62' y1='250.5' x2='902' y2='250.5' stroke='#e6e8eb'/><text x='12' y='254.5' font-family='Arial' font-size='11' fill='#68707a'>97.4</text><line x1='62' y1='183.0' x2='902' y2='183.0' stroke='#e6e8eb'/><text x='12' y='187.0' font-family='Arial' font-size='11' fill='#68707a'>98.8</text><line x1='62' y1='115.5' x2='902' y2='115.5' stroke='#e6e8eb'/><text x='12' y='119.5' font-family='Arial' font-size='11' fill='#68707a'>100.2</text><line x1='62' y1='48.0' x2='902' y2='48.0' stroke='#e6e8eb'/><text x='12' y='52.0' font-family='Arial' font-size='11' fill='#68707a'>101.7</text>
<line x1="62" y1="48" x2="62" y2="318" stroke="#c8cdd2"/>
<line x1="62" y1="318" x2="902" y2="318" stroke="#c8cdd2"/>
<polyline points="62.0,126.1 65.2,120.8 68.5,109.0 71.7,121.7 75.0,101.2 78.2,108.8 81.5,100.8 84.7,92.3 87.9,82.7 91.2,100.3 94.4,110.4 97.7,93.1 100.9,103.2 104.2,93.1 107.4,94.4 110.6,90.6 113.9,80.2 117.1,118.4 120.4,97.4 123.6,111.4 126.9,112.4 130.1,120.8 133.4,126.0 136.6,122.1 139.8,119.3 143.1,114.9 146.3,115.4 149.6,127.7 152.8,142.4 156.1,131.9 159.3,139.4 162.5,139.2 165.8,142.2 169.0,133.6 172.3,130.4 175.5,134.2 178.8,126.5 182.0,135.1 185.2,130.1 188.5,121.0 191.7,117.9 195.0,135.8 198.2,141.4 201.5,146.4 204.7,145.0 207.9,135.5 211.2,118.5 214.4,121.5 217.7,92.5 220.9,89.1 224.2,90.0 227.4,76.4 230.6,86.0 233.9,80.6 237.1,88.1 240.4,71.6 243.6,82.4 246.9,90.6 250.1,108.7 253.4,97.6 256.6,95.9 259.8,111.1 263.1,115.7 266.3,125.2 269.6,111.4 272.8,113.4 276.1,105.8 279.3,108.8 282.5,106.6 285.8,100.4 289.0,112.6 292.3,128.0 295.5,127.1 298.8,119.8 302.0,123.4 305.2,122.2 308.5,119.4 311.7,128.5 315.0,132.0 318.2,121.8 321.5,120.7 324.7,117.7 327.9,118.1 331.2,126.8 334.4,127.9 337.7,125.6 340.9,116.1 344.2,120.3 347.4,117.9 350.6,120.5 353.9,124.9 357.1,139.0 360.4,140.0 363.6,132.8 366.9,131.2 370.1,139.2 373.4,142.4 376.6,144.0 379.8,155.3 383.1,161.7 386.3,168.5 389.6,180.2 392.8,173.0 396.1,173.3 399.3,175.4 402.5,164.1 405.8,164.6 409.0,173.1 412.3,151.9 415.5,155.6 418.8,154.3 422.0,138.8 425.2,140.2 428.5,138.9 431.7,138.7 435.0,135.1 438.2,140.9 441.5,156.9 444.7,169.8 447.9,181.1 451.2,181.2 454.4,179.6 457.7,160.4 460.9,146.5 464.2,148.1 467.4,140.2 470.6,136.0 473.9,121.2 477.1,132.3 480.4,126.7 483.6,133.5 486.9,122.8 490.1,124.6 493.4,128.0 496.6,114.1 499.8,108.8 503.1,97.9 506.3,106.9 509.6,116.6 512.8,128.2 516.1,120.9 519.3,114.8 522.5,121.6 525.8,124.8 529.0,138.5 532.3,134.9 535.5,137.8 538.8,149.4 542.0,149.9 545.2,148.3 548.5,149.5 551.7,143.0 555.0,140.2 558.2,150.5 561.5,153.8 564.7,143.4 567.9,136.2 571.2,135.2 574.4,134.9 577.7,142.1 580.9,130.2 584.2,136.6 587.4,129.8 590.6,151.2 593.9,150.2 597.1,163.6 600.4,145.6 603.6,156.3 606.9,181.6 610.1,178.6 613.4,208.5 616.6,208.5 619.8,220.9 623.1,211.3 626.3,198.6 629.6,211.2 632.8,207.7 636.1,214.5 639.3,207.0 642.5,228.3 645.8,225.6 649.0,215.2 652.3,227.9 655.5,236.2 658.8,234.0 662.0,230.4 665.2,241.6 668.5,231.8 671.7,228.1 675.0,228.9 678.2,239.3 681.5,233.1 684.7,231.4 687.9,270.4 691.2,240.7 694.4,255.1 697.7,262.2 700.9,263.8 704.2,294.4 707.4,276.6 710.6,274.8 713.9,283.3 717.1,270.8 720.4,278.7 723.6,263.8 726.9,266.0 730.1,251.4 733.4,228.2 736.6,240.7 739.8,228.9 743.1,218.1 746.3,218.5 749.6,210.8 752.8,198.5 756.1,212.1 759.3,177.7 762.5,192.8 765.8,185.2 769.0,183.5 772.3,188.4 775.5,175.3 778.8,180.3 782.0,170.6 785.2,166.8 788.5,186.1 791.7,187.2 795.0,181.5 798.2,180.7 801.5,193.8 804.7,206.9 807.9,210.8 811.2,200.7 814.4,200.9 817.7,190.8 820.9,190.9 824.2,171.2 827.4,174.6 830.6,210.3 833.9,214.2 837.1,211.4 840.4,217.1 843.6,219.5 846.9,216.7 850.1,218.2 853.4,211.2 856.6,214.4 859.8,215.2 863.1,221.6 866.3,222.5 869.6,222.8 872.8,216.5 876.1,219.2 879.3,226.2 882.5,241.0 885.8,237.9 889.0,226.3 892.3,218.6 895.5,227.8 898.8,240.7 902.0,220.1" fill="none" stroke="#d62728" stroke-width="2.2" stroke-linejoin="round" stroke-linecap="round"/>
<text x="62" y="346" font-family="Arial" font-size="11" fill="#68707a">2025-06-02</text>
<text x="834" y="346" font-family="Arial" font-size="11" fill="#68707a">2026-06-02</text>
<text x="792" y="28" font-family="Arial" font-size="12" fill="#d62728">0.9148</text>
</svg>
