<svg xmlns="http://www.w3.org/2000/svg" width="920" height="360" viewBox="0 0 920 360">
<rect width="100%" height="100%" fill="#ffffff"/>
<text x="24" y="26" font-family="Arial" font-size="18" font-weight="700" fill="#101418">EURCHF 6m</text>
<text x="24" y="44" font-family="Arial" font-size="12" fill="#68707a">Forex cross; normalized close, start=100, change=-2.1%</text>
<line x1='62' y1='318.0' x2='902' y2='318.0' stroke='#e6e8eb'/><text x='12' y='322.0' font-family='Arial' font-size='11' fill='#68707a'>95.9</text><line x1='62' y1='250.5' x2='902' y2='250.5' stroke='#e6e8eb'/><text x='12' y='254.5' font-family='Arial' font-size='11' fill='#68707a'>97.2</text><line x1='62' y1='183.0' x2='902' y2='183.0' stroke='#e6e8eb'/><text x='12' y='187.0' font-family='Arial' font-size='11' fill='#68707a'>98.4</text><line x1='62' y1='115.5' x2='902' y2='115.5' stroke='#e6e8eb'/><text x='12' y='119.5' font-family='Arial' font-size='11' fill='#68707a'>99.7</text><line x1='62' y1='48.0' x2='902' y2='48.0' stroke='#e6e8eb'/><text x='12' y='52.0' font-family='Arial' font-size='11' fill='#68707a'>101.0</text>
<line x1="62" y1="48" x2="62" y2="318" stroke="#c8cdd2"/>
<line x1="62" y1="318" x2="902" y2="318" stroke="#c8cdd2"/>
<polyline points="62.0,101.8 68.6,103.7 75.1,107.6 81.7,92.2 88.2,86.3 94.8,74.2 101.4,84.2 107.9,94.9 114.5,107.8 121.1,99.7 127.6,92.9 134.2,100.5 140.8,104.0 147.3,119.2 153.9,115.2 160.4,118.4 167.0,131.3 173.6,131.9 180.1,130.1 186.7,131.4 193.2,124.1 199.8,121.0 206.4,132.4 212.9,136.1 219.5,124.6 226.1,116.6 232.6,115.5 239.2,115.2 245.8,123.2 252.3,110.0 258.9,117.1 265.4,109.5 272.0,133.2 278.6,132.1 285.1,147.0 291.7,127.0 298.2,138.9 304.8,166.9 311.4,163.6 317.9,196.7 324.5,196.7 331.1,210.4 337.6,199.8 344.2,185.7 350.8,199.7 357.3,195.8 363.9,203.4 370.4,195.0 377.0,218.7 383.6,215.6 390.1,204.1 396.7,218.2 403.2,227.4 409.8,225.0 416.4,220.9 422.9,233.4 429.5,222.5 436.1,218.4 442.6,219.3 449.2,230.8 455.8,224.0 462.3,222.1 468.9,265.3 475.4,232.4 482.0,248.3 488.6,256.2 495.1,257.9 501.7,291.8 508.2,272.2 514.8,270.2 521.4,279.5 527.9,265.7 534.5,274.4 541.1,257.9 547.6,260.4 554.2,244.2 560.8,218.6 567.3,232.4 573.9,219.3 580.4,207.3 587.0,207.8 593.6,199.3 600.1,185.6 606.7,200.7 613.2,162.6 619.8,179.3 626.4,170.9 632.9,169.0 639.5,174.4 646.1,159.9 652.6,165.5 659.2,154.7 665.8,150.5 672.3,171.9 678.9,173.1 685.4,166.8 692.0,165.9 698.6,180.5 705.1,195.0 711.7,199.3 718.2,188.0 724.8,188.3 731.4,177.1 737.9,177.2 744.5,155.4 751.1,159.2 757.6,198.7 764.2,203.1 770.8,199.9 777.3,206.2 783.9,208.9 790.4,205.8 797.0,207.5 803.6,199.7 810.1,203.2 816.7,204.1 823.2,211.2 829.8,212.2 836.4,212.6 842.9,205.6 849.5,208.6 856.1,216.3 862.6,232.7 869.2,229.2 875.8,216.4 882.3,207.9 888.9,218.1 895.4,232.4 902.0,209.6" fill="none" stroke="#d62728" stroke-width="2.2" stroke-linejoin="round" stroke-linecap="round"/>
<text x="62" y="346" font-family="Arial" font-size="11" fill="#68707a">2025-12-02</text>
<text x="834" y="346" font-family="Arial" font-size="11" fill="#68707a">2026-06-02</text>
<text x="792" y="28" font-family="Arial" font-size="12" fill="#d62728">0.9148</text>
</svg>
