<svg xmlns="http://www.w3.org/2000/svg" width="920" height="360" viewBox="0 0 920 360">
<rect width="100%" height="100%" fill="#ffffff"/>
<text x="24" y="26" font-family="Arial" font-size="18" font-weight="700" fill="#101418">EURCAD 6m</text>
<text x="24" y="44" font-family="Arial" font-size="12" fill="#68707a">Forex cross; normalized close, start=100, change=-0.9%</text>
<line x1='62' y1='318.0' x2='902' y2='318.0' stroke='#e6e8eb'/><text x='12' y='322.0' font-family='Arial' font-size='11' fill='#68707a'>96.0</text><line x1='62' y1='250.5' x2='902' y2='250.5' stroke='#e6e8eb'/><text x='12' y='254.5' font-family='Arial' font-size='11' fill='#68707a'>97.3</text><line x1='62' y1='183.0' x2='902' y2='183.0' stroke='#e6e8eb'/><text x='12' y='187.0' font-family='Arial' font-size='11' fill='#68707a'>98.5</text><line x1='62' y1='115.5' x2='902' y2='115.5' stroke='#e6e8eb'/><text x='12' y='119.5' font-family='Arial' font-size='11' fill='#68707a'>99.8</text><line x1='62' y1='48.0' x2='902' y2='48.0' stroke='#e6e8eb'/><text x='12' y='52.0' font-family='Arial' font-size='11' fill='#68707a'>101.1</text>
<line x1="62" y1="48" x2="62" y2="318" stroke="#c8cdd2"/>
<line x1="62" y1="318" x2="902" y2="318" stroke="#c8cdd2"/>
<polyline points="62.0,104.1 68.6,93.1 75.1,100.7 81.7,149.8 88.2,144.3 94.8,151.2 101.4,141.2 107.9,127.8 114.5,131.3 121.1,123.0 127.6,130.6 134.2,123.7 140.8,133.1 147.3,136.4 153.9,126.0 160.4,137.8 167.0,147.4 173.6,154.5 180.1,147.5 186.7,156.0 193.2,145.0 199.8,154.3 206.4,139.6 212.9,135.3 219.5,124.8 226.1,130.6 232.6,127.3 239.2,122.0 245.8,129.0 252.3,128.7 258.9,143.6 265.4,132.0 272.0,135.4 278.6,110.6 285.1,132.2 291.7,117.3 298.2,102.8 304.8,90.5 311.4,74.7 317.9,113.9 324.5,136.7 331.1,132.2 337.6,140.4 344.2,146.0 350.8,140.4 357.3,136.2 363.9,133.8 370.4,136.4 377.0,147.1 383.6,143.9 390.1,133.3 396.7,131.1 403.2,132.0 409.8,130.3 416.4,135.9 422.9,148.8 429.5,133.8 436.1,134.8 442.6,140.8 449.2,132.5 455.8,137.8 462.3,160.0 468.9,187.6 475.4,224.1 482.0,225.1 488.6,227.2 495.1,291.3 501.7,254.8 508.2,259.4 514.8,283.1 521.4,280.2 527.9,289.3 534.5,270.1 541.1,250.4 547.6,269.6 554.2,216.3 560.8,233.4 567.3,204.2 573.9,191.1 580.4,194.8 587.0,191.3 593.6,192.4 600.1,197.7 606.7,155.0 613.2,156.9 619.8,164.1 626.4,167.6 632.9,165.9 639.5,126.2 646.1,136.1 652.6,131.6 659.2,119.7 665.8,111.3 672.3,104.5 678.9,114.8 685.4,138.5 692.0,155.0 698.6,158.1 705.1,171.0 711.7,183.1 718.2,182.6 724.8,181.3 731.4,194.4 737.9,174.4 744.5,193.0 751.1,207.8 757.6,207.2 764.2,208.8 770.8,204.3 777.3,177.2 783.9,175.8 790.4,150.7 797.0,147.3 803.6,159.6 810.1,167.1 816.7,182.2 823.2,189.9 829.8,180.0 836.4,198.2 842.9,190.7 849.5,182.2 856.1,161.5 862.6,162.8 869.2,161.8 875.8,157.2 882.3,164.5 888.9,160.6 895.4,149.3 902.0,151.4" fill="none" stroke="#d62728" stroke-width="2.2" stroke-linejoin="round" stroke-linecap="round"/>
<text x="62" y="346" font-family="Arial" font-size="11" fill="#68707a">2025-12-03</text>
<text x="834" y="346" font-family="Arial" font-size="11" fill="#68707a">2026-06-03</text>
<text x="792" y="28" font-family="Arial" font-size="12" fill="#d62728">1.6098</text>
</svg>
