<svg xmlns="http://www.w3.org/2000/svg" width="920" height="360" viewBox="0 0 920 360">
<rect width="100%" height="100%" fill="#ffffff"/>
<text x="24" y="26" font-family="Arial" font-size="18" font-weight="700" fill="#101418">EURCAD 12m</text>
<text x="24" y="44" font-family="Arial" font-size="12" fill="#68707a">Forex cross; normalized close, start=100, change=+2.5%</text>
<line x1='62' y1='318.0' x2='902' y2='318.0' stroke='#e6e8eb'/><text x='12' y='322.0' font-family='Arial' font-size='11' fill='#68707a'>98.9</text><line x1='62' y1='250.5' x2='902' y2='250.5' stroke='#e6e8eb'/><text x='12' y='254.5' font-family='Arial' font-size='11' fill='#68707a'>100.5</text><line x1='62' y1='183.0' x2='902' y2='183.0' stroke='#e6e8eb'/><text x='12' y='187.0' font-family='Arial' font-size='11' fill='#68707a'>102.0</text><line x1='62' y1='115.5' x2='902' y2='115.5' stroke='#e6e8eb'/><text x='12' y='119.5' font-family='Arial' font-size='11' fill='#68707a'>103.6</text><line x1='62' y1='48.0' x2='902' y2='48.0' stroke='#e6e8eb'/><text x='12' y='52.0' font-family='Arial' font-size='11' fill='#68707a'>105.2</text>
<line x1="62" y1="48" x2="62" y2="318" stroke="#c8cdd2"/>
<line x1="62" y1="318" x2="902" y2="318" stroke="#c8cdd2"/>
<polyline points="62.0,270.8 65.2,295.5 68.5,292.2 71.7,284.3 75.0,294.2 78.2,283.9 81.5,289.6 84.7,264.3 87.9,251.7 91.2,275.4 94.4,276.9 97.7,268.1 100.9,266.4 104.2,253.9 107.4,243.9 110.6,210.3 113.9,205.9 117.1,183.4 120.4,202.7 123.6,177.0 126.9,179.1 130.1,160.6 133.4,179.7 136.6,195.5 139.8,182.2 143.1,178.7 146.3,182.3 149.6,174.4 152.8,194.7 156.1,192.5 159.3,192.4 162.5,210.8 165.8,208.8 169.0,201.5 172.3,199.7 175.5,191.0 178.8,197.3 182.0,185.2 185.2,180.7 188.5,159.8 191.7,209.1 195.0,214.0 198.2,243.9 201.5,236.0 204.7,199.1 207.9,204.3 211.2,204.1 214.4,182.8 217.7,179.8 220.9,183.9 224.2,188.7 227.4,167.4 230.6,159.6 233.9,163.5 237.1,141.9 240.4,160.7 243.6,150.0 246.9,144.2 250.1,150.0 253.4,136.3 256.6,162.9 259.8,161.8 263.1,175.7 266.3,172.5 269.6,172.4 272.8,160.2 276.1,179.5 279.3,166.3 282.5,160.6 285.8,133.0 289.0,125.0 292.3,133.3 295.5,128.4 298.8,125.2 302.0,126.7 305.2,133.3 308.5,104.2 311.7,112.0 315.0,118.1 318.2,140.6 321.5,102.8 324.7,93.5 327.9,101.4 331.2,118.1 334.4,102.6 337.7,100.0 340.9,96.1 344.2,91.4 347.4,89.0 350.6,91.8 353.9,98.7 357.1,117.7 360.4,126.3 363.6,130.2 366.9,123.1 370.1,124.0 373.4,108.2 376.6,91.5 379.8,70.5 383.1,96.2 386.3,95.8 389.6,116.9 392.8,124.4 396.1,120.7 399.3,113.5 402.5,106.3 405.8,121.0 409.0,141.5 412.3,140.9 415.5,146.5 418.8,137.0 422.0,135.7 425.2,131.4 428.5,107.9 431.7,131.1 435.0,132.0 438.2,123.5 441.5,124.2 444.7,100.7 447.9,112.1 451.2,111.1 454.4,135.7 457.7,133.1 460.9,119.6 464.2,129.2 467.4,120.2 470.6,104.4 473.9,110.8 477.1,115.4 480.4,132.5 483.6,120.7 486.9,122.6 490.1,113.4 493.4,119.8 496.6,160.7 499.8,156.1 503.1,161.9 506.3,153.5 509.6,142.3 512.8,145.3 516.1,138.3 519.3,144.7 522.5,139.0 525.8,146.8 529.0,149.5 532.3,140.9 535.5,150.7 538.8,158.8 542.0,164.7 545.2,158.8 548.5,165.9 551.7,156.8 555.0,164.5 558.2,152.2 561.5,148.6 564.7,139.9 567.9,144.7 571.2,142.0 574.4,137.5 577.7,143.4 580.9,143.1 584.2,155.5 587.4,145.9 590.6,148.7 593.9,128.0 597.1,146.1 600.4,133.6 603.6,121.5 606.9,111.2 610.1,98.0 613.4,130.8 616.6,149.8 619.8,146.1 623.1,152.9 626.3,157.6 629.6,152.9 632.8,149.4 636.1,147.4 639.3,149.6 642.5,158.5 645.8,155.8 649.0,146.9 652.3,145.2 655.5,145.9 658.8,144.5 662.0,149.1 665.2,159.9 668.5,147.4 671.7,148.2 675.0,153.2 678.2,146.3 681.5,150.7 684.7,169.2 687.9,192.2 691.2,222.8 694.4,223.6 697.7,225.4 700.9,278.8 704.2,248.4 707.4,252.2 710.6,272.0 713.9,269.6 717.1,277.2 720.4,261.1 723.6,244.7 726.9,260.7 730.1,216.2 733.4,230.6 736.6,206.2 739.8,195.2 743.1,198.3 746.3,195.4 749.6,196.3 752.8,200.8 756.1,165.1 759.3,166.7 762.5,172.7 765.8,175.6 769.0,174.2 772.3,141.0 775.5,149.3 778.8,145.5 782.0,135.6 785.2,128.6 788.5,123.0 791.7,131.5 795.0,151.3 798.2,165.1 801.5,167.7 804.7,178.4 807.9,188.5 811.2,188.1 814.4,187.0 817.7,198.0 820.9,181.3 824.2,196.8 827.4,209.2 830.6,208.7 833.9,209.9 837.1,206.2 840.4,183.6 843.6,182.4 846.9,161.5 850.1,158.7 853.4,168.9 856.6,175.2 859.8,187.8 863.1,194.2 866.3,186.0 869.6,201.1 872.8,194.9 876.1,187.8 879.3,170.5 882.5,171.6 885.8,170.8 889.0,166.9 892.3,173.0 895.5,169.7 898.8,160.3 902.0,162.0" fill="none" stroke="#1f77b4" stroke-width="2.2" stroke-linejoin="round" stroke-linecap="round"/>
<text x="62" y="346" font-family="Arial" font-size="11" fill="#68707a">2025-06-03</text>
<text x="834" y="346" font-family="Arial" font-size="11" fill="#68707a">2026-06-03</text>
<text x="792" y="28" font-family="Arial" font-size="12" fill="#1f77b4">1.6098</text>
</svg>
