<svg xmlns="http://www.w3.org/2000/svg" width="920" height="360" viewBox="0 0 920 360">
<rect width="100%" height="100%" fill="#ffffff"/>
<text x="24" y="26" font-family="Arial" font-size="18" font-weight="700" fill="#101418">EURGBP 6m</text>
<text x="24" y="44" font-family="Arial" font-size="12" fill="#68707a">Forex cross; normalized close, start=100, change=-1.8%</text>
<line x1='62' y1='318.0' x2='902' y2='318.0' stroke='#e6e8eb'/><text x='12' y='322.0' font-family='Arial' font-size='11' fill='#68707a'>97.5</text><line x1='62' y1='250.5' x2='902' y2='250.5' stroke='#e6e8eb'/><text x='12' y='254.5' font-family='Arial' font-size='11' fill='#68707a'>98.3</text><line x1='62' y1='183.0' x2='902' y2='183.0' stroke='#e6e8eb'/><text x='12' y='187.0' font-family='Arial' font-size='11' fill='#68707a'>99.0</text><line x1='62' y1='115.5' x2='902' y2='115.5' stroke='#e6e8eb'/><text x='12' y='119.5' font-family='Arial' font-size='11' fill='#68707a'>99.8</text><line x1='62' y1='48.0' x2='902' y2='48.0' stroke='#e6e8eb'/><text x='12' y='52.0' font-family='Arial' font-size='11' fill='#68707a'>100.5</text>
<line x1="62" y1="48" x2="62" y2="318" stroke="#c8cdd2"/>
<line x1="62" y1="318" x2="902" y2="318" stroke="#c8cdd2"/>
<polyline points="62.0,93.0 68.6,149.1 75.1,150.8 81.7,154.8 88.2,155.8 94.8,149.8 101.4,151.0 107.9,123.7 114.5,108.9 121.1,104.5 127.6,138.4 134.2,110.1 140.8,130.0 147.3,138.5 153.9,155.9 160.4,162.3 167.0,167.8 173.6,168.9 180.1,176.7 186.7,168.1 193.2,170.0 199.8,181.1 206.4,236.4 212.9,235.0 219.5,215.9 226.1,215.8 232.6,213.8 239.2,228.0 245.8,220.6 252.3,227.8 258.9,216.6 265.4,219.4 272.0,218.1 278.6,165.4 285.1,193.0 291.7,185.0 298.2,212.7 304.8,209.5 311.4,198.6 317.9,228.9 324.5,225.2 331.1,230.0 337.6,264.1 344.2,267.0 350.8,243.3 357.3,180.8 363.9,202.2 370.4,192.0 377.0,171.2 383.6,174.0 390.1,176.3 396.7,196.2 403.2,196.0 409.8,153.4 416.4,155.7 422.9,147.5 429.5,145.4 436.1,152.3 442.6,167.1 449.2,176.7 455.8,142.2 462.3,118.6 468.9,169.2 475.4,195.1 482.0,188.8 488.6,201.4 495.1,229.4 501.7,239.0 508.2,240.3 514.8,266.8 521.4,264.6 527.9,261.4 534.5,256.3 541.1,254.9 547.6,250.7 554.2,270.0 560.8,220.7 567.3,246.4 573.9,235.1 580.4,241.0 587.0,243.0 593.6,211.2 600.1,194.1 606.7,151.4 613.2,178.2 619.8,167.3 626.4,162.4 632.9,170.0 639.5,170.4 646.1,186.0 652.6,186.1 659.2,174.7 665.8,186.9 672.3,200.1 678.9,192.7 685.4,181.0 692.0,183.9 698.6,182.2 705.1,198.2 711.7,221.4 718.2,215.7 724.8,230.4 731.4,232.9 737.9,227.5 744.5,229.5 751.1,270.1 757.6,259.1 764.2,252.4 770.8,257.6 777.3,249.6 783.9,238.9 790.4,236.4 797.0,234.7 803.6,224.1 810.1,230.8 816.7,182.3 823.2,165.0 829.8,214.8 836.4,227.9 842.9,239.0 849.5,243.1 856.1,257.4 862.6,273.0 869.2,244.8 875.8,232.9 882.3,227.8 888.9,232.4 895.4,248.3 902.0,256.2" fill="none" stroke="#d62728" stroke-width="2.2" stroke-linejoin="round" stroke-linecap="round"/>
<text x="62" y="346" font-family="Arial" font-size="11" fill="#68707a">2025-12-03</text>
<text x="834" y="346" font-family="Arial" font-size="11" fill="#68707a">2026-06-03</text>
<text x="792" y="28" font-family="Arial" font-size="12" fill="#d62728">0.86364</text>
</svg>
