<svg xmlns="http://www.w3.org/2000/svg" width="920" height="360" viewBox="0 0 920 360">
<rect width="100%" height="100%" fill="#ffffff"/>
<text x="24" y="26" font-family="Arial" font-size="18" font-weight="700" fill="#101418">EURGBP 12m</text>
<text x="24" y="44" font-family="Arial" font-size="12" fill="#68707a">Forex cross; normalized close, start=100, change=+2.2%</text>
<line x1='62' y1='318.0' x2='902' y2='318.0' stroke='#e6e8eb'/><text x='12' y='322.0' font-family='Arial' font-size='11' fill='#68707a'>99.1</text><line x1='62' y1='250.5' x2='902' y2='250.5' stroke='#e6e8eb'/><text x='12' y='254.5' font-family='Arial' font-size='11' fill='#68707a'>100.6</text><line x1='62' y1='183.0' x2='902' y2='183.0' stroke='#e6e8eb'/><text x='12' y='187.0' font-family='Arial' font-size='11' fill='#68707a'>102.1</text><line x1='62' y1='115.5' x2='902' y2='115.5' stroke='#e6e8eb'/><text x='12' y='119.5' font-family='Arial' font-size='11' fill='#68707a'>103.7</text><line x1='62' y1='48.0' x2='902' y2='48.0' stroke='#e6e8eb'/><text x='12' y='52.0' font-family='Arial' font-size='11' fill='#68707a'>105.2</text>
<line x1="62" y1="48" x2="62" y2="318" stroke="#c8cdd2"/>
<line x1="62" y1="318" x2="902" y2="318" stroke="#c8cdd2"/>
<polyline points="62.0,277.2 65.2,295.5 68.5,287.6 71.7,285.0 75.0,288.8 78.2,287.0 81.5,267.3 84.7,259.4 87.9,243.3 91.2,244.6 94.4,242.2 97.7,224.2 100.9,221.4 104.2,228.4 107.4,218.9 110.6,217.4 113.9,234.8 117.1,232.5 120.4,240.4 123.6,225.0 126.9,206.0 130.1,203.8 133.4,174.2 136.6,191.2 139.8,181.2 143.1,189.9 146.3,182.2 149.6,181.7 152.8,188.8 156.1,167.5 159.3,151.5 162.5,162.8 165.8,157.6 169.0,172.8 172.3,161.4 175.5,161.2 178.8,154.8 182.0,160.8 185.2,144.0 188.5,119.9 191.7,155.8 195.0,171.6 198.2,186.8 201.5,172.6 204.7,135.8 207.9,139.3 211.2,141.9 214.4,129.1 217.7,155.7 220.9,164.2 224.2,173.3 227.4,172.9 230.6,186.2 233.9,192.0 237.1,179.1 240.4,177.8 243.6,180.4 246.9,169.7 250.1,169.1 253.4,162.8 256.6,180.3 259.8,179.1 263.1,184.3 266.3,173.6 269.6,167.6 272.8,172.8 276.1,149.0 279.3,158.3 282.5,160.7 285.8,155.3 289.0,153.8 292.3,168.6 295.5,173.0 298.8,175.1 302.0,170.5 305.2,172.5 308.5,148.1 311.7,157.5 315.0,146.8 318.2,136.4 321.5,128.8 324.7,126.2 327.9,129.3 331.2,121.7 334.4,129.3 337.7,128.8 340.9,129.6 344.2,142.9 347.4,134.9 350.6,135.7 353.9,153.6 357.1,153.9 360.4,156.6 363.6,148.5 366.9,145.2 370.1,158.1 373.4,140.1 376.6,151.4 379.8,144.4 383.1,154.2 386.3,152.3 389.6,156.0 392.8,148.2 396.1,136.3 399.3,129.1 402.5,127.7 405.8,104.0 409.0,96.3 412.3,96.0 415.5,105.1 418.8,108.8 422.0,82.1 425.2,88.5 428.5,98.8 431.7,101.3 435.0,106.7 438.2,87.8 441.5,77.2 444.7,70.5 447.9,79.0 451.2,87.5 454.4,88.6 457.7,74.7 460.9,84.9 464.2,99.7 467.4,98.3 470.6,98.7 473.9,114.1 477.1,113.5 480.4,112.3 483.6,99.5 486.9,94.9 490.1,123.5 493.4,124.4 496.6,126.5 499.8,127.0 503.1,123.9 506.3,124.5 509.6,110.5 512.8,103.0 516.1,100.7 519.3,118.1 522.5,103.6 525.8,113.8 529.0,118.1 532.3,127.0 535.5,130.3 538.8,133.1 542.0,133.7 545.2,137.7 548.5,133.3 551.7,134.3 555.0,139.9 558.2,168.2 561.5,167.5 564.7,157.7 567.9,157.7 571.2,156.6 574.4,163.9 577.7,160.2 580.9,163.8 584.2,158.1 587.4,159.5 590.6,158.8 593.9,131.9 597.1,146.0 600.4,141.9 603.6,156.1 606.9,154.4 610.1,148.9 613.4,164.4 616.6,162.5 619.8,164.9 623.1,182.4 626.3,183.9 629.6,171.7 632.8,139.8 636.1,150.7 639.3,145.5 642.5,134.8 645.8,136.3 649.0,137.5 652.3,147.6 655.5,147.5 658.8,125.7 662.0,126.9 665.2,122.7 668.5,121.6 671.7,125.2 675.0,132.7 678.2,137.7 681.5,120.0 684.7,108.0 687.9,133.9 691.2,147.1 694.4,143.9 697.7,150.3 700.9,164.7 704.2,169.5 707.4,170.2 710.6,183.8 713.9,182.6 717.1,181.0 720.4,178.4 723.6,177.7 726.9,175.6 730.1,185.4 733.4,160.2 736.6,173.4 739.8,167.5 743.1,170.6 746.3,171.6 749.6,155.3 752.8,146.6 756.1,124.7 759.3,138.5 762.5,132.9 765.8,130.3 769.0,134.3 772.3,134.4 775.5,142.4 778.8,142.5 782.0,136.6 785.2,142.9 788.5,149.6 791.7,145.8 795.0,139.9 798.2,141.3 801.5,140.5 804.7,148.7 807.9,160.5 811.2,157.6 814.4,165.1 817.7,166.4 820.9,163.7 824.2,164.7 827.4,185.5 830.6,179.9 833.9,176.4 837.1,179.1 840.4,175.0 843.6,169.5 846.9,168.2 850.1,167.3 853.4,161.9 856.6,165.3 859.8,140.6 863.1,131.7 866.3,157.2 869.6,163.9 872.8,169.5 876.1,171.6 879.3,179.0 882.5,186.9 885.8,172.5 889.0,166.4 892.3,163.8 895.5,166.2 898.8,174.3 902.0,178.3" fill="none" stroke="#1f77b4" stroke-width="2.2" stroke-linejoin="round" stroke-linecap="round"/>
<text x="62" y="346" font-family="Arial" font-size="11" fill="#68707a">2025-06-03</text>
<text x="834" y="346" font-family="Arial" font-size="11" fill="#68707a">2026-06-03</text>
<text x="792" y="28" font-family="Arial" font-size="12" fill="#1f77b4">0.86364</text>
</svg>
