<svg xmlns="http://www.w3.org/2000/svg" width="920" height="360" viewBox="0 0 920 360">
<rect width="100%" height="100%" fill="#ffffff"/>
<text x="24" y="26" font-family="Arial" font-size="18" font-weight="700" fill="#101418">EURJPY 12m</text>
<text x="24" y="44" font-family="Arial" font-size="12" fill="#68707a">Forex cross; normalized close, start=100, change=+13.8%</text>
<line x1='62' y1='318.0' x2='902' y2='318.0' stroke='#e6e8eb'/><text x='12' y='322.0' font-family='Arial' font-size='11' fill='#68707a'>98.4</text><line x1='62' y1='250.5' x2='902' y2='250.5' stroke='#e6e8eb'/><text x='12' y='254.5' font-family='Arial' font-size='11' fill='#68707a'>102.9</text><line x1='62' y1='183.0' x2='902' y2='183.0' stroke='#e6e8eb'/><text x='12' y='187.0' font-family='Arial' font-size='11' fill='#68707a'>107.4</text><line x1='62' y1='115.5' x2='902' y2='115.5' stroke='#e6e8eb'/><text x='12' y='119.5' font-family='Arial' font-size='11' fill='#68707a'>111.9</text><line x1='62' y1='48.0' x2='902' y2='48.0' stroke='#e6e8eb'/><text x='12' y='52.0' font-family='Arial' font-size='11' fill='#68707a'>116.4</text>
<line x1="62" y1="48" x2="62" y2="318" stroke="#c8cdd2"/>
<line x1="62" y1="318" x2="902" y2="318" stroke="#c8cdd2"/>
<polyline points="62.0,293.4 65.2,294.4 68.5,288.9 71.7,295.5 75.0,282.9 78.2,276.9 81.5,275.8 84.7,271.5 87.9,268.7 91.2,267.4 94.4,263.9 97.7,257.5 100.9,259.8 104.2,264.9 107.4,257.6 110.6,248.4 113.9,238.4 117.1,247.1 120.4,238.0 123.6,239.2 126.9,236.5 130.1,236.4 133.4,238.0 136.6,237.3 139.8,228.7 143.1,229.5 146.3,220.4 149.6,211.7 152.8,218.7 156.1,220.8 159.3,212.6 162.5,209.4 165.8,207.1 169.0,211.3 172.3,209.4 175.5,207.4 178.8,209.7 182.0,210.4 185.2,210.4 188.5,205.7 191.7,197.0 195.0,211.5 198.2,218.2 201.5,226.5 204.7,211.1 207.9,225.0 211.2,231.2 214.4,223.7 217.7,216.3 220.9,218.2 224.2,213.2 227.4,212.4 230.6,208.3 233.9,210.3 237.1,212.5 240.4,209.6 243.6,207.8 246.9,213.2 250.1,216.4 253.4,210.3 256.6,209.7 259.8,216.1 263.1,216.7 266.3,217.0 269.6,218.0 272.8,213.5 276.1,210.2 279.3,205.7 282.5,208.1 285.8,204.4 289.0,197.1 292.3,200.0 295.5,208.7 298.8,209.1 302.0,206.2 305.2,202.7 308.5,200.4 311.7,196.7 315.0,197.5 318.2,190.9 321.5,196.5 324.7,191.8 327.9,191.3 331.2,188.4 334.4,187.7 337.7,186.7 340.9,191.9 344.2,197.8 347.4,207.9 350.6,208.3 353.9,183.7 357.1,176.2 360.4,165.5 363.6,162.2 366.9,167.9 370.1,172.7 373.4,173.6 376.6,176.1 379.8,178.1 383.1,179.9 386.3,177.4 389.6,180.6 392.8,174.7 396.1,172.9 399.3,164.6 402.5,157.9 405.8,159.0 409.0,168.5 412.3,165.5 415.5,157.2 418.8,160.5 422.0,161.6 425.2,173.2 428.5,166.1 431.7,170.6 435.0,162.1 438.2,156.8 441.5,153.3 444.7,145.9 447.9,141.3 451.2,143.9 454.4,140.1 457.7,138.6 460.9,129.2 464.2,125.8 467.4,137.0 470.6,132.6 473.9,133.7 477.1,128.2 480.4,128.0 483.6,131.7 486.9,134.7 490.1,129.1 493.4,131.0 496.6,134.1 499.8,132.3 503.1,127.1 506.3,118.1 509.6,118.9 512.8,115.7 516.1,112.7 519.3,119.5 522.5,122.8 525.8,116.2 529.0,117.6 532.3,97.8 535.5,98.3 538.8,101.9 542.0,103.8 545.2,100.9 548.5,106.0 551.7,105.7 555.0,101.6 558.2,105.4 561.5,107.9 564.7,111.1 567.9,112.0 571.2,113.3 574.4,104.8 577.7,100.2 580.9,91.0 584.2,98.8 587.4,102.1 590.6,111.2 593.9,102.2 597.1,89.5 600.4,94.3 603.6,82.1 606.9,103.2 610.1,109.8 613.4,110.4 616.6,109.0 619.8,109.9 623.1,104.1 626.3,108.7 629.6,102.4 632.8,92.3 636.1,97.2 639.3,85.2 642.5,86.1 645.8,106.3 649.0,121.3 652.3,127.2 655.5,127.8 658.8,121.3 662.0,126.0 665.2,118.2 668.5,115.9 671.7,115.4 675.0,118.1 678.2,107.4 681.5,98.2 684.7,103.6 687.9,101.4 691.2,103.8 694.4,110.4 697.7,115.6 700.9,113.6 704.2,116.4 707.4,109.1 710.6,107.0 713.9,106.6 717.1,108.4 720.4,117.3 723.6,112.8 726.9,109.0 730.1,110.7 733.4,113.9 736.6,102.5 739.8,103.8 743.1,100.0 746.3,100.6 749.6,101.1 752.8,102.0 756.1,111.2 759.3,107.9 762.5,104.1 765.8,102.6 769.0,104.0 772.3,100.4 775.5,89.5 778.8,94.3 782.0,84.9 785.2,80.9 788.5,72.5 791.7,72.4 795.0,71.0 798.2,70.5 801.5,77.0 804.7,73.9 807.9,74.1 811.2,78.5 814.4,78.8 817.7,77.4 820.9,77.6 824.2,76.1 827.4,73.9 830.6,101.8 833.9,103.6 837.1,105.1 840.4,96.3 843.6,104.5 846.9,103.4 850.1,97.9 853.4,92.1 856.6,93.7 859.8,94.6 863.1,96.7 866.3,98.7 869.6,92.6 872.8,97.7 876.1,96.8 879.3,96.3 882.5,93.5 885.8,94.5 889.0,91.2 892.3,90.5 895.5,88.6 898.8,88.2 902.0,87.1" fill="none" stroke="#1f77b4" stroke-width="2.2" stroke-linejoin="round" stroke-linecap="round"/>
<text x="62" y="346" font-family="Arial" font-size="11" fill="#68707a">2025-06-02</text>
<text x="834" y="346" font-family="Arial" font-size="11" fill="#68707a">2026-06-02</text>
<text x="792" y="28" font-family="Arial" font-size="12" fill="#1f77b4">185.74</text>
</svg>
