<svg xmlns="http://www.w3.org/2000/svg" width="920" height="360" viewBox="0 0 920 360">
<rect width="100%" height="100%" fill="#ffffff"/>
<text x="24" y="26" font-family="Arial" font-size="18" font-weight="700" fill="#101418">EURJPY 6m</text>
<text x="24" y="44" font-family="Arial" font-size="12" fill="#68707a">Forex cross; normalized close, start=100, change=+2.9%</text>
<line x1='62' y1='318.0' x2='902' y2='318.0' stroke='#e6e8eb'/><text x='12' y='322.0' font-family='Arial' font-size='11' fill='#68707a'>99.5</text><line x1='62' y1='250.5' x2='902' y2='250.5' stroke='#e6e8eb'/><text x='12' y='254.5' font-family='Arial' font-size='11' fill='#68707a'>100.7</text><line x1='62' y1='183.0' x2='902' y2='183.0' stroke='#e6e8eb'/><text x='12' y='187.0' font-family='Arial' font-size='11' fill='#68707a'>101.9</text><line x1='62' y1='115.5' x2='902' y2='115.5' stroke='#e6e8eb'/><text x='12' y='119.5' font-family='Arial' font-size='11' fill='#68707a'>103.2</text><line x1='62' y1='48.0' x2='902' y2='48.0' stroke='#e6e8eb'/><text x='12' y='52.0' font-family='Arial' font-size='11' fill='#68707a'>104.4</text>
<line x1="62" y1="48" x2="62" y2="318" stroke="#c8cdd2"/>
<line x1="62" y1="318" x2="902" y2="318" stroke="#c8cdd2"/>
<polyline points="62.0,290.3 68.6,271.7 75.1,278.1 81.7,288.5 88.2,282.5 94.8,264.9 101.4,234.9 107.9,237.4 114.5,227.0 121.1,216.7 127.6,239.7 134.2,250.8 140.8,228.6 147.3,233.1 153.9,166.9 160.4,168.8 167.0,180.6 173.6,187.0 180.1,177.4 186.7,194.3 193.2,193.4 199.8,179.8 206.4,192.6 212.9,200.8 219.5,211.6 226.1,214.7 232.6,218.9 239.2,190.3 245.8,174.9 252.3,144.2 258.9,170.3 265.4,181.5 272.0,211.7 278.6,181.7 285.1,139.4 291.7,155.4 298.2,114.6 304.8,185.0 311.4,207.2 317.9,209.1 324.5,204.4 331.1,207.3 337.6,188.1 344.2,203.4 350.8,182.4 357.3,148.5 363.9,164.9 370.4,125.0 377.0,127.9 383.6,195.4 390.1,245.5 396.7,265.4 403.2,267.5 409.8,245.4 416.4,261.5 422.9,235.3 429.5,227.5 436.1,226.0 442.6,234.8 449.2,199.1 455.8,168.2 462.3,186.4 468.9,179.1 475.4,187.2 482.0,209.2 488.6,226.5 495.1,219.7 501.7,229.4 508.2,204.7 514.8,197.8 521.4,196.5 527.9,202.3 534.5,232.1 541.1,217.0 547.6,204.3 554.2,210.3 560.8,220.9 567.3,182.6 573.9,187.0 580.4,174.4 587.0,176.5 593.6,177.9 600.1,180.9 606.7,211.7 613.2,200.9 619.8,187.9 626.4,183.1 632.9,187.8 639.5,175.7 646.1,139.3 652.6,155.2 659.2,123.8 665.8,110.5 672.3,82.3 678.9,81.9 685.4,77.4 692.0,75.7 698.6,97.6 705.1,87.1 711.7,87.7 718.2,102.4 724.8,103.6 731.4,98.7 737.9,99.4 744.5,94.6 751.1,87.2 757.6,180.2 764.2,186.6 770.8,191.5 777.3,162.1 783.9,189.4 790.4,185.8 797.0,167.3 803.6,148.1 810.1,153.3 816.7,156.3 823.2,163.4 829.8,170.0 836.4,149.5 842.9,166.7 849.5,163.7 856.1,161.9 862.6,152.8 869.2,155.9 875.8,144.8 882.3,142.7 888.9,136.2 895.4,134.8 902.0,131.3" fill="none" stroke="#1f77b4" stroke-width="2.2" stroke-linejoin="round" stroke-linecap="round"/>
<text x="62" y="346" font-family="Arial" font-size="11" fill="#68707a">2025-12-02</text>
<text x="834" y="346" font-family="Arial" font-size="11" fill="#68707a">2026-06-02</text>
<text x="792" y="28" font-family="Arial" font-size="12" fill="#1f77b4">185.74</text>
</svg>
