<svg xmlns="http://www.w3.org/2000/svg" width="920" height="360" viewBox="0 0 920 360">
<rect width="100%" height="100%" fill="#ffffff"/>
<text x="24" y="26" font-family="Arial" font-size="18" font-weight="700" fill="#101418">EURNZD 12m</text>
<text x="24" y="44" font-family="Arial" font-size="12" fill="#68707a">Forex cross; normalized close, start=100, change=+3.7%</text>
<line x1='62' y1='318.0' x2='902' y2='318.0' stroke='#e6e8eb'/><text x='12' y='322.0' font-family='Arial' font-size='11' fill='#68707a'>98.8</text><line x1='62' y1='250.5' x2='902' y2='250.5' stroke='#e6e8eb'/><text x='12' y='254.5' font-family='Arial' font-size='11' fill='#68707a'>101.5</text><line x1='62' y1='183.0' x2='902' y2='183.0' stroke='#e6e8eb'/><text x='12' y='187.0' font-family='Arial' font-size='11' fill='#68707a'>104.3</text><line x1='62' y1='115.5' x2='902' y2='115.5' stroke='#e6e8eb'/><text x='12' y='119.5' font-family='Arial' font-size='11' fill='#68707a'>107.1</text><line x1='62' y1='48.0' x2='902' y2='48.0' stroke='#e6e8eb'/><text x='12' y='52.0' font-family='Arial' font-size='11' fill='#68707a'>109.8</text>
<line x1="62" y1="48" x2="62" y2="318" stroke="#c8cdd2"/>
<line x1="62" y1="318" x2="902" y2="318" stroke="#c8cdd2"/>
<polyline points="62.0,287.8 65.2,285.5 68.5,286.0 71.7,285.4 75.0,287.9 78.2,294.3 81.5,295.5 84.7,271.2 87.9,263.7 91.2,256.5 94.4,267.4 97.7,269.9 100.9,274.7 104.2,256.0 107.4,242.5 110.6,234.9 113.9,238.8 117.1,241.6 120.4,241.4 123.6,236.0 126.9,235.0 130.1,234.8 133.4,230.7 136.6,233.4 139.8,219.4 143.1,210.8 146.3,208.6 149.6,208.0 152.8,232.4 156.1,222.1 159.3,211.8 162.5,216.0 165.8,206.4 169.0,210.1 172.3,210.5 175.5,203.7 178.8,207.0 182.0,219.4 185.2,218.9 188.5,211.3 191.7,225.8 195.0,228.5 198.2,235.2 201.5,228.4 204.7,203.7 207.9,205.4 211.2,203.2 214.4,193.2 217.7,207.8 220.9,205.2 224.2,208.1 227.4,202.5 230.6,204.6 233.9,192.6 237.1,183.9 240.4,190.1 243.6,184.3 246.9,152.1 250.1,158.2 253.4,155.8 256.6,169.5 259.8,168.3 263.1,167.4 266.3,170.4 269.6,174.5 272.8,172.1 276.1,170.9 279.3,173.3 282.5,161.0 285.8,166.0 289.0,177.2 292.3,183.7 295.5,190.9 298.8,198.9 302.0,190.0 305.2,188.6 308.5,175.1 311.7,161.3 315.0,149.6 318.2,143.5 321.5,137.3 324.7,129.0 327.9,126.7 331.2,120.8 334.4,117.8 337.7,113.5 340.9,119.2 344.2,131.8 347.4,133.2 350.6,137.3 353.9,145.0 357.1,138.1 360.4,137.1 363.6,137.4 366.9,118.0 370.1,121.4 373.4,111.6 376.6,103.1 379.8,95.9 383.1,107.6 386.3,117.3 389.6,125.2 392.8,120.9 396.1,127.1 399.3,126.3 402.5,128.7 405.8,131.0 409.0,134.4 412.3,132.8 415.5,133.2 418.8,127.4 422.0,105.6 425.2,114.3 428.5,89.3 431.7,85.0 435.0,89.8 438.2,89.1 441.5,90.4 444.7,76.4 447.9,91.6 451.2,87.2 454.4,91.4 457.7,81.0 460.9,70.5 464.2,86.6 467.4,84.1 470.6,78.8 473.9,107.9 477.1,119.7 480.4,122.2 483.6,116.2 486.9,118.8 490.1,124.7 493.4,124.0 496.6,131.8 499.8,132.6 503.1,135.8 506.3,136.4 509.6,124.2 512.8,121.6 516.1,110.8 519.3,110.9 522.5,106.4 525.8,112.5 529.0,107.0 532.3,113.3 535.5,127.0 538.8,126.6 542.0,124.9 545.2,116.4 548.5,114.7 551.7,98.7 555.0,107.9 558.2,119.4 561.5,124.2 564.7,122.3 567.9,116.9 571.2,114.2 574.4,124.1 577.7,114.3 580.9,116.1 584.2,123.9 587.4,129.3 590.6,139.5 593.9,134.9 597.1,151.9 600.4,168.2 603.6,164.6 606.9,165.2 610.1,159.4 613.4,183.6 616.6,190.3 619.8,189.5 623.1,198.8 626.3,208.3 629.6,193.0 632.8,172.8 636.1,202.0 639.3,193.9 642.5,192.4 645.8,198.2 649.0,193.0 652.3,193.7 655.5,196.7 658.8,203.5 662.0,182.8 665.2,189.3 668.5,188.2 671.7,178.4 675.0,184.8 678.2,191.0 681.5,185.0 684.7,184.7 687.9,194.5 691.2,188.5 694.4,203.2 697.7,191.9 700.9,190.1 704.2,202.6 707.4,202.7 710.6,205.2 713.9,191.8 717.1,186.5 720.4,196.8 723.6,190.3 726.9,179.6 730.1,186.0 733.4,173.5 736.6,173.0 739.8,164.5 743.1,162.3 746.3,149.3 749.6,142.8 752.8,146.0 756.1,137.7 759.3,130.8 762.5,127.8 765.8,120.1 769.0,125.7 772.3,136.6 775.5,149.2 778.8,153.1 782.0,136.8 785.2,146.0 788.5,153.9 791.7,154.8 795.0,149.8 798.2,149.9 801.5,158.2 804.7,162.3 807.9,175.1 811.2,156.2 814.4,159.7 817.7,173.1 820.9,164.1 824.2,150.2 827.4,169.5 830.6,169.8 833.9,163.7 837.1,170.8 840.4,185.6 843.6,182.6 846.9,179.8 850.1,183.8 853.4,187.5 856.6,183.2 859.8,182.6 863.1,162.3 866.3,171.5 869.6,164.5 872.8,175.5 876.1,182.0 879.3,173.8 882.5,170.6 885.8,162.2 889.0,187.4 892.3,202.6 895.5,219.5 898.8,202.9 902.0,197.4" fill="none" stroke="#1f77b4" stroke-width="2.2" stroke-linejoin="round" stroke-linecap="round"/>
<text x="62" y="346" font-family="Arial" font-size="11" fill="#68707a">2025-06-03</text>
<text x="834" y="346" font-family="Arial" font-size="11" fill="#68707a">2026-06-03</text>
<text x="792" y="28" font-family="Arial" font-size="12" fill="#1f77b4">1.9639</text>
</svg>
