<svg xmlns="http://www.w3.org/2000/svg" width="920" height="360" viewBox="0 0 920 360">
<rect width="100%" height="100%" fill="#ffffff"/>
<text x="24" y="26" font-family="Arial" font-size="18" font-weight="700" fill="#101418">EURNZD 6m</text>
<text x="24" y="44" font-family="Arial" font-size="12" fill="#68707a">Forex cross; normalized close, start=100, change=-3.0%</text>
<line x1='62' y1='318.0' x2='902' y2='318.0' stroke='#e6e8eb'/><text x='12' y='322.0' font-family='Arial' font-size='11' fill='#68707a'>95.6</text><line x1='62' y1='250.5' x2='902' y2='250.5' stroke='#e6e8eb'/><text x='12' y='254.5' font-family='Arial' font-size='11' fill='#68707a'>97.0</text><line x1='62' y1='183.0' x2='902' y2='183.0' stroke='#e6e8eb'/><text x='12' y='187.0' font-family='Arial' font-size='11' fill='#68707a'>98.5</text><line x1='62' y1='115.5' x2='902' y2='115.5' stroke='#e6e8eb'/><text x='12' y='119.5' font-family='Arial' font-size='11' fill='#68707a'>99.9</text><line x1='62' y1='48.0' x2='902' y2='48.0' stroke='#e6e8eb'/><text x='12' y='52.0' font-family='Arial' font-size='11' fill='#68707a'>101.3</text>
<line x1="62" y1="48" x2="62" y2="318" stroke="#c8cdd2"/>
<line x1="62" y1="318" x2="902" y2="318" stroke="#c8cdd2"/>
<polyline points="62.0,109.0 68.6,119.7 75.1,118.4 81.7,132.8 88.2,134.3 94.8,140.2 101.4,141.3 107.9,119.0 114.5,114.1 121.1,94.2 127.6,94.3 134.2,86.1 140.8,97.4 147.3,87.3 153.9,98.9 160.4,124.1 167.0,123.2 173.6,120.1 180.1,104.4 186.7,101.3 193.2,71.9 199.8,88.9 206.4,110.0 212.9,118.9 219.5,115.3 226.1,105.4 232.6,100.5 239.2,118.8 245.8,100.6 252.3,103.9 258.9,118.3 265.4,128.3 272.0,146.9 278.6,138.6 285.1,169.7 291.7,199.8 298.2,193.2 304.8,194.3 311.4,183.6 317.9,228.0 324.5,240.4 331.1,238.9 337.6,256.0 344.2,273.4 350.8,245.3 357.3,208.2 363.9,261.9 370.4,247.0 377.0,244.3 383.6,254.9 390.1,245.4 396.7,246.6 403.2,252.1 409.8,264.6 416.4,226.6 422.9,238.5 429.5,236.5 436.1,218.5 442.6,230.3 449.2,241.8 455.8,230.7 462.3,230.1 468.9,248.1 475.4,237.1 482.0,264.0 488.6,243.4 495.1,240.1 501.7,262.9 508.2,263.2 514.8,267.8 521.4,243.1 527.9,233.4 534.5,252.2 541.1,240.5 547.6,220.7 554.2,232.4 560.8,209.6 567.3,208.5 573.9,193.0 580.4,189.0 587.0,165.0 593.6,153.1 600.1,159.0 606.7,143.7 613.2,130.9 619.8,125.5 626.4,111.3 632.9,121.6 639.5,141.7 646.1,164.7 652.6,172.1 659.2,142.1 665.8,158.9 672.3,173.5 678.9,175.1 685.4,165.9 692.0,166.2 698.6,181.3 705.1,188.9 711.7,212.5 718.2,177.7 724.8,184.1 731.4,208.7 737.9,192.2 744.5,166.6 751.1,202.1 757.6,202.7 764.2,191.5 770.8,204.5 777.3,231.8 783.9,226.3 790.4,221.1 797.0,228.5 803.6,235.3 810.1,227.4 816.7,226.2 823.2,188.9 829.8,205.8 836.4,192.9 842.9,213.1 849.5,225.1 856.1,210.1 862.6,204.2 869.2,188.6 875.8,235.1 882.3,263.0 888.9,294.1 895.4,263.6 902.0,253.4" fill="none" stroke="#d62728" stroke-width="2.2" stroke-linejoin="round" stroke-linecap="round"/>
<text x="62" y="346" font-family="Arial" font-size="11" fill="#68707a">2025-12-03</text>
<text x="834" y="346" font-family="Arial" font-size="11" fill="#68707a">2026-06-03</text>
<text x="792" y="28" font-family="Arial" font-size="12" fill="#d62728">1.9639</text>
</svg>
