<svg xmlns="http://www.w3.org/2000/svg" width="920" height="360" viewBox="0 0 920 360">
<rect width="100%" height="100%" fill="#ffffff"/>
<text x="24" y="26" font-family="Arial" font-size="18" font-weight="700" fill="#101418">EURUSD 6m</text>
<text x="24" y="44" font-family="Arial" font-size="12" fill="#68707a">Forex major; normalized close, start=100, change=+0.0%</text>
<line x1='62' y1='318.0' x2='902' y2='318.0' stroke='#e6e8eb'/><text x='12' y='322.0' font-family='Arial' font-size='11' fill='#68707a'>97.8</text><line x1='62' y1='250.5' x2='902' y2='250.5' stroke='#e6e8eb'/><text x='12' y='254.5' font-family='Arial' font-size='11' fill='#68707a'>99.3</text><line x1='62' y1='183.0' x2='902' y2='183.0' stroke='#e6e8eb'/><text x='12' y='187.0' font-family='Arial' font-size='11' fill='#68707a'>100.8</text><line x1='62' y1='115.5' x2='902' y2='115.5' stroke='#e6e8eb'/><text x='12' y='119.5' font-family='Arial' font-size='11' fill='#68707a'>102.3</text><line x1='62' y1='48.0' x2='902' y2='48.0' stroke='#e6e8eb'/><text x='12' y='52.0' font-family='Arial' font-size='11' fill='#68707a'>103.9</text>
<line x1="62" y1="48" x2="62" y2="318" stroke="#c8cdd2"/>
<line x1="62" y1="318" x2="902" y2="318" stroke="#c8cdd2"/>
<polyline points="62.0,221.0 68.6,206.0 75.1,215.3 81.7,216.3 88.2,215.8 94.8,220.9 101.4,192.7 107.9,178.0 114.5,178.6 121.1,172.1 127.6,174.1 134.2,176.8 140.8,183.3 147.3,190.1 153.9,167.7 160.4,156.3 167.0,160.2 173.6,165.1 180.1,165.0 186.7,174.9 193.2,173.7 199.8,191.4 206.4,187.4 212.9,197.7 219.5,202.2 226.1,209.5 232.6,222.7 239.2,205.9 245.8,215.4 252.3,213.9 258.9,228.3 265.4,222.2 272.0,216.7 278.6,182.4 285.1,203.6 291.7,172.1 298.2,132.0 304.8,125.0 311.4,70.5 317.9,85.9 324.5,90.6 331.1,135.6 337.6,155.1 344.2,148.3 350.8,153.9 357.3,163.1 363.9,144.6 370.4,114.4 377.0,119.9 383.6,125.2 390.1,128.1 396.7,128.5 403.2,135.3 409.8,134.5 416.4,158.9 422.9,166.5 429.5,141.1 436.1,156.9 442.6,164.1 449.2,148.7 455.8,153.4 462.3,170.2 468.9,194.2 475.4,227.1 482.0,218.1 488.6,228.7 495.1,261.5 501.7,225.2 508.2,227.4 514.8,253.7 521.4,262.1 527.9,295.5 534.5,270.6 541.1,255.2 547.6,284.2 554.2,240.5 560.8,247.2 567.3,229.1 573.9,226.1 580.4,246.7 587.0,256.9 593.6,273.5 600.1,285.9 606.7,241.8 613.2,235.5 619.8,254.3 626.4,266.6 632.9,254.5 639.5,198.4 646.1,208.9 652.6,196.6 659.2,202.8 665.8,166.6 672.3,154.8 678.9,151.0 685.4,161.2 692.0,177.3 698.6,160.6 705.1,176.1 711.7,190.9 718.2,199.4 724.8,190.7 731.4,184.1 737.9,186.3 744.5,199.1 751.1,181.9 757.6,182.9 764.2,196.3 770.8,187.1 777.3,174.9 783.9,181.0 790.4,166.6 797.0,162.3 803.6,179.5 810.1,187.0 816.7,207.8 823.2,226.2 829.8,210.5 836.4,229.1 842.9,222.0 849.5,223.6 856.1,215.5 862.6,217.4 869.2,217.6 875.8,224.9 882.3,211.4 888.9,212.9 895.4,218.1 902.0,221.0" fill="none" stroke="#1f77b4" stroke-width="2.2" stroke-linejoin="round" stroke-linecap="round"/>
<text x="62" y="346" font-family="Arial" font-size="11" fill="#68707a">2025-12-03</text>
<text x="834" y="346" font-family="Arial" font-size="11" fill="#68707a">2026-06-03</text>
<text x="792" y="28" font-family="Arial" font-size="12" fill="#1f77b4">1.1628</text>
</svg>
