<svg xmlns="http://www.w3.org/2000/svg" width="920" height="360" viewBox="0 0 920 360">
<rect width="100%" height="100%" fill="#ffffff"/>
<text x="24" y="26" font-family="Arial" font-size="18" font-weight="700" fill="#101418">EURUSD 12m</text>
<text x="24" y="44" font-family="Arial" font-size="12" fill="#68707a">Forex major; normalized close, start=100, change=+1.5%</text>
<line x1='62' y1='318.0' x2='902' y2='318.0' stroke='#e6e8eb'/><text x='12' y='322.0' font-family='Arial' font-size='11' fill='#68707a'>98.8</text><line x1='62' y1='250.5' x2='902' y2='250.5' stroke='#e6e8eb'/><text x='12' y='254.5' font-family='Arial' font-size='11' fill='#68707a'>100.5</text><line x1='62' y1='183.0' x2='902' y2='183.0' stroke='#e6e8eb'/><text x='12' y='187.0' font-family='Arial' font-size='11' fill='#68707a'>102.2</text><line x1='62' y1='115.5' x2='902' y2='115.5' stroke='#e6e8eb'/><text x='12' y='119.5' font-family='Arial' font-size='11' fill='#68707a'>103.8</text><line x1='62' y1='48.0' x2='902' y2='48.0' stroke='#e6e8eb'/><text x='12' y='52.0' font-family='Arial' font-size='11' fill='#68707a'>105.5</text>
<line x1="62" y1="48" x2="62" y2="318" stroke="#c8cdd2"/>
<line x1="62" y1="318" x2="902" y2="318" stroke="#c8cdd2"/>
<polyline points="62.0,271.0 65.2,295.5 68.5,282.1 71.7,270.8 75.0,287.2 78.2,280.0 81.5,276.7 84.7,251.1 87.9,218.8 91.2,234.3 94.4,236.2 97.7,260.6 100.9,262.4 104.2,249.9 107.4,254.1 110.6,219.2 113.9,214.6 117.1,189.2 120.4,186.1 123.6,173.6 126.9,152.4 130.1,145.9 133.4,147.8 136.6,158.0 139.8,154.7 143.1,170.4 146.3,174.6 149.6,172.3 152.8,182.4 156.1,189.7 159.3,195.4 162.5,216.3 165.8,206.2 169.0,213.4 172.3,208.0 175.5,185.3 178.8,169.5 182.0,157.0 185.2,163.4 188.5,163.2 191.7,220.1 195.0,236.3 198.2,279.5 201.5,281.5 204.7,223.6 207.9,224.5 211.2,226.3 214.4,196.5 217.7,191.7 220.9,201.9 224.2,212.4 227.4,191.5 230.6,178.8 233.9,200.7 237.1,181.0 240.4,194.6 243.6,203.8 246.9,200.5 250.1,214.3 253.4,180.0 256.6,212.4 259.8,204.9 263.1,201.9 266.3,189.9 269.6,186.3 272.8,177.7 276.1,206.1 279.3,197.4 282.5,198.7 285.8,178.7 289.0,158.8 292.3,182.4 295.5,182.2 298.8,171.0 302.0,174.0 305.2,160.7 308.5,122.5 311.7,138.5 315.0,151.0 318.2,170.2 321.5,147.5 324.7,142.7 327.9,167.5 331.2,196.6 334.4,180.4 337.7,172.2 340.9,170.6 344.2,171.3 347.4,174.4 350.6,178.9 353.9,179.7 357.1,199.5 360.4,207.6 363.6,230.8 366.9,218.1 370.1,230.7 373.4,218.1 376.6,202.4 379.8,183.5 383.1,198.5 386.3,203.1 389.6,218.8 392.8,215.9 396.1,212.5 399.3,207.6 402.5,200.5 405.8,198.3 409.0,217.7 412.3,228.7 415.5,244.5 418.8,247.6 422.0,259.6 425.2,255.6 428.5,237.0 431.7,238.9 435.0,234.1 438.2,223.4 441.5,221.7 444.7,207.6 447.9,213.5 451.2,222.3 454.4,225.6 457.7,240.0 460.9,242.2 464.2,251.7 467.4,247.3 470.6,231.4 473.9,218.1 477.1,219.0 480.4,218.4 483.6,216.2 486.9,209.0 490.1,195.2 493.4,203.7 496.6,204.6 499.8,204.2 503.1,208.8 506.3,182.9 509.6,169.4 512.8,170.0 516.1,164.0 519.3,165.8 522.5,168.3 525.8,174.3 529.0,180.5 532.3,159.9 535.5,149.4 538.8,153.0 542.0,157.5 545.2,157.5 548.5,166.6 551.7,165.4 555.0,181.7 558.2,178.1 561.5,187.5 564.7,191.6 567.9,198.3 571.2,210.5 574.4,195.1 577.7,203.8 580.9,202.4 584.2,215.7 587.4,210.0 590.6,205.0 593.9,173.5 597.1,193.0 600.4,164.0 603.6,127.1 606.9,120.7 610.1,70.5 613.4,84.7 616.6,88.9 619.8,130.4 623.1,148.3 626.3,142.1 629.6,147.3 632.8,155.7 636.1,138.7 639.3,110.9 642.5,116.0 645.8,120.8 649.0,123.5 652.3,123.9 655.5,130.1 658.8,129.4 662.0,151.8 665.2,158.8 668.5,135.5 671.7,150.0 675.0,156.6 678.2,142.5 681.5,146.8 684.7,162.2 687.9,184.3 691.2,214.6 694.4,206.3 697.7,216.0 700.9,246.2 704.2,212.8 707.4,214.9 710.6,239.1 713.9,246.7 717.1,277.5 720.4,254.6 723.6,240.4 726.9,267.1 730.1,226.9 733.4,233.1 736.6,216.4 739.8,213.7 743.1,232.6 746.3,242.0 749.6,257.3 752.8,268.7 756.1,228.1 759.3,222.3 762.5,239.6 765.8,250.9 769.0,239.8 772.3,188.1 775.5,197.8 778.8,186.5 782.0,192.2 785.2,158.9 788.5,148.0 791.7,144.6 795.0,154.0 798.2,168.7 801.5,153.4 804.7,167.6 807.9,181.2 811.2,189.1 814.4,181.1 817.7,175.0 820.9,177.0 824.2,188.8 827.4,173.0 830.6,173.9 833.9,186.2 837.1,177.8 840.4,166.5 843.6,172.2 846.9,158.9 850.1,155.0 853.4,170.8 856.6,177.7 859.8,196.8 863.1,213.8 866.3,199.3 869.6,216.4 872.8,209.9 876.1,211.4 879.3,203.9 882.5,205.6 885.8,205.8 889.0,212.5 892.3,200.1 895.5,201.5 898.8,206.3 902.0,209.0" fill="none" stroke="#1f77b4" stroke-width="2.2" stroke-linejoin="round" stroke-linecap="round"/>
<text x="62" y="346" font-family="Arial" font-size="11" fill="#68707a">2025-06-03</text>
<text x="834" y="346" font-family="Arial" font-size="11" fill="#68707a">2026-06-03</text>
<text x="792" y="28" font-family="Arial" font-size="12" fill="#1f77b4">1.1628</text>
</svg>
