<svg xmlns="http://www.w3.org/2000/svg" width="920" height="360" viewBox="0 0 920 360">
<rect width="100%" height="100%" fill="#ffffff"/>
<text x="24" y="26" font-family="Arial" font-size="18" font-weight="700" fill="#101418">GBPAUD 12m</text>
<text x="24" y="44" font-family="Arial" font-size="12" fill="#68707a">Forex cross; normalized close, start=100, change=-10.0%</text>
<line x1='62' y1='318.0' x2='902' y2='318.0' stroke='#e6e8eb'/><text x='12' y='322.0' font-family='Arial' font-size='11' fill='#68707a'>87.8</text><line x1='62' y1='250.5' x2='902' y2='250.5' stroke='#e6e8eb'/><text x='12' y='254.5' font-family='Arial' font-size='11' fill='#68707a'>91.3</text><line x1='62' y1='183.0' x2='902' y2='183.0' stroke='#e6e8eb'/><text x='12' y='187.0' font-family='Arial' font-size='11' fill='#68707a'>94.8</text><line x1='62' y1='115.5' x2='902' y2='115.5' stroke='#e6e8eb'/><text x='12' y='119.5' font-family='Arial' font-size='11' fill='#68707a'>98.3</text><line x1='62' y1='48.0' x2='902' y2='48.0' stroke='#e6e8eb'/><text x='12' y='52.0' font-family='Arial' font-size='11' fill='#68707a'>101.8</text>
<line x1="62" y1="48" x2="62" y2="318" stroke="#c8cdd2"/>
<line x1="62" y1="318" x2="902" y2="318" stroke="#c8cdd2"/>
<polyline points="62.0,83.2 65.2,77.1 68.5,81.5 71.7,83.2 75.0,86.3 78.2,89.0 81.5,98.5 84.7,85.0 87.9,82.0 91.2,95.3 94.4,84.9 97.7,95.8 100.9,105.8 104.2,90.9 107.4,85.0 110.6,78.7 113.9,73.6 117.1,71.3 120.4,73.6 123.6,70.5 126.9,81.5 130.1,80.7 133.4,94.7 136.6,90.7 139.8,85.4 143.1,75.9 146.3,86.8 149.6,89.0 152.8,107.9 156.1,115.0 159.3,114.9 162.5,112.3 165.8,111.3 169.0,100.7 172.3,107.2 175.5,101.6 178.8,104.6 182.0,110.0 185.2,118.1 188.5,121.1 191.7,117.8 195.0,116.3 198.2,110.7 201.5,112.3 204.7,112.6 207.9,113.2 211.2,112.3 214.4,111.9 217.7,106.1 220.9,104.8 224.2,105.1 227.4,99.9 230.6,94.8 233.9,86.6 237.1,87.2 240.4,89.0 243.6,80.1 246.9,77.6 250.1,81.2 253.4,85.7 256.6,92.9 259.8,93.5 263.1,94.6 266.3,99.7 269.6,104.0 272.8,101.6 276.1,113.7 279.3,113.1 282.5,106.1 285.8,108.7 289.0,112.5 292.3,113.5 295.5,121.4 298.8,128.8 302.0,127.3 305.2,127.3 308.5,124.6 311.7,117.7 315.0,118.1 318.2,122.7 321.5,118.9 324.7,116.9 327.9,123.6 331.2,125.7 334.4,120.0 337.7,123.6 340.9,131.8 344.2,128.0 347.4,127.7 350.6,128.2 353.9,127.6 357.1,126.2 360.4,130.2 363.6,137.1 366.9,114.6 370.1,118.8 373.4,114.6 376.6,107.5 379.8,94.2 383.1,102.8 386.3,109.9 389.6,108.5 392.8,109.3 396.1,120.6 399.3,126.8 402.5,131.3 405.8,147.4 409.0,157.0 412.3,157.1 415.5,156.8 418.8,154.6 422.0,155.7 425.2,158.1 428.5,138.2 431.7,143.4 435.0,148.2 438.2,149.5 441.5,154.9 444.7,149.3 447.9,149.6 451.2,138.5 454.4,144.4 457.7,151.1 460.9,136.2 464.2,138.2 467.4,137.8 470.6,131.7 473.9,134.9 477.1,138.8 480.4,143.6 483.6,145.1 486.9,152.7 490.1,143.2 493.4,147.6 496.6,155.3 499.8,152.8 503.1,159.5 506.3,157.2 509.6,153.6 512.8,152.6 516.1,149.3 519.3,140.6 522.5,138.8 525.8,140.8 529.0,141.2 532.3,141.6 535.5,147.8 538.8,149.3 542.0,153.3 545.2,146.3 548.5,152.6 551.7,146.7 555.0,153.0 558.2,148.1 561.5,158.9 564.7,160.7 567.9,157.5 571.2,159.7 574.4,155.9 577.7,154.6 580.9,152.4 584.2,165.8 587.4,158.9 590.6,162.9 593.9,165.9 597.1,175.1 600.4,187.1 603.6,184.8 606.9,183.0 610.1,184.9 613.4,196.3 616.6,200.6 619.8,191.1 623.1,194.6 626.3,208.4 629.6,208.3 632.8,204.3 636.1,223.0 639.3,226.0 642.5,230.0 645.8,244.0 649.0,235.3 652.3,227.2 655.5,230.5 658.8,241.3 662.0,240.4 665.2,248.0 668.5,252.3 671.7,244.5 675.0,244.2 678.2,251.4 681.5,255.5 684.7,255.6 687.9,267.0 691.2,258.4 694.4,265.0 697.7,250.5 700.9,246.5 704.2,255.9 707.4,269.0 710.6,276.2 713.9,267.0 717.1,263.5 720.4,270.2 723.6,274.5 726.9,267.1 730.1,258.8 733.4,253.0 736.6,240.2 739.8,239.0 743.1,232.3 746.3,221.8 749.6,225.3 752.8,232.6 756.1,242.4 759.3,235.6 762.5,242.1 765.8,241.4 769.0,242.8 772.3,261.0 775.5,252.6 778.8,256.9 782.0,247.6 785.2,251.6 788.5,251.3 791.7,263.0 795.0,265.0 798.2,264.3 801.5,267.9 804.7,266.4 807.9,268.0 811.2,265.4 814.4,262.6 817.7,271.1 820.9,271.9 824.2,262.2 827.4,265.2 830.6,270.2 833.9,266.2 837.1,270.3 840.4,274.9 843.6,273.1 846.9,274.4 850.1,276.0 853.4,282.6 856.6,287.6 859.8,295.5 863.1,285.8 866.3,279.9 869.6,268.6 872.8,274.5 876.1,274.4 879.3,270.3 882.5,271.2 885.8,276.9 889.0,272.9 892.3,276.5 895.5,279.8 898.8,274.8 902.0,276.6" fill="none" stroke="#d62728" stroke-width="2.2" stroke-linejoin="round" stroke-linecap="round"/>
<text x="62" y="346" font-family="Arial" font-size="11" fill="#68707a">2025-06-03</text>
<text x="834" y="346" font-family="Arial" font-size="11" fill="#68707a">2026-06-03</text>
<text x="792" y="28" font-family="Arial" font-size="12" fill="#d62728">1.8766</text>
</svg>
