<svg xmlns="http://www.w3.org/2000/svg" width="920" height="360" viewBox="0 0 920 360">
<rect width="100%" height="100%" fill="#ffffff"/>
<text x="24" y="26" font-family="Arial" font-size="18" font-weight="700" fill="#101418">GBPAUD 6m</text>
<text x="24" y="44" font-family="Arial" font-size="12" fill="#68707a">Forex cross; normalized close, start=100, change=-6.7%</text>
<line x1='62' y1='318.0' x2='902' y2='318.0' stroke='#e6e8eb'/><text x='12' y='322.0' font-family='Arial' font-size='11' fill='#68707a'>91.5</text><line x1='62' y1='250.5' x2='902' y2='250.5' stroke='#e6e8eb'/><text x='12' y='254.5' font-family='Arial' font-size='11' fill='#68707a'>94.0</text><line x1='62' y1='183.0' x2='902' y2='183.0' stroke='#e6e8eb'/><text x='12' y='187.0' font-family='Arial' font-size='11' fill='#68707a'>96.5</text><line x1='62' y1='115.5' x2='902' y2='115.5' stroke='#e6e8eb'/><text x='12' y='119.5' font-family='Arial' font-size='11' fill='#68707a'>99.1</text><line x1='62' y1='48.0' x2='902' y2='48.0' stroke='#e6e8eb'/><text x='12' y='52.0' font-family='Arial' font-size='11' fill='#68707a'>101.6</text>
<line x1="62" y1="48" x2="62" y2="318" stroke="#c8cdd2"/>
<line x1="62" y1="318" x2="902" y2="318" stroke="#c8cdd2"/>
<polyline points="62.0,90.4 68.6,76.8 75.1,83.2 81.7,94.2 88.2,90.6 94.8,100.2 101.4,97.0 107.9,91.8 114.5,90.3 121.1,85.6 127.6,73.0 134.2,70.5 140.8,73.4 147.3,73.9 153.9,74.5 160.4,83.5 167.0,85.6 173.6,91.4 180.1,81.3 186.7,90.3 193.2,81.8 199.8,90.9 206.4,83.9 212.9,99.4 219.5,102.0 226.1,97.4 232.6,100.5 239.2,95.1 245.8,93.1 252.3,90.0 258.9,109.3 265.4,99.3 272.0,105.1 278.6,109.4 285.1,122.6 291.7,139.8 298.2,136.5 304.8,134.0 311.4,136.7 317.9,153.1 324.5,159.2 331.1,145.7 337.6,150.6 344.2,170.5 350.8,170.3 357.3,164.5 363.9,191.4 370.4,195.7 377.0,201.5 383.6,221.5 390.1,209.1 396.7,197.4 403.2,202.2 409.8,217.7 416.4,216.4 422.9,227.3 429.5,233.5 436.1,222.3 442.6,221.8 449.2,232.2 455.8,238.1 462.3,238.2 468.9,254.5 475.4,242.3 482.0,251.6 488.6,230.9 495.1,225.2 501.7,238.7 508.2,257.5 514.8,267.8 521.4,254.6 527.9,249.6 534.5,259.1 541.1,265.4 547.6,254.7 554.2,242.9 560.8,234.5 567.3,216.1 573.9,214.4 580.4,204.7 587.0,189.7 593.6,194.6 600.1,205.3 606.7,219.2 613.2,209.4 619.8,218.8 626.4,217.8 632.9,219.8 639.5,245.9 646.1,234.0 652.6,240.1 659.2,226.7 665.8,232.5 672.3,232.0 678.9,248.9 685.4,251.7 692.0,250.7 698.6,255.9 705.1,253.7 711.7,256.0 718.2,252.3 724.8,248.3 731.4,260.5 737.9,261.7 744.5,247.7 751.1,252.0 757.6,259.2 764.2,253.5 770.8,259.3 777.3,265.9 783.9,263.3 790.4,265.2 797.0,267.5 803.6,277.0 810.1,284.2 816.7,295.5 823.2,281.6 829.8,273.0 836.4,256.8 842.9,265.3 849.5,265.2 856.1,259.3 862.6,260.5 869.2,268.8 875.8,263.1 882.3,268.2 888.9,273.0 895.4,265.8 902.0,268.4" fill="none" stroke="#d62728" stroke-width="2.2" stroke-linejoin="round" stroke-linecap="round"/>
<text x="62" y="346" font-family="Arial" font-size="11" fill="#68707a">2025-12-03</text>
<text x="834" y="346" font-family="Arial" font-size="11" fill="#68707a">2026-06-03</text>
<text x="792" y="28" font-family="Arial" font-size="12" fill="#d62728">1.8766</text>
</svg>
