<svg xmlns="http://www.w3.org/2000/svg" width="920" height="360" viewBox="0 0 920 360">
<rect width="100%" height="100%" fill="#ffffff"/>
<text x="24" y="26" font-family="Arial" font-size="18" font-weight="700" fill="#101418">GBPCAD 6m</text>
<text x="24" y="44" font-family="Arial" font-size="12" fill="#68707a">Forex cross; normalized close, start=100, change=+0.9%</text>
<line x1='62' y1='318.0' x2='902' y2='318.0' stroke='#e6e8eb'/><text x='12' y='322.0' font-family='Arial' font-size='11' fill='#68707a'>97.5</text><line x1='62' y1='250.5' x2='902' y2='250.5' stroke='#e6e8eb'/><text x='12' y='254.5' font-family='Arial' font-size='11' fill='#68707a'>98.6</text><line x1='62' y1='183.0' x2='902' y2='183.0' stroke='#e6e8eb'/><text x='12' y='187.0' font-family='Arial' font-size='11' fill='#68707a'>99.8</text><line x1='62' y1='115.5' x2='902' y2='115.5' stroke='#e6e8eb'/><text x='12' y='119.5' font-family='Arial' font-size='11' fill='#68707a'>101.0</text><line x1='62' y1='48.0' x2='902' y2='48.0' stroke='#e6e8eb'/><text x='12' y='52.0' font-family='Arial' font-size='11' fill='#68707a'>102.2</text>
<line x1="62" y1="48" x2="62" y2="318" stroke="#c8cdd2"/>
<line x1="62" y1="318" x2="902" y2="318" stroke="#c8cdd2"/>
<polyline points="62.0,174.2 68.6,127.7 75.1,134.5 81.7,184.7 88.2,177.9 94.8,188.8 101.4,175.8 107.9,181.0 114.5,193.4 121.1,187.6 127.6,174.7 134.2,184.0 140.8,182.4 147.3,181.1 153.9,158.5 160.4,166.1 167.0,174.5 173.6,180.2 180.1,168.1 186.7,182.4 193.2,171.2 199.8,172.4 206.4,121.5 212.9,117.8 219.5,118.8 226.1,124.9 232.6,122.5 239.2,108.1 245.8,120.3 252.3,114.3 258.9,138.2 265.4,124.6 272.0,128.3 278.6,137.2 285.1,141.9 291.7,130.6 298.2,97.5 304.8,86.4 311.4,76.2 317.9,99.1 324.5,125.7 331.1,118.3 337.6,104.9 344.2,109.0 350.8,118.2 357.3,152.1 363.9,137.2 370.4,146.7 377.0,171.2 383.6,166.4 390.1,153.2 396.7,138.6 403.2,138.9 409.8,164.6 416.4,169.1 422.9,187.9 429.5,173.2 436.1,170.2 442.6,167.5 449.2,152.0 455.8,179.4 462.3,218.3 468.9,215.6 475.4,238.2 482.0,243.3 488.6,237.8 495.1,289.8 501.7,243.9 508.2,248.8 514.8,255.3 521.4,255.0 527.9,267.1 534.5,249.4 541.1,229.6 547.6,252.1 554.2,182.0 560.8,232.4 567.3,185.7 573.9,177.9 580.4,176.1 587.0,173.9 593.6,195.5 600.1,210.7 606.7,192.5 613.2,177.5 619.8,192.0 626.4,197.9 632.9,191.9 639.5,148.5 646.1,150.0 652.6,145.5 659.2,139.1 665.8,125.0 672.3,107.3 678.9,123.5 685.4,155.6 692.0,170.2 698.6,176.3 705.1,179.9 711.7,179.2 718.2,181.2 724.8,169.7 731.4,182.1 737.9,165.4 744.5,183.7 751.1,173.7 757.6,178.8 764.2,185.1 770.8,176.9 777.3,154.7 783.9,159.1 790.4,133.9 797.0,131.4 803.6,152.4 810.1,152.4 816.7,201.8 823.2,221.4 829.8,179.0 836.4,191.2 842.9,173.6 849.5,163.6 856.1,132.0 862.6,123.5 869.2,140.7 875.8,142.9 882.3,154.8 888.9,146.2 895.4,124.9 902.0,121.2" fill="none" stroke="#1f77b4" stroke-width="2.2" stroke-linejoin="round" stroke-linecap="round"/>
<text x="62" y="346" font-family="Arial" font-size="11" fill="#68707a">2025-12-03</text>
<text x="834" y="346" font-family="Arial" font-size="11" fill="#68707a">2026-06-03</text>
<text x="792" y="28" font-family="Arial" font-size="12" fill="#1f77b4">1.8639</text>
</svg>
