<svg xmlns="http://www.w3.org/2000/svg" width="920" height="360" viewBox="0 0 920 360">
<rect width="100%" height="100%" fill="#ffffff"/>
<text x="24" y="26" font-family="Arial" font-size="18" font-weight="700" fill="#101418">GBPCHF 12m</text>
<text x="24" y="44" font-family="Arial" font-size="12" fill="#68707a">Forex cross; normalized close, start=100, change=-4.1%</text>
<line x1='62' y1='318.0' x2='902' y2='318.0' stroke='#e6e8eb'/><text x='12' y='322.0' font-family='Arial' font-size='11' fill='#68707a'>92.5</text><line x1='62' y1='250.5' x2='902' y2='250.5' stroke='#e6e8eb'/><text x='12' y='254.5' font-family='Arial' font-size='11' fill='#68707a'>94.7</text><line x1='62' y1='183.0' x2='902' y2='183.0' stroke='#e6e8eb'/><text x='12' y='187.0' font-family='Arial' font-size='11' fill='#68707a'>97.0</text><line x1='62' y1='115.5' x2='902' y2='115.5' stroke='#e6e8eb'/><text x='12' y='119.5' font-family='Arial' font-size='11' fill='#68707a'>99.2</text><line x1='62' y1='48.0' x2='902' y2='48.0' stroke='#e6e8eb'/><text x='12' y='52.0' font-family='Arial' font-size='11' fill='#68707a'>101.4</text>
<line x1="62" y1="48" x2="62" y2="318" stroke="#c8cdd2"/>
<line x1="62" y1="318" x2="902" y2="318" stroke="#c8cdd2"/>
<polyline points="62.0,90.7 65.2,70.5 68.5,84.1 71.7,72.8 75.0,75.0 78.2,71.0 81.5,79.1 84.7,78.6 87.9,101.6 91.2,106.6 94.4,97.0 97.7,115.8 100.9,111.0 104.2,107.1 107.4,111.1 110.6,105.8 113.9,118.0 117.1,106.6 120.4,110.0 123.6,120.9 126.9,138.9 130.1,143.7 133.4,161.0 136.6,147.9 139.8,151.5 143.1,146.2 146.3,159.3 149.6,168.5 152.8,157.4 156.1,175.8 159.3,186.2 162.5,180.8 165.8,178.8 169.0,166.8 172.3,176.8 175.5,172.0 178.8,181.4 182.0,174.5 185.2,179.5 188.5,193.3 191.7,181.4 195.0,174.6 198.2,167.8 201.5,176.2 204.7,194.1 207.9,181.2 211.2,181.4 214.4,171.6 217.7,152.2 220.9,147.2 224.2,132.8 227.4,139.0 230.6,126.2 233.9,127.9 237.1,125.8 240.4,133.3 243.6,136.6 246.9,155.2 250.1,148.7 253.4,151.8 256.6,149.8 259.8,153.4 263.1,156.1 266.3,154.3 269.6,159.5 272.8,151.5 276.1,168.9 279.3,161.4 282.5,156.1 285.8,167.1 289.0,177.8 292.3,168.4 295.5,160.0 298.8,161.0 302.0,163.1 305.2,160.1 308.5,181.8 311.7,177.8 315.0,178.3 318.2,185.2 321.5,188.0 324.7,189.5 327.9,192.7 331.2,198.4 334.4,192.1 337.7,186.3 340.9,188.5 344.2,178.6 347.4,185.3 350.6,187.7 353.9,184.8 357.1,185.2 360.4,178.9 363.6,183.1 366.9,190.2 370.1,183.8 373.4,196.5 376.6,196.4 379.8,204.8 383.1,202.6 386.3,211.4 389.6,204.5 392.8,209.6 396.1,218.7 399.3,216.2 402.5,217.5 405.8,237.5 409.0,229.4 412.3,231.9 415.5,225.5 418.8,213.5 422.0,231.0 425.2,226.3 428.5,219.6 431.7,216.2 435.0,216.2 438.2,237.9 441.5,252.4 444.7,263.6 447.9,258.3 451.2,252.2 454.4,239.5 457.7,239.8 460.9,234.2 464.2,220.1 467.4,218.3 470.6,208.9 473.9,206.0 477.1,203.0 480.4,207.9 483.6,209.4 486.9,214.0 490.1,196.9 493.4,188.0 496.6,183.5 499.8,176.3 503.1,183.9 506.3,189.5 509.6,205.7 512.8,206.0 516.1,203.7 519.3,196.8 522.5,207.9 525.8,210.8 529.0,205.6 532.3,201.2 535.5,206.4 538.8,205.3 542.0,203.5 545.2,202.0 548.5,200.3 551.7,198.1 555.0,200.7 558.2,184.6 561.5,178.5 564.7,180.3 567.9,180.4 571.2,180.2 574.4,180.0 577.7,175.0 580.9,176.6 584.2,176.4 587.4,188.7 590.6,188.8 593.9,214.2 597.1,194.0 600.4,203.6 603.6,209.8 606.9,209.2 610.1,231.3 613.4,221.5 616.6,230.4 619.8,222.9 623.1,203.6 626.3,210.7 629.6,216.1 632.8,240.9 636.1,229.3 639.3,246.1 642.5,250.8 645.8,243.6 649.0,251.5 652.3,249.6 655.5,248.2 658.8,259.6 662.0,266.0 665.2,262.5 668.5,260.8 671.7,259.1 675.0,260.9 678.2,253.8 681.5,264.0 684.7,295.5 687.9,261.1 691.2,261.6 694.4,268.2 697.7,265.0 700.9,275.3 704.2,261.7 707.4,259.5 710.6,255.8 713.9,249.0 717.1,255.0 720.4,247.2 723.6,249.6 726.9,241.1 730.1,220.2 733.4,244.4 736.6,228.5 739.8,225.5 743.1,224.0 746.3,218.6 749.6,221.1 752.8,235.4 756.1,227.7 759.3,228.4 762.5,227.4 765.8,227.6 769.0,228.2 772.3,219.6 775.5,217.7 778.8,212.0 782.0,213.3 785.2,221.8 788.5,217.5 791.7,216.5 795.0,219.6 798.2,226.9 801.5,235.9 804.7,233.1 807.9,219.2 811.2,221.3 814.4,210.1 817.7,209.0 820.9,198.9 824.2,200.3 827.4,209.3 830.6,215.2 833.9,215.3 837.1,217.0 840.4,221.6 843.6,224.0 846.9,225.0 850.1,221.4 853.4,227.5 856.6,224.9 859.8,244.9 863.1,251.1 866.3,235.1 869.6,227.1 872.8,225.2 876.1,227.5 879.3,232.7 882.5,225.7 885.8,227.7 889.0,226.0 892.3,235.3 895.5,240.8 898.8,222.4 902.0,213.9" fill="none" stroke="#d62728" stroke-width="2.2" stroke-linejoin="round" stroke-linecap="round"/>
<text x="62" y="346" font-family="Arial" font-size="11" fill="#68707a">2025-06-03</text>
<text x="834" y="346" font-family="Arial" font-size="11" fill="#68707a">2026-06-03</text>
<text x="792" y="28" font-family="Arial" font-size="12" fill="#d62728">1.0613</text>
</svg>
