<svg xmlns="http://www.w3.org/2000/svg" width="920" height="360" viewBox="0 0 920 360">
<rect width="100%" height="100%" fill="#ffffff"/>
<text x="24" y="26" font-family="Arial" font-size="18" font-weight="700" fill="#101418">GBPCHF 6m</text>
<text x="24" y="44" font-family="Arial" font-size="12" fill="#68707a">Forex cross; normalized close, start=100, change=+0.0%</text>
<line x1='62' y1='318.0' x2='902' y2='318.0' stroke='#e6e8eb'/><text x='12' y='322.0' font-family='Arial' font-size='11' fill='#68707a'>96.7</text><line x1='62' y1='250.5' x2='902' y2='250.5' stroke='#e6e8eb'/><text x='12' y='254.5' font-family='Arial' font-size='11' fill='#68707a'>98.0</text><line x1='62' y1='183.0' x2='902' y2='183.0' stroke='#e6e8eb'/><text x='12' y='187.0' font-family='Arial' font-size='11' fill='#68707a'>99.3</text><line x1='62' y1='115.5' x2='902' y2='115.5' stroke='#e6e8eb'/><text x='12' y='119.5' font-family='Arial' font-size='11' fill='#68707a'>100.6</text><line x1='62' y1='48.0' x2='902' y2='48.0' stroke='#e6e8eb'/><text x='12' y='52.0' font-family='Arial' font-size='11' fill='#68707a'>101.8</text>
<line x1="62" y1="48" x2="62" y2="318" stroke="#c8cdd2"/>
<line x1="62" y1="318" x2="902" y2="318" stroke="#c8cdd2"/>
<polyline points="62.0,144.7 68.6,113.7 75.1,97.8 81.7,89.5 88.2,76.7 94.8,90.4 101.4,100.5 107.9,129.7 114.5,130.2 121.1,126.1 127.6,113.6 134.2,133.7 140.8,138.9 147.3,129.4 153.9,121.6 160.4,130.9 167.0,128.9 173.6,125.7 180.1,123.0 186.7,119.9 193.2,115.9 199.8,120.6 206.4,91.6 212.9,80.6 219.5,83.9 226.1,84.0 232.6,83.7 239.2,83.3 245.8,74.3 252.3,77.2 258.9,76.8 265.4,99.0 272.0,99.1 278.6,145.1 285.1,108.6 291.7,125.9 298.2,137.1 304.8,135.9 311.4,175.9 317.9,158.2 324.5,174.2 331.1,160.7 337.6,125.9 344.2,138.8 350.8,148.5 357.3,193.2 363.9,172.3 370.4,202.6 377.0,211.0 383.6,198.0 390.1,212.3 396.7,208.8 403.2,206.3 409.8,226.9 416.4,238.4 422.9,232.1 429.5,229.0 436.1,226.1 442.6,229.2 449.2,216.4 455.8,234.8 462.3,291.7 468.9,229.5 475.4,230.4 482.0,242.4 488.6,236.7 495.1,255.2 501.7,230.7 508.2,226.6 514.8,220.0 521.4,207.8 527.9,218.5 534.5,204.6 541.1,208.9 547.6,193.6 554.2,155.8 560.8,199.4 567.3,170.7 573.9,165.3 580.4,162.6 587.0,152.9 593.6,157.5 600.1,183.2 606.7,169.3 613.2,170.7 619.8,168.8 626.4,169.2 632.9,170.3 639.5,154.7 646.1,151.4 652.6,140.9 659.2,143.3 665.8,158.7 672.3,151.0 678.9,149.2 685.4,154.7 692.0,167.8 698.6,184.2 705.1,179.2 711.7,154.0 718.2,157.8 724.8,137.7 731.4,135.6 737.9,117.5 744.5,120.0 751.1,136.1 757.6,146.7 764.2,147.0 770.8,150.1 777.3,158.3 783.9,162.7 790.4,164.5 797.0,158.0 803.6,168.9 810.1,164.3 816.7,200.3 823.2,211.5 829.8,182.6 836.4,168.2 842.9,164.9 849.5,168.9 856.1,178.3 862.6,165.7 869.2,169.3 875.8,166.2 882.3,183.1 888.9,192.9 895.4,159.7 902.0,144.5" fill="none" stroke="#1f77b4" stroke-width="2.2" stroke-linejoin="round" stroke-linecap="round"/>
<text x="62" y="346" font-family="Arial" font-size="11" fill="#68707a">2025-12-03</text>
<text x="834" y="346" font-family="Arial" font-size="11" fill="#68707a">2026-06-03</text>
<text x="792" y="28" font-family="Arial" font-size="12" fill="#1f77b4">1.0613</text>
</svg>
