<svg xmlns="http://www.w3.org/2000/svg" width="920" height="360" viewBox="0 0 920 360">
<rect width="100%" height="100%" fill="#ffffff"/>
<text x="24" y="26" font-family="Arial" font-size="18" font-weight="700" fill="#101418">GBPCAD 12m</text>
<text x="24" y="44" font-family="Arial" font-size="12" fill="#68707a">Forex cross; normalized close, start=100, change=+0.3%</text>
<line x1='62' y1='318.0' x2='902' y2='318.0' stroke='#e6e8eb'/><text x='12' y='322.0' font-family='Arial' font-size='11' fill='#68707a'>96.8</text><line x1='62' y1='250.5' x2='902' y2='250.5' stroke='#e6e8eb'/><text x='12' y='254.5' font-family='Arial' font-size='11' fill='#68707a'>98.1</text><line x1='62' y1='183.0' x2='902' y2='183.0' stroke='#e6e8eb'/><text x='12' y='187.0' font-family='Arial' font-size='11' fill='#68707a'>99.5</text><line x1='62' y1='115.5' x2='902' y2='115.5' stroke='#e6e8eb'/><text x='12' y='119.5' font-family='Arial' font-size='11' fill='#68707a'>100.8</text><line x1='62' y1='48.0' x2='902' y2='48.0' stroke='#e6e8eb'/><text x='12' y='52.0' font-family='Arial' font-size='11' fill='#68707a'>102.1</text>
<line x1="62" y1="48" x2="62" y2="318" stroke="#c8cdd2"/>
<line x1="62" y1="318" x2="902" y2="318" stroke="#c8cdd2"/>
<polyline points="62.0,155.5 65.2,163.8 68.5,168.9 71.7,162.7 75.0,169.9 78.2,159.8 81.5,189.2 84.7,169.8 87.9,172.0 91.2,168.0 94.4,203.0 97.7,213.4 100.9,214.0 104.2,191.2 107.4,190.8 110.6,153.5 113.9,127.5 117.1,104.2 120.4,118.2 123.6,105.2 126.9,129.4 130.1,109.1 133.4,166.6 136.6,165.3 139.8,160.0 143.1,147.4 146.3,161.8 149.6,150.9 152.8,167.3 156.1,188.5 159.3,206.2 162.5,214.8 165.8,218.3 169.0,193.0 172.3,203.8 175.5,193.8 178.8,208.2 182.0,187.5 185.2,199.2 188.5,203.2 191.7,220.9 195.0,208.9 198.2,226.7 201.5,233.3 204.7,231.7 207.9,233.1 211.2,230.6 214.4,220.0 217.7,187.1 220.9,182.3 224.2,178.0 227.4,153.5 230.6,129.1 233.9,127.2 237.1,116.9 240.4,139.8 243.6,124.9 246.9,129.4 250.1,137.5 253.4,128.8 256.6,139.5 259.8,139.6 263.1,149.1 266.3,158.1 269.6,165.1 272.8,145.0 276.1,193.9 279.3,168.5 282.5,159.3 285.8,133.4 289.0,126.9 292.3,118.5 295.5,108.0 298.8,102.0 302.0,110.4 305.2,114.3 308.5,108.3 311.7,105.6 315.0,125.5 318.2,163.6 321.5,128.8 324.7,120.4 327.9,127.7 331.2,154.3 334.4,127.7 337.7,124.8 340.9,119.4 344.2,99.6 347.4,104.4 350.6,108.1 353.9,95.3 357.1,117.3 360.4,124.1 363.6,137.9 366.9,133.5 370.1,119.4 373.4,122.3 376.6,90.1 379.8,73.6 383.1,92.2 386.3,94.7 389.6,114.1 392.8,130.7 396.1,140.8 399.3,140.1 402.5,133.8 405.8,176.9 409.0,209.4 412.3,207.5 415.5,205.3 418.8,190.5 422.0,217.8 425.2,206.0 428.5,168.2 431.7,191.7 435.0,186.7 438.2,198.4 441.5,209.2 444.7,190.8 447.9,194.5 451.2,183.6 454.4,210.5 457.7,223.2 460.9,196.4 464.2,190.7 467.4,181.8 470.6,164.1 473.9,154.4 477.1,160.7 480.4,181.5 483.6,181.9 486.9,188.5 490.1,146.7 493.4,152.8 496.6,198.0 499.8,191.8 503.1,201.6 506.3,189.9 509.6,194.6 512.8,205.8 516.1,200.5 519.3,188.9 522.5,197.3 525.8,195.8 529.0,194.7 532.3,174.3 535.5,181.2 538.8,188.8 542.0,193.9 545.2,183.0 548.5,195.9 551.7,185.7 555.0,186.8 558.2,141.1 561.5,137.7 564.7,138.6 567.9,144.1 571.2,141.9 574.4,129.0 577.7,140.0 580.9,134.6 584.2,156.1 587.4,143.9 590.6,147.2 593.9,155.2 597.1,159.4 600.4,149.2 603.6,119.5 606.9,109.5 610.1,100.3 613.4,120.9 616.6,144.8 619.8,138.1 623.1,126.1 626.3,129.8 629.6,138.1 632.8,168.6 636.1,155.1 639.3,163.7 642.5,185.8 645.8,181.4 649.0,169.6 652.3,156.5 655.5,156.7 658.8,179.8 662.0,183.9 665.2,200.8 668.5,187.5 671.7,184.9 675.0,182.4 678.2,168.5 681.5,193.1 684.7,228.1 687.9,225.7 691.2,246.1 694.4,250.6 697.7,245.7 700.9,292.4 704.2,251.2 707.4,255.6 710.6,261.4 713.9,261.2 717.1,272.0 720.4,256.1 723.6,238.3 726.9,258.5 730.1,195.5 733.4,240.8 736.6,198.8 739.8,191.8 743.1,190.2 746.3,188.2 749.6,207.6 752.8,221.3 756.1,204.9 759.3,191.5 762.5,204.5 765.8,209.8 769.0,204.4 772.3,165.4 775.5,166.7 778.8,162.6 782.0,156.8 785.2,144.2 788.5,128.3 791.7,142.8 795.0,171.7 798.2,184.9 801.5,190.4 804.7,193.6 807.9,193.0 811.2,194.7 814.4,184.4 817.7,195.6 820.9,180.5 824.2,197.0 827.4,188.0 830.6,192.6 833.9,198.3 837.1,190.9 840.4,170.9 843.6,174.9 846.9,152.2 850.1,149.9 853.4,168.9 856.6,168.8 859.8,213.3 863.1,230.9 866.3,192.8 869.6,203.7 872.8,188.0 876.1,179.0 879.3,150.5 882.5,142.9 885.8,158.3 889.0,160.3 892.3,171.0 895.5,163.3 898.8,144.1 902.0,140.8" fill="none" stroke="#1f77b4" stroke-width="2.2" stroke-linejoin="round" stroke-linecap="round"/>
<text x="62" y="346" font-family="Arial" font-size="11" fill="#68707a">2025-06-03</text>
<text x="834" y="346" font-family="Arial" font-size="11" fill="#68707a">2026-06-03</text>
<text x="792" y="28" font-family="Arial" font-size="12" fill="#1f77b4">1.8639</text>
</svg>
