<svg xmlns="http://www.w3.org/2000/svg" width="920" height="360" viewBox="0 0 920 360">
<rect width="100%" height="100%" fill="#ffffff"/>
<text x="24" y="26" font-family="Arial" font-size="18" font-weight="700" fill="#101418">GBPJPY 12m</text>
<text x="24" y="44" font-family="Arial" font-size="12" fill="#68707a">Forex cross; normalized close, start=100, change=+11.4%</text>
<line x1='62' y1='318.0' x2='902' y2='318.0' stroke='#e6e8eb'/><text x='12' y='322.0' font-family='Arial' font-size='11' fill='#68707a'>98.8</text><line x1='62' y1='250.5' x2='902' y2='250.5' stroke='#e6e8eb'/><text x='12' y='254.5' font-family='Arial' font-size='11' fill='#68707a'>102.4</text><line x1='62' y1='183.0' x2='902' y2='183.0' stroke='#e6e8eb'/><text x='12' y='187.0' font-family='Arial' font-size='11' fill='#68707a'>105.9</text><line x1='62' y1='115.5' x2='902' y2='115.5' stroke='#e6e8eb'/><text x='12' y='119.5' font-family='Arial' font-size='11' fill='#68707a'>109.5</text><line x1='62' y1='48.0' x2='902' y2='48.0' stroke='#e6e8eb'/><text x='12' y='52.0' font-family='Arial' font-size='11' fill='#68707a'>113.1</text>
<line x1="62" y1="48" x2="62" y2="318" stroke="#c8cdd2"/>
<line x1="62" y1="318" x2="902" y2="318" stroke="#c8cdd2"/>
<polyline points="62.0,295.5 65.2,280.7 68.5,292.4 71.7,277.6 75.0,268.4 78.2,267.7 81.5,270.9 84.7,270.8 87.9,276.0 91.2,259.8 94.4,264.0 97.7,274.7 100.9,282.2 104.2,270.1 107.4,262.7 110.6,251.0 113.9,253.9 117.1,243.8 120.4,241.9 123.6,245.2 126.9,252.9 130.1,256.2 133.4,268.0 136.6,250.1 139.8,254.8 143.1,240.3 146.3,232.9 149.6,241.8 152.8,241.3 156.1,240.2 159.3,243.1 162.5,235.4 165.8,242.8 169.0,234.0 172.3,236.5 175.5,239.4 178.8,242.9 182.0,240.6 185.2,241.7 188.5,241.3 191.7,244.0 195.0,245.4 198.2,249.3 201.5,236.2 204.7,269.1 207.9,275.1 211.2,264.8 214.4,261.1 217.7,252.3 220.9,242.7 224.2,237.8 227.4,232.6 230.6,229.3 233.9,229.6 237.1,231.5 240.4,229.8 243.6,235.4 246.9,244.0 250.1,236.8 253.4,238.7 256.6,239.0 259.8,240.4 263.1,238.4 266.3,244.3 269.6,241.3 272.8,235.1 276.1,239.7 279.3,238.7 282.5,233.1 285.8,226.4 289.0,230.7 292.3,234.9 295.5,233.7 298.8,229.2 302.0,226.6 305.2,223.0 308.5,228.9 311.7,225.9 315.0,222.5 318.2,233.8 321.5,231.4 324.7,231.7 327.9,226.9 331.2,229.3 334.4,224.8 337.7,231.4 340.9,238.2 344.2,244.9 347.4,248.9 350.6,218.5 353.9,201.4 357.1,188.1 360.4,182.8 363.6,193.5 366.9,200.7 370.1,196.3 373.4,207.1 376.6,204.7 379.8,209.9 383.1,202.6 386.3,207.3 389.6,198.5 392.8,199.7 396.1,194.8 399.3,189.6 402.5,191.7 405.8,213.5 409.0,213.1 412.3,203.3 415.5,203.2 418.8,203.0 422.0,228.7 425.2,217.2 428.5,218.4 431.7,207.0 435.0,198.1 438.2,202.0 441.5,197.5 444.7,195.0 447.9,194.4 451.2,186.1 454.4,183.8 457.7,178.5 460.9,170.0 464.2,176.9 467.4,172.3 470.6,173.4 473.9,159.9 477.1,160.0 480.4,164.9 483.6,174.2 486.9,169.4 490.1,158.9 493.4,162.5 496.6,159.5 499.8,152.7 503.1,143.2 506.3,143.9 509.6,146.4 512.8,145.8 516.1,155.3 519.3,151.7 522.5,150.0 525.8,147.1 529.0,121.3 532.3,117.7 535.5,120.5 538.8,121.6 542.0,118.4 545.2,122.5 548.5,123.9 551.7,118.5 555.0,120.5 558.2,110.7 561.5,115.0 564.7,120.9 567.9,122.3 571.2,112.1 574.4,103.1 577.7,93.5 580.9,101.4 584.2,108.1 587.4,118.7 590.6,107.9 593.9,104.7 597.1,104.2 600.4,90.9 603.6,110.4 606.9,119.2 610.1,122.5 613.4,113.8 616.6,115.8 619.8,107.5 623.1,105.1 626.3,96.6 629.6,89.8 632.8,110.3 636.1,90.8 639.3,94.6 642.5,123.9 645.8,141.6 649.0,148.4 652.3,144.6 655.5,136.5 658.8,152.1 662.0,142.1 665.2,141.2 668.5,141.0 671.7,142.7 675.0,126.2 678.2,112.5 681.5,127.3 684.7,130.0 687.9,121.3 691.2,123.4 694.4,131.3 697.7,125.8 700.9,122.8 704.2,111.5 707.4,108.7 710.6,101.7 713.9,104.8 717.1,116.4 720.4,112.0 723.6,107.9 726.9,110.8 730.1,110.1 733.4,107.7 736.6,103.0 739.8,101.1 743.1,100.6 746.3,100.8 749.6,109.3 752.8,124.5 756.1,130.4 759.3,119.7 762.5,120.4 765.8,123.2 769.0,116.9 772.3,103.4 775.5,105.6 778.8,93.9 782.0,91.9 785.2,79.0 788.5,75.3 791.7,75.5 795.0,77.7 798.2,84.9 801.5,81.5 804.7,78.0 807.9,77.9 811.2,79.7 814.4,74.5 817.7,73.6 820.9,73.2 824.2,70.5 827.4,95.2 830.6,100.3 833.9,103.6 837.1,91.2 840.4,103.5 843.6,104.6 846.9,98.2 850.1,91.7 853.4,96.5 856.6,95.4 859.8,109.5 863.1,116.0 866.3,96.8 869.6,100.1 872.8,96.2 876.1,94.7 879.3,87.9 882.5,85.7 885.8,88.1 889.0,90.0 892.3,89.5 895.5,87.3 898.8,82.1 902.0,78.8" fill="none" stroke="#1f77b4" stroke-width="2.2" stroke-linejoin="round" stroke-linecap="round"/>
<text x="62" y="346" font-family="Arial" font-size="11" fill="#68707a">2025-06-03</text>
<text x="834" y="346" font-family="Arial" font-size="11" fill="#68707a">2026-06-03</text>
<text x="792" y="28" font-family="Arial" font-size="12" fill="#1f77b4">215.21</text>
</svg>
