<svg xmlns="http://www.w3.org/2000/svg" width="920" height="360" viewBox="0 0 920 360">
<rect width="100%" height="100%" fill="#ffffff"/>
<text x="24" y="26" font-family="Arial" font-size="18" font-weight="700" fill="#101418">GBPJPY 6m</text>
<text x="24" y="44" font-family="Arial" font-size="12" fill="#68707a">Forex cross; normalized close, start=100, change=+4.5%</text>
<line x1='62' y1='318.0' x2='902' y2='318.0' stroke='#e6e8eb'/><text x='12' y='322.0' font-family='Arial' font-size='11' fill='#68707a'>99.5</text><line x1='62' y1='250.5' x2='902' y2='250.5' stroke='#e6e8eb'/><text x='12' y='254.5' font-family='Arial' font-size='11' fill='#68707a'>101.0</text><line x1='62' y1='183.0' x2='902' y2='183.0' stroke='#e6e8eb'/><text x='12' y='187.0' font-family='Arial' font-size='11' fill='#68707a'>102.5</text><line x1='62' y1='115.5' x2='902' y2='115.5' stroke='#e6e8eb'/><text x='12' y='119.5' font-family='Arial' font-size='11' fill='#68707a'>103.9</text><line x1='62' y1='48.0' x2='902' y2='48.0' stroke='#e6e8eb'/><text x='12' y='52.0' font-family='Arial' font-size='11' fill='#68707a'>105.4</text>
<line x1="62" y1="48" x2="62" y2="318" stroke="#c8cdd2"/>
<line x1="62" y1="318" x2="902" y2="318" stroke="#c8cdd2"/>
<polyline points="62.0,295.1 68.6,271.3 75.1,279.5 81.7,272.6 88.2,257.2 94.8,235.8 101.4,237.2 107.9,243.0 114.5,241.6 121.1,263.0 127.6,254.8 134.2,251.0 140.8,244.4 147.3,186.0 153.9,177.9 160.4,184.2 167.0,186.7 173.6,179.5 180.1,188.6 186.7,191.9 193.2,179.6 199.8,184.1 206.4,161.9 212.9,171.8 219.5,185.2 226.1,188.2 232.6,165.1 239.2,144.8 245.8,123.0 252.3,141.0 258.9,156.1 265.4,180.1 272.0,155.7 278.6,148.4 285.1,147.2 291.7,117.2 298.2,161.4 304.8,181.4 311.4,188.7 317.9,169.0 324.5,173.6 331.1,154.7 337.6,149.4 344.2,130.0 350.8,114.5 357.3,161.0 363.9,116.9 370.4,125.4 377.0,191.9 383.6,232.1 390.1,247.5 396.7,238.8 403.2,220.5 409.8,255.9 416.4,233.1 422.9,231.1 429.5,230.6 436.1,234.5 442.6,197.1 449.2,166.2 455.8,199.5 462.3,205.8 468.9,186.0 475.4,190.7 482.0,208.6 488.6,196.2 495.1,189.5 501.7,163.9 508.2,157.4 514.8,141.6 521.4,148.5 527.9,175.0 534.5,164.9 541.1,155.7 547.6,162.3 554.2,160.7 560.8,155.2 567.3,144.6 573.9,140.3 580.4,139.1 587.0,139.6 593.6,158.8 600.1,193.3 606.7,206.7 613.2,182.3 619.8,184.1 626.4,190.3 632.9,176.0 639.5,145.5 646.1,150.5 652.6,124.0 659.2,119.5 665.8,90.2 672.3,81.8 678.9,82.2 685.4,87.2 692.0,103.6 698.6,95.9 705.1,87.9 711.7,87.7 718.2,91.7 724.8,79.9 731.4,78.0 737.9,77.1 744.5,70.9 751.1,126.9 757.6,138.4 764.2,145.8 770.8,117.7 777.3,145.6 783.9,148.1 790.4,133.6 797.0,118.9 803.6,129.8 810.1,127.2 816.7,159.3 823.2,173.9 829.8,130.4 836.4,138.0 842.9,129.2 849.5,125.8 856.1,110.4 862.6,105.2 869.2,110.7 875.8,115.1 882.3,113.9 888.9,109.0 895.4,97.2 902.0,89.8" fill="none" stroke="#1f77b4" stroke-width="2.2" stroke-linejoin="round" stroke-linecap="round"/>
<text x="62" y="346" font-family="Arial" font-size="11" fill="#68707a">2025-12-03</text>
<text x="834" y="346" font-family="Arial" font-size="11" fill="#68707a">2026-06-03</text>
<text x="792" y="28" font-family="Arial" font-size="12" fill="#1f77b4">215.21</text>
</svg>
