<svg xmlns="http://www.w3.org/2000/svg" width="920" height="360" viewBox="0 0 920 360">
<rect width="100%" height="100%" fill="#ffffff"/>
<text x="24" y="26" font-family="Arial" font-size="18" font-weight="700" fill="#101418">GBPNZD 12m</text>
<text x="24" y="44" font-family="Arial" font-size="12" fill="#68707a">Forex cross; normalized close, start=100, change=+1.5%</text>
<line x1='62' y1='318.0' x2='902' y2='318.0' stroke='#e6e8eb'/><text x='12' y='322.0' font-family='Arial' font-size='11' fill='#68707a'>98.7</text><line x1='62' y1='250.5' x2='902' y2='250.5' stroke='#e6e8eb'/><text x='12' y='254.5' font-family='Arial' font-size='11' fill='#68707a'>100.4</text><line x1='62' y1='183.0' x2='902' y2='183.0' stroke='#e6e8eb'/><text x='12' y='187.0' font-family='Arial' font-size='11' fill='#68707a'>102.0</text><line x1='62' y1='115.5' x2='902' y2='115.5' stroke='#e6e8eb'/><text x='12' y='119.5' font-family='Arial' font-size='11' fill='#68707a'>103.6</text><line x1='62' y1='48.0' x2='902' y2='48.0' stroke='#e6e8eb'/><text x='12' y='52.0' font-family='Arial' font-size='11' fill='#68707a'>105.3</text>
<line x1="62" y1="48" x2="62" y2="318" stroke="#c8cdd2"/>
<line x1="62" y1="318" x2="902" y2="318" stroke="#c8cdd2"/>
<polyline points="62.0,265.3 65.2,244.4 68.5,252.6 71.7,254.0 75.0,254.7 78.2,268.6 81.5,287.5 84.7,254.5 87.9,255.6 91.2,243.9 94.4,263.6 97.7,284.6 100.9,295.5 104.2,257.5 107.4,243.3 110.6,232.8 113.9,222.3 117.1,229.9 120.4,222.0 123.6,227.0 126.9,242.8 130.1,243.8 133.4,265.1 136.6,253.6 139.8,239.6 143.1,217.6 146.3,221.3 149.6,220.2 152.8,254.2 156.1,258.3 159.3,252.4 162.5,250.8 165.8,239.7 169.0,231.9 172.3,243.0 175.5,232.0 178.8,243.2 182.0,258.2 185.2,272.1 188.5,282.3 191.7,273.4 195.0,265.1 198.2,260.6 201.5,262.3 204.7,255.0 207.9,254.7 211.2,248.7 214.4,243.9 217.7,244.0 220.9,231.8 224.2,228.4 227.4,219.3 230.6,210.5 233.9,185.3 237.1,182.9 240.4,193.9 243.6,182.1 246.9,138.7 250.1,149.5 253.4,151.6 256.6,158.0 259.8,156.4 263.1,150.8 266.3,165.7 269.6,176.3 272.8,169.4 276.1,188.6 279.3,184.7 282.5,162.3 285.8,174.2 289.0,195.2 292.3,191.7 295.5,200.0 298.8,211.3 302.0,201.0 305.2,196.7 308.5,195.7 311.7,166.0 315.0,156.2 318.2,156.1 321.5,153.3 324.7,141.6 327.9,135.0 331.2,132.4 334.4,120.6 337.7,114.0 340.9,122.4 344.2,129.8 347.4,138.6 350.6,146.7 353.9,144.1 357.1,130.9 360.4,127.6 363.6,134.9 366.9,105.6 370.1,99.3 373.4,99.9 376.6,75.3 379.8,70.5 383.1,80.4 386.3,96.5 389.6,108.0 392.8,108.0 396.1,129.4 399.3,134.6 402.5,141.4 405.8,165.5 409.0,178.0 412.3,175.6 415.5,166.8 418.8,155.1 422.0,143.9 425.2,152.4 428.5,102.6 431.7,93.5 435.0,95.6 438.2,112.3 441.5,124.2 444.7,110.4 447.9,124.3 451.2,109.4 454.4,115.4 457.7,109.7 460.9,84.7 464.2,97.3 467.4,96.5 470.6,85.6 473.9,118.4 477.1,138.2 480.4,143.5 483.6,145.5 486.9,153.1 490.1,136.6 493.4,134.4 496.6,145.6 499.8,146.7 503.1,155.9 506.3,155.5 509.6,148.4 512.8,151.1 516.1,135.5 519.3,120.0 522.5,125.7 525.8,126.4 529.0,114.0 532.3,115.6 535.5,134.8 538.8,131.8 542.0,128.0 545.2,111.0 548.5,111.7 551.7,84.9 555.0,94.3 558.2,86.8 561.5,94.1 564.7,101.4 567.9,91.4 571.2,89.2 574.4,98.7 577.7,85.8 580.9,85.2 584.2,103.9 587.4,111.1 590.6,130.8 593.9,146.2 597.1,160.8 600.4,191.6 603.6,172.8 606.9,175.2 610.1,170.3 613.4,195.8 616.6,208.9 619.8,205.3 623.1,204.5 626.3,218.7 629.6,204.7 632.8,200.7 636.1,238.7 639.3,230.3 642.5,237.4 645.8,245.7 649.0,236.1 652.3,227.9 655.5,232.9 658.8,263.7 662.0,228.9 665.2,241.5 668.5,242.3 671.7,223.3 675.0,226.9 678.2,233.2 681.5,238.8 684.7,249.0 687.9,241.7 691.2,220.0 694.4,247.2 697.7,222.9 700.9,206.5 704.2,223.3 707.4,222.3 710.6,213.2 713.9,192.5 717.1,185.6 720.4,206.1 723.6,195.8 726.9,178.8 730.1,180.3 733.4,183.1 736.6,170.5 739.8,161.5 743.1,155.3 746.3,131.8 749.6,137.5 752.8,152.0 756.1,156.3 759.3,133.7 762.5,133.2 765.8,123.5 769.0,128.7 772.3,145.4 775.5,159.6 778.8,166.2 782.0,143.9 785.2,154.6 788.5,158.7 791.7,166.0 795.0,162.3 798.2,160.2 801.5,174.5 804.7,175.4 807.9,183.9 811.2,157.1 814.4,154.1 817.7,176.8 820.9,163.8 824.2,140.9 827.4,153.0 830.6,159.1 833.9,150.2 837.1,160.9 840.4,189.9 843.6,189.6 846.9,186.1 850.1,194.2 853.4,205.5 856.6,194.1 859.8,215.9 863.1,191.0 866.3,182.6 869.6,164.8 872.8,177.9 876.1,185.9 879.3,166.6 882.5,154.0 885.8,152.4 889.0,201.5 892.3,229.0 895.5,252.2 898.8,217.6 902.0,205.7" fill="none" stroke="#1f77b4" stroke-width="2.2" stroke-linejoin="round" stroke-linecap="round"/>
<text x="62" y="346" font-family="Arial" font-size="11" fill="#68707a">2025-06-03</text>
<text x="834" y="346" font-family="Arial" font-size="11" fill="#68707a">2026-06-03</text>
<text x="792" y="28" font-family="Arial" font-size="12" fill="#1f77b4">2.2739</text>
</svg>
