<svg xmlns="http://www.w3.org/2000/svg" width="920" height="360" viewBox="0 0 920 360">
<rect width="100%" height="100%" fill="#ffffff"/>
<text x="24" y="26" font-family="Arial" font-size="18" font-weight="700" fill="#101418">GBPNZD 6m</text>
<text x="24" y="44" font-family="Arial" font-size="12" fill="#68707a">Forex cross; normalized close, start=100, change=-1.2%</text>
<line x1='62' y1='318.0' x2='902' y2='318.0' stroke='#e6e8eb'/><text x='12' y='322.0' font-family='Arial' font-size='11' fill='#68707a'>96.9</text><line x1='62' y1='250.5' x2='902' y2='250.5' stroke='#e6e8eb'/><text x='12' y='254.5' font-family='Arial' font-size='11' fill='#68707a'>98.2</text><line x1='62' y1='183.0' x2='902' y2='183.0' stroke='#e6e8eb'/><text x='12' y='187.0' font-family='Arial' font-size='11' fill='#68707a'>99.5</text><line x1='62' y1='115.5' x2='902' y2='115.5' stroke='#e6e8eb'/><text x='12' y='119.5' font-family='Arial' font-size='11' fill='#68707a'>100.8</text><line x1='62' y1='48.0' x2='902' y2='48.0' stroke='#e6e8eb'/><text x='12' y='52.0' font-family='Arial' font-size='11' fill='#68707a'>102.1</text>
<line x1="62" y1="48" x2="62" y2="318" stroke="#c8cdd2"/>
<line x1="62" y1="318" x2="902" y2="318" stroke="#c8cdd2"/>
<polyline points="62.0,157.1 68.6,136.9 75.1,134.3 81.7,148.0 88.2,149.3 94.8,160.5 101.4,160.0 107.9,151.3 114.5,154.6 121.1,135.6 127.6,116.6 134.2,123.7 140.8,124.5 147.3,109.4 153.9,111.2 160.4,134.7 167.0,131.1 173.6,126.4 180.1,105.7 186.7,106.5 193.2,73.8 199.8,85.3 206.4,76.1 212.9,85.0 219.5,93.9 226.1,81.8 232.6,79.0 239.2,90.6 245.8,74.9 252.3,74.1 258.9,97.0 265.4,105.8 272.0,129.8 278.6,148.7 285.1,166.5 291.7,204.1 298.2,181.2 304.8,184.1 311.4,178.1 317.9,209.3 324.5,225.3 331.1,220.9 337.6,219.9 344.2,237.2 350.8,220.1 357.3,215.2 363.9,261.7 370.4,251.4 377.0,260.1 383.6,270.2 390.1,258.5 396.7,248.5 403.2,254.7 409.8,292.2 416.4,249.8 422.9,265.1 429.5,266.1 436.1,242.9 442.6,247.2 449.2,255.0 455.8,261.8 462.3,274.3 468.9,265.4 475.4,238.9 482.0,272.1 488.6,242.4 495.1,222.4 501.7,242.9 508.2,241.7 514.8,230.6 521.4,205.3 527.9,196.8 534.5,221.9 541.1,209.3 547.6,188.5 554.2,190.3 560.8,193.8 567.3,178.4 573.9,167.4 580.4,159.8 587.0,131.0 593.6,138.0 600.1,155.8 606.7,161.0 613.2,133.4 619.8,132.7 626.4,121.0 632.9,127.3 639.5,147.8 646.1,165.1 652.6,173.1 659.2,145.9 665.8,159.0 672.3,164.0 678.9,172.8 685.4,168.3 692.0,165.8 698.6,183.3 705.1,184.4 711.7,194.7 718.2,161.9 724.8,158.4 731.4,186.0 737.9,170.2 744.5,142.2 751.1,157.0 757.6,164.5 764.2,153.5 770.8,166.7 777.3,202.1 783.9,201.7 790.4,197.4 797.0,207.3 803.6,221.2 810.1,207.1 816.7,233.8 823.2,203.4 829.8,193.1 836.4,171.4 842.9,187.4 849.5,197.2 856.1,173.5 862.6,158.2 869.2,156.2 875.8,216.3 882.3,249.8 888.9,278.2 895.4,235.9 902.0,221.3" fill="none" stroke="#d62728" stroke-width="2.2" stroke-linejoin="round" stroke-linecap="round"/>
<text x="62" y="346" font-family="Arial" font-size="11" fill="#68707a">2025-12-03</text>
<text x="834" y="346" font-family="Arial" font-size="11" fill="#68707a">2026-06-03</text>
<text x="792" y="28" font-family="Arial" font-size="12" fill="#d62728">2.2739</text>
</svg>
