<svg xmlns="http://www.w3.org/2000/svg" width="920" height="360" viewBox="0 0 920 360">
<rect width="100%" height="100%" fill="#ffffff"/>
<text x="24" y="26" font-family="Arial" font-size="18" font-weight="700" fill="#101418">GBPUSD 12m</text>
<text x="24" y="44" font-family="Arial" font-size="12" fill="#68707a">Forex major; normalized close, start=100, change=-0.7%</text>
<line x1='62' y1='318.0' x2='902' y2='318.0' stroke='#e6e8eb'/><text x='12' y='322.0' font-family='Arial' font-size='11' fill='#68707a'>95.5</text><line x1='62' y1='250.5' x2='902' y2='250.5' stroke='#e6e8eb'/><text x='12' y='254.5' font-family='Arial' font-size='11' fill='#68707a'>97.2</text><line x1='62' y1='183.0' x2='902' y2='183.0' stroke='#e6e8eb'/><text x='12' y='187.0' font-family='Arial' font-size='11' fill='#68707a'>99.0</text><line x1='62' y1='115.5' x2='902' y2='115.5' stroke='#e6e8eb'/><text x='12' y='119.5' font-family='Arial' font-size='11' fill='#68707a'>100.8</text><line x1='62' y1='48.0' x2='902' y2='48.0' stroke='#e6e8eb'/><text x='12' y='52.0' font-family='Arial' font-size='11' fill='#68707a'>102.6</text>
<line x1="62" y1="48" x2="62" y2="318" stroke="#c8cdd2"/>
<line x1="62" y1="318" x2="902" y2="318" stroke="#c8cdd2"/>
<polyline points="62.0,145.7 65.2,152.8 68.5,147.0 71.7,139.3 75.0,150.9 78.2,145.7 81.5,159.3 84.7,142.7 87.9,125.8 91.2,145.6 94.4,143.2 97.7,181.2 100.9,185.0 104.2,168.1 107.4,179.5 110.6,148.9 113.9,129.4 117.1,107.9 120.4,98.7 123.6,100.1 126.9,97.0 130.1,92.4 133.4,119.6 136.6,114.5 139.8,119.2 143.1,127.0 146.3,137.7 149.6,135.5 152.8,139.3 156.1,163.3 159.3,181.7 162.5,191.4 165.8,186.5 169.0,180.5 172.3,185.1 175.5,164.5 178.8,155.6 182.0,139.3 185.2,158.8 188.5,178.1 191.7,200.7 195.0,202.6 198.2,229.4 201.5,242.8 204.7,220.4 207.9,218.3 211.2,217.7 214.4,201.4 217.7,175.2 220.9,177.1 224.2,179.7 227.4,160.4 230.6,137.7 233.9,153.0 237.1,145.8 240.4,159.3 243.6,165.3 246.9,171.0 250.1,184.2 253.4,158.5 256.6,174.6 259.8,167.5 263.1,160.5 266.3,158.5 269.6,160.5 272.8,148.2 276.1,194.2 279.3,177.9 282.5,177.1 285.8,163.6 289.0,146.7 292.3,155.7 295.5,151.9 298.8,140.1 302.0,146.6 305.2,132.8 308.5,118.5 311.7,125.3 315.0,145.9 318.2,171.5 321.5,157.4 324.7,154.7 327.9,174.9 331.2,207.4 334.4,187.3 337.7,179.2 340.9,177.4 344.2,167.1 347.4,176.5 350.6,180.1 353.9,165.8 357.1,183.7 360.4,189.2 363.6,216.2 366.9,207.5 370.1,208.4 373.4,211.5 376.6,188.3 379.8,176.8 383.1,182.3 386.3,188.1 389.6,199.3 392.8,203.1 396.1,209.9 399.3,211.3 402.5,206.1 405.8,223.4 409.0,246.9 412.3,257.0 415.5,263.9 418.8,263.7 422.0,295.5 425.2,286.8 428.5,262.1 431.7,261.6 435.0,253.1 438.2,258.8 441.5,265.8 444.7,259.0 447.9,256.7 451.2,257.9 454.4,260.3 457.7,284.3 460.9,277.8 464.2,274.6 467.4,271.9 470.6,257.1 473.9,233.0 477.1,234.1 480.4,234.4 483.6,243.0 486.9,240.1 490.1,203.9 493.4,211.5 496.6,210.7 499.8,210.1 503.1,216.6 506.3,192.9 509.6,192.3 512.8,198.6 516.1,195.0 519.3,182.6 522.5,196.7 525.8,193.7 529.0,196.0 532.3,170.0 535.5,157.8 538.8,159.1 542.0,162.3 545.2,158.5 548.5,170.8 551.7,169.0 555.0,179.0 558.2,152.1 561.5,161.4 564.7,173.0 567.9,178.9 571.2,191.2 574.4,171.2 577.7,182.1 580.9,177.6 584.2,194.8 587.4,188.4 590.6,184.5 593.9,178.1 597.1,184.2 600.4,161.2 603.6,116.1 606.9,111.9 610.1,70.8 613.4,70.5 616.6,75.8 619.8,111.4 623.1,113.1 626.3,106.3 629.6,121.1 632.8,155.8 636.1,131.1 639.3,110.2 642.5,123.9 645.8,126.9 649.0,127.9 652.3,120.2 655.5,125.8 658.8,143.5 662.0,162.8 665.2,172.5 668.5,152.3 671.7,162.4 675.0,162.3 678.2,145.3 681.5,164.0 684.7,187.7 687.9,186.6 691.2,202.6 694.4,198.1 697.7,201.5 700.9,217.3 704.2,182.6 707.4,184.3 710.6,194.7 713.9,202.9 717.1,232.2 720.4,213.6 723.6,200.9 726.9,227.4 730.1,182.4 733.4,208.7 736.6,182.8 739.8,185.0 743.1,199.8 746.3,207.6 749.6,234.8 752.8,253.2 756.1,233.5 759.3,216.8 762.5,237.1 765.8,249.4 769.0,236.0 772.3,189.1 775.5,191.2 778.8,181.2 782.0,191.1 785.2,157.3 788.5,140.5 791.7,141.0 795.0,154.3 798.2,166.0 801.5,152.8 804.7,158.9 807.9,161.5 811.2,171.0 814.4,157.4 817.7,150.9 820.9,154.7 824.2,164.8 827.4,132.8 830.6,138.8 833.9,152.8 837.1,142.3 840.4,135.9 843.6,146.0 846.9,135.1 850.1,132.3 853.4,151.2 856.6,154.2 859.8,192.0 863.1,215.2 866.3,180.6 869.6,190.7 872.8,180.1 876.1,180.5 879.3,166.7 882.5,162.6 885.8,174.1 889.0,185.0 892.3,177.1 895.5,175.2 898.8,172.8 902.0,172.4" fill="none" stroke="#d62728" stroke-width="2.2" stroke-linejoin="round" stroke-linecap="round"/>
<text x="62" y="346" font-family="Arial" font-size="11" fill="#68707a">2025-06-03</text>
<text x="834" y="346" font-family="Arial" font-size="11" fill="#68707a">2026-06-03</text>
<text x="792" y="28" font-family="Arial" font-size="12" fill="#d62728">1.3461</text>
</svg>
