<svg xmlns="http://www.w3.org/2000/svg" width="920" height="360" viewBox="0 0 920 360">
<rect width="100%" height="100%" fill="#ffffff"/>
<text x="24" y="26" font-family="Arial" font-size="18" font-weight="700" fill="#101418">GBPUSD 6m</text>
<text x="24" y="44" font-family="Arial" font-size="12" fill="#68707a">Forex major; normalized close, start=100, change=+1.8%</text>
<line x1='62' y1='318.0' x2='902' y2='318.0' stroke='#e6e8eb'/><text x='12' y='322.0' font-family='Arial' font-size='11' fill='#68707a'>99.1</text><line x1='62' y1='250.5' x2='902' y2='250.5' stroke='#e6e8eb'/><text x='12' y='254.5' font-family='Arial' font-size='11' fill='#68707a'>100.6</text><line x1='62' y1='183.0' x2='902' y2='183.0' stroke='#e6e8eb'/><text x='12' y='187.0' font-family='Arial' font-size='11' fill='#68707a'>102.1</text><line x1='62' y1='115.5' x2='902' y2='115.5' stroke='#e6e8eb'/><text x='12' y='119.5' font-family='Arial' font-size='11' fill='#68707a'>103.6</text><line x1='62' y1='48.0' x2='902' y2='48.0' stroke='#e6e8eb'/><text x='12' y='52.0' font-family='Arial' font-size='11' fill='#68707a'>105.1</text>
<line x1="62" y1="48" x2="62" y2="318" stroke="#c8cdd2"/>
<line x1="62" y1="318" x2="902" y2="318" stroke="#c8cdd2"/>
<polyline points="62.0,279.2 68.6,234.7 75.1,244.0 81.7,243.0 88.2,242.3 94.8,250.3 101.4,221.1 107.9,220.4 114.5,228.2 121.1,223.8 127.6,208.5 134.2,225.8 140.8,222.1 147.3,225.0 153.9,193.0 160.4,178.0 167.0,179.6 173.6,183.6 180.1,178.9 186.7,194.0 193.2,191.7 199.8,204.0 206.4,171.0 212.9,182.5 219.5,196.7 226.1,204.0 232.6,219.1 239.2,194.5 245.8,207.9 252.3,202.4 258.9,223.5 265.4,215.6 272.0,210.8 278.6,203.0 285.1,210.4 291.7,182.2 298.2,126.8 304.8,121.6 311.4,71.1 317.9,70.7 324.5,77.2 331.1,121.0 337.6,123.1 344.2,114.7 350.8,132.9 357.3,175.5 363.9,145.2 370.4,119.6 377.0,136.4 383.6,140.0 390.1,141.3 396.7,131.8 403.2,138.7 409.8,160.5 416.4,184.1 422.9,196.1 429.5,171.2 436.1,183.7 442.6,183.6 449.2,162.7 455.8,185.6 462.3,214.8 468.9,213.4 475.4,233.0 482.0,227.6 488.6,231.8 495.1,251.1 501.7,208.5 508.2,210.5 514.8,223.3 521.4,233.4 527.9,269.5 534.5,246.6 541.1,231.0 547.6,263.5 554.2,208.2 560.8,240.6 567.3,208.7 573.9,211.5 580.4,229.6 587.0,239.2 593.6,272.7 600.1,295.3 606.7,271.0 613.2,250.6 619.8,275.5 626.4,290.6 632.9,274.1 639.5,216.5 646.1,219.1 652.6,206.8 659.2,219.0 665.8,177.4 672.3,156.8 678.9,157.3 685.4,173.7 692.0,188.1 698.6,171.9 705.1,179.3 711.7,182.5 718.2,194.2 724.8,177.5 731.4,169.5 737.9,174.3 744.5,186.6 751.1,147.4 757.6,154.7 764.2,171.9 770.8,159.0 777.3,151.1 783.9,163.5 790.4,150.1 797.0,146.7 803.6,169.9 810.1,173.6 816.7,220.1 823.2,248.6 829.8,206.1 836.4,218.5 842.9,205.4 849.5,205.9 856.1,189.0 862.6,183.9 869.2,198.0 875.8,211.4 882.3,201.8 888.9,199.4 895.4,196.4 902.0,196.0" fill="none" stroke="#1f77b4" stroke-width="2.2" stroke-linejoin="round" stroke-linecap="round"/>
<text x="62" y="346" font-family="Arial" font-size="11" fill="#68707a">2025-12-03</text>
<text x="834" y="346" font-family="Arial" font-size="11" fill="#68707a">2026-06-03</text>
<text x="792" y="28" font-family="Arial" font-size="12" fill="#1f77b4">1.3461</text>
</svg>
