<svg xmlns="http://www.w3.org/2000/svg" width="920" height="360" viewBox="0 0 920 360">
<rect width="100%" height="100%" fill="#ffffff"/>
<text x="24" y="26" font-family="Arial" font-size="18" font-weight="700" fill="#101418">.JP225 6m</text>
<text x="24" y="44" font-family="Arial" font-size="12" fill="#68707a">Index; normalized close, start=100, change=+37.7%</text>
<line x1='62' y1='318.0' x2='902' y2='318.0' stroke='#e6e8eb'/><text x='12' y='322.0' font-family='Arial' font-size='11' fill='#68707a'>94.3</text><line x1='62' y1='250.5' x2='902' y2='250.5' stroke='#e6e8eb'/><text x='12' y='254.5' font-family='Arial' font-size='11' fill='#68707a'>106.2</text><line x1='62' y1='183.0' x2='902' y2='183.0' stroke='#e6e8eb'/><text x='12' y='187.0' font-family='Arial' font-size='11' fill='#68707a'>118.0</text><line x1='62' y1='115.5' x2='902' y2='115.5' stroke='#e6e8eb'/><text x='12' y='119.5' font-family='Arial' font-size='11' fill='#68707a'>129.8</text><line x1='62' y1='48.0' x2='902' y2='48.0' stroke='#e6e8eb'/><text x='12' y='52.0' font-family='Arial' font-size='11' fill='#68707a'>141.7</text>
<line x1="62" y1="48" x2="62" y2="318" stroke="#c8cdd2"/>
<line x1="62" y1="318" x2="902" y2="318" stroke="#c8cdd2"/>
<polyline points="62.0,285.6 69.1,272.3 76.1,278.5 83.2,277.4 90.2,276.6 97.3,277.2 104.4,282.4 111.4,274.5 118.5,282.2 125.5,291.1 132.6,289.7 139.6,295.5 146.7,289.7 153.8,279.5 160.8,279.4 167.9,280.1 174.9,279.4 182.0,275.5 189.1,278.1 196.1,280.2 203.2,263.1 210.2,255.3 217.3,261.6 224.4,271.3 231.4,261.9 238.5,243.5 245.5,234.4 252.6,237.1 259.6,239.1 266.7,243.1 273.8,249.9 280.8,252.4 287.9,241.9 294.9,240.1 302.0,251.1 309.1,246.0 316.1,245.7 323.2,245.5 330.2,246.1 337.3,253.7 344.4,230.1 351.4,235.0 358.5,240.4 365.5,235.4 372.6,211.3 379.6,196.6 386.7,196.7 393.8,204.7 400.8,206.3 407.9,209.0 414.9,202.4 422.0,198.7 429.1,206.0 436.1,200.4 443.2,185.9 450.2,184.0 457.3,182.9 464.4,192.0 471.4,212.3 478.5,235.5 485.5,223.7 492.6,219.8 499.6,252.9 506.7,235.5 513.8,226.6 520.8,233.2 527.9,240.4 534.9,241.2 542.0,241.8 549.1,224.2 556.1,245.5 563.2,266.8 570.2,258.3 577.3,241.2 584.4,242.9 591.4,245.5 598.5,262.5 605.5,271.9 612.6,241.3 619.6,255.9 626.7,248.4 633.8,245.0 640.8,244.9 647.9,212.0 654.9,216.7 662.0,204.9 669.1,209.7 676.1,194.0 683.2,191.1 690.2,175.2 697.3,187.2 704.4,183.2 711.4,177.2 718.5,174.5 725.5,179.6 732.6,173.0 739.6,163.6 746.7,170.7 753.8,177.9 760.8,175.3 767.9,137.3 774.9,138.7 782.0,142.1 789.1,138.4 796.1,132.3 803.2,139.4 810.2,153.6 817.3,160.4 824.4,163.4 831.4,172.0 838.5,150.5 845.5,131.6 852.6,110.8 859.6,112.6 866.7,112.6 873.8,116.1 880.8,97.4 887.9,90.4 894.9,92.7 902.0,70.5" fill="none" stroke="#1f77b4" stroke-width="2.2" stroke-linejoin="round" stroke-linecap="round"/>
<text x="62" y="346" font-family="Arial" font-size="11" fill="#68707a">2025-12-03</text>
<text x="834" y="346" font-family="Arial" font-size="11" fill="#68707a">2026-06-03</text>
<text x="792" y="28" font-family="Arial" font-size="12" fill="#1f77b4">68679</text>
</svg>
