<svg xmlns="http://www.w3.org/2000/svg" width="920" height="360" viewBox="0 0 920 360">
<rect width="100%" height="100%" fill="#ffffff"/>
<text x="24" y="26" font-family="Arial" font-size="18" font-weight="700" fill="#101418">.JP225 12m</text>
<text x="24" y="44" font-family="Arial" font-size="12" fill="#68707a">Index; normalized close, start=100, change=+83.4%</text>
<line x1='62' y1='318.0' x2='902' y2='318.0' stroke='#e6e8eb'/><text x='12' y='322.0' font-family='Arial' font-size='11' fill='#68707a'>91.7</text><line x1='62' y1='250.5' x2='902' y2='250.5' stroke='#e6e8eb'/><text x='12' y='254.5' font-family='Arial' font-size='11' fill='#68707a'>116.7</text><line x1='62' y1='183.0' x2='902' y2='183.0' stroke='#e6e8eb'/><text x='12' y='187.0' font-family='Arial' font-size='11' fill='#68707a'>141.7</text><line x1='62' y1='115.5' x2='902' y2='115.5' stroke='#e6e8eb'/><text x='12' y='119.5' font-family='Arial' font-size='11' fill='#68707a'>166.7</text><line x1='62' y1='48.0' x2='902' y2='48.0' stroke='#e6e8eb'/><text x='12' y='52.0' font-family='Arial' font-size='11' fill='#68707a'>191.7</text>
<line x1="62" y1="48" x2="62" y2="318" stroke="#c8cdd2"/>
<line x1="62" y1="318" x2="902" y2="318" stroke="#c8cdd2"/>
<polyline points="62.0,295.5 65.5,293.3 68.9,294.7 72.4,293.4 75.8,290.9 79.3,290.0 82.7,288.5 86.2,290.3 89.7,292.7 93.1,289.3 96.6,287.6 100.0,285.1 103.5,288.0 106.9,288.6 110.4,289.0 113.9,285.8 117.3,284.7 120.8,280.1 124.2,276.0 127.7,273.6 131.1,277.2 134.6,278.8 138.0,278.6 141.5,278.5 145.0,280.1 148.4,279.3 151.9,278.4 155.3,279.7 158.8,280.2 162.2,281.0 165.7,279.4 169.2,279.5 172.6,277.8 176.1,278.4 179.5,278.7 183.0,268.7 186.4,263.9 189.9,266.6 193.4,269.9 196.8,272.2 200.3,272.4 203.7,269.4 207.2,271.3 210.6,275.0 214.1,273.1 217.6,271.4 221.0,269.5 224.5,264.0 227.9,257.5 231.4,253.5 234.8,258.0 238.3,252.8 241.8,250.3 245.2,251.6 248.7,256.3 252.1,258.3 255.6,258.1 259.0,256.9 262.5,259.9 266.0,259.0 269.4,256.7 272.9,257.5 276.3,261.3 279.8,260.5 283.2,263.1 286.7,258.5 290.1,255.4 293.6,250.9 297.1,252.2 300.5,249.5 304.0,245.6 307.4,242.8 310.9,241.8 314.3,242.6 317.8,238.9 321.3,240.8 324.7,237.5 328.2,236.5 331.6,235.6 335.1,238.5 338.5,240.8 342.0,241.6 345.5,244.3 348.9,241.5 352.4,235.5 355.8,219.9 359.3,219.8 362.7,221.4 366.2,215.3 369.7,218.8 373.1,227.8 376.6,221.8 380.0,217.5 383.5,222.5 386.9,210.9 390.4,210.0 393.9,210.1 397.3,214.9 400.8,210.1 404.2,201.4 407.7,203.5 411.1,195.6 414.6,195.5 418.0,187.7 421.5,194.3 425.0,203.5 428.4,198.7 431.9,203.1 435.3,198.5 438.8,199.0 442.2,197.4 445.7,195.8 449.2,202.4 452.6,202.7 456.1,214.4 459.5,215.6 463.0,206.3 466.4,215.0 469.9,214.7 473.4,208.2 476.8,203.9 480.3,203.2 483.7,210.1 487.2,210.1 490.6,206.0 494.1,197.7 497.6,201.5 501.0,200.9 504.5,200.3 507.9,200.7 511.4,204.0 514.8,199.0 518.3,203.9 521.8,209.5 525.2,208.6 528.7,212.3 532.1,208.6 535.6,202.2 539.0,202.1 542.5,202.6 546.0,202.1 549.4,199.7 552.9,201.3 556.3,202.6 559.8,191.9 563.2,186.9 566.7,190.9 570.1,197.0 573.6,191.1 577.1,179.5 580.5,173.8 584.0,175.5 587.4,176.7 590.9,179.2 594.3,183.5 597.8,185.1 601.3,178.5 604.7,177.4 608.2,184.3 611.6,181.1 615.1,180.9 618.5,180.7 622.0,181.1 625.5,185.9 628.9,171.1 632.4,174.1 635.8,177.6 639.3,174.4 642.7,159.2 646.2,150.0 649.7,150.0 653.1,155.1 656.6,156.0 660.0,157.8 663.5,153.6 666.9,151.3 670.4,155.9 673.9,152.3 677.3,143.2 680.8,142.0 684.2,141.3 687.7,147.0 691.1,159.8 694.6,174.5 698.0,167.0 701.5,164.6 705.0,185.4 708.4,174.5 711.9,168.9 715.3,173.0 718.8,177.5 722.2,178.0 725.7,178.4 729.2,167.3 732.6,180.8 736.1,194.1 739.5,188.8 743.0,178.1 746.4,179.1 749.9,180.8 753.4,191.5 756.8,197.4 760.3,178.1 763.7,187.3 767.2,182.6 770.6,180.5 774.1,180.4 777.6,159.6 781.0,162.6 784.5,155.2 787.9,158.2 791.4,148.3 794.8,146.5 798.3,136.5 801.8,144.0 805.2,141.5 808.7,137.7 812.1,136.0 815.6,139.2 819.0,135.1 822.5,129.2 826.0,133.6 829.4,138.2 832.9,136.5 836.3,112.6 839.8,113.5 843.2,115.6 846.7,113.3 850.1,109.5 853.6,113.9 857.1,122.9 860.5,127.1 864.0,129.1 867.4,134.4 870.9,120.9 874.3,109.0 877.8,95.9 881.3,97.0 884.7,97.0 888.2,99.2 891.6,87.4 895.1,83.1 898.5,84.5 902.0,70.5" fill="none" stroke="#1f77b4" stroke-width="2.2" stroke-linejoin="round" stroke-linecap="round"/>
<text x="62" y="346" font-family="Arial" font-size="11" fill="#68707a">2025-06-03</text>
<text x="834" y="346" font-family="Arial" font-size="11" fill="#68707a">2026-06-03</text>
<text x="792" y="28" font-family="Arial" font-size="12" fill="#1f77b4">68679</text>
</svg>
