<svg xmlns="http://www.w3.org/2000/svg" width="920" height="360" viewBox="0 0 920 360">
<rect width="100%" height="100%" fill="#ffffff"/>
<text x="24" y="26" font-family="Arial" font-size="18" font-weight="700" fill="#101418">NZDCAD 12m</text>
<text x="24" y="44" font-family="Arial" font-size="12" fill="#68707a">Forex cross; normalized close, start=100, change=-1.1%</text>
<line x1='62' y1='318.0' x2='902' y2='318.0' stroke='#e6e8eb'/><text x='12' y='322.0' font-family='Arial' font-size='11' fill='#68707a'>94.4</text><line x1='62' y1='250.5' x2='902' y2='250.5' stroke='#e6e8eb'/><text x='12' y='254.5' font-family='Arial' font-size='11' fill='#68707a'>96.1</text><line x1='62' y1='183.0' x2='902' y2='183.0' stroke='#e6e8eb'/><text x='12' y='187.0' font-family='Arial' font-size='11' fill='#68707a'>97.7</text><line x1='62' y1='115.5' x2='902' y2='115.5' stroke='#e6e8eb'/><text x='12' y='119.5' font-family='Arial' font-size='11' fill='#68707a'>99.3</text><line x1='62' y1='48.0' x2='902' y2='48.0' stroke='#e6e8eb'/><text x='12' y='52.0' font-family='Arial' font-size='11' fill='#68707a'>100.9</text>
<line x1="62" y1="48" x2="62" y2="318" stroke="#c8cdd2"/>
<line x1="62" y1="318" x2="902" y2="318" stroke="#c8cdd2"/>
<polyline points="62.0,86.5 65.2,114.2 68.5,110.0 71.7,103.7 75.0,108.8 78.2,88.0 81.5,91.4 84.7,109.6 87.9,109.3 91.2,131.4 94.4,126.9 97.7,114.7 100.9,103.6 104.2,123.4 107.4,136.9 110.6,117.1 113.9,106.9 117.1,80.6 120.4,99.7 123.6,84.2 126.9,88.1 130.1,70.5 133.4,95.7 136.6,106.2 139.8,116.8 143.1,127.7 146.3,136.5 149.6,128.0 152.8,107.3 156.1,122.2 159.3,140.5 162.5,149.0 165.8,163.1 169.0,150.2 172.3,148.0 175.5,150.8 178.8,151.3 182.0,119.7 185.2,115.1 188.5,108.8 191.7,131.7 195.0,131.8 198.2,149.0 201.5,154.2 204.7,158.7 207.9,159.2 211.2,165.7 214.4,160.1 217.7,133.5 220.9,141.7 224.2,141.6 227.4,130.9 230.6,119.8 233.9,143.2 237.1,137.4 240.4,144.7 243.6,143.8 246.9,190.1 250.1,186.6 253.4,177.2 256.6,179.5 259.8,180.8 263.1,194.0 266.3,186.9 269.6,182.1 272.8,173.0 276.1,193.3 279.3,176.8 282.5,191.2 285.8,159.1 289.0,131.9 292.3,129.7 295.5,115.6 298.8,97.5 302.0,112.9 305.2,121.7 308.5,118.0 311.7,147.0 315.0,170.2 318.2,200.4 321.5,175.8 324.7,180.1 327.9,191.1 331.2,215.5 334.4,206.1 337.7,210.0 340.9,197.8 344.2,175.2 347.4,170.6 350.6,165.7 353.9,159.5 357.1,188.0 360.4,197.5 363.6,200.4 366.9,224.6 370.1,219.5 373.4,220.8 376.6,218.4 379.8,210.2 383.1,216.1 386.3,202.4 389.6,207.3 392.8,220.3 396.1,208.0 399.3,202.5 402.5,192.4 405.8,202.1 409.0,214.8 412.3,216.6 415.5,222.5 418.8,222.4 422.0,254.2 425.2,237.4 428.5,254.1 431.7,281.9 435.0,275.4 438.2,268.6 441.5,266.7 444.7,267.3 447.9,254.8 451.2,260.3 454.4,275.8 457.7,291.0 460.9,295.5 464.2,277.5 467.4,272.7 470.6,267.0 473.9,228.8 477.1,216.3 480.4,226.6 483.6,225.0 486.9,223.3 490.1,204.5 493.4,212.6 496.6,237.0 499.8,234.9 503.1,231.6 506.3,222.7 509.6,232.0 512.8,239.0 516.1,249.2 519.3,254.6 522.5,255.8 525.8,254.0 529.0,265.1 532.3,248.5 535.5,234.6 538.8,242.7 542.0,250.6 545.2,258.9 548.5,268.1 551.7,284.2 555.0,276.9 558.2,248.3 561.5,240.9 564.7,232.1 567.9,246.3 571.2,246.7 574.4,229.4 577.7,248.1 580.9,245.6 584.2,244.3 587.4,227.4 590.6,213.8 593.9,204.8 597.1,191.8 600.4,154.9 603.6,149.6 606.9,139.5 610.1,136.6 613.4,127.0 616.6,134.0 619.8,132.6 623.1,123.4 626.3,112.7 629.6,134.1 632.8,160.9 636.1,113.3 639.3,128.5 642.5,138.9 645.8,127.6 649.0,127.2 652.3,124.9 655.5,119.9 658.8,107.9 662.0,145.9 665.2,146.9 668.5,135.3 671.7,151.8 675.0,146.1 678.2,130.0 681.5,143.5 684.7,161.7 687.9,166.4 691.2,206.9 694.4,182.4 697.7,202.3 700.9,254.1 704.2,206.1 707.4,209.2 710.6,223.4 713.9,242.8 717.1,258.4 720.4,227.2 723.6,223.9 726.9,254.4 730.1,203.1 733.4,235.7 736.6,214.0 739.8,217.4 743.1,222.3 746.3,242.5 749.6,252.1 752.8,251.2 756.1,232.7 759.3,243.7 762.5,255.9 765.8,269.4 769.0,258.0 772.3,212.7 775.5,199.2 778.8,189.6 782.0,207.2 785.2,184.9 788.5,169.6 791.7,175.8 795.0,200.7 798.2,213.8 801.5,203.7 804.7,205.4 807.9,197.1 811.2,224.0 814.4,219.3 817.7,206.1 820.9,205.4 824.2,242.9 827.4,222.1 830.6,220.0 833.9,233.7 837.1,217.6 840.4,173.8 843.6,176.8 846.9,162.3 850.1,152.7 853.4,156.1 856.6,168.1 859.8,181.9 863.1,220.1 866.3,197.9 869.6,222.9 872.8,201.3 876.1,183.9 879.3,180.1 882.5,186.2 885.8,199.6 889.0,154.8 892.3,135.7 895.5,106.9 898.8,125.0 902.0,134.0" fill="none" stroke="#d62728" stroke-width="2.2" stroke-linejoin="round" stroke-linecap="round"/>
<text x="62" y="346" font-family="Arial" font-size="11" fill="#68707a">2025-06-03</text>
<text x="834" y="346" font-family="Arial" font-size="11" fill="#68707a">2026-06-03</text>
<text x="792" y="28" font-family="Arial" font-size="12" fill="#d62728">0.81954</text>
</svg>
