<svg xmlns="http://www.w3.org/2000/svg" width="920" height="360" viewBox="0 0 920 360">
<rect width="100%" height="100%" fill="#ffffff"/>
<text x="24" y="26" font-family="Arial" font-size="18" font-weight="700" fill="#101418">NZDCHF 6m</text>
<text x="24" y="44" font-family="Arial" font-size="12" fill="#68707a">Forex cross; normalized close, start=100, change=+1.3%</text>
<line x1='62' y1='318.0' x2='902' y2='318.0' stroke='#e6e8eb'/><text x='12' y='322.0' font-family='Arial' font-size='11' fill='#68707a'>98.3</text><line x1='62' y1='250.5' x2='902' y2='250.5' stroke='#e6e8eb'/><text x='12' y='254.5' font-family='Arial' font-size='11' fill='#68707a'>99.3</text><line x1='62' y1='183.0' x2='902' y2='183.0' stroke='#e6e8eb'/><text x='12' y='187.0' font-family='Arial' font-size='11' fill='#68707a'>100.3</text><line x1='62' y1='115.5' x2='902' y2='115.5' stroke='#e6e8eb'/><text x='12' y='119.5' font-family='Arial' font-size='11' fill='#68707a'>101.2</text><line x1='62' y1='48.0' x2='902' y2='48.0' stroke='#e6e8eb'/><text x='12' y='52.0' font-family='Arial' font-size='11' fill='#68707a'>102.2</text>
<line x1="62" y1="48" x2="62" y2="318" stroke="#c8cdd2"/>
<line x1="62" y1="318" x2="902" y2="318" stroke="#c8cdd2"/>
<polyline points="62.0,202.1 68.6,188.5 75.1,170.9 81.7,141.3 88.2,129.9 94.8,126.7 101.4,139.6 107.9,189.9 114.5,186.3 121.1,206.5 127.6,216.0 134.2,233.8 140.8,236.5 147.3,246.6 153.9,237.8 160.4,214.1 167.0,216.5 173.6,218.2 180.1,242.6 186.7,237.6 193.2,275.7 199.8,266.6 206.4,246.9 212.9,214.5 219.5,207.1 226.1,223.2 232.6,226.7 239.2,215.0 245.8,219.5 252.3,224.8 258.9,193.3 265.4,210.7 272.0,181.3 278.6,213.6 285.1,140.7 291.7,117.8 298.2,158.9 304.8,153.9 311.4,214.8 317.9,147.7 324.5,148.1 331.1,135.8 337.6,90.6 344.2,83.0 350.8,121.1 357.3,187.0 363.9,93.6 370.4,149.8 377.0,149.4 383.6,117.5 390.1,154.2 396.7,162.7 403.2,154.2 409.8,126.3 416.4,200.5 422.9,170.5 429.5,165.2 436.1,193.4 442.6,191.6 449.2,164.9 455.8,179.1 462.3,239.3 468.9,166.7 475.4,208.3 482.0,175.8 488.6,209.2 495.1,260.8 501.7,204.3 508.2,197.2 514.8,202.2 521.4,220.3 527.9,246.3 534.5,195.1 541.1,216.5 547.6,225.0 554.2,171.5 560.8,224.7 567.3,208.1 573.9,215.0 580.4,221.5 587.0,247.8 593.6,244.3 600.1,256.9 606.7,229.1 613.2,275.7 619.8,271.2 626.4,283.0 632.9,275.4 639.5,227.7 646.1,199.6 652.6,174.4 659.2,216.0 665.8,217.1 672.3,200.1 678.9,186.3 685.4,204.3 692.0,220.9 698.6,218.6 705.1,213.5 711.7,163.0 718.2,211.5 724.8,193.7 731.4,150.0 737.9,145.7 744.5,193.7 751.1,189.5 757.6,194.3 764.2,209.5 770.8,197.2 777.3,158.8 783.9,162.7 790.4,172.9 797.0,151.0 803.6,145.9 810.1,159.7 816.7,170.6 823.2,227.4 829.8,203.0 836.4,213.3 842.9,193.7 849.5,179.9 856.1,224.5 862.6,228.3 869.2,234.7 875.8,157.3 882.3,124.0 888.9,101.1 895.4,115.5 902.0,112.0" fill="none" stroke="#1f77b4" stroke-width="2.2" stroke-linejoin="round" stroke-linecap="round"/>
<text x="62" y="346" font-family="Arial" font-size="11" fill="#68707a">2025-12-03</text>
<text x="834" y="346" font-family="Arial" font-size="11" fill="#68707a">2026-06-03</text>
<text x="792" y="28" font-family="Arial" font-size="12" fill="#1f77b4">0.46668</text>
</svg>
