<svg xmlns="http://www.w3.org/2000/svg" width="920" height="360" viewBox="0 0 920 360">
<rect width="100%" height="100%" fill="#ffffff"/>
<text x="24" y="26" font-family="Arial" font-size="18" font-weight="700" fill="#101418">NZDCAD 6m</text>
<text x="24" y="44" font-family="Arial" font-size="12" fill="#68707a">Forex cross; normalized close, start=100, change=+2.2%</text>
<line x1='62' y1='318.0' x2='902' y2='318.0' stroke='#e6e8eb'/><text x='12' y='322.0' font-family='Arial' font-size='11' fill='#68707a'>98.0</text><line x1='62' y1='250.5' x2='902' y2='250.5' stroke='#e6e8eb'/><text x='12' y='254.5' font-family='Arial' font-size='11' fill='#68707a'>99.3</text><line x1='62' y1='183.0' x2='902' y2='183.0' stroke='#e6e8eb'/><text x='12' y='187.0' font-family='Arial' font-size='11' fill='#68707a'>100.7</text><line x1='62' y1='115.5' x2='902' y2='115.5' stroke='#e6e8eb'/><text x='12' y='119.5' font-family='Arial' font-size='11' fill='#68707a'>102.0</text><line x1='62' y1='48.0' x2='902' y2='48.0' stroke='#e6e8eb'/><text x='12' y='52.0' font-family='Arial' font-size='11' fill='#68707a'>103.4</text>
<line x1="62" y1="48" x2="62" y2="318" stroke="#c8cdd2"/>
<line x1="62" y1="318" x2="902" y2="318" stroke="#c8cdd2"/>
<polyline points="62.0,217.4 68.6,194.1 75.1,204.2 81.7,234.5 88.2,231.9 94.8,227.8 101.4,216.7 107.9,228.3 114.5,237.0 121.1,249.6 127.6,256.3 134.2,257.8 140.8,255.6 147.3,269.4 153.9,248.7 160.4,231.6 167.0,241.6 173.6,251.4 180.1,261.7 186.7,273.2 193.2,293.1 199.8,284.0 206.4,248.5 212.9,239.3 219.5,228.4 226.1,246.0 232.6,246.5 239.2,225.0 245.8,248.3 252.3,245.2 258.9,243.6 265.4,222.6 272.0,205.7 278.6,194.5 285.1,178.4 291.7,132.6 298.2,125.9 304.8,113.5 311.4,109.8 317.9,97.9 324.5,106.6 331.1,104.8 337.6,93.5 344.2,80.2 350.8,106.7 357.3,140.0 363.9,80.9 370.4,99.7 377.0,112.7 383.6,98.7 390.1,98.1 396.7,95.3 403.2,89.1 409.8,74.2 416.4,121.3 422.9,122.6 429.5,108.3 436.1,128.7 442.6,121.7 449.2,101.6 455.8,118.4 462.3,141.0 468.9,146.9 475.4,197.2 482.0,166.8 488.6,191.4 495.1,255.8 501.7,196.2 508.2,200.0 514.8,217.6 521.4,241.7 527.9,261.0 534.5,222.3 541.1,218.2 547.6,256.1 554.2,192.4 560.8,232.9 567.3,206.0 573.9,210.2 580.4,216.2 587.0,241.3 593.6,253.3 600.1,252.2 606.7,229.1 613.2,242.9 619.8,258.0 626.4,274.8 632.9,260.5 639.5,204.4 646.1,187.5 652.6,175.6 659.2,197.5 665.8,169.9 672.3,150.9 678.9,158.5 685.4,189.4 692.0,205.7 698.6,193.1 705.1,195.2 711.7,184.9 718.2,218.3 724.8,212.6 731.4,196.2 737.9,195.3 744.5,241.8 751.1,216.0 757.6,213.4 764.2,230.4 770.8,210.4 777.3,156.0 783.9,159.8 790.4,141.8 797.0,129.8 803.6,134.1 810.1,149.0 816.7,166.1 823.2,213.5 829.8,185.9 836.4,217.0 842.9,190.2 849.5,168.5 856.1,163.9 862.6,171.5 869.2,188.0 875.8,132.5 882.3,108.8 888.9,72.9 895.4,95.4 902.0,106.6" fill="none" stroke="#1f77b4" stroke-width="2.2" stroke-linejoin="round" stroke-linecap="round"/>
<text x="62" y="346" font-family="Arial" font-size="11" fill="#68707a">2025-12-03</text>
<text x="834" y="346" font-family="Arial" font-size="11" fill="#68707a">2026-06-03</text>
<text x="792" y="28" font-family="Arial" font-size="12" fill="#1f77b4">0.81954</text>
</svg>
