<svg xmlns="http://www.w3.org/2000/svg" width="920" height="360" viewBox="0 0 920 360">
<rect width="100%" height="100%" fill="#ffffff"/>
<text x="24" y="26" font-family="Arial" font-size="18" font-weight="700" fill="#101418">NZDCHF 12m</text>
<text x="24" y="44" font-family="Arial" font-size="12" fill="#68707a">Forex cross; normalized close, start=100, change=-5.4%</text>
<line x1='62' y1='318.0' x2='902' y2='318.0' stroke='#e6e8eb'/><text x='12' y='322.0' font-family='Arial' font-size='11' fill='#68707a'>89.8</text><line x1='62' y1='250.5' x2='902' y2='250.5' stroke='#e6e8eb'/><text x='12' y='254.5' font-family='Arial' font-size='11' fill='#68707a'>92.8</text><line x1='62' y1='183.0' x2='902' y2='183.0' stroke='#e6e8eb'/><text x='12' y='187.0' font-family='Arial' font-size='11' fill='#68707a'>95.8</text><line x1='62' y1='115.5' x2='902' y2='115.5' stroke='#e6e8eb'/><text x='12' y='119.5' font-family='Arial' font-size='11' fill='#68707a'>98.9</text><line x1='62' y1='48.0' x2='902' y2='48.0' stroke='#e6e8eb'/><text x='12' y='52.0' font-family='Arial' font-size='11' fill='#68707a'>101.9</text>
<line x1="62" y1="48" x2="62" y2="318" stroke="#c8cdd2"/>
<line x1="62" y1="318" x2="902" y2="318" stroke="#c8cdd2"/>
<polyline points="62.0,91.0 65.2,87.5 68.5,93.0 71.7,84.0 75.0,85.2 78.2,75.6 81.5,70.5 84.7,88.1 87.9,104.6 91.2,115.5 94.4,96.5 97.7,99.4 100.9,89.5 104.2,108.6 107.4,117.6 110.6,119.2 113.9,133.5 117.1,121.4 120.4,128.1 123.6,133.3 126.9,138.0 130.1,140.8 133.4,142.2 136.6,138.7 139.8,149.3 143.1,156.4 146.3,164.9 149.6,171.1 152.8,145.4 156.1,157.6 159.3,167.3 162.5,164.2 165.8,168.5 169.0,163.8 172.3,165.3 175.5,167.5 178.8,168.6 182.0,155.7 185.2,152.0 188.5,157.1 191.7,152.8 195.0,153.2 198.2,149.6 201.5,154.9 204.7,171.7 207.9,162.4 211.2,165.7 214.4,161.1 217.7,147.1 220.9,149.7 224.2,141.1 227.4,150.2 230.6,145.4 233.9,159.8 237.1,159.6 240.4,159.3 243.6,167.9 246.9,202.5 250.1,192.8 253.4,193.9 256.6,189.4 259.8,192.7 263.1,197.4 266.3,188.4 269.6,186.9 272.8,185.0 276.1,187.5 279.3,184.1 282.5,191.6 285.8,193.5 289.0,190.5 292.3,184.9 295.5,175.3 298.8,170.2 302.0,177.2 305.2,177.0 308.5,195.3 311.7,206.3 315.0,210.5 318.2,214.9 321.5,218.6 324.7,225.6 327.9,231.1 331.2,238.0 334.4,237.7 337.7,236.9 340.9,234.3 344.2,223.7 347.4,224.1 350.6,222.0 353.9,221.8 357.1,227.9 360.4,225.4 363.6,224.4 366.9,243.8 370.1,242.1 373.4,250.8 376.6,262.4 379.8,270.7 383.1,264.4 386.3,262.9 389.6,252.6 392.8,256.2 396.1,252.2 399.3,248.1 402.5,246.2 405.8,248.0 409.0,236.1 412.3,238.9 415.5,239.0 418.8,235.9 422.0,253.8 425.2,246.4 428.5,265.8 431.7,267.7 435.0,266.8 438.2,273.8 441.5,278.4 444.7,295.5 447.9,282.6 451.2,285.1 454.4,273.5 457.7,276.5 460.9,284.4 464.2,268.5 467.4,268.6 470.6,266.3 473.9,248.5 477.1,236.7 480.4,237.7 483.6,237.7 486.9,237.3 490.1,233.3 493.4,228.1 496.6,219.4 499.8,216.0 503.1,215.0 506.3,218.9 509.6,233.7 512.8,232.7 516.1,238.6 519.3,241.5 522.5,246.7 525.8,247.5 529.0,250.5 532.3,247.9 535.5,240.9 538.8,241.6 542.0,242.1 545.2,249.3 548.5,247.8 551.7,259.1 555.0,256.4 558.2,250.6 561.5,241.0 564.7,238.8 567.9,243.6 571.2,244.6 574.4,241.1 577.7,242.5 580.9,244.1 584.2,234.7 587.4,239.9 590.6,231.2 593.9,240.7 597.1,219.2 600.4,212.4 603.6,224.6 606.9,223.1 610.1,241.1 613.4,221.2 616.6,221.4 619.8,217.7 623.1,204.4 626.3,202.1 629.6,213.4 632.8,232.9 636.1,205.3 639.3,221.9 642.5,221.7 645.8,212.3 649.0,223.2 652.3,225.7 655.5,223.2 658.8,214.9 662.0,236.9 665.2,228.0 668.5,226.4 671.7,234.8 675.0,234.2 678.2,226.3 681.5,230.5 684.7,248.3 687.9,226.9 691.2,239.2 694.4,229.6 697.7,239.4 700.9,254.7 704.2,238.0 707.4,235.9 710.6,237.4 713.9,242.7 717.1,250.4 720.4,235.3 723.6,241.6 726.9,244.1 730.1,228.3 733.4,244.0 736.6,239.1 739.8,241.1 743.1,243.1 746.3,250.9 749.6,249.8 752.8,253.5 756.1,245.3 759.3,259.1 762.5,257.8 765.8,261.3 769.0,259.0 772.3,244.9 775.5,236.6 778.8,229.2 782.0,241.5 785.2,241.8 788.5,236.7 791.7,232.7 795.0,238.0 798.2,242.9 801.5,242.2 804.7,240.7 807.9,225.8 811.2,240.1 814.4,234.9 817.7,221.9 820.9,220.7 824.2,234.9 827.4,233.6 830.6,235.0 833.9,239.5 837.1,235.9 840.4,224.5 843.6,225.7 846.9,228.7 850.1,222.2 853.4,220.7 856.6,224.8 859.8,228.0 863.1,244.8 866.3,237.6 869.6,240.7 872.8,234.9 876.1,230.8 879.3,244.0 882.5,245.1 885.8,247.0 889.0,224.1 892.3,214.2 895.5,207.5 898.8,211.7 902.0,210.7" fill="none" stroke="#d62728" stroke-width="2.2" stroke-linejoin="round" stroke-linecap="round"/>
<text x="62" y="346" font-family="Arial" font-size="11" fill="#68707a">2025-06-03</text>
<text x="834" y="346" font-family="Arial" font-size="11" fill="#68707a">2026-06-03</text>
<text x="792" y="28" font-family="Arial" font-size="12" fill="#d62728">0.46668</text>
</svg>
