<svg xmlns="http://www.w3.org/2000/svg" width="920" height="360" viewBox="0 0 920 360">
<rect width="100%" height="100%" fill="#ffffff"/>
<text x="24" y="26" font-family="Arial" font-size="18" font-weight="700" fill="#101418">NZDJPY 6m</text>
<text x="24" y="44" font-family="Arial" font-size="12" fill="#68707a">Forex cross; normalized close, start=100, change=+5.8%</text>
<line x1='62' y1='318.0' x2='902' y2='318.0' stroke='#e6e8eb'/><text x='12' y='322.0' font-family='Arial' font-size='11' fill='#68707a'>99.2</text><line x1='62' y1='250.5' x2='902' y2='250.5' stroke='#e6e8eb'/><text x='12' y='254.5' font-family='Arial' font-size='11' fill='#68707a'>101.2</text><line x1='62' y1='183.0' x2='902' y2='183.0' stroke='#e6e8eb'/><text x='12' y='187.0' font-family='Arial' font-size='11' fill='#68707a'>103.2</text><line x1='62' y1='115.5' x2='902' y2='115.5' stroke='#e6e8eb'/><text x='12' y='119.5' font-family='Arial' font-size='11' fill='#68707a'>105.2</text><line x1='62' y1='48.0' x2='902' y2='48.0' stroke='#e6e8eb'/><text x='12' y='52.0' font-family='Arial' font-size='11' fill='#68707a'>107.2</text>
<line x1="62" y1="48" x2="62" y2="318" stroke="#c8cdd2"/>
<line x1="62" y1="318" x2="902" y2="318" stroke="#c8cdd2"/>
<polyline points="62.0,291.9 68.6,287.5 75.1,295.5 81.7,281.0 88.2,269.9 94.8,246.6 101.4,247.2 107.9,256.9 114.5,254.1 121.1,282.4 127.6,288.7 134.2,281.0 140.8,276.0 147.3,243.2 153.9,235.1 160.4,223.8 167.0,229.6 173.6,226.9 180.1,247.6 186.7,249.1 193.2,261.7 199.8,257.4 206.4,247.3 212.9,249.1 219.5,252.2 226.1,262.7 232.6,247.8 239.2,225.3 245.8,219.7 252.3,233.4 258.9,229.8 265.4,241.0 272.0,209.5 278.6,189.2 285.1,176.4 291.7,128.5 298.2,177.2 304.8,189.9 311.4,199.3 317.9,163.3 324.5,155.5 331.1,144.9 337.6,141.6 344.2,115.0 350.8,115.8 357.3,153.6 363.9,87.9 370.4,101.0 377.0,145.2 383.6,168.4 390.1,188.3 396.7,188.7 403.2,170.8 409.8,171.4 416.4,183.6 422.9,171.1 429.5,170.4 436.1,189.2 442.6,158.1 449.2,130.2 455.8,150.0 462.3,145.9 468.9,137.3 475.4,160.9 482.0,149.9 488.6,161.3 495.1,169.8 501.7,136.7 508.2,132.5 514.8,128.3 521.4,150.8 527.9,176.4 534.5,152.9 541.1,154.2 547.6,172.5 554.2,170.3 560.8,163.5 567.3,166.9 573.9,171.0 580.4,175.1 587.0,195.0 593.6,204.0 600.1,218.8 606.7,224.2 613.2,224.7 619.8,226.5 626.4,239.1 632.9,223.8 639.5,188.3 646.1,179.9 652.6,154.8 659.2,170.0 665.8,139.5 672.3,129.8 678.9,124.4 685.4,131.4 692.0,144.7 698.6,127.0 705.1,120.2 711.7,113.6 718.2,139.3 724.8,132.2 731.4,111.8 737.9,122.1 744.5,136.8 751.1,168.0 757.6,171.5 764.2,184.6 770.8,154.7 777.3,151.4 783.9,152.9 790.4,145.2 797.0,127.7 803.6,126.0 810.1,134.0 816.7,139.8 823.2,171.1 829.8,145.9 836.4,166.6 842.9,149.9 849.5,139.9 856.1,144.8 862.6,151.8 869.2,156.6 875.8,119.8 882.3,94.7 888.9,70.5 895.4,91.8 902.0,95.8" fill="none" stroke="#1f77b4" stroke-width="2.2" stroke-linejoin="round" stroke-linecap="round"/>
<text x="62" y="346" font-family="Arial" font-size="11" fill="#68707a">2025-12-03</text>
<text x="834" y="346" font-family="Arial" font-size="11" fill="#68707a">2026-06-03</text>
<text x="792" y="28" font-family="Arial" font-size="12" fill="#1f77b4">94.626</text>
</svg>
