<svg xmlns="http://www.w3.org/2000/svg" width="920" height="360" viewBox="0 0 920 360">
<rect width="100%" height="100%" fill="#ffffff"/>
<text x="24" y="26" font-family="Arial" font-size="18" font-weight="700" fill="#101418">NZDJPY 12m</text>
<text x="24" y="44" font-family="Arial" font-size="12" fill="#68707a">Forex cross; normalized close, start=100, change=+9.9%</text>
<line x1='62' y1='318.0' x2='902' y2='318.0' stroke='#e6e8eb'/><text x='12' y='322.0' font-family='Arial' font-size='11' fill='#68707a'>98.3</text><line x1='62' y1='250.5' x2='902' y2='250.5' stroke='#e6e8eb'/><text x='12' y='254.5' font-family='Arial' font-size='11' fill='#68707a'>101.6</text><line x1='62' y1='183.0' x2='902' y2='183.0' stroke='#e6e8eb'/><text x='12' y='187.0' font-family='Arial' font-size='11' fill='#68707a'>105.0</text><line x1='62' y1='115.5' x2='902' y2='115.5' stroke='#e6e8eb'/><text x='12' y='119.5' font-family='Arial' font-size='11' fill='#68707a'>108.4</text><line x1='62' y1='48.0' x2='902' y2='48.0' stroke='#e6e8eb'/><text x='12' y='52.0' font-family='Arial' font-size='11' fill='#68707a'>111.8</text>
<line x1="62" y1="48" x2="62" y2="318" stroke="#c8cdd2"/>
<line x1="62" y1="318" x2="902" y2="318" stroke="#c8cdd2"/>
<polyline points="62.0,283.5 65.2,278.0 68.5,286.3 71.7,270.0 75.0,259.9 78.2,253.0 81.5,246.3 84.7,262.6 87.9,267.5 91.2,264.8 94.4,251.7 97.7,252.6 100.9,255.2 104.2,260.5 107.4,259.6 110.6,252.4 113.9,260.6 117.1,246.4 120.4,248.7 123.6,249.2 126.9,249.6 130.1,252.3 133.4,254.5 136.6,241.2 139.8,253.6 143.1,248.7 146.3,240.2 149.6,248.8 152.8,231.7 156.1,229.5 159.3,234.5 162.5,227.2 165.8,240.5 169.0,235.0 172.3,232.2 175.5,241.0 178.8,238.9 182.0,228.7 185.2,223.2 188.5,218.2 191.7,225.0 195.0,231.5 198.2,236.9 201.5,222.6 204.7,260.5 207.9,267.1 211.2,259.2 214.4,257.6 217.7,248.4 220.9,244.0 224.2,240.7 227.4,239.8 230.6,240.7 233.9,253.4 237.1,256.6 240.4,249.2 243.6,260.8 246.9,290.2 250.1,277.8 253.4,279.1 256.6,276.2 259.8,278.0 263.1,279.0 266.3,278.0 269.6,269.7 272.8,266.6 276.1,261.9 279.3,263.1 282.5,268.1 285.8,255.3 289.0,249.6 292.3,255.6 295.5,250.7 298.8,240.5 302.0,242.7 305.2,240.7 308.5,247.5 311.7,259.9 315.0,260.0 318.2,271.8 321.5,271.2 324.7,276.4 327.9,274.7 331.2,278.5 334.4,279.4 337.7,289.1 340.9,292.2 344.2,295.5 347.4,295.5 350.6,260.4 353.9,244.9 357.1,236.9 360.4,233.5 363.6,240.6 366.9,261.9 370.1,260.1 373.4,270.8 376.6,280.0 379.8,287.7 383.1,275.6 386.3,272.8 389.6,258.6 392.8,259.7 396.1,244.5 399.3,236.6 402.5,236.2 405.8,246.1 409.0,239.8 412.3,230.8 415.5,234.7 418.8,240.5 422.0,272.0 425.2,256.3 428.5,281.2 431.7,274.1 435.0,263.9 438.2,259.8 441.5,250.3 444.7,254.8 447.9,246.3 451.2,245.4 454.4,239.8 457.7,237.0 460.9,240.4 464.2,241.6 467.4,238.0 470.6,243.6 473.9,213.9 477.1,204.7 480.4,207.0 483.6,215.4 486.9,206.9 490.1,204.2 493.4,209.1 496.6,200.2 499.8,193.4 503.1,179.0 506.3,179.4 509.6,185.3 512.8,183.6 516.1,201.1 519.3,205.0 522.5,200.2 525.8,197.1 529.0,176.9 532.3,171.9 535.5,164.9 538.8,168.5 542.0,166.8 545.2,179.6 548.5,180.5 551.7,188.3 555.0,185.6 558.2,179.5 561.5,180.6 564.7,182.5 567.9,188.9 571.2,179.7 574.4,165.9 577.7,162.5 580.9,170.9 584.2,168.6 587.4,175.6 590.6,156.2 593.9,143.7 597.1,135.8 600.4,106.2 603.6,136.2 606.9,144.1 610.1,149.9 613.4,127.7 616.6,122.9 619.8,116.4 623.1,114.3 626.3,97.9 629.6,98.4 632.8,121.7 636.1,81.2 639.3,89.3 642.5,116.6 645.8,130.8 649.0,143.1 652.3,143.3 655.5,132.3 658.8,132.7 662.0,140.2 665.2,132.5 668.5,132.1 671.7,143.6 675.0,124.5 678.2,107.3 681.5,119.5 684.7,116.9 687.9,111.7 691.2,126.2 694.4,119.4 697.7,126.4 700.9,131.7 704.2,111.3 707.4,108.7 710.6,106.1 713.9,120.0 717.1,135.7 720.4,121.3 723.6,122.1 726.9,133.3 730.1,132.0 733.4,127.8 736.6,129.9 739.8,132.4 743.1,135.0 746.3,147.2 749.6,152.7 752.8,161.9 756.1,165.2 759.3,165.5 762.5,166.6 765.8,174.4 769.0,165.0 772.3,143.1 775.5,137.9 778.8,122.4 782.0,131.8 785.2,113.0 788.5,107.1 791.7,103.7 795.0,108.0 798.2,116.2 801.5,105.3 804.7,101.2 807.9,97.0 811.2,112.9 814.4,108.5 817.7,96.0 820.9,102.3 824.2,111.4 827.4,130.5 830.6,132.7 833.9,140.8 837.1,122.4 840.4,120.3 843.6,121.3 846.9,116.6 850.1,105.8 853.4,104.7 856.6,109.6 859.8,113.2 863.1,132.5 866.3,117.0 869.6,129.7 872.8,119.4 876.1,113.3 879.3,116.3 882.5,120.6 885.8,123.6 889.0,100.9 892.3,85.4 895.5,70.5 898.8,83.6 902.0,86.1" fill="none" stroke="#1f77b4" stroke-width="2.2" stroke-linejoin="round" stroke-linecap="round"/>
<text x="62" y="346" font-family="Arial" font-size="11" fill="#68707a">2025-06-03</text>
<text x="834" y="346" font-family="Arial" font-size="11" fill="#68707a">2026-06-03</text>
<text x="792" y="28" font-family="Arial" font-size="12" fill="#1f77b4">94.626</text>
</svg>
