<svg xmlns="http://www.w3.org/2000/svg" width="920" height="360" viewBox="0 0 920 360">
<rect width="100%" height="100%" fill="#ffffff"/>
<text x="24" y="26" font-family="Arial" font-size="18" font-weight="700" fill="#101418">NZDUSD 12m</text>
<text x="24" y="44" font-family="Arial" font-size="12" fill="#68707a">Forex cross; normalized close, start=100, change=-2.1%</text>
<line x1='62' y1='318.0' x2='902' y2='318.0' stroke='#e6e8eb'/><text x='12' y='322.0' font-family='Arial' font-size='11' fill='#68707a'>91.6</text><line x1='62' y1='250.5' x2='902' y2='250.5' stroke='#e6e8eb'/><text x='12' y='254.5' font-family='Arial' font-size='11' fill='#68707a'>94.1</text><line x1='62' y1='183.0' x2='902' y2='183.0' stroke='#e6e8eb'/><text x='12' y='187.0' font-family='Arial' font-size='11' fill='#68707a'>96.7</text><line x1='62' y1='115.5' x2='902' y2='115.5' stroke='#e6e8eb'/><text x='12' y='119.5' font-family='Arial' font-size='11' fill='#68707a'>99.2</text><line x1='62' y1='48.0' x2='902' y2='48.0' stroke='#e6e8eb'/><text x='12' y='52.0' font-family='Arial' font-size='11' fill='#68707a'>101.7</text>
<line x1="62" y1="48" x2="62" y2="318" stroke="#c8cdd2"/>
<line x1="62" y1="318" x2="902" y2="318" stroke="#c8cdd2"/>
<polyline points="62.0,93.9 65.2,112.4 68.5,102.9 71.7,96.4 75.0,104.4 78.2,92.6 81.5,88.9 84.7,98.9 87.9,86.2 91.2,97.8 94.4,93.3 97.7,106.5 100.9,102.0 104.2,114.7 107.4,131.8 110.6,117.1 113.9,110.1 117.1,90.3 120.4,89.0 123.6,86.8 126.9,74.2 130.1,70.5 133.4,75.5 136.6,79.6 139.8,92.4 143.1,111.6 146.3,117.9 149.6,115.8 152.8,96.6 156.1,112.0 159.3,127.5 162.5,135.3 165.8,139.0 169.0,139.7 172.3,135.9 175.5,128.5 178.8,115.0 182.0,93.9 185.2,98.7 188.5,106.5 191.7,127.5 195.0,135.1 198.2,155.9 201.5,164.3 204.7,153.0 207.9,151.8 211.2,155.2 214.4,146.7 217.7,128.3 220.9,137.5 224.2,141.4 227.4,133.7 230.6,123.5 233.9,149.9 237.1,146.6 240.4,148.7 243.6,160.3 246.9,191.0 250.1,193.6 253.4,174.6 256.6,181.7 259.8,177.7 263.1,176.4 266.3,165.9 269.6,160.6 272.8,156.5 276.1,176.2 279.3,167.6 282.5,180.9 285.8,164.3 289.0,139.3 292.3,147.8 295.5,139.9 298.8,124.9 302.0,135.7 305.2,128.7 308.5,119.7 311.7,144.1 315.0,163.1 318.2,180.8 321.5,173.1 324.7,178.3 327.9,196.1 331.2,219.7 334.4,213.1 337.7,211.6 340.9,205.2 344.2,193.8 347.4,194.8 350.6,192.6 353.9,185.3 357.1,204.5 360.4,210.8 363.6,224.3 366.9,235.8 370.1,239.9 373.4,241.0 376.6,240.6 379.8,235.7 383.1,233.6 386.3,228.0 389.6,228.8 392.8,231.4 396.1,223.3 399.3,221.1 402.5,214.3 405.8,210.7 409.0,219.3 412.3,227.6 415.5,237.6 418.8,244.6 422.0,273.1 425.2,261.4 428.5,274.6 431.7,279.9 435.0,272.5 438.2,266.6 441.5,264.3 444.7,269.4 447.9,258.1 451.2,267.7 454.4,265.7 457.7,285.5 460.9,295.5 464.2,286.1 467.4,285.8 470.6,281.0 473.9,244.6 477.1,234.0 480.4,231.6 483.6,236.1 486.9,229.6 490.1,214.9 493.4,221.2 496.6,214.1 499.8,214.0 503.1,212.5 506.3,195.9 509.6,199.4 512.8,202.4 516.1,209.6 519.3,209.7 522.5,215.4 525.8,214.0 529.0,223.4 532.3,204.5 535.5,184.5 538.8,187.4 542.0,191.9 545.2,199.6 548.5,207.2 551.7,222.1 555.0,223.1 558.2,209.5 561.5,211.4 564.7,215.0 567.9,225.2 571.2,234.5 574.4,215.3 577.7,230.3 580.9,227.9 584.2,228.4 587.4,219.7 590.6,206.3 593.9,191.4 597.1,186.6 600.4,151.9 603.6,132.6 606.9,128.0 610.1,102.8 613.4,86.2 616.6,81.6 619.8,108.7 623.1,110.2 626.3,96.4 629.6,115.9 632.8,142.1 636.1,100.7 639.3,91.7 642.5,96.6 645.8,93.4 649.0,100.6 652.3,100.1 655.5,100.9 658.8,93.4 662.0,129.3 665.2,127.9 668.5,113.3 671.7,132.6 675.0,130.3 678.2,114.7 681.5,123.8 684.7,133.8 687.9,137.7 691.2,164.1 694.4,142.6 697.7,160.3 700.9,181.3 704.2,147.3 707.4,148.5 710.6,161.2 713.9,180.0 717.1,204.7 720.4,179.7 723.6,177.3 726.9,205.4 730.1,173.3 733.4,189.7 736.6,179.8 739.8,186.6 743.1,200.6 746.3,220.4 749.6,235.3 752.8,240.0 756.1,222.9 759.3,225.5 762.5,239.8 765.8,253.6 769.0,241.3 772.3,199.4 775.5,192.2 778.8,181.2 782.0,201.6 785.2,171.6 788.5,157.7 791.7,153.9 795.0,165.4 798.2,174.6 801.5,156.4 804.7,160.1 807.9,156.7 811.2,179.7 814.4,172.1 817.7,153.7 820.9,164.4 824.2,185.6 827.4,156.2 830.6,156.4 833.9,171.5 837.1,157.8 840.4,135.6 843.6,142.2 846.9,137.0 850.1,130.4 853.4,136.1 856.6,145.3 859.8,157.7 863.1,189.1 866.3,170.6 869.6,188.7 872.8,173.3 876.1,168.8 879.3,171.2 882.5,176.0 885.8,184.7 889.0,162.6 892.3,139.1 895.5,123.2 898.8,143.5 902.0,150.0" fill="none" stroke="#d62728" stroke-width="2.2" stroke-linejoin="round" stroke-linecap="round"/>
<text x="62" y="346" font-family="Arial" font-size="11" fill="#68707a">2025-06-03</text>
<text x="834" y="346" font-family="Arial" font-size="11" fill="#68707a">2026-06-03</text>
<text x="792" y="28" font-family="Arial" font-size="12" fill="#d62728">0.5921</text>
</svg>
