<svg xmlns="http://www.w3.org/2000/svg" width="920" height="360" viewBox="0 0 920 360">
<rect width="100%" height="100%" fill="#ffffff"/>
<text x="24" y="26" font-family="Arial" font-size="18" font-weight="700" fill="#101418">NZDUSD 6m</text>
<text x="24" y="44" font-family="Arial" font-size="12" fill="#68707a">Forex cross; normalized close, start=100, change=+3.1%</text>
<line x1='62' y1='318.0' x2='902' y2='318.0' stroke='#e6e8eb'/><text x='12' y='322.0' font-family='Arial' font-size='11' fill='#68707a'>98.4</text><line x1='62' y1='250.5' x2='902' y2='250.5' stroke='#e6e8eb'/><text x='12' y='254.5' font-family='Arial' font-size='11' fill='#68707a'>100.4</text><line x1='62' y1='183.0' x2='902' y2='183.0' stroke='#e6e8eb'/><text x='12' y='187.0' font-family='Arial' font-size='11' fill='#68707a'>102.4</text><line x1='62' y1='115.5' x2='902' y2='115.5' stroke='#e6e8eb'/><text x='12' y='119.5' font-family='Arial' font-size='11' fill='#68707a'>104.5</text><line x1='62' y1='48.0' x2='902' y2='48.0' stroke='#e6e8eb'/><text x='12' y='52.0' font-family='Arial' font-size='11' fill='#68707a'>106.5</text>
<line x1="62" y1="48" x2="62" y2="318" stroke="#c8cdd2"/>
<line x1="62" y1="318" x2="902" y2="318" stroke="#c8cdd2"/>
<polyline points="62.0,264.2 68.6,244.9 75.1,253.2 81.7,243.8 88.2,243.8 94.8,241.8 101.4,220.0 107.9,224.6 114.5,228.6 121.1,238.0 127.6,238.1 134.2,245.6 140.8,243.8 147.3,256.1 153.9,231.3 160.4,205.1 167.0,208.9 173.6,214.9 180.1,224.9 186.7,234.9 193.2,254.3 199.8,255.7 206.4,237.9 212.9,240.4 219.5,245.1 226.1,258.4 232.6,270.6 239.2,245.5 245.8,265.1 252.3,261.9 258.9,262.6 265.4,251.1 272.0,233.7 278.6,214.2 285.1,207.9 291.7,162.5 298.2,137.2 304.8,131.2 311.4,98.2 317.9,76.5 324.5,70.5 331.1,105.9 337.6,108.0 344.2,89.9 350.8,115.3 357.3,149.6 363.9,95.6 370.4,83.8 377.0,90.2 383.6,86.0 390.1,95.4 396.7,94.7 403.2,95.8 409.8,86.0 416.4,132.9 422.9,131.1 429.5,112.0 436.1,137.2 442.6,134.2 449.2,113.8 455.8,125.7 462.3,138.8 468.9,143.9 475.4,178.4 482.0,150.4 488.6,173.5 495.1,200.9 501.7,156.5 508.2,158.0 514.8,174.7 521.4,199.3 527.9,231.5 534.5,198.9 541.1,195.7 547.6,232.5 554.2,190.5 560.8,211.9 567.3,199.0 573.9,207.9 580.4,226.3 587.0,252.1 593.6,271.7 600.1,277.7 606.7,255.4 613.2,258.8 619.8,277.5 626.4,295.5 632.9,279.4 639.5,224.6 646.1,215.3 652.6,200.8 659.2,227.5 665.8,188.3 672.3,170.1 678.9,165.1 685.4,180.2 692.0,192.3 698.6,168.4 705.1,173.2 711.7,168.8 718.2,198.8 724.8,189.0 731.4,164.8 737.9,178.8 744.5,206.5 751.1,168.1 757.6,168.4 764.2,188.1 770.8,170.2 777.3,141.1 783.9,149.9 790.4,143.0 797.0,134.4 803.6,141.8 810.1,153.8 816.7,170.1 823.2,211.1 829.8,187.0 836.4,210.7 842.9,190.5 849.5,184.6 856.1,187.7 862.6,194.0 869.2,205.4 875.8,176.5 882.3,145.7 888.9,124.9 895.4,151.5 902.0,160.0" fill="none" stroke="#1f77b4" stroke-width="2.2" stroke-linejoin="round" stroke-linecap="round"/>
<text x="62" y="346" font-family="Arial" font-size="11" fill="#68707a">2025-12-03</text>
<text x="834" y="346" font-family="Arial" font-size="11" fill="#68707a">2026-06-03</text>
<text x="792" y="28" font-family="Arial" font-size="12" fill="#1f77b4">0.5921</text>
</svg>
