<svg xmlns="http://www.w3.org/2000/svg" width="920" height="360" viewBox="0 0 920 360">
<rect width="100%" height="100%" fill="#ffffff"/>
<text x="24" y="26" font-family="Arial" font-size="18" font-weight="700" fill="#101418">SOLUSD 12m</text>
<text x="24" y="44" font-family="Arial" font-size="12" fill="#68707a">Crypto; normalized close, start=100, change=-52.8%</text>
<line x1='62' y1='318.0' x2='902' y2='318.0' stroke='#e6e8eb'/><text x='12' y='322.0' font-family='Arial' font-size='11' fill='#68707a'>36.0</text><line x1='62' y1='250.5' x2='902' y2='250.5' stroke='#e6e8eb'/><text x='12' y='254.5' font-family='Arial' font-size='11' fill='#68707a'>69.6</text><line x1='62' y1='183.0' x2='902' y2='183.0' stroke='#e6e8eb'/><text x='12' y='187.0' font-family='Arial' font-size='11' fill='#68707a'>103.3</text><line x1='62' y1='115.5' x2='902' y2='115.5' stroke='#e6e8eb'/><text x='12' y='119.5' font-family='Arial' font-size='11' fill='#68707a'>137.0</text><line x1='62' y1='48.0' x2='902' y2='48.0' stroke='#e6e8eb'/><text x='12' y='52.0' font-family='Arial' font-size='11' fill='#68707a'>170.6</text>
<line x1="62" y1="48" x2="62" y2="318" stroke="#c8cdd2"/>
<line x1="62" y1="318" x2="902" y2="318" stroke="#c8cdd2"/>
<polyline points="62.0,189.6 64.3,192.2 66.6,203.6 68.9,199.2 71.2,196.4 73.5,193.4 75.8,182.2 78.2,177.1 80.5,182.3 82.8,192.9 85.1,198.3 87.4,203.3 89.7,192.9 92.0,195.4 94.3,199.4 96.6,201.2 98.9,200.3 101.2,209.2 103.5,215.7 105.8,220.3 108.2,203.2 110.5,201.7 112.8,204.9 115.1,210.6 117.4,206.6 119.7,195.5 122.0,192.2 124.3,190.4 126.6,200.5 128.9,193.6 131.2,193.4 133.5,199.4 135.8,199.6 138.2,194.1 140.5,198.0 142.8,194.2 145.1,187.1 147.4,178.4 149.7,179.9 152.0,182.7 154.3,182.1 156.6,180.7 158.9,178.5 161.2,165.9 163.5,163.2 165.8,161.2 168.2,161.6 170.5,155.8 172.8,137.2 175.1,124.6 177.4,145.5 179.7,154.4 182.0,149.1 184.3,151.5 186.6,146.5 188.9,154.5 191.2,156.1 193.5,160.8 195.8,167.6 198.2,179.9 200.5,185.6 202.8,181.1 205.1,171.5 207.4,178.3 209.7,173.1 212.0,163.6 214.3,162.0 216.6,157.6 218.9,154.1 221.2,164.3 223.5,142.5 225.8,129.9 228.2,141.6 230.5,150.4 232.8,145.2 235.1,143.4 237.4,153.8 239.7,162.8 242.0,148.0 244.3,157.4 246.6,131.2 248.9,126.9 251.2,124.4 253.5,148.4 255.8,137.3 258.2,128.2 260.5,113.4 262.8,125.2 265.1,128.3 267.4,130.9 269.7,135.7 272.0,119.7 274.3,118.1 276.6,128.7 278.9,127.5 281.2,131.7 283.5,123.6 285.8,113.7 288.2,109.7 290.5,101.0 292.8,94.9 295.1,77.4 297.4,77.0 299.7,79.6 302.0,87.6 304.3,84.2 306.6,74.1 308.9,70.5 311.2,82.2 313.5,80.9 315.8,84.8 318.2,105.5 320.5,114.3 322.8,116.8 325.1,141.8 327.4,125.1 329.7,127.4 332.0,118.1 334.3,115.1 336.6,120.7 338.9,104.0 341.2,87.0 343.5,89.4 345.8,95.8 348.2,95.1 350.5,90.0 352.8,105.5 355.1,94.4 357.4,104.9 359.7,146.6 362.0,160.3 364.3,135.2 366.6,121.2 368.9,128.8 371.2,139.7 373.5,151.8 375.8,155.2 378.2,147.9 380.5,147.7 382.8,145.2 385.1,150.5 387.4,157.6 389.7,143.1 392.0,140.3 394.3,139.7 396.6,132.0 398.9,133.6 401.2,139.2 403.5,139.2 405.8,151.8 408.2,148.5 410.5,149.6 412.8,147.7 415.1,175.8 417.4,189.6 419.7,180.3 422.0,190.0 424.3,181.4 426.6,186.1 428.9,177.9 431.2,174.1 433.5,190.6 435.8,192.3 438.2,202.8 440.5,211.1 442.8,210.0 445.1,213.0 447.4,221.2 449.7,208.5 452.0,213.6 454.3,217.8 456.6,224.3 458.9,225.5 461.2,221.4 463.5,211.5 465.8,210.9 468.2,205.5 470.5,208.3 472.8,212.8 475.1,214.5 477.4,217.7 479.7,226.6 482.0,211.1 484.3,203.1 486.6,210.7 488.9,218.1 491.2,219.3 493.5,219.6 495.8,218.1 498.2,212.1 500.5,214.0 502.8,214.1 505.1,219.3 507.4,218.1 509.7,223.0 512.0,225.2 514.3,223.3 516.6,231.2 518.9,235.8 521.2,227.3 523.5,227.7 525.8,227.5 528.2,227.8 530.5,230.3 532.8,232.1 535.1,235.3 537.4,232.4 539.7,229.2 542.0,228.5 544.3,231.2 546.6,228.9 548.9,229.5 551.2,226.5 553.5,219.6 555.8,218.1 558.2,217.3 560.5,212.0 562.8,208.0 565.1,214.2 567.4,211.6 569.7,214.9 572.0,214.9 574.3,210.1 576.6,210.5 578.9,202.5 581.2,200.7 583.5,206.4 585.8,203.2 588.2,204.6 590.5,212.0 592.8,218.0 595.1,227.9 597.4,223.1 599.7,224.5 602.0,225.7 604.3,226.1 606.6,236.8 608.9,229.9 611.2,226.1 613.5,228.6 615.8,238.3 618.2,238.7 620.5,254.0 622.8,260.0 625.1,255.3 627.4,264.2 629.7,271.4 632.0,289.2 634.3,277.2 636.6,277.0 638.9,277.8 641.2,278.2 643.5,283.1 645.8,287.8 648.2,289.0 650.5,281.3 652.8,276.3 655.1,279.1 657.4,278.6 659.7,280.2 662.0,284.9 664.3,283.8 666.6,280.9 668.9,280.2 671.2,283.3 673.5,289.8 675.8,288.1 678.2,276.7 680.5,279.3 682.8,284.4 685.1,281.2 687.4,282.3 689.7,278.3 692.0,277.8 694.3,272.9 696.6,275.7 698.9,280.8 701.2,282.8 703.5,284.8 705.8,280.5 708.2,279.3 710.5,278.4 712.8,278.0 715.1,276.4 717.4,276.5 719.7,271.1 722.0,265.9 724.3,267.9 726.6,273.9 728.9,275.4 731.2,274.2 733.5,277.2 735.8,279.0 738.2,272.1 740.5,272.9 742.8,271.8 745.1,278.6 747.4,283.0 749.7,284.3 752.0,285.0 754.3,283.7 756.6,282.9 758.9,285.3 761.2,288.2 763.5,286.4 765.8,285.8 768.2,284.5 770.5,286.7 772.8,279.6 775.1,283.5 777.4,282.6 779.7,280.6 782.0,280.5 784.3,284.9 786.6,278.3 788.9,282.0 791.2,280.5 793.5,275.3 795.8,275.4 798.2,278.9 800.5,282.3 802.8,280.0 805.1,279.1 807.4,278.0 809.7,279.0 812.0,278.8 814.3,278.9 816.6,277.9 818.9,280.7 821.2,281.7 823.5,283.0 825.8,283.0 828.2,282.1 830.5,281.4 832.8,281.8 835.1,281.6 837.4,278.7 839.7,275.1 842.0,276.0 844.3,271.5 846.6,269.9 848.9,265.7 851.2,264.5 853.5,268.4 855.8,272.6 858.2,271.2 860.5,275.0 862.8,278.4 865.1,280.2 867.4,280.0 869.7,281.4 872.0,279.1 874.3,277.6 876.6,281.3 878.9,279.6 881.2,280.1 883.5,280.4 885.8,282.2 888.2,283.8 890.5,284.3 892.8,284.4 895.1,283.6 897.4,283.9 899.7,285.5 902.0,295.5" fill="none" stroke="#d62728" stroke-width="2.2" stroke-linejoin="round" stroke-linecap="round"/>
<text x="62" y="346" font-family="Arial" font-size="11" fill="#68707a">2025-06-03</text>
<text x="834" y="346" font-family="Arial" font-size="11" fill="#68707a">2026-06-03</text>
<text x="792" y="28" font-family="Arial" font-size="12" fill="#d62728">73.32</text>
</svg>
