<svg xmlns="http://www.w3.org/2000/svg" width="920" height="360" viewBox="0 0 920 360">
<rect width="100%" height="100%" fill="#ffffff"/>
<text x="24" y="26" font-family="Arial" font-size="18" font-weight="700" fill="#101418">SOLUSD 6m</text>
<text x="24" y="44" font-family="Arial" font-size="12" fill="#68707a">Crypto; normalized close, start=100, change=-49.4%</text>
<line x1='62' y1='318.0' x2='902' y2='318.0' stroke='#e6e8eb'/><text x='12' y='322.0' font-family='Arial' font-size='11' fill='#68707a'>45.5</text><line x1='62' y1='250.5' x2='902' y2='250.5' stroke='#e6e8eb'/><text x='12' y='254.5' font-family='Arial' font-size='11' fill='#68707a'>60.7</text><line x1='62' y1='183.0' x2='902' y2='183.0' stroke='#e6e8eb'/><text x='12' y='187.0' font-family='Arial' font-size='11' fill='#68707a'>75.9</text><line x1='62' y1='115.5' x2='902' y2='115.5' stroke='#e6e8eb'/><text x='12' y='119.5' font-family='Arial' font-size='11' fill='#68707a'>91.1</text><line x1='62' y1='48.0' x2='902' y2='48.0' stroke='#e6e8eb'/><text x='12' y='52.0' font-family='Arial' font-size='11' fill='#68707a'>106.3</text>
<line x1="62" y1="48" x2="62" y2="318" stroke="#c8cdd2"/>
<line x1="62" y1="318" x2="902" y2="318" stroke="#c8cdd2"/>
<polyline points="62.0,76.2 66.6,94.2 71.3,111.6 75.9,114.6 80.6,115.4 85.2,111.8 89.8,97.6 94.5,102.0 99.1,102.3 103.8,114.7 108.4,111.9 113.0,123.4 117.7,128.7 122.3,124.1 127.0,142.9 131.6,153.8 136.3,133.5 140.9,134.7 145.5,134.1 150.2,134.7 154.8,140.7 159.5,144.9 164.1,152.6 168.7,145.7 173.4,138.2 178.0,136.5 182.7,142.9 187.3,137.4 191.9,138.7 196.6,131.8 201.2,115.3 205.9,111.7 210.5,109.9 215.1,97.3 219.8,87.8 224.4,102.5 229.1,96.4 233.7,104.2 238.4,104.3 243.0,92.8 247.6,93.8 252.3,74.8 256.9,70.5 261.6,84.0 266.2,76.3 270.8,79.8 275.5,97.3 280.1,111.6 284.8,135.0 289.4,123.7 294.0,127.1 298.7,129.9 303.3,130.9 308.0,156.2 312.6,139.8 317.2,130.9 321.9,136.8 326.5,159.8 331.2,160.6 335.8,197.1 340.5,211.1 345.1,200.1 349.7,221.2 354.4,238.2 359.0,280.6 363.7,252.2 368.3,251.6 372.9,253.4 377.6,254.5 382.2,266.1 386.9,277.3 391.5,280.1 396.1,261.8 400.8,250.0 405.4,256.6 410.1,255.3 414.7,259.1 419.3,270.2 424.0,267.7 428.6,260.8 433.3,259.1 437.9,266.5 442.6,281.9 447.2,278.0 451.8,250.8 456.5,256.9 461.1,269.1 465.8,261.7 470.4,264.1 475.0,254.7 479.7,253.5 484.3,241.8 489.0,248.4 493.6,260.7 498.2,265.3 502.9,270.1 507.5,259.9 512.2,257.1 516.8,254.9 521.4,254.0 526.1,250.1 530.7,250.3 535.4,237.5 540.0,225.3 544.7,230.0 549.3,244.2 553.9,247.7 558.6,244.8 563.2,252.2 567.9,256.3 572.5,240.0 577.1,241.9 581.8,239.2 586.4,255.3 591.1,265.8 595.7,268.9 600.3,270.7 605.0,267.5 609.6,265.5 614.3,271.4 618.9,278.2 623.5,273.9 628.2,272.6 632.8,269.4 637.5,274.6 642.1,257.7 646.8,267.1 651.4,264.9 656.0,260.2 660.7,259.9 665.3,270.3 670.0,254.6 674.6,263.5 679.2,260.0 683.9,247.5 688.5,247.8 693.2,256.0 697.8,264.1 702.4,258.7 707.1,256.6 711.7,253.8 716.4,256.2 721.0,255.9 725.6,256.2 730.3,253.7 734.9,260.3 739.6,262.7 744.2,265.8 748.9,265.8 753.5,263.6 758.1,261.9 762.8,263.1 767.4,262.5 772.1,255.7 776.7,247.0 781.3,249.3 786.0,238.4 790.6,234.8 795.3,224.7 799.9,221.9 804.5,231.3 809.2,241.1 813.8,237.8 818.5,246.8 823.1,255.0 827.7,259.2 832.4,258.8 837.0,262.1 841.7,256.5 846.3,253.1 851.0,261.8 855.6,257.7 860.2,258.9 864.9,259.7 869.5,264.0 874.2,267.8 878.8,268.9 883.4,269.1 888.1,267.2 892.7,268.0 897.4,271.7 902.0,295.5" fill="none" stroke="#d62728" stroke-width="2.2" stroke-linejoin="round" stroke-linecap="round"/>
<text x="62" y="346" font-family="Arial" font-size="11" fill="#68707a">2025-12-03</text>
<text x="834" y="346" font-family="Arial" font-size="11" fill="#68707a">2026-06-03</text>
<text x="792" y="28" font-family="Arial" font-size="12" fill="#d62728">73.32</text>
</svg>
