<svg xmlns="http://www.w3.org/2000/svg" width="920" height="360" viewBox="0 0 920 360">
<rect width="100%" height="100%" fill="#ffffff"/>
<text x="24" y="26" font-family="Arial" font-size="18" font-weight="700" fill="#101418">.US30C 6m</text>
<text x="24" y="44" font-family="Arial" font-size="12" fill="#68707a">Index; normalized close, start=100, change=+8.1%</text>
<line x1='62' y1='318.0' x2='902' y2='318.0' stroke='#e6e8eb'/><text x='12' y='322.0' font-family='Arial' font-size='11' fill='#68707a'>93.8</text><line x1='62' y1='250.5' x2='902' y2='250.5' stroke='#e6e8eb'/><text x='12' y='254.5' font-family='Arial' font-size='11' fill='#68707a'>97.7</text><line x1='62' y1='183.0' x2='902' y2='183.0' stroke='#e6e8eb'/><text x='12' y='187.0' font-family='Arial' font-size='11' fill='#68707a'>101.6</text><line x1='62' y1='115.5' x2='902' y2='115.5' stroke='#e6e8eb'/><text x='12' y='119.5' font-family='Arial' font-size='11' fill='#68707a'>105.5</text><line x1='62' y1='48.0' x2='902' y2='48.0' stroke='#e6e8eb'/><text x='12' y='52.0' font-family='Arial' font-size='11' fill='#68707a'>109.4</text>
<line x1="62" y1="48" x2="62" y2="318" stroke="#c8cdd2"/>
<line x1="62" y1="318" x2="902" y2="318" stroke="#c8cdd2"/>
<polyline points="62.0,210.9 68.8,196.0 75.5,197.2 82.3,193.3 89.1,201.2 95.9,207.8 102.6,189.6 109.4,165.9 116.2,174.9 123.0,176.4 129.7,187.5 136.5,195.9 143.3,193.5 150.1,186.7 156.8,178.4 163.6,175.5 170.4,164.9 177.2,165.6 183.9,174.8 190.7,178.2 197.5,189.4 204.3,177.7 211.0,155.9 217.8,138.1 224.6,155.2 231.4,145.3 238.1,136.6 244.9,133.4 251.7,148.0 258.5,149.6 265.2,138.8 272.0,141.9 278.8,173.8 285.5,152.2 292.3,141.0 299.1,151.4 305.9,139.9 312.6,154.9 319.4,154.5 326.2,152.4 333.0,159.0 339.7,140.1 346.5,146.2 353.3,136.7 360.1,158.4 366.8,114.2 373.6,113.4 380.4,111.5 387.2,114.0 393.9,138.5 400.7,136.7 407.5,135.5 414.3,130.8 421.0,140.6 427.8,132.1 434.6,162.2 441.4,148.7 448.1,137.4 454.9,136.8 461.7,155.9 468.5,158.5 475.2,173.3 482.0,164.6 488.8,193.3 495.5,210.0 502.3,201.2 509.1,202.4 515.9,213.0 522.6,240.1 529.4,244.5 536.2,230.3 543.0,228.6 549.7,256.7 556.5,264.2 563.3,280.4 570.1,257.3 576.8,260.4 583.6,249.2 590.4,266.4 597.2,295.5 603.9,293.7 610.7,252.5 617.5,244.2 624.3,246.5 631.0,240.4 637.8,243.6 644.6,195.0 651.4,184.9 658.1,194.7 664.9,183.7 671.7,172.1 678.5,174.7 685.2,170.5 692.0,138.7 698.8,138.8 705.5,149.6 712.3,137.1 719.1,143.7 725.9,146.6 732.6,148.9 739.4,149.9 746.2,160.1 753.0,131.2 759.7,136.8 766.5,157.2 773.3,144.1 780.1,121.7 786.8,133.2 793.6,132.7 800.4,129.2 807.2,127.2 813.9,129.7 820.7,116.1 827.5,135.8 834.3,129.9 841.0,141.7 847.8,118.1 854.6,107.9 861.4,97.2 868.1,101.5 874.9,94.8 881.7,93.9 888.5,80.6 895.2,78.9 902.0,70.5" fill="none" stroke="#1f77b4" stroke-width="2.2" stroke-linejoin="round" stroke-linecap="round"/>
<text x="62" y="346" font-family="Arial" font-size="11" fill="#68707a">2025-12-02</text>
<text x="834" y="346" font-family="Arial" font-size="11" fill="#68707a">2026-06-02</text>
<text x="792" y="28" font-family="Arial" font-size="12" fill="#1f77b4">51308</text>
</svg>
