<svg xmlns="http://www.w3.org/2000/svg" width="920" height="360" viewBox="0 0 920 360">
<rect width="100%" height="100%" fill="#ffffff"/>
<text x="24" y="26" font-family="Arial" font-size="18" font-weight="700" fill="#101418">.US30C 12m</text>
<text x="24" y="44" font-family="Arial" font-size="12" fill="#68707a">Index; normalized close, start=100, change=+21.3%</text>
<line x1='62' y1='318.0' x2='902' y2='318.0' stroke='#e6e8eb'/><text x='12' y='322.0' font-family='Arial' font-size='11' fill='#68707a'>97.5</text><line x1='62' y1='250.5' x2='902' y2='250.5' stroke='#e6e8eb'/><text x='12' y='254.5' font-family='Arial' font-size='11' fill='#68707a'>104.0</text><line x1='62' y1='183.0' x2='902' y2='183.0' stroke='#e6e8eb'/><text x='12' y='187.0' font-family='Arial' font-size='11' fill='#68707a'>110.5</text><line x1='62' y1='115.5' x2='902' y2='115.5' stroke='#e6e8eb'/><text x='12' y='119.5' font-family='Arial' font-size='11' fill='#68707a'>117.0</text><line x1='62' y1='48.0' x2='902' y2='48.0' stroke='#e6e8eb'/><text x='12' y='52.0' font-family='Arial' font-size='11' fill='#68707a'>123.4</text>
<line x1="62" y1="48" x2="62" y2="318" stroke="#c8cdd2"/>
<line x1="62" y1="318" x2="902" y2="318" stroke="#c8cdd2"/>
<polyline points="62.0,292.2 65.3,286.9 68.7,289.2 72.0,291.9 75.4,280.9 78.7,281.0 82.1,278.4 85.4,278.4 88.8,275.9 92.1,294.9 95.5,287.0 98.8,294.4 102.2,295.5 105.5,294.6 108.9,285.4 112.2,272.9 115.5,275.5 118.9,265.6 122.2,254.9 125.6,248.1 128.9,238.3 132.3,238.5 135.6,230.1 139.0,240.5 142.3,244.5 145.7,239.2 149.0,234.4 152.4,241.3 155.7,239.2 159.1,249.9 162.4,244.2 165.7,238.5 169.1,242.0 172.4,242.5 175.8,238.1 179.1,225.6 182.5,233.4 185.8,228.3 189.2,229.8 192.5,234.9 195.9,239.1 199.2,247.2 202.6,260.6 205.9,246.2 209.3,247.7 212.6,245.7 215.9,251.2 219.3,246.1 222.6,251.1 226.0,239.2 229.3,227.8 232.7,228.0 236.0,227.2 239.4,228.0 242.7,227.8 246.1,227.4 249.4,231.1 252.8,210.3 256.1,218.9 259.5,215.5 262.8,211.9 266.1,210.2 269.5,212.4 272.8,218.6 276.2,219.2 279.5,210.5 282.9,216.0 286.2,213.2 289.6,208.3 292.9,213.8 296.3,198.6 299.6,205.3 303.0,204.1 306.3,207.2 309.6,200.8 313.0,197.7 316.3,193.5 319.7,191.8 323.0,194.0 326.4,198.2 329.7,202.5 333.1,195.1 336.4,193.4 339.8,191.4 343.1,190.4 346.5,188.4 349.8,182.5 353.2,184.1 356.5,186.4 359.8,186.4 363.2,192.4 366.5,214.0 369.9,199.6 373.2,194.6 376.6,195.0 379.9,202.4 383.3,196.5 386.6,183.8 390.0,178.4 393.3,186.7 396.7,183.1 400.0,171.5 403.4,163.2 406.7,159.2 410.0,161.0 413.4,163.7 416.7,162.7 420.1,168.3 423.4,174.5 426.8,168.9 430.1,178.7 433.5,176.9 436.8,167.5 440.2,153.7 443.5,145.7 446.9,165.3 450.2,173.0 453.6,186.7 456.9,199.0 460.2,197.8 463.6,207.3 466.9,195.2 470.3,190.2 473.6,173.8 477.0,166.1 480.3,158.9 483.7,169.5 487.0,164.9 490.4,154.8 493.7,155.6 497.1,153.1 500.4,158.4 503.8,162.8 507.1,150.5 510.4,134.6 513.8,140.7 517.1,141.7 520.5,149.1 523.8,154.8 527.2,153.1 530.5,148.6 533.9,143.0 537.2,141.1 540.6,134.0 543.9,134.5 547.3,140.6 550.6,142.9 554.0,150.4 557.3,142.5 560.6,127.9 564.0,116.0 567.3,127.4 570.7,120.8 574.0,114.9 577.4,112.8 580.7,122.6 584.1,123.7 587.4,116.4 590.8,118.5 594.1,139.9 597.5,125.4 600.8,117.9 604.2,124.9 607.5,117.2 610.8,127.3 614.2,127.0 617.5,125.6 620.9,130.0 624.2,117.3 627.6,121.4 630.9,115.0 634.3,129.6 637.6,99.9 641.0,99.4 644.3,98.1 647.7,99.7 651.0,116.2 654.4,115.0 657.7,114.2 661.0,111.0 664.4,117.6 667.7,111.9 671.1,132.2 674.4,123.0 677.8,115.5 681.1,115.0 684.5,127.9 687.8,129.7 691.2,139.6 694.5,133.8 697.9,153.1 701.2,164.2 704.5,158.3 707.9,159.2 711.2,166.3 714.6,184.5 717.9,187.5 721.3,177.9 724.6,176.8 728.0,195.7 731.3,200.7 734.7,211.6 738.0,196.1 741.4,198.2 744.7,190.6 748.1,202.2 751.4,221.7 754.7,220.5 758.1,192.8 761.4,187.3 764.8,188.8 768.1,184.7 771.5,186.8 774.8,154.2 778.2,147.4 781.5,154.0 784.9,146.6 788.2,138.8 791.6,140.5 794.9,137.7 798.3,116.3 801.6,116.4 804.9,123.7 808.3,115.3 811.6,119.7 815.0,121.7 818.3,123.2 821.7,123.8 825.0,130.7 828.4,111.3 831.7,115.0 835.1,128.8 838.4,120.0 841.8,104.9 845.1,112.6 848.5,112.3 851.8,110.0 855.1,108.6 858.5,110.3 861.8,101.1 865.2,114.4 868.5,110.4 871.9,118.4 875.2,102.5 878.6,95.7 881.9,88.4 885.3,91.3 888.6,86.8 892.0,86.2 895.3,77.3 898.7,76.1 902.0,70.5" fill="none" stroke="#1f77b4" stroke-width="2.2" stroke-linejoin="round" stroke-linecap="round"/>
<text x="62" y="346" font-family="Arial" font-size="11" fill="#68707a">2025-06-02</text>
<text x="834" y="346" font-family="Arial" font-size="11" fill="#68707a">2026-06-02</text>
<text x="792" y="28" font-family="Arial" font-size="12" fill="#1f77b4">51308</text>
</svg>
