<svg xmlns="http://www.w3.org/2000/svg" width="920" height="360" viewBox="0 0 920 360">
<rect width="100%" height="100%" fill="#ffffff"/>
<text x="24" y="26" font-family="Arial" font-size="18" font-weight="700" fill="#101418">.US500 6m</text>
<text x="24" y="44" font-family="Arial" font-size="12" fill="#68707a">Index; normalized close, start=100, change=+11.4%</text>
<line x1='62' y1='318.0' x2='902' y2='318.0' stroke='#e6e8eb'/><text x='12' y='322.0' font-family='Arial' font-size='11' fill='#68707a'>91.0</text><line x1='62' y1='250.5' x2='902' y2='250.5' stroke='#e6e8eb'/><text x='12' y='254.5' font-family='Arial' font-size='11' fill='#68707a'>96.6</text><line x1='62' y1='183.0' x2='902' y2='183.0' stroke='#e6e8eb'/><text x='12' y='187.0' font-family='Arial' font-size='11' fill='#68707a'>102.2</text><line x1='62' y1='115.5' x2='902' y2='115.5' stroke='#e6e8eb'/><text x='12' y='119.5' font-family='Arial' font-size='11' fill='#68707a'>107.7</text><line x1='62' y1='48.0' x2='902' y2='48.0' stroke='#e6e8eb'/><text x='12' y='52.0' font-family='Arial' font-size='11' fill='#68707a'>113.3</text>
<line x1="62" y1="48" x2="62" y2="318" stroke="#c8cdd2"/>
<line x1="62" y1="318" x2="902" y2="318" stroke="#c8cdd2"/>
<polyline points="62.0,209.2 68.8,205.6 75.5,204.3 82.3,201.9 89.1,206.1 95.9,207.2 102.6,199.0 109.4,196.5 116.2,209.5 123.0,211.5 129.7,214.4 136.5,228.4 143.3,218.9 150.1,208.3 156.8,200.5 163.6,194.9 170.4,190.9 177.2,191.3 183.9,195.6 190.7,197.3 197.5,206.3 204.3,204.0 211.0,196.3 217.8,188.7 224.6,192.9 231.4,192.8 238.1,184.9 244.9,182.9 251.7,185.3 258.5,191.9 265.2,188.7 272.0,189.5 278.8,215.0 285.5,201.0 292.3,194.3 299.1,193.9 305.9,187.7 312.6,182.7 319.4,182.8 326.2,184.4 333.0,189.7 339.7,183.1 346.5,193.5 353.3,199.7 360.1,214.7 366.8,190.9 373.6,185.1 380.4,189.2 387.2,189.3 393.9,208.6 400.7,208.0 407.5,206.7 414.3,200.0 421.0,203.4 427.8,194.9 434.6,207.7 441.4,198.4 448.1,188.4 454.9,195.1 461.7,200.4 468.5,199.9 475.2,211.5 482.0,202.1 488.8,209.0 495.5,225.1 502.3,215.1 509.1,217.7 515.9,218.7 522.6,237.0 529.4,244.2 536.2,232.3 543.0,229.3 549.7,245.6 556.5,248.8 563.3,266.6 570.1,253.3 576.8,257.7 583.6,251.4 590.4,271.8 597.2,291.0 603.9,295.5 610.7,262.7 617.5,254.3 624.3,253.0 631.0,247.9 637.8,247.0 644.6,217.5 651.4,210.0 658.1,211.4 664.9,199.1 671.7,184.7 678.5,174.8 685.2,171.5 692.0,156.5 698.8,159.5 705.5,167.5 712.3,154.4 719.1,159.6 725.9,149.5 732.6,148.0 739.4,154.2 746.2,154.7 753.0,141.7 759.7,138.0 766.5,143.2 773.3,132.8 780.1,114.0 786.8,119.0 793.6,108.0 800.4,105.5 807.2,107.6 813.9,99.9 820.7,89.8 827.5,106.3 834.3,107.2 841.0,116.0 847.8,101.9 854.6,99.7 861.4,94.7 868.1,86.6 874.9,86.4 881.7,78.7 888.5,75.8 895.2,72.2 902.0,70.5" fill="none" stroke="#1f77b4" stroke-width="2.2" stroke-linejoin="round" stroke-linecap="round"/>
<text x="62" y="346" font-family="Arial" font-size="11" fill="#68707a">2025-12-02</text>
<text x="834" y="346" font-family="Arial" font-size="11" fill="#68707a">2026-06-02</text>
<text x="792" y="28" font-family="Arial" font-size="12" fill="#1f77b4">7609.8</text>
</svg>
