<svg xmlns="http://www.w3.org/2000/svg" width="920" height="360" viewBox="0 0 920 360">
<rect width="100%" height="100%" fill="#ffffff"/>
<text x="24" y="26" font-family="Arial" font-size="18" font-weight="700" fill="#101418">.US500 12m</text>
<text x="24" y="44" font-family="Arial" font-size="12" fill="#68707a">Index; normalized close, start=100, change=+28.2%</text>
<line x1='62' y1='318.0' x2='902' y2='318.0' stroke='#e6e8eb'/><text x='12' y='322.0' font-family='Arial' font-size='11' fill='#68707a'>97.2</text><line x1='62' y1='250.5' x2='902' y2='250.5' stroke='#e6e8eb'/><text x='12' y='254.5' font-family='Arial' font-size='11' fill='#68707a'>105.6</text><line x1='62' y1='183.0' x2='902' y2='183.0' stroke='#e6e8eb'/><text x='12' y='187.0' font-family='Arial' font-size='11' fill='#68707a'>114.1</text><line x1='62' y1='115.5' x2='902' y2='115.5' stroke='#e6e8eb'/><text x='12' y='119.5' font-family='Arial' font-size='11' fill='#68707a'>122.6</text><line x1='62' y1='48.0' x2='902' y2='48.0' stroke='#e6e8eb'/><text x='12' y='52.0' font-family='Arial' font-size='11' fill='#68707a'>131.0</text>
<line x1="62" y1="48" x2="62" y2="318" stroke="#c8cdd2"/>
<line x1="62" y1="318" x2="902" y2="318" stroke="#c8cdd2"/>
<polyline points="62.0,295.5 65.3,290.9 68.7,290.8 72.0,295.0 75.4,286.8 78.7,286.1 82.1,281.7 85.4,283.9 88.8,280.8 92.1,290.0 95.5,282.4 98.8,289.2 102.2,289.5 105.5,291.2 108.9,283.5 112.2,274.5 115.5,274.5 118.9,267.9 122.2,263.6 125.6,259.3 128.9,260.3 132.3,256.3 135.6,249.3 139.0,256.0 142.3,256.6 145.7,251.5 149.0,249.2 152.4,252.0 155.7,250.8 159.1,254.1 162.4,251.4 165.7,246.9 169.1,247.0 172.4,245.8 175.8,245.3 179.1,238.6 182.5,238.0 185.8,234.6 189.2,234.5 192.5,237.0 195.9,238.1 199.2,241.3 202.6,254.9 205.9,242.5 209.3,246.7 212.6,240.5 215.9,241.2 219.3,234.5 222.6,236.7 226.0,227.0 229.3,224.2 232.7,223.9 236.0,226.4 239.4,226.5 242.7,231.6 246.1,233.7 249.4,237.1 252.8,224.1 256.1,227.8 259.5,224.3 262.8,222.2 266.1,219.4 269.5,225.0 272.8,231.0 276.2,226.6 279.5,219.4 282.9,222.2 286.2,220.3 289.6,218.0 292.9,215.4 296.3,207.9 299.6,208.3 303.0,204.2 306.3,205.3 309.6,206.2 313.0,201.9 316.3,197.6 319.7,193.6 323.0,198.6 326.4,201.1 329.7,205.6 333.1,200.4 336.4,198.0 339.8,194.3 343.1,191.3 346.5,190.7 349.8,190.7 353.2,187.4 356.5,190.8 359.8,185.6 363.2,188.1 366.5,212.6 369.9,198.9 373.2,200.3 376.6,196.7 379.9,202.3 383.3,197.6 386.6,188.1 390.0,188.0 393.3,192.9 396.7,187.6 400.0,180.5 403.4,169.2 406.7,167.1 410.0,167.2 413.4,176.3 416.7,173.9 420.1,172.4 423.4,183.2 426.8,179.9 430.1,190.1 433.5,188.9 436.8,175.0 440.2,173.1 443.5,172.5 446.9,187.8 450.2,188.2 453.6,196.5 456.9,203.9 460.2,200.6 463.6,214.5 466.9,205.8 470.3,192.1 473.6,183.9 477.0,177.7 480.3,172.8 483.7,177.7 487.0,175.4 490.4,172.7 493.7,171.7 497.1,169.9 500.4,173.1 503.8,173.9 507.1,167.7 510.4,165.8 513.8,175.7 517.1,177.1 520.5,179.3 523.8,189.9 527.2,182.7 530.5,174.7 533.9,168.8 537.2,164.6 540.6,161.6 543.9,161.9 547.3,165.1 550.6,166.4 554.0,173.2 557.3,171.5 560.6,165.6 564.0,159.9 567.3,163.1 570.7,163.0 574.0,157.0 577.4,155.5 580.7,157.3 584.1,162.3 587.4,159.9 590.8,160.5 594.1,179.8 597.5,169.2 600.8,164.1 604.2,163.8 607.5,159.2 610.8,155.3 614.2,155.4 617.5,156.6 620.9,160.7 624.2,155.6 627.6,163.5 630.9,168.2 634.3,179.6 637.6,161.6 641.0,157.2 644.3,160.3 647.7,160.3 651.0,174.9 654.4,174.5 657.7,173.5 661.0,168.4 664.4,171.0 667.7,164.6 671.1,174.3 674.4,167.2 677.8,159.7 681.1,164.7 684.5,168.7 687.8,168.4 691.2,177.1 694.5,170.0 697.9,175.2 701.2,187.4 704.5,179.9 707.9,181.8 711.2,182.6 714.6,196.5 717.9,201.9 721.3,192.9 724.6,190.6 728.0,202.9 731.3,205.4 734.7,218.8 738.0,208.8 741.4,212.1 744.7,207.3 748.1,222.7 751.4,237.3 754.7,240.7 758.1,215.8 761.4,209.6 764.8,208.6 768.1,204.6 771.5,204.0 774.8,181.7 778.2,176.0 781.5,177.1 784.9,167.8 788.2,156.9 791.6,149.4 794.9,146.9 798.3,135.5 801.6,137.8 804.9,143.9 808.3,133.9 811.6,137.9 815.0,130.3 818.3,129.1 821.7,133.8 825.0,134.2 828.4,124.4 831.7,121.5 835.1,125.5 838.4,117.6 841.8,103.4 845.1,107.2 848.5,98.8 851.8,97.0 855.1,98.6 858.5,92.8 861.8,85.1 865.2,97.6 868.5,98.3 871.9,104.9 875.2,94.3 878.6,92.6 881.9,88.8 885.3,82.7 888.6,82.5 892.0,76.7 895.3,74.5 898.7,71.8 902.0,70.5" fill="none" stroke="#1f77b4" stroke-width="2.2" stroke-linejoin="round" stroke-linecap="round"/>
<text x="62" y="346" font-family="Arial" font-size="11" fill="#68707a">2025-06-02</text>
<text x="834" y="346" font-family="Arial" font-size="11" fill="#68707a">2026-06-02</text>
<text x="792" y="28" font-family="Arial" font-size="12" fill="#1f77b4">7609.8</text>
</svg>
