<svg xmlns="http://www.w3.org/2000/svg" width="920" height="360" viewBox="0 0 920 360">
<rect width="100%" height="100%" fill="#ffffff"/>
<text x="24" y="26" font-family="Arial" font-size="18" font-weight="700" fill="#101418">USDCAD 6m</text>
<text x="24" y="44" font-family="Arial" font-size="12" fill="#68707a">Forex major; normalized close, start=100, change=-0.9%</text>
<line x1='62' y1='318.0' x2='902' y2='318.0' stroke='#e6e8eb'/><text x='12' y='322.0' font-family='Arial' font-size='11' fill='#68707a'>96.1</text><line x1='62' y1='250.5' x2='902' y2='250.5' stroke='#e6e8eb'/><text x='12' y='254.5' font-family='Arial' font-size='11' fill='#68707a'>97.2</text><line x1='62' y1='183.0' x2='902' y2='183.0' stroke='#e6e8eb'/><text x='12' y='187.0' font-family='Arial' font-size='11' fill='#68707a'>98.3</text><line x1='62' y1='115.5' x2='902' y2='115.5' stroke='#e6e8eb'/><text x='12' y='119.5' font-family='Arial' font-size='11' fill='#68707a'>99.4</text><line x1='62' y1='48.0' x2='902' y2='48.0' stroke='#e6e8eb'/><text x='12' y='52.0' font-family='Arial' font-size='11' fill='#68707a'>100.5</text>
<line x1="62" y1="48" x2="62" y2="318" stroke="#c8cdd2"/>
<line x1="62" y1="318" x2="902" y2="318" stroke="#c8cdd2"/>
<polyline points="62.0,78.6 68.6,85.8 75.1,82.9 81.7,137.6 88.2,131.3 94.8,132.8 101.4,157.4 107.9,163.4 114.5,166.8 121.1,166.2 127.6,171.9 134.2,159.8 140.8,162.8 147.3,157.0 153.9,175.2 160.4,202.8 167.0,208.7 173.6,210.3 180.1,202.1 186.7,198.8 193.2,189.5 199.8,176.0 206.4,164.8 212.9,146.0 219.5,127.4 226.1,124.7 232.6,102.9 239.2,119.6 245.8,114.9 252.3,115.7 258.9,114.1 265.4,109.3 272.0,120.4 278.6,138.3 285.1,133.8 291.7,159.7 298.2,195.6 304.8,191.2 311.4,243.9 317.9,267.4 324.5,287.4 331.1,224.6 337.6,208.0 344.2,223.0 350.8,209.9 357.3,191.1 363.9,214.4 370.4,256.7 377.0,261.2 383.6,251.0 390.1,235.5 396.7,232.4 403.2,224.4 409.8,223.7 416.4,198.2 422.9,202.2 429.5,219.0 436.1,199.2 442.6,196.3 449.2,207.1 455.8,207.1 462.3,210.3 468.9,209.2 475.4,207.8 482.0,221.0 488.6,209.6 495.1,239.3 501.7,245.7 508.2,247.7 514.8,239.5 521.4,226.0 527.9,191.4 534.5,203.5 541.1,201.1 547.6,183.6 554.2,180.8 560.8,192.2 567.3,183.0 573.9,171.5 580.4,146.5 587.0,130.0 593.6,109.2 600.1,96.6 606.7,107.7 613.2,119.3 619.8,101.6 626.4,89.0 632.9,103.9 639.5,134.4 646.1,130.6 652.6,142.8 659.2,120.9 665.8,159.3 672.3,167.6 678.9,182.8 685.4,196.3 692.0,194.3 698.6,221.0 705.1,215.0 711.7,209.7 718.2,197.2 724.8,207.0 731.4,230.8 737.9,205.7 744.5,209.0 751.1,249.1 757.6,245.4 764.2,231.0 770.8,238.7 777.3,224.1 783.9,213.7 790.4,203.9 797.0,205.9 803.6,197.7 810.1,194.4 816.7,186.1 823.2,169.7 829.8,179.5 836.4,175.9 842.9,175.6 849.5,163.3 856.1,151.8 862.6,150.9 869.2,149.3 875.8,133.9 882.3,160.2 888.9,154.4 895.4,135.6 902.0,131.8" fill="none" stroke="#d62728" stroke-width="2.2" stroke-linejoin="round" stroke-linecap="round"/>
<text x="62" y="346" font-family="Arial" font-size="11" fill="#68707a">2025-12-03</text>
<text x="834" y="346" font-family="Arial" font-size="11" fill="#68707a">2026-06-03</text>
<text x="792" y="28" font-family="Arial" font-size="12" fill="#d62728">1.3848</text>
</svg>
