<svg xmlns="http://www.w3.org/2000/svg" width="920" height="360" viewBox="0 0 920 360">
<rect width="100%" height="100%" fill="#ffffff"/>
<text x="24" y="26" font-family="Arial" font-size="18" font-weight="700" fill="#101418">USDCHF 12m</text>
<text x="24" y="44" font-family="Arial" font-size="12" fill="#68707a">Forex major; normalized close, start=100, change=-3.4%</text>
<line x1='62' y1='318.0' x2='902' y2='318.0' stroke='#e6e8eb'/><text x='12' y='322.0' font-family='Arial' font-size='11' fill='#68707a'>92.8</text><line x1='62' y1='250.5' x2='902' y2='250.5' stroke='#e6e8eb'/><text x='12' y='254.5' font-family='Arial' font-size='11' fill='#68707a'>95.0</text><line x1='62' y1='183.0' x2='902' y2='183.0' stroke='#e6e8eb'/><text x='12' y='187.0' font-family='Arial' font-size='11' fill='#68707a'>97.2</text><line x1='62' y1='115.5' x2='902' y2='115.5' stroke='#e6e8eb'/><text x='12' y='119.5' font-family='Arial' font-size='11' fill='#68707a'>99.4</text><line x1='62' y1='48.0' x2='902' y2='48.0' stroke='#e6e8eb'/><text x='12' y='52.0' font-family='Arial' font-size='11' fill='#68707a'>101.6</text>
<line x1="62" y1="48" x2="62" y2="318" stroke="#c8cdd2"/>
<line x1="62" y1="318" x2="902" y2="318" stroke="#c8cdd2"/>
<polyline points="62.0,96.7 65.2,70.5 68.5,89.0 71.7,84.2 75.0,76.6 78.2,76.9 81.5,74.2 84.7,87.4 87.9,122.9 91.2,110.7 94.4,105.1 97.7,93.2 100.9,84.9 104.2,95.0 107.4,89.9 110.6,109.4 113.9,137.4 117.1,142.7 120.4,153.4 123.6,163.4 126.9,184.2 130.1,191.9 133.4,188.8 136.6,179.0 139.8,179.2 143.1,167.5 146.3,172.4 149.6,183.4 152.8,169.1 156.1,168.9 159.3,164.8 162.5,151.4 165.8,153.3 169.0,145.9 172.3,152.3 175.5,164.0 178.8,180.8 182.0,186.8 185.2,176.1 188.5,174.2 191.7,145.1 195.0,136.2 198.2,107.0 201.5,104.4 204.7,141.7 207.9,130.1 211.2,130.7 214.4,134.0 217.7,135.3 220.9,128.6 224.2,112.3 227.4,133.6 230.6,139.0 233.9,128.4 237.1,131.9 240.4,128.9 243.6,127.5 246.9,141.2 250.1,124.1 253.4,148.3 256.6,133.5 259.8,142.6 263.1,151.1 266.3,150.8 269.6,154.4 272.8,156.2 276.1,136.8 279.3,142.5 282.5,137.4 285.8,159.9 289.0,183.9 292.3,167.0 295.5,161.8 298.8,172.0 302.0,169.2 305.2,176.9 308.5,209.9 311.7,200.7 315.0,185.0 318.2,171.0 321.5,185.5 324.7,189.1 327.9,176.9 331.2,156.6 334.4,166.3 337.7,167.3 340.9,171.1 344.2,168.4 347.4,168.0 350.6,167.4 353.9,176.0 357.1,162.1 360.4,151.1 363.6,133.5 366.9,148.0 370.1,140.6 373.4,151.0 376.6,169.8 379.8,187.6 383.1,180.9 386.3,185.4 389.6,169.2 392.8,171.5 396.1,175.3 399.3,171.7 402.5,177.1 405.8,183.8 409.0,157.5 412.3,150.8 415.5,138.3 418.8,126.1 422.0,117.8 425.2,120.1 428.5,134.5 431.7,130.1 435.0,137.3 438.2,155.5 441.5,165.0 444.7,182.2 447.9,178.3 451.2,171.0 454.4,156.0 457.7,136.4 460.9,136.1 464.2,124.1 467.4,124.3 470.6,126.7 473.9,143.6 477.1,139.4 480.4,144.2 483.6,139.4 486.9,146.0 490.1,157.7 493.4,142.5 496.6,138.5 499.8,131.8 503.1,134.5 506.3,159.1 509.6,176.4 512.8,171.3 516.1,171.8 519.3,174.9 522.5,174.9 525.8,179.4 529.0,172.5 532.3,189.1 535.5,204.1 538.8,201.8 542.0,197.3 545.2,199.4 548.5,188.1 551.7,186.8 555.0,181.7 558.2,186.6 561.5,173.7 564.7,165.6 567.9,160.5 571.2,151.0 574.4,166.7 577.7,153.0 580.9,157.8 584.2,143.9 587.4,161.6 590.6,164.7 593.9,196.4 597.1,170.4 600.4,198.2 603.6,240.2 606.9,242.6 610.1,295.5 613.4,285.9 616.6,290.9 619.8,256.4 623.1,235.9 626.3,248.2 629.6,242.3 632.8,240.8 636.1,247.9 639.3,280.7 642.5,275.3 645.8,265.6 649.0,271.6 652.3,276.6 655.5,271.4 658.8,269.1 662.0,261.6 665.2,249.7 668.5,263.5 671.7,253.9 675.0,255.8 678.2,261.8 681.5,257.7 684.7,271.6 687.9,237.0 691.2,224.9 694.4,235.4 697.7,229.7 700.9,227.6 704.2,240.2 707.4,237.5 710.6,225.6 713.9,212.0 717.1,194.8 720.4,201.8 723.6,214.2 726.9,184.6 730.1,199.4 733.4,202.7 736.6,208.0 739.8,202.0 743.1,188.6 746.3,176.8 749.6,157.5 752.8,157.2 756.1,165.7 759.3,179.6 762.5,161.9 765.8,152.4 769.0,163.9 772.3,193.0 775.5,189.2 778.8,191.2 782.0,184.6 785.2,220.1 788.5,228.7 791.7,227.2 795.0,220.1 798.2,218.4 801.5,237.8 804.7,230.1 807.9,214.0 811.2,208.7 814.4,208.4 817.7,212.2 820.9,198.3 824.2,192.4 827.4,226.9 830.6,227.9 833.9,217.2 837.1,227.0 840.4,236.5 843.6,231.4 846.9,240.6 850.1,239.1 853.4,230.6 856.6,226.5 859.8,216.4 863.1,204.7 866.3,215.3 869.6,199.0 872.8,206.1 876.1,207.7 879.3,223.5 882.5,220.8 885.8,212.9 889.0,202.5 892.3,218.4 895.5,225.2 898.8,209.0 902.0,200.3" fill="none" stroke="#d62728" stroke-width="2.2" stroke-linejoin="round" stroke-linecap="round"/>
<text x="62" y="346" font-family="Arial" font-size="11" fill="#68707a">2025-06-03</text>
<text x="834" y="346" font-family="Arial" font-size="11" fill="#68707a">2026-06-03</text>
<text x="792" y="28" font-family="Arial" font-size="12" fill="#d62728">0.78846</text>
</svg>
