<svg xmlns="http://www.w3.org/2000/svg" width="920" height="360" viewBox="0 0 920 360">
<rect width="100%" height="100%" fill="#ffffff"/>
<text x="24" y="26" font-family="Arial" font-size="18" font-weight="700" fill="#101418">USDCHF 6m</text>
<text x="24" y="44" font-family="Arial" font-size="12" fill="#68707a">Forex major; normalized close, start=100, change=-1.8%</text>
<line x1='62' y1='318.0' x2='902' y2='318.0' stroke='#e6e8eb'/><text x='12' y='322.0' font-family='Arial' font-size='11' fill='#68707a'>94.5</text><line x1='62' y1='250.5' x2='902' y2='250.5' stroke='#e6e8eb'/><text x='12' y='254.5' font-family='Arial' font-size='11' fill='#68707a'>96.1</text><line x1='62' y1='183.0' x2='902' y2='183.0' stroke='#e6e8eb'/><text x='12' y='187.0' font-family='Arial' font-size='11' fill='#68707a'>97.8</text><line x1='62' y1='115.5' x2='902' y2='115.5' stroke='#e6e8eb'/><text x='12' y='119.5' font-family='Arial' font-size='11' fill='#68707a'>99.4</text><line x1='62' y1='48.0' x2='902' y2='48.0' stroke='#e6e8eb'/><text x='12' y='52.0' font-family='Arial' font-size='11' fill='#68707a'>101.0</text>
<line x1="62" y1="48" x2="62" y2="318" stroke="#c8cdd2"/>
<line x1="62" y1="318" x2="902" y2="318" stroke="#c8cdd2"/>
<polyline points="62.0,90.1 68.6,106.1 75.1,85.3 81.7,79.8 88.2,70.5 94.8,74.3 101.4,108.1 107.9,131.9 114.5,124.9 121.1,125.6 127.6,129.7 134.2,129.7 140.8,135.9 147.3,126.5 153.9,149.3 160.4,169.9 167.0,166.8 173.6,160.6 180.1,163.4 186.7,147.9 193.2,146.2 199.8,139.1 206.4,145.8 212.9,128.2 219.5,117.1 226.1,110.0 232.6,97.0 239.2,118.6 245.8,99.7 252.3,106.3 258.9,87.2 265.4,111.5 272.0,115.8 278.6,159.3 285.1,123.6 291.7,161.9 298.2,219.5 304.8,222.8 311.4,295.5 317.9,282.3 324.5,289.2 331.1,241.8 337.6,213.6 344.2,230.4 350.8,222.4 357.3,220.4 363.9,230.1 370.4,275.2 377.0,267.7 383.6,254.4 390.1,262.6 396.7,269.5 403.2,262.3 409.8,259.2 416.4,248.9 422.9,232.6 429.5,251.5 436.1,238.4 442.6,241.0 449.2,249.2 455.8,243.5 462.3,262.7 468.9,215.2 475.4,198.5 482.0,212.9 488.6,205.1 495.1,202.2 501.7,219.5 508.2,215.8 514.8,199.5 521.4,180.8 527.9,157.1 534.5,166.8 541.1,183.8 547.6,143.1 554.2,163.4 560.8,168.0 567.3,175.3 573.9,167.0 580.4,148.7 587.0,132.4 593.6,105.9 600.1,105.5 606.7,117.2 613.2,136.2 619.8,112.0 626.4,98.9 632.9,114.7 639.5,154.6 646.1,149.4 652.6,152.2 659.2,143.2 665.8,191.9 672.3,203.8 678.9,201.7 685.4,191.9 692.0,189.5 698.6,216.2 705.1,205.6 711.7,183.5 718.2,176.2 724.8,175.8 731.4,181.1 737.9,161.9 744.5,153.8 751.1,201.2 757.6,202.6 764.2,187.9 770.8,201.3 777.3,214.4 783.9,207.4 790.4,220.0 797.0,218.0 803.6,206.4 810.1,200.7 816.7,186.8 823.2,170.7 829.8,185.3 836.4,162.9 842.9,172.6 849.5,174.8 856.1,196.6 862.6,192.8 869.2,182.0 875.8,167.8 882.3,189.5 888.9,198.8 895.4,176.7 902.0,164.7" fill="none" stroke="#d62728" stroke-width="2.2" stroke-linejoin="round" stroke-linecap="round"/>
<text x="62" y="346" font-family="Arial" font-size="11" fill="#68707a">2025-12-03</text>
<text x="834" y="346" font-family="Arial" font-size="11" fill="#68707a">2026-06-03</text>
<text x="792" y="28" font-family="Arial" font-size="12" fill="#d62728">0.78846</text>
</svg>
