<svg xmlns="http://www.w3.org/2000/svg" width="920" height="360" viewBox="0 0 920 360">
<rect width="100%" height="100%" fill="#ffffff"/>
<text x="24" y="26" font-family="Arial" font-size="18" font-weight="700" fill="#101418">USDCAD 12m</text>
<text x="24" y="44" font-family="Arial" font-size="12" fill="#68707a">Forex major; normalized close, start=100, change=+1.0%</text>
<line x1='62' y1='318.0' x2='902' y2='318.0' stroke='#e6e8eb'/><text x='12' y='322.0' font-family='Arial' font-size='11' fill='#68707a'>97.9</text><line x1='62' y1='250.5' x2='902' y2='250.5' stroke='#e6e8eb'/><text x='12' y='254.5' font-family='Arial' font-size='11' fill='#68707a'>99.3</text><line x1='62' y1='183.0' x2='902' y2='183.0' stroke='#e6e8eb'/><text x='12' y='187.0' font-family='Arial' font-size='11' fill='#68707a'>100.7</text><line x1='62' y1='115.5' x2='902' y2='115.5' stroke='#e6e8eb'/><text x='12' y='119.5' font-family='Arial' font-size='11' fill='#68707a'>102.0</text><line x1='62' y1='48.0' x2='902' y2='48.0' stroke='#e6e8eb'/><text x='12' y='52.0' font-family='Arial' font-size='11' fill='#68707a'>103.4</text>
<line x1="62" y1="48" x2="62" y2="318" stroke="#c8cdd2"/>
<line x1="62" y1="318" x2="902" y2="318" stroke="#c8cdd2"/>
<polyline points="62.0,215.5 65.2,214.0 68.5,226.8 71.7,231.2 75.0,222.7 78.2,219.7 81.5,230.7 84.7,231.6 87.9,256.3 91.2,260.7 94.4,264.1 97.7,225.2 100.9,220.8 104.2,221.0 107.4,205.3 110.6,209.1 113.9,209.9 117.1,215.1 120.4,239.6 123.6,226.0 126.9,253.1 130.1,239.2 133.4,259.6 136.6,264.7 139.8,253.8 143.1,231.7 146.3,230.6 149.6,225.1 152.8,234.9 156.1,225.1 159.3,217.7 162.5,213.5 165.8,223.2 169.0,206.5 172.3,210.8 175.5,228.0 178.8,253.5 182.0,254.5 185.2,240.5 188.5,218.6 191.7,207.1 195.0,193.0 198.2,174.7 201.5,163.3 204.7,191.4 207.9,195.1 211.2,194.1 214.4,205.4 217.7,207.8 220.9,200.6 224.2,193.1 227.4,194.5 230.6,200.8 233.9,179.0 237.1,178.3 240.4,182.9 243.6,160.1 246.9,157.7 250.1,147.9 253.4,173.4 256.6,162.5 259.8,171.8 263.1,190.3 266.3,201.6 269.6,205.7 272.8,202.4 276.1,189.2 279.3,186.1 282.5,178.3 285.8,171.5 289.0,185.5 292.3,167.1 295.5,162.1 298.8,171.7 302.0,169.8 305.2,193.0 308.5,205.5 311.7,194.4 315.0,186.6 318.2,190.1 321.5,174.8 324.7,169.7 327.9,149.4 331.2,133.4 334.4,134.4 337.7,142.2 340.9,139.6 344.2,133.9 347.4,126.3 350.6,124.8 353.9,131.6 357.1,129.2 360.4,128.5 363.6,105.6 366.9,112.9 370.1,98.4 373.4,96.3 376.6,95.9 379.8,95.9 383.1,106.7 386.3,100.6 389.6,105.2 392.8,116.3 396.1,117.1 399.3,114.7 402.5,115.4 405.8,134.1 409.0,133.3 412.3,119.1 415.5,106.8 418.8,92.6 422.0,76.3 425.2,75.8 428.5,72.5 431.7,96.7 435.0,103.2 438.2,106.7 441.5,109.0 444.7,99.7 447.9,105.8 451.2,94.3 454.4,117.6 457.7,97.2 460.9,79.8 464.2,78.6 467.4,73.5 470.6,75.9 473.9,98.2 477.1,103.1 480.4,123.3 483.6,112.3 486.9,123.2 490.1,129.1 493.4,126.7 496.6,171.3 499.8,166.2 503.1,167.4 506.3,187.5 509.6,192.3 512.8,195.2 516.1,194.7 519.3,199.3 522.5,189.5 525.8,191.9 529.0,187.1 532.3,202.0 535.5,224.5 538.8,229.3 542.0,230.7 545.2,223.9 548.5,221.2 551.7,213.6 555.0,202.7 558.2,193.5 561.5,178.1 564.7,163.0 567.9,160.8 571.2,143.0 574.4,156.7 577.7,152.8 580.9,153.5 584.2,152.1 587.4,148.2 590.6,157.3 593.9,171.9 597.1,168.3 600.4,189.3 603.6,218.7 606.9,215.1 610.1,258.1 613.4,277.2 616.6,293.5 619.8,242.3 623.1,228.7 626.3,241.0 629.6,230.3 632.8,215.0 636.1,234.0 639.3,268.5 642.5,272.1 645.8,263.8 649.0,251.2 652.3,248.6 655.5,242.1 658.8,241.6 662.0,220.7 665.2,224.1 668.5,237.7 671.7,221.6 675.0,219.2 678.2,228.0 681.5,228.0 684.7,230.6 687.9,229.7 691.2,228.6 694.4,239.3 697.7,230.1 700.9,254.3 704.2,259.5 707.4,261.1 710.6,254.4 713.9,243.4 717.1,215.2 720.4,225.1 723.6,223.1 726.9,208.9 730.1,206.6 733.4,215.9 736.6,208.4 739.8,198.9 743.1,178.6 746.3,165.2 749.6,148.2 752.8,137.9 756.1,147.0 759.3,156.4 762.5,141.9 765.8,131.7 769.0,143.9 772.3,168.7 775.5,165.7 778.8,175.6 782.0,157.7 785.2,189.0 788.5,195.8 791.7,208.2 795.0,219.2 798.2,217.6 801.5,239.3 804.7,234.5 807.9,230.2 811.2,219.9 814.4,227.9 817.7,247.4 820.9,226.8 824.2,229.6 827.4,262.3 830.6,259.3 833.9,247.5 837.1,253.8 840.4,241.9 843.6,233.4 846.9,225.4 850.1,227.1 853.4,220.3 856.6,217.7 859.8,210.9 863.1,197.5 866.3,205.5 869.6,202.5 872.8,202.3 876.1,192.3 879.3,182.9 882.5,182.2 885.8,180.9 889.0,168.3 892.3,189.8 895.5,185.0 898.8,169.7 902.0,166.6" fill="none" stroke="#1f77b4" stroke-width="2.2" stroke-linejoin="round" stroke-linecap="round"/>
<text x="62" y="346" font-family="Arial" font-size="11" fill="#68707a">2025-06-03</text>
<text x="834" y="346" font-family="Arial" font-size="11" fill="#68707a">2026-06-03</text>
<text x="792" y="28" font-family="Arial" font-size="12" fill="#1f77b4">1.3848</text>
</svg>
