<svg xmlns="http://www.w3.org/2000/svg" width="920" height="360" viewBox="0 0 920 360">
<rect width="100%" height="100%" fill="#ffffff"/>
<text x="24" y="26" font-family="Arial" font-size="18" font-weight="700" fill="#101418">USDJPY 12m</text>
<text x="24" y="44" font-family="Arial" font-size="12" fill="#68707a">Forex major; normalized close, start=100, change=+12.2%</text>
<line x1='62' y1='318.0' x2='902' y2='318.0' stroke='#e6e8eb'/><text x='12' y='322.0' font-family='Arial' font-size='11' fill='#68707a'>98.8</text><line x1='62' y1='250.5' x2='902' y2='250.5' stroke='#e6e8eb'/><text x='12' y='254.5' font-family='Arial' font-size='11' fill='#68707a'>102.5</text><line x1='62' y1='183.0' x2='902' y2='183.0' stroke='#e6e8eb'/><text x='12' y='187.0' font-family='Arial' font-size='11' fill='#68707a'>106.2</text><line x1='62' y1='115.5' x2='902' y2='115.5' stroke='#e6e8eb'/><text x='12' y='119.5' font-family='Arial' font-size='11' fill='#68707a'>110.0</text><line x1='62' y1='48.0' x2='902' y2='48.0' stroke='#e6e8eb'/><text x='12' y='52.0' font-family='Arial' font-size='11' fill='#68707a'>113.7</text>
<line x1="62" y1="48" x2="62" y2="318" stroke="#c8cdd2"/>
<line x1="62" y1="318" x2="902" y2="318" stroke="#c8cdd2"/>
<polyline points="62.0,295.5 65.2,278.0 68.5,292.0 71.7,281.7 75.0,267.2 78.2,269.1 81.5,265.3 84.7,273.3 87.9,286.1 91.2,274.8 94.4,266.7 97.7,258.5 100.9,263.8 104.2,260.5 107.4,247.8 110.6,251.5 113.9,263.8 117.1,264.5 120.4,267.1 123.6,269.4 126.9,278.4 130.1,283.5 133.4,281.9 136.6,267.3 139.8,269.6 143.1,252.0 146.3,239.9 149.6,249.2 152.8,247.0 156.1,234.2 159.3,227.9 162.5,215.7 165.8,225.3 169.0,219.7 172.3,219.8 175.5,232.8 178.8,240.7 182.0,246.2 185.2,237.9 188.5,227.7 191.7,219.2 195.0,219.7 198.2,209.8 201.5,190.2 204.7,233.6 207.9,240.6 211.2,230.9 214.4,235.5 217.7,240.0 220.9,229.6 224.2,223.7 227.4,228.4 230.6,236.4 233.9,229.2 237.1,234.6 240.4,226.4 243.6,228.7 246.9,233.9 250.1,220.4 253.4,235.2 256.6,227.6 259.8,232.1 263.1,234.0 266.3,240.6 269.6,236.7 272.8,236.9 276.1,218.4 279.3,225.6 282.5,220.6 285.8,220.9 289.0,233.3 292.3,233.0 295.5,233.8 298.8,235.1 302.0,229.5 305.2,232.8 308.5,245.4 311.7,239.3 315.0,226.0 318.2,224.1 321.5,228.8 324.7,230.2 327.9,215.8 331.2,201.8 334.4,207.5 337.7,217.8 340.9,225.3 344.2,236.9 347.4,236.1 350.6,205.0 353.9,195.8 357.1,174.0 360.4,166.1 363.6,162.5 366.9,174.0 370.1,169.2 373.4,178.1 376.6,187.7 379.8,198.5 383.1,188.6 386.3,190.2 389.6,176.0 392.8,175.3 396.1,167.1 399.3,161.3 402.5,165.9 405.8,178.1 409.0,165.6 412.3,150.6 415.5,146.9 418.8,146.8 422.0,155.0 425.2,148.5 428.5,162.7 431.7,151.7 435.0,147.5 438.2,148.4 441.5,140.4 444.7,141.4 447.9,142.0 451.2,133.3 454.4,129.8 457.7,111.5 460.9,106.8 464.2,115.4 467.4,112.2 470.6,121.2 473.9,121.0 477.1,120.5 480.4,125.0 483.6,129.7 486.9,126.5 490.1,135.4 493.4,134.9 496.6,132.4 499.8,126.0 503.1,113.5 506.3,126.7 509.6,129.6 512.8,125.5 516.1,136.5 519.3,139.5 522.5,130.5 525.8,129.3 529.0,102.9 532.3,113.0 535.5,121.8 538.8,122.9 542.0,118.2 545.2,123.9 548.5,118.8 551.7,114.8 555.0,111.6 558.2,116.2 561.5,115.5 564.7,114.8 567.9,112.9 571.2,96.9 574.4,98.9 577.7,83.8 580.9,93.7 584.2,91.2 587.4,104.7 590.6,96.5 593.9,96.7 597.1,93.0 600.4,92.4 603.6,134.6 606.9,145.1 610.1,169.0 613.4,160.8 616.6,160.0 619.8,134.2 623.1,131.1 626.3,126.6 629.6,112.5 632.8,114.2 636.1,108.3 639.3,122.4 642.5,143.3 645.8,158.6 649.0,164.3 652.3,164.8 655.5,154.3 658.8,160.1 662.0,140.6 665.2,134.7 668.5,145.1 671.7,141.3 675.0,125.6 678.2,121.5 681.5,125.9 684.7,116.1 687.9,108.2 691.2,101.6 694.4,111.6 697.7,104.7 700.9,93.4 704.2,100.7 707.4,97.3 710.6,85.2 713.9,83.5 717.1,78.9 720.4,84.8 723.6,87.5 726.9,76.1 730.1,99.7 733.4,83.2 736.6,92.7 739.8,89.7 743.1,81.3 746.3,77.2 749.6,70.5 752.8,75.5 756.1,91.4 759.3,90.1 762.5,79.9 765.8,76.2 769.0,77.5 772.3,89.7 775.5,90.6 778.8,84.7 782.0,77.5 785.2,83.4 788.5,88.7 791.7,88.5 795.0,83.6 798.2,84.1 801.5,88.1 804.7,81.4 807.9,79.9 811.2,76.7 814.4,78.8 817.7,81.6 820.9,79.1 824.2,71.1 827.4,111.7 830.6,113.4 833.9,109.0 837.1,102.9 840.4,117.6 843.6,113.6 846.9,113.2 850.1,108.5 853.4,102.9 856.6,100.7 859.8,93.9 863.1,88.1 866.3,87.9 869.6,85.7 872.8,87.5 876.1,85.9 879.3,86.8 882.5,86.7 885.8,83.0 889.0,78.9 892.3,82.7 895.5,81.6 898.8,78.1 902.0,74.9" fill="none" stroke="#1f77b4" stroke-width="2.2" stroke-linejoin="round" stroke-linecap="round"/>
<text x="62" y="346" font-family="Arial" font-size="11" fill="#68707a">2025-06-03</text>
<text x="834" y="346" font-family="Arial" font-size="11" fill="#68707a">2026-06-03</text>
<text x="792" y="28" font-family="Arial" font-size="12" fill="#1f77b4">159.88</text>
</svg>
