<svg xmlns="http://www.w3.org/2000/svg" width="920" height="360" viewBox="0 0 920 360">
<rect width="100%" height="100%" fill="#ffffff"/>
<text x="24" y="26" font-family="Arial" font-size="18" font-weight="700" fill="#101418">USDJPY 6m</text>
<text x="24" y="44" font-family="Arial" font-size="12" fill="#68707a">Forex major; normalized close, start=100, change=+2.6%</text>
<line x1='62' y1='318.0' x2='902' y2='318.0' stroke='#e6e8eb'/><text x='12' y='322.0' font-family='Arial' font-size='11' fill='#68707a'>97.3</text><line x1='62' y1='250.5' x2='902' y2='250.5' stroke='#e6e8eb'/><text x='12' y='254.5' font-family='Arial' font-size='11' fill='#68707a'>98.8</text><line x1='62' y1='183.0' x2='902' y2='183.0' stroke='#e6e8eb'/><text x='12' y='187.0' font-family='Arial' font-size='11' fill='#68707a'>100.3</text><line x1='62' y1='115.5' x2='902' y2='115.5' stroke='#e6e8eb'/><text x='12' y='119.5' font-family='Arial' font-size='11' fill='#68707a'>101.8</text><line x1='62' y1='48.0' x2='902' y2='48.0' stroke='#e6e8eb'/><text x='12' y='52.0' font-family='Arial' font-size='11' fill='#68707a'>103.3</text>
<line x1="62" y1="48" x2="62" y2="318" stroke="#c8cdd2"/>
<line x1="62" y1="318" x2="902" y2="318" stroke="#c8cdd2"/>
<polyline points="62.0,198.5 68.6,218.7 75.1,217.7 81.7,212.0 88.2,197.4 94.8,168.7 101.4,199.0 107.9,205.4 114.5,196.2 121.1,221.4 127.6,228.3 134.2,207.5 140.8,204.9 147.3,144.5 153.9,167.6 160.4,187.8 167.0,190.3 173.6,179.5 180.1,192.6 186.7,181.0 193.2,171.8 199.8,164.3 206.4,174.8 212.9,173.3 219.5,171.8 226.1,167.5 232.6,130.8 239.2,135.5 245.8,101.0 252.3,123.5 258.9,117.9 265.4,148.6 272.0,130.0 278.6,130.4 285.1,121.9 291.7,120.6 298.2,217.0 304.8,241.0 311.4,295.5 317.9,276.9 324.5,275.0 331.1,216.0 337.6,209.0 344.2,198.7 350.8,166.4 357.3,170.3 363.9,157.0 370.4,189.1 377.0,236.8 383.6,271.9 390.1,284.8 396.7,286.1 403.2,262.1 409.8,275.4 416.4,230.7 422.9,217.2 429.5,241.0 436.1,232.4 442.6,196.4 449.2,187.1 455.8,197.0 462.3,174.6 468.9,156.6 475.4,141.7 482.0,164.5 488.6,148.6 495.1,122.8 501.7,139.5 508.2,131.8 514.8,104.0 521.4,100.2 527.9,89.8 534.5,103.2 541.1,109.4 547.6,83.2 554.2,137.3 560.8,99.4 567.3,121.3 573.9,114.4 580.4,95.1 587.0,85.8 593.6,70.5 600.1,81.9 606.7,118.4 613.2,115.2 619.8,92.0 626.4,83.6 632.9,86.5 639.5,114.4 646.1,116.5 652.6,103.0 659.2,86.5 665.8,100.0 672.3,112.2 678.9,111.7 685.4,100.6 692.0,101.5 698.6,110.7 705.1,95.4 711.7,92.1 718.2,84.6 724.8,89.5 731.4,95.9 737.9,90.2 744.5,72.0 751.1,164.7 757.6,168.5 764.2,158.4 770.8,144.4 777.3,178.2 783.9,169.0 790.4,168.1 797.0,157.3 803.6,144.6 810.1,139.4 816.7,124.1 823.2,110.7 829.8,110.2 836.4,105.2 842.9,109.4 849.5,105.7 856.1,107.8 862.6,107.5 869.2,99.2 875.8,89.8 882.3,98.4 888.9,96.0 895.4,87.8 902.0,80.7" fill="none" stroke="#1f77b4" stroke-width="2.2" stroke-linejoin="round" stroke-linecap="round"/>
<text x="62" y="346" font-family="Arial" font-size="11" fill="#68707a">2025-12-03</text>
<text x="834" y="346" font-family="Arial" font-size="11" fill="#68707a">2026-06-03</text>
<text x="792" y="28" font-family="Arial" font-size="12" fill="#1f77b4">159.88</text>
</svg>
