<svg xmlns="http://www.w3.org/2000/svg" width="920" height="360" viewBox="0 0 920 360">
<rect width="100%" height="100%" fill="#ffffff"/>
<text x="24" y="26" font-family="Arial" font-size="18" font-weight="700" fill="#101418">.USTEC 12m</text>
<text x="24" y="44" font-family="Arial" font-size="12" fill="#68707a">Index; normalized close, start=100, change=+42.7%</text>
<line x1='62' y1='318.0' x2='902' y2='318.0' stroke='#e6e8eb'/><text x='12' y='322.0' font-family='Arial' font-size='11' fill='#68707a'>95.7</text><line x1='62' y1='250.5' x2='902' y2='250.5' stroke='#e6e8eb'/><text x='12' y='254.5' font-family='Arial' font-size='11' fill='#68707a'>108.5</text><line x1='62' y1='183.0' x2='902' y2='183.0' stroke='#e6e8eb'/><text x='12' y='187.0' font-family='Arial' font-size='11' fill='#68707a'>121.3</text><line x1='62' y1='115.5' x2='902' y2='115.5' stroke='#e6e8eb'/><text x='12' y='119.5' font-family='Arial' font-size='11' fill='#68707a'>134.1</text><line x1='62' y1='48.0' x2='902' y2='48.0' stroke='#e6e8eb'/><text x='12' y='52.0' font-family='Arial' font-size='11' fill='#68707a'>146.9</text>
<line x1="62" y1="48" x2="62" y2="318" stroke="#c8cdd2"/>
<line x1="62" y1="318" x2="902" y2="318" stroke="#c8cdd2"/>
<polyline points="62.0,295.5 65.3,291.3 68.7,289.9 72.0,294.1 75.4,288.9 78.7,288.0 82.1,284.5 85.4,286.4 88.8,285.2 92.1,292.1 95.5,284.6 98.8,289.9 102.2,289.9 105.5,292.2 108.9,286.6 112.2,278.4 115.5,277.2 118.9,272.1 122.2,269.9 125.6,266.4 128.9,271.3 132.3,267.3 135.6,261.8 139.0,266.2 142.3,265.8 145.7,261.8 149.0,262.7 152.4,263.9 155.7,262.0 159.1,261.3 162.4,260.7 165.7,256.5 169.1,256.9 172.4,254.1 175.8,256.9 179.1,254.5 182.5,253.1 185.8,251.8 189.2,249.7 192.5,250.9 195.9,250.0 199.2,253.1 202.6,264.3 205.9,253.9 209.3,258.0 212.6,250.8 215.9,248.9 219.3,243.5 222.6,245.6 226.0,237.9 229.3,237.7 232.7,238.1 236.0,241.0 239.4,241.0 242.7,249.0 246.1,252.4 249.4,255.0 252.8,246.3 256.1,248.0 259.5,245.6 262.8,244.6 266.1,241.2 269.5,248.3 272.8,252.8 276.2,248.3 279.5,243.0 282.9,242.5 286.2,239.8 289.6,237.9 292.9,237.6 296.3,234.1 299.6,231.7 303.0,226.7 306.3,227.2 309.6,228.5 313.0,222.8 316.3,218.6 319.7,215.3 323.0,219.7 326.4,221.6 329.7,224.2 333.1,221.6 336.4,218.9 339.8,217.3 343.1,214.3 346.5,212.0 349.8,214.7 353.2,209.9 356.5,213.3 359.8,206.1 363.2,207.0 366.5,228.5 369.9,215.5 373.2,219.7 376.6,215.7 379.9,217.8 383.3,213.9 386.6,205.9 390.0,206.3 393.3,212.4 396.7,207.0 400.0,200.6 403.4,189.2 406.7,184.6 410.0,181.9 413.4,191.4 416.7,188.4 420.1,185.5 423.4,198.7 426.8,194.2 430.1,206.2 433.5,207.9 436.8,194.4 440.2,196.3 443.5,196.7 446.9,209.6 450.2,209.2 453.6,214.3 456.9,221.6 460.2,218.2 463.6,232.6 466.9,228.1 470.3,212.5 473.6,209.0 477.0,203.6 480.3,198.7 483.7,201.0 487.0,195.8 490.4,194.5 493.7,195.1 497.1,192.4 500.4,194.0 503.8,193.0 507.1,190.4 510.4,192.6 513.8,204.6 517.1,207.8 520.5,206.1 523.8,218.1 527.2,208.9 530.5,200.9 533.9,198.1 537.2,195.0 540.6,193.3 543.9,193.6 547.3,196.5 550.6,198.1 554.0,203.3 557.3,204.3 560.6,199.6 564.0,193.7 567.3,193.4 570.7,197.0 574.0,190.6 577.4,190.1 580.7,191.2 584.1,198.0 587.4,196.0 590.8,196.4 594.1,209.7 597.5,201.4 600.8,196.7 604.2,194.6 607.5,191.9 610.8,186.3 614.2,184.3 617.5,187.7 620.9,195.9 624.2,191.3 627.6,201.1 630.9,212.1 634.3,220.5 637.6,207.5 641.0,202.8 644.3,206.3 647.7,204.5 651.0,217.1 654.4,216.0 657.7,216.7 661.0,211.9 664.4,214.4 667.7,209.1 671.1,216.6 674.4,210.0 677.8,201.3 681.1,208.6 684.5,210.4 687.8,209.6 691.2,216.3 694.5,207.1 697.9,208.9 701.2,218.2 704.5,210.2 707.9,210.5 711.2,210.3 714.6,220.9 717.9,224.6 721.3,217.9 724.6,214.8 728.0,223.5 731.3,225.2 734.7,236.4 738.0,229.3 741.4,233.9 744.7,229.9 748.1,244.1 751.4,255.2 754.7,259.6 758.1,240.3 761.4,233.5 764.8,232.8 768.1,229.2 771.5,229.0 774.8,211.8 778.2,207.4 781.5,206.6 784.9,200.0 788.2,188.7 791.6,179.8 794.9,176.7 798.3,168.4 801.6,170.4 804.9,173.1 808.3,161.9 811.6,165.7 815.0,152.9 818.3,152.8 821.7,159.6 825.0,155.7 828.4,149.2 831.7,142.9 835.1,144.3 838.4,135.4 841.8,121.1 845.1,122.0 848.5,105.5 851.8,103.4 855.1,109.7 858.5,102.2 861.8,97.0 865.2,108.2 868.5,111.4 871.9,115.7 875.2,103.9 878.6,102.5 881.9,99.4 885.3,86.7 888.6,87.4 892.0,81.2 895.3,78.5 898.7,74.1 902.0,70.5" fill="none" stroke="#1f77b4" stroke-width="2.2" stroke-linejoin="round" stroke-linecap="round"/>
<text x="62" y="346" font-family="Arial" font-size="11" fill="#68707a">2025-06-02</text>
<text x="834" y="346" font-family="Arial" font-size="11" fill="#68707a">2026-06-02</text>
<text x="792" y="28" font-family="Arial" font-size="12" fill="#1f77b4">30661</text>
</svg>
