<svg xmlns="http://www.w3.org/2000/svg" width="920" height="360" viewBox="0 0 920 360">
<rect width="100%" height="100%" fill="#ffffff"/>
<text x="24" y="26" font-family="Arial" font-size="18" font-weight="700" fill="#101418">.USTEC 6m</text>
<text x="24" y="44" font-family="Arial" font-size="12" fill="#68707a">Index; normalized close, start=100, change=+20.0%</text>
<line x1='62' y1='318.0' x2='902' y2='318.0' stroke='#e6e8eb'/><text x='12' y='322.0' font-family='Arial' font-size='11' fill='#68707a'>86.8</text><line x1='62' y1='250.5' x2='902' y2='250.5' stroke='#e6e8eb'/><text x='12' y='254.5' font-family='Arial' font-size='11' fill='#68707a'>95.8</text><line x1='62' y1='183.0' x2='902' y2='183.0' stroke='#e6e8eb'/><text x='12' y='187.0' font-family='Arial' font-size='11' fill='#68707a'>104.9</text><line x1='62' y1='115.5' x2='902' y2='115.5' stroke='#e6e8eb'/><text x='12' y='119.5' font-family='Arial' font-size='11' fill='#68707a'>113.9</text><line x1='62' y1='48.0' x2='902' y2='48.0' stroke='#e6e8eb'/><text x='12' y='52.0' font-family='Arial' font-size='11' fill='#68707a'>123.0</text>
<line x1="62" y1="48" x2="62" y2="318" stroke="#c8cdd2"/>
<line x1="62" y1="318" x2="902" y2="318" stroke="#c8cdd2"/>
<polyline points="62.0,219.5 68.8,218.0 75.5,218.8 82.3,215.5 89.1,217.4 95.9,216.2 102.6,213.1 109.4,215.7 116.2,230.0 123.0,233.8 129.7,231.9 136.5,246.0 143.3,235.2 150.1,225.6 156.8,222.3 163.6,218.6 170.4,216.6 177.2,216.9 183.9,220.4 190.7,222.2 197.5,228.5 204.3,229.7 211.0,224.0 217.8,217.1 224.6,216.7 231.4,220.9 238.1,213.4 244.9,212.8 251.7,214.1 258.5,222.1 265.2,219.8 272.0,220.3 278.8,236.1 285.5,226.2 292.3,220.6 299.1,218.1 305.9,214.9 312.6,208.3 319.4,205.9 326.2,209.9 333.0,219.6 339.7,214.2 346.5,225.9 353.3,238.9 360.1,248.9 366.8,233.5 373.6,227.9 380.4,232.0 387.2,229.9 393.9,244.9 400.7,243.6 407.5,244.5 414.3,238.7 421.0,241.7 427.8,235.4 434.6,244.2 441.4,236.4 448.1,226.1 454.9,234.7 461.7,236.9 468.5,236.0 475.2,243.9 482.0,233.0 488.8,235.2 495.5,246.2 502.3,236.7 509.1,237.0 515.9,236.8 522.6,249.4 529.4,253.8 536.2,245.8 543.0,242.2 549.7,252.5 556.5,254.6 563.3,267.9 570.1,259.4 576.8,264.9 583.6,260.2 590.4,277.0 597.2,290.3 603.9,295.5 610.7,272.5 617.5,264.4 624.3,263.6 631.0,259.3 637.8,259.0 644.6,238.6 651.4,233.4 658.1,232.4 664.9,224.6 671.7,211.2 678.5,200.6 685.2,196.8 692.0,186.9 698.8,189.3 705.5,192.6 712.3,179.2 719.1,183.7 725.9,168.5 732.6,168.4 739.4,176.5 746.2,171.9 753.0,164.2 759.7,156.6 766.5,158.3 773.3,147.7 780.1,130.7 786.8,131.7 793.6,112.1 800.4,109.6 807.2,117.1 813.9,108.3 820.7,102.0 827.5,115.3 834.3,119.1 841.0,124.3 847.8,110.3 854.6,108.5 861.4,104.9 868.1,89.7 874.9,90.6 881.7,83.2 888.5,80.1 895.2,74.8 902.0,70.5" fill="none" stroke="#1f77b4" stroke-width="2.2" stroke-linejoin="round" stroke-linecap="round"/>
<text x="62" y="346" font-family="Arial" font-size="11" fill="#68707a">2025-12-02</text>
<text x="834" y="346" font-family="Arial" font-size="11" fill="#68707a">2026-06-02</text>
<text x="792" y="28" font-family="Arial" font-size="12" fill="#1f77b4">30661</text>
</svg>
