<svg xmlns="http://www.w3.org/2000/svg" width="920" height="360" viewBox="0 0 920 360">
<rect width="100%" height="100%" fill="#ffffff"/>
<text x="24" y="26" font-family="Arial" font-size="18" font-weight="700" fill="#101418">WTI 12m</text>
<text x="24" y="44" font-family="Arial" font-size="12" fill="#68707a">Energy; normalized close, start=100, change=+49.7%</text>
<line x1='62' y1='318.0' x2='902' y2='318.0' stroke='#e6e8eb'/><text x='12' y='322.0' font-family='Arial' font-size='11' fill='#68707a'>78.1</text><line x1='62' y1='250.5' x2='902' y2='250.5' stroke='#e6e8eb'/><text x='12' y='254.5' font-family='Arial' font-size='11' fill='#68707a'>105.4</text><line x1='62' y1='183.0' x2='902' y2='183.0' stroke='#e6e8eb'/><text x='12' y='187.0' font-family='Arial' font-size='11' fill='#68707a'>132.6</text><line x1='62' y1='115.5' x2='902' y2='115.5' stroke='#e6e8eb'/><text x='12' y='119.5' font-family='Arial' font-size='11' fill='#68707a'>159.9</text><line x1='62' y1='48.0' x2='902' y2='48.0' stroke='#e6e8eb'/><text x='12' y='52.0' font-family='Arial' font-size='11' fill='#68707a'>187.2</text>
<line x1="62" y1="48" x2="62" y2="318" stroke="#c8cdd2"/>
<line x1="62" y1="318" x2="902" y2="318" stroke="#c8cdd2"/>
<polyline points="62.0,263.7 65.3,265.9 68.7,263.9 72.0,259.2 75.3,256.4 78.7,257.6 82.0,245.3 85.3,245.7 88.7,226.4 92.0,231.1 95.3,219.2 98.7,218.0 102.0,218.8 105.3,243.9 108.7,260.0 112.0,257.9 115.3,256.6 118.7,255.5 122.0,257.1 125.3,255.8 128.7,248.0 132.0,249.7 135.3,251.7 138.7,246.1 142.0,244.6 145.3,244.4 148.7,251.4 152.0,244.1 155.3,249.8 158.7,251.6 162.0,252.2 165.3,247.6 168.7,248.4 172.0,249.0 175.3,252.8 178.7,256.6 182.0,253.5 185.3,256.9 188.7,250.9 192.0,241.1 195.3,238.0 198.7,240.9 202.0,248.5 205.3,252.5 208.7,256.9 212.0,260.1 215.3,261.9 218.7,261.9 222.0,261.6 225.3,264.7 228.7,266.7 232.0,261.6 235.3,266.1 238.7,263.7 242.0,267.9 245.3,264.5 248.7,263.3 252.0,262.8 255.3,258.3 258.7,264.4 262.0,260.9 265.3,259.1 268.7,261.4 272.0,255.2 275.3,261.6 278.7,263.5 282.0,269.8 285.3,268.2 288.7,266.8 292.0,262.7 295.3,267.8 298.7,266.6 302.0,264.2 305.3,259.4 308.7,261.3 312.0,263.1 315.3,266.6 318.7,266.8 322.0,263.7 325.3,257.6 328.7,257.6 332.0,254.7 335.3,263.6 338.7,267.8 342.0,270.1 345.3,275.2 348.7,273.6 352.0,270.5 355.3,270.3 358.7,267.1 362.0,271.2 365.3,281.3 368.7,279.0 372.0,282.1 375.3,283.8 378.7,287.0 382.0,286.6 385.3,286.7 388.7,285.6 392.0,282.9 395.3,270.1 398.7,271.2 402.0,271.9 405.3,276.5 408.7,275.2 412.0,274.8 415.3,273.2 418.7,273.0 422.0,274.9 425.3,278.6 428.7,279.3 432.0,278.0 435.3,276.5 438.7,273.0 442.0,282.9 445.3,282.2 448.7,276.7 452.0,277.4 455.3,274.2 458.7,279.2 462.0,280.4 465.3,284.6 468.7,281.6 472.0,285.0 475.3,282.3 478.7,282.7 482.0,279.7 485.3,282.4 488.7,281.1 492.0,278.3 495.3,276.7 498.7,281.4 502.0,283.9 505.3,283.1 508.7,286.4 512.0,287.0 515.3,289.5 518.7,295.5 522.0,292.9 525.3,292.1 528.7,290.1 532.0,284.8 535.3,283.4 538.7,283.5 542.0,289.8 545.3,284.5 548.7,285.0 552.0,287.1 555.3,287.5 558.7,283.6 562.0,288.2 565.3,292.7 568.7,285.8 572.0,280.5 575.3,279.0 578.7,272.6 582.0,269.2 585.3,280.2 588.7,279.2 592.0,275.7 595.3,274.6 598.7,279.5 602.0,272.9 605.3,274.6 608.7,267.7 612.0,264.5 615.3,255.9 618.7,256.7 622.0,268.7 625.3,264.5 628.7,257.0 632.0,264.2 635.3,263.2 638.7,260.0 642.0,261.6 645.3,259.0 648.7,266.0 652.0,265.8 655.3,268.0 658.7,256.8 662.0,252.0 665.3,252.1 668.7,252.4 672.0,255.1 675.3,255.9 678.7,256.7 682.0,249.7 685.3,233.2 688.7,220.3 692.0,219.9 695.3,195.1 698.7,156.5 702.0,141.4 705.3,185.6 708.7,170.8 712.0,137.7 715.3,126.0 718.7,146.4 722.0,135.8 725.3,135.4 728.7,136.1 732.0,127.6 735.3,167.3 738.7,150.9 742.0,158.8 745.3,142.5 748.7,122.4 752.0,109.8 755.3,115.6 758.7,120.5 762.0,76.0 765.3,72.6 768.7,70.5 772.0,142.8 775.3,129.3 778.7,134.4 782.0,124.6 785.3,155.0 788.7,155.0 792.0,141.7 795.3,184.0 798.7,161.5 802.0,151.7 805.3,148.5 808.7,137.2 812.0,142.9 815.3,135.2 818.7,121.3 822.0,94.2 825.3,101.2 828.7,113.4 832.0,96.0 835.3,112.2 838.7,140.2 842.0,141.3 845.3,138.9 848.7,128.5 852.0,112.5 855.3,117.0 858.7,116.5 862.0,99.9 865.3,87.2 868.7,90.7 872.0,127.8 875.3,135.3 878.7,134.3 882.0,144.8 885.3,165.2 888.7,164.3 892.0,170.3 895.3,151.6 898.7,145.4 902.0,140.9" fill="none" stroke="#1f77b4" stroke-width="2.2" stroke-linejoin="round" stroke-linecap="round"/>
<text x="62" y="346" font-family="Arial" font-size="11" fill="#68707a">2025-06-03</text>
<text x="834" y="346" font-family="Arial" font-size="11" fill="#68707a">2026-06-03</text>
<text x="792" y="28" font-family="Arial" font-size="12" fill="#1f77b4">94.91</text>
</svg>
