<svg xmlns="http://www.w3.org/2000/svg" width="920" height="360" viewBox="0 0 920 360">
<rect width="100%" height="100%" fill="#ffffff"/>
<text x="24" y="26" font-family="Arial" font-size="18" font-weight="700" fill="#101418">WTI 6m</text>
<text x="24" y="44" font-family="Arial" font-size="12" fill="#68707a">Energy; normalized close, start=100, change=+61.0%</text>
<line x1='62' y1='318.0' x2='902' y2='318.0' stroke='#e6e8eb'/><text x='12' y='322.0' font-family='Arial' font-size='11' fill='#68707a'>84.0</text><line x1='62' y1='250.5' x2='902' y2='250.5' stroke='#e6e8eb'/><text x='12' y='254.5' font-family='Arial' font-size='11' fill='#68707a'>113.3</text><line x1='62' y1='183.0' x2='902' y2='183.0' stroke='#e6e8eb'/><text x='12' y='187.0' font-family='Arial' font-size='11' fill='#68707a'>142.7</text><line x1='62' y1='115.5' x2='902' y2='115.5' stroke='#e6e8eb'/><text x='12' y='119.5' font-family='Arial' font-size='11' fill='#68707a'>172.0</text><line x1='62' y1='48.0' x2='902' y2='48.0' stroke='#e6e8eb'/><text x='12' y='52.0' font-family='Arial' font-size='11' fill='#68707a'>201.4</text>
<line x1="62" y1="48" x2="62" y2="318" stroke="#c8cdd2"/>
<line x1="62" y1="318" x2="902" y2="318" stroke="#c8cdd2"/>
<polyline points="62.0,281.1 68.8,278.3 75.5,276.7 82.3,281.4 89.1,283.9 95.9,283.1 102.6,286.4 109.4,287.0 116.2,289.5 123.0,295.5 129.7,292.9 136.5,292.1 143.3,290.1 150.1,284.8 156.8,283.4 163.6,283.5 170.4,289.8 177.2,284.5 183.9,285.0 190.7,287.1 197.5,287.5 204.3,283.6 211.0,288.2 217.8,292.7 224.6,285.8 231.4,280.5 238.1,279.0 244.9,272.6 251.7,269.2 258.5,280.2 265.2,279.2 272.0,275.7 278.8,274.6 285.5,279.5 292.3,272.9 299.1,274.6 305.9,267.7 312.6,264.5 319.4,255.9 326.2,256.7 333.0,268.7 339.7,264.5 346.5,257.0 353.3,264.2 360.1,263.2 366.8,260.0 373.6,261.6 380.4,259.0 387.2,266.0 393.9,265.8 400.7,268.0 407.5,256.8 414.3,252.0 421.0,252.1 427.8,252.4 434.6,255.1 441.4,255.9 448.1,256.7 454.9,249.7 461.7,233.2 468.5,220.3 475.2,219.9 482.0,195.1 488.8,156.5 495.5,141.4 502.3,185.6 509.1,170.8 515.9,137.7 522.6,126.0 529.4,146.4 536.2,135.8 543.0,135.4 549.7,136.1 556.5,127.6 563.3,167.3 570.1,150.9 576.8,158.8 583.6,142.5 590.4,122.4 597.2,109.8 603.9,115.6 610.7,120.5 617.5,76.0 624.3,72.6 631.0,70.5 637.8,142.8 644.6,129.3 651.4,134.4 658.1,124.6 664.9,155.0 671.7,155.0 678.5,141.7 685.2,184.0 692.0,161.5 698.8,151.7 705.5,148.5 712.3,137.2 719.1,142.9 725.9,135.2 732.6,121.3 739.4,94.2 746.2,101.2 753.0,113.4 759.7,96.0 766.5,112.2 773.3,140.2 780.1,141.3 786.8,138.9 793.6,128.5 800.4,112.5 807.2,117.0 813.9,116.5 820.7,99.9 827.5,87.2 834.3,90.7 841.0,127.8 847.8,135.3 854.6,134.3 861.4,144.8 868.1,165.2 874.9,164.3 881.7,170.3 888.5,151.6 895.2,145.4 902.0,140.9" fill="none" stroke="#1f77b4" stroke-width="2.2" stroke-linejoin="round" stroke-linecap="round"/>
<text x="62" y="346" font-family="Arial" font-size="11" fill="#68707a">2025-12-03</text>
<text x="834" y="346" font-family="Arial" font-size="11" fill="#68707a">2026-06-03</text>
<text x="792" y="28" font-family="Arial" font-size="12" fill="#1f77b4">94.91</text>
</svg>
