<svg xmlns="http://www.w3.org/2000/svg" width="920" height="360" viewBox="0 0 920 360">
<rect width="100%" height="100%" fill="#ffffff"/>
<text x="24" y="26" font-family="Arial" font-size="18" font-weight="700" fill="#101418">XAGUSD 12m</text>
<text x="24" y="44" font-family="Arial" font-size="12" fill="#68707a">Metal; normalized close, start=100, change=+118.5%</text>
<line x1='62' y1='318.0' x2='902' y2='318.0' stroke='#e6e8eb'/><text x='12' y='322.0' font-family='Arial' font-size='11' fill='#68707a'>76.6</text><line x1='62' y1='250.5' x2='902' y2='250.5' stroke='#e6e8eb'/><text x='12' y='254.5' font-family='Arial' font-size='11' fill='#68707a'>146.7</text><line x1='62' y1='183.0' x2='902' y2='183.0' stroke='#e6e8eb'/><text x='12' y='187.0' font-family='Arial' font-size='11' fill='#68707a'>216.8</text><line x1='62' y1='115.5' x2='902' y2='115.5' stroke='#e6e8eb'/><text x='12' y='119.5' font-family='Arial' font-size='11' fill='#68707a'>286.8</text><line x1='62' y1='48.0' x2='902' y2='48.0' stroke='#e6e8eb'/><text x='12' y='52.0' font-family='Arial' font-size='11' fill='#68707a'>356.9</text>
<line x1="62" y1="48" x2="62" y2="318" stroke="#c8cdd2"/>
<line x1="62" y1="318" x2="902" y2="318" stroke="#c8cdd2"/>
<polyline points="62.0,295.5 65.3,295.5 68.7,292.2 72.0,291.3 75.3,289.4 78.7,289.8 82.0,290.9 85.3,290.7 88.7,290.5 92.0,290.3 95.3,288.3 98.7,288.9 102.0,291.4 105.3,290.9 108.7,292.2 112.0,291.1 115.3,289.7 118.7,291.2 122.0,291.7 125.3,291.1 128.7,290.1 132.0,289.1 135.3,289.2 138.7,289.6 142.0,290.0 145.3,290.3 148.7,288.4 152.0,283.8 155.3,284.4 158.7,286.2 162.0,286.1 165.3,285.6 168.7,285.1 172.0,282.7 175.3,282.0 178.7,282.2 182.0,282.9 185.3,285.3 188.7,285.7 192.0,285.5 195.3,286.9 198.7,289.8 202.0,289.1 205.3,288.0 208.7,286.6 212.0,286.4 215.3,285.3 218.7,284.6 222.0,286.7 225.3,286.0 228.7,284.3 232.0,285.8 235.3,286.0 238.7,285.9 242.0,287.8 245.3,286.6 248.7,285.7 252.0,282.9 255.3,283.8 258.7,284.1 262.0,283.8 265.3,282.4 268.7,279.6 272.0,277.2 275.3,275.8 278.7,277.6 282.0,277.2 285.3,276.2 288.7,277.7 292.0,277.0 295.3,275.4 298.7,273.5 302.0,273.1 305.3,273.3 308.7,275.3 312.0,275.4 315.3,273.1 318.7,269.5 322.0,268.4 325.3,269.6 328.7,267.0 332.0,262.8 335.3,261.7 338.7,262.7 342.0,259.8 345.3,263.4 348.7,258.9 352.0,257.6 355.3,260.1 358.7,256.0 362.0,261.0 365.3,260.8 368.7,251.9 372.0,251.3 375.3,249.2 378.7,243.8 382.0,252.6 385.3,249.1 388.7,259.3 392.0,259.3 395.3,256.5 398.7,256.8 402.0,261.8 405.3,260.3 408.7,258.6 412.0,256.6 415.3,257.8 418.7,258.1 422.0,260.2 425.3,258.2 428.7,258.4 432.0,257.8 435.3,251.7 438.7,250.5 442.0,242.9 445.3,243.6 448.7,250.6 452.0,250.5 455.3,251.0 458.7,250.0 462.0,251.5 465.3,252.6 468.7,251.4 472.0,249.6 475.3,244.1 478.7,234.2 482.0,228.7 485.3,229.9 488.7,230.1 492.0,233.1 495.3,228.7 498.7,230.5 502.0,223.8 505.3,223.2 508.7,213.3 512.0,220.5 515.3,216.1 518.7,216.8 522.0,206.9 525.3,211.5 528.7,205.2 532.0,202.2 535.3,195.0 538.7,193.5 542.0,178.3 545.3,196.8 548.7,175.8 552.0,196.0 555.3,194.8 558.7,179.2 562.0,167.0 565.3,176.5 568.7,183.2 572.0,171.6 575.3,155.6 578.7,152.0 582.0,138.1 585.3,135.3 588.7,145.9 592.0,128.8 595.3,134.4 598.7,123.8 602.0,110.0 605.3,70.5 608.7,97.2 612.0,76.0 615.3,73.4 618.7,173.2 622.0,177.5 625.3,160.0 628.7,156.8 632.0,178.1 635.3,177.6 638.7,162.7 642.0,167.8 645.3,158.0 648.7,180.9 652.0,174.5 655.3,186.8 658.7,175.4 662.0,175.3 665.3,162.1 668.7,150.2 672.0,147.6 675.3,137.9 678.7,148.9 682.0,133.0 685.3,145.3 688.7,160.3 692.0,161.1 695.3,163.7 698.7,157.8 702.0,157.2 705.3,143.1 708.7,154.3 712.0,155.4 715.3,165.9 718.7,167.7 722.0,169.8 725.3,176.2 728.7,193.9 732.0,198.2 735.3,199.0 738.7,198.4 742.0,189.8 745.3,202.9 748.7,197.7 752.0,195.5 755.3,183.3 758.7,180.0 762.0,188.7 765.3,188.9 768.7,191.3 772.0,181.8 775.3,178.9 778.7,178.7 782.0,181.0 785.3,170.2 788.7,169.9 792.0,172.3 795.3,163.6 798.7,168.6 802.0,178.5 805.3,174.3 808.7,181.1 812.0,178.6 815.3,182.4 818.7,187.4 822.0,192.0 825.3,186.5 828.7,179.8 832.0,187.8 835.3,187.7 838.7,177.4 842.0,169.3 845.3,167.4 848.7,153.1 852.0,154.1 855.3,143.6 858.7,154.7 862.0,176.4 865.3,176.6 868.7,182.9 872.0,180.0 875.3,178.5 878.7,179.9 882.0,178.8 885.3,183.5 888.7,180.6 892.0,180.7 895.3,182.4 898.7,181.5 902.0,181.4" fill="none" stroke="#1f77b4" stroke-width="2.2" stroke-linejoin="round" stroke-linecap="round"/>
<text x="62" y="346" font-family="Arial" font-size="11" fill="#68707a">2025-06-03</text>
<text x="834" y="346" font-family="Arial" font-size="11" fill="#68707a">2026-06-03</text>
<text x="792" y="28" font-family="Arial" font-size="12" fill="#1f77b4">75.375</text>
</svg>
