<svg xmlns="http://www.w3.org/2000/svg" width="920" height="360" viewBox="0 0 920 360">
<rect width="100%" height="100%" fill="#ffffff"/>
<text x="24" y="26" font-family="Arial" font-size="18" font-weight="700" fill="#101418">XAGUSD 6m</text>
<text x="24" y="44" font-family="Arial" font-size="12" fill="#68707a">Metal; normalized close, start=100, change=+30.1%</text>
<line x1='62' y1='318.0' x2='902' y2='318.0' stroke='#e6e8eb'/><text x='12' y='322.0' font-family='Arial' font-size='11' fill='#68707a'>88.1</text><line x1='62' y1='250.5' x2='902' y2='250.5' stroke='#e6e8eb'/><text x='12' y='254.5' font-family='Arial' font-size='11' fill='#68707a'>118.3</text><line x1='62' y1='183.0' x2='902' y2='183.0' stroke='#e6e8eb'/><text x='12' y='187.0' font-family='Arial' font-size='11' fill='#68707a'>148.4</text><line x1='62' y1='115.5' x2='902' y2='115.5' stroke='#e6e8eb'/><text x='12' y='119.5' font-family='Arial' font-size='11' fill='#68707a'>178.6</text><line x1='62' y1='48.0' x2='902' y2='48.0' stroke='#e6e8eb'/><text x='12' y='52.0' font-family='Arial' font-size='11' fill='#68707a'>208.7</text>
<line x1="62" y1="48" x2="62" y2="318" stroke="#c8cdd2"/>
<line x1="62" y1="318" x2="902" y2="318" stroke="#c8cdd2"/>
<polyline points="62.0,291.4 68.8,295.5 75.5,289.4 82.3,291.9 89.1,282.7 95.9,281.9 102.6,268.1 109.4,278.1 116.2,272.0 123.0,272.9 129.7,259.2 136.5,265.6 143.3,256.9 150.1,252.8 156.8,242.8 163.6,240.7 170.4,219.6 177.2,245.2 183.9,216.2 190.7,244.2 197.5,242.5 204.3,220.9 211.0,204.0 217.8,217.1 224.6,226.5 231.4,210.4 238.1,188.2 244.9,183.3 251.7,164.0 258.5,160.2 265.2,174.8 272.0,151.2 278.8,158.9 285.5,144.3 292.3,125.2 299.1,70.5 305.9,107.4 312.6,78.1 319.4,74.5 326.2,212.6 333.0,218.5 339.7,194.3 346.5,189.9 353.3,219.5 360.1,218.7 366.8,198.1 373.6,205.2 380.4,191.5 387.2,223.3 393.9,214.3 400.7,231.4 407.5,215.7 414.3,215.5 421.0,197.2 427.8,180.8 434.6,177.2 441.4,163.8 448.1,179.0 454.9,157.0 461.7,174.0 468.5,194.7 475.2,195.9 482.0,199.5 488.8,191.3 495.5,190.5 502.3,170.9 509.1,186.5 515.9,188.0 522.6,202.5 529.4,205.0 536.2,207.9 543.0,216.7 549.7,241.2 556.5,247.2 563.3,248.4 570.1,247.5 576.8,235.6 583.6,253.7 590.4,246.4 597.2,243.4 603.9,226.6 610.7,222.0 617.5,234.1 624.3,234.4 631.0,237.6 637.8,224.5 644.6,220.4 651.4,220.2 658.1,223.3 664.9,208.4 671.7,208.0 678.5,211.4 685.2,199.3 692.0,206.2 698.8,219.9 705.5,214.2 712.3,223.6 719.1,220.0 725.9,225.3 732.6,232.3 739.4,238.6 746.2,231.0 753.0,221.7 759.7,232.8 766.5,232.7 773.3,218.4 780.1,207.2 786.8,204.5 793.6,184.8 800.4,186.2 807.2,171.7 813.9,187.1 820.7,217.0 827.5,217.4 834.3,226.0 841.0,222.1 847.8,219.9 854.6,221.9 861.4,220.3 868.1,226.9 874.9,222.9 881.7,223.0 888.5,225.3 895.2,224.2 902.0,223.9" fill="none" stroke="#1f77b4" stroke-width="2.2" stroke-linejoin="round" stroke-linecap="round"/>
<text x="62" y="346" font-family="Arial" font-size="11" fill="#68707a">2025-12-03</text>
<text x="834" y="346" font-family="Arial" font-size="11" fill="#68707a">2026-06-03</text>
<text x="792" y="28" font-family="Arial" font-size="12" fill="#1f77b4">75.375</text>
</svg>
