<svg xmlns="http://www.w3.org/2000/svg" width="920" height="360" viewBox="0 0 920 360">
<rect width="100%" height="100%" fill="#ffffff"/>
<text x="24" y="26" font-family="Arial" font-size="18" font-weight="700" fill="#101418">XAUEUR 6m</text>
<text x="24" y="44" font-family="Arial" font-size="12" fill="#68707a">Metal; normalized close, start=100, change=+7.5%</text>
<line x1='62' y1='318.0' x2='902' y2='318.0' stroke='#e6e8eb'/><text x='12' y='322.0' font-family='Arial' font-size='11' fill='#68707a'>97.1</text><line x1='62' y1='250.5' x2='902' y2='250.5' stroke='#e6e8eb'/><text x='12' y='254.5' font-family='Arial' font-size='11' fill='#68707a'>104.6</text><line x1='62' y1='183.0' x2='902' y2='183.0' stroke='#e6e8eb'/><text x='12' y='187.0' font-family='Arial' font-size='11' fill='#68707a'>112.1</text><line x1='62' y1='115.5' x2='902' y2='115.5' stroke='#e6e8eb'/><text x='12' y='119.5' font-family='Arial' font-size='11' fill='#68707a'>119.7</text><line x1='62' y1='48.0' x2='902' y2='48.0' stroke='#e6e8eb'/><text x='12' y='52.0' font-family='Arial' font-size='11' fill='#68707a'>127.2</text>
<line x1="62" y1="48" x2="62" y2="318" stroke="#c8cdd2"/>
<line x1="62" y1="318" x2="902" y2="318" stroke="#c8cdd2"/>
<polyline points="62.0,292.0 68.8,292.3 75.5,290.2 82.3,295.5 89.1,291.4 95.9,292.6 102.6,279.3 109.4,279.1 116.2,277.6 123.0,279.4 129.7,269.9 136.5,271.0 143.3,265.1 150.1,246.0 156.8,242.6 163.6,245.4 170.4,234.4 177.2,276.4 183.9,267.0 190.7,274.4 197.5,277.0 204.3,247.4 211.0,238.6 217.8,243.4 224.6,242.4 231.4,232.2 238.1,205.0 244.9,211.9 251.7,201.9 258.5,204.4 265.2,207.2 272.0,173.2 278.8,165.5 285.5,144.3 292.3,137.3 299.1,124.9 305.9,126.4 312.6,93.1 319.4,85.9 326.2,210.4 333.0,219.9 339.7,156.5 346.5,154.6 353.3,165.7 360.1,144.7 366.8,128.0 373.6,144.8 380.4,129.3 387.2,159.1 393.9,137.8 400.7,165.4 407.5,143.8 414.3,140.5 421.0,121.1 427.8,96.5 434.6,103.0 441.4,90.6 448.1,100.6 454.9,88.1 461.7,70.5 468.5,104.3 475.2,93.6 482.0,107.5 488.8,87.7 495.5,91.3 502.3,70.6 509.1,83.4 515.9,88.0 522.6,99.6 529.4,104.1 536.2,108.6 543.0,136.3 549.7,192.1 556.5,208.4 563.3,242.7 570.1,247.5 576.8,215.9 583.6,248.9 590.4,221.7 597.2,210.7 603.9,181.6 610.7,162.4 617.5,192.1 624.3,184.0 631.0,186.6 637.8,179.4 644.6,168.0 651.4,177.2 658.1,180.0 664.9,170.5 671.7,178.5 678.5,182.4 685.2,164.9 692.0,172.0 698.8,198.6 705.5,188.0 712.3,190.5 719.1,185.0 725.9,196.9 732.6,216.1 739.4,225.5 746.2,208.0 753.0,208.4 759.7,231.6 766.5,221.1 773.3,196.3 780.1,195.2 786.8,189.5 793.6,193.0 800.4,202.6 807.2,194.6 813.9,197.1 820.7,218.6 827.5,215.3 834.3,228.6 841.0,219.3 847.8,219.0 854.6,222.6 861.4,228.4 868.1,239.6 874.9,227.0 881.7,216.8 888.5,234.7 895.2,230.6 902.0,224.8" fill="none" stroke="#1f77b4" stroke-width="2.2" stroke-linejoin="round" stroke-linecap="round"/>
<text x="62" y="346" font-family="Arial" font-size="11" fill="#68707a">2025-12-03</text>
<text x="834" y="346" font-family="Arial" font-size="11" fill="#68707a">2026-06-03</text>
<text x="792" y="28" font-family="Arial" font-size="12" fill="#1f77b4">3881.4</text>
</svg>
