<svg xmlns="http://www.w3.org/2000/svg" width="920" height="360" viewBox="0 0 920 360">
<rect width="100%" height="100%" fill="#ffffff"/>
<text x="24" y="26" font-family="Arial" font-size="18" font-weight="700" fill="#101418">XAUEUR 12m</text>
<text x="24" y="44" font-family="Arial" font-size="12" fill="#68707a">Metal; normalized close, start=100, change=+32.7%</text>
<line x1='62' y1='318.0' x2='902' y2='318.0' stroke='#e6e8eb'/><text x='12' y='322.0' font-family='Arial' font-size='11' fill='#68707a'>89.9</text><line x1='62' y1='250.5' x2='902' y2='250.5' stroke='#e6e8eb'/><text x='12' y='254.5' font-family='Arial' font-size='11' fill='#68707a'>107.4</text><line x1='62' y1='183.0' x2='902' y2='183.0' stroke='#e6e8eb'/><text x='12' y='187.0' font-family='Arial' font-size='11' fill='#68707a'>124.8</text><line x1='62' y1='115.5' x2='902' y2='115.5' stroke='#e6e8eb'/><text x='12' y='119.5' font-family='Arial' font-size='11' fill='#68707a'>142.3</text><line x1='62' y1='48.0' x2='902' y2='48.0' stroke='#e6e8eb'/><text x='12' y='52.0' font-family='Arial' font-size='11' fill='#68707a'>159.7</text>
<line x1="62" y1="48" x2="62" y2="318" stroke="#c8cdd2"/>
<line x1="62" y1="318" x2="902" y2="318" stroke="#c8cdd2"/>
<polyline points="62.0,279.0 65.3,273.9 68.7,277.8 72.0,282.1 75.3,279.5 78.7,281.5 82.0,281.8 85.3,277.3 88.7,274.6 92.0,277.1 95.3,278.1 98.7,275.4 102.0,278.9 105.3,277.4 108.7,287.5 112.0,286.9 115.3,288.5 118.7,295.5 122.0,294.3 125.3,291.4 128.7,290.7 132.0,292.4 135.3,291.4 138.7,291.7 142.0,293.1 145.3,292.2 148.7,291.8 152.0,286.5 155.3,286.4 158.7,288.3 162.0,283.8 165.3,286.2 168.7,284.0 172.0,279.0 175.3,276.9 178.7,283.4 182.0,287.2 185.3,290.7 188.7,293.6 192.0,286.8 195.3,288.4 198.7,284.7 202.0,278.2 205.3,280.6 208.7,279.7 212.0,279.8 215.3,280.2 218.7,276.3 222.0,285.1 225.3,284.6 228.7,285.4 232.0,289.2 235.3,287.1 238.7,289.4 242.0,290.2 245.3,286.0 248.7,287.0 252.0,281.5 255.3,284.8 258.7,280.1 262.0,279.0 265.3,276.2 268.7,272.5 272.0,265.1 275.3,257.4 278.7,261.4 282.0,255.9 285.3,255.0 288.7,256.4 292.0,254.1 295.3,254.8 298.7,254.5 302.0,250.5 305.3,251.1 308.7,255.7 312.0,258.3 315.3,254.0 318.7,244.3 322.0,242.1 325.3,248.0 328.7,245.0 332.0,237.7 335.3,234.2 338.7,232.8 342.0,230.0 345.3,233.1 348.7,228.1 352.0,220.0 355.3,216.7 358.7,207.0 362.0,217.2 365.3,211.2 368.7,197.5 372.0,192.6 375.3,189.7 378.7,179.8 382.0,192.2 385.3,173.9 388.7,201.6 392.0,204.8 395.3,195.8 398.7,197.0 402.0,210.8 405.3,215.7 408.7,213.9 412.0,209.8 415.3,210.8 418.7,206.9 422.0,212.6 425.3,207.5 428.7,208.0 432.0,207.9 435.3,194.8 438.7,195.9 442.0,186.0 445.3,188.2 448.7,201.1 452.0,202.6 455.3,202.4 458.7,200.2 462.0,201.0 465.3,198.4 468.7,195.6 472.0,190.7 475.3,189.5 478.7,184.9 482.0,182.6 485.3,188.9 488.7,188.2 492.0,188.4 495.3,187.3 498.7,190.1 502.0,188.0 505.3,188.6 508.7,181.5 512.0,181.4 515.3,180.6 518.7,181.6 522.0,176.5 525.3,177.1 528.7,174.0 532.0,163.8 535.3,162.0 538.7,163.5 542.0,157.6 545.3,180.0 548.7,174.9 552.0,178.9 555.3,180.3 558.7,164.5 562.0,159.9 565.3,162.4 568.7,161.9 572.0,156.5 575.3,142.0 578.7,145.7 582.0,140.4 585.3,141.7 588.7,143.2 592.0,125.1 595.3,121.0 598.7,109.8 602.0,106.0 605.3,99.4 608.7,100.2 612.0,82.5 615.3,78.7 618.7,144.9 622.0,150.0 625.3,116.2 628.7,115.2 632.0,121.1 635.3,109.9 638.7,101.1 642.0,110.0 645.3,101.8 648.7,117.6 652.0,106.3 655.3,120.9 658.7,109.5 662.0,107.7 665.3,97.4 668.7,84.3 672.0,87.8 675.3,81.2 678.7,86.5 682.0,79.9 685.3,70.5 688.7,88.5 692.0,82.8 695.3,90.2 698.7,79.6 702.0,81.6 705.3,70.6 708.7,77.4 712.0,79.8 715.3,86.0 718.7,88.3 722.0,90.8 725.3,105.5 728.7,135.2 732.0,143.8 735.3,162.0 738.7,164.6 742.0,147.8 745.3,165.4 748.7,150.9 752.0,145.0 755.3,129.5 758.7,119.4 762.0,135.1 765.3,130.8 768.7,132.2 772.0,128.4 775.3,122.3 778.7,127.2 782.0,128.7 785.3,123.7 788.7,127.9 792.0,130.0 795.3,120.7 798.7,124.5 802.0,138.6 805.3,133.0 808.7,134.3 812.0,131.4 815.3,137.7 818.7,147.9 822.0,152.9 825.3,143.6 828.7,143.8 832.0,156.2 835.3,150.6 838.7,137.4 842.0,136.8 845.3,133.8 848.7,135.6 852.0,140.7 855.3,136.5 858.7,137.8 862.0,149.2 865.3,147.5 868.7,154.5 872.0,149.6 875.3,149.4 878.7,151.4 882.0,154.4 885.3,160.4 888.7,153.7 892.0,148.3 895.3,157.8 898.7,155.6 902.0,152.6" fill="none" stroke="#1f77b4" stroke-width="2.2" stroke-linejoin="round" stroke-linecap="round"/>
<text x="62" y="346" font-family="Arial" font-size="11" fill="#68707a">2025-06-03</text>
<text x="834" y="346" font-family="Arial" font-size="11" fill="#68707a">2026-06-03</text>
<text x="792" y="28" font-family="Arial" font-size="12" fill="#1f77b4">3881.4</text>
</svg>
