<svg xmlns="http://www.w3.org/2000/svg" width="920" height="360" viewBox="0 0 920 360">
<rect width="100%" height="100%" fill="#ffffff"/>
<text x="24" y="26" font-family="Arial" font-size="18" font-weight="700" fill="#101418">XAUUSD 12m</text>
<text x="24" y="44" font-family="Arial" font-size="12" fill="#68707a">Metal; normalized close, start=100, change=+34.7%</text>
<line x1='62' y1='318.0' x2='902' y2='318.0' stroke='#e6e8eb'/><text x='12' y='322.0' font-family='Arial' font-size='11' fill='#68707a'>91.6</text><line x1='62' y1='250.5' x2='902' y2='250.5' stroke='#e6e8eb'/><text x='12' y='254.5' font-family='Arial' font-size='11' fill='#68707a'>109.9</text><line x1='62' y1='183.0' x2='902' y2='183.0' stroke='#e6e8eb'/><text x='12' y='187.0' font-family='Arial' font-size='11' fill='#68707a'>128.2</text><line x1='62' y1='115.5' x2='902' y2='115.5' stroke='#e6e8eb'/><text x='12' y='119.5' font-family='Arial' font-size='11' fill='#68707a'>146.5</text><line x1='62' y1='48.0' x2='902' y2='48.0' stroke='#e6e8eb'/><text x='12' y='52.0' font-family='Arial' font-size='11' fill='#68707a'>164.9</text>
<line x1="62" y1="48" x2="62" y2="318" stroke="#c8cdd2"/>
<line x1="62" y1="318" x2="902" y2="318" stroke="#c8cdd2"/>
<polyline points="62.0,287.1 65.3,284.5 68.7,287.0 72.0,290.1 75.3,289.1 78.7,290.3 82.0,290.3 85.3,283.7 88.7,278.2 92.0,282.0 95.3,283.1 98.7,282.7 102.0,285.1 105.3,284.1 108.7,290.7 112.0,289.6 115.3,288.9 118.7,295.5 122.0,293.2 125.3,288.6 128.7,287.3 132.0,289.1 135.3,289.0 138.7,289.1 142.0,291.8 145.3,291.3 148.7,290.7 152.0,286.4 155.3,286.9 158.7,289.3 162.0,286.8 165.3,288.2 168.7,286.8 172.0,281.4 175.3,277.3 178.7,282.3 182.0,284.8 185.3,288.9 188.7,291.6 192.0,290.0 195.3,293.1 198.7,293.4 202.0,287.4 205.3,284.4 208.7,283.6 212.0,283.8 215.3,281.6 218.7,277.3 222.0,286.8 225.3,287.2 228.7,286.1 232.0,288.7 235.3,288.6 238.7,289.1 242.0,291.1 245.3,287.8 248.7,288.5 252.0,284.4 255.3,284.5 258.7,282.9 262.0,281.1 265.3,278.1 268.7,273.5 272.0,265.2 275.3,260.3 278.7,263.4 282.0,258.1 285.3,255.4 288.7,254.8 292.0,254.8 295.3,255.5 298.7,254.2 302.0,250.5 305.3,249.8 308.7,250.6 312.0,254.8 315.3,251.7 318.7,244.1 322.0,239.7 325.3,245.1 328.7,244.5 332.0,240.3 335.3,235.3 338.7,233.1 342.0,230.2 345.3,233.2 348.7,228.7 352.0,221.2 355.3,218.2 358.7,210.8 362.0,221.5 365.3,218.2 368.7,203.6 372.0,200.3 375.3,196.1 378.7,184.7 382.0,194.7 385.3,178.6 388.7,205.9 392.0,210.7 395.3,201.8 398.7,202.5 402.0,215.4 405.3,219.3 408.7,217.4 412.0,215.4 415.3,217.5 418.7,215.5 422.0,221.3 425.3,217.7 428.7,217.8 432.0,215.6 435.3,203.3 438.7,203.8 442.0,193.1 445.3,195.0 448.7,205.9 452.0,208.1 455.3,208.8 458.7,207.0 462.0,209.4 465.3,207.1 468.7,205.5 472.0,200.3 475.3,197.4 478.7,191.6 482.0,189.2 485.3,195.0 488.7,193.6 492.0,192.3 495.3,192.1 498.7,195.0 502.0,192.8 505.3,194.0 508.7,184.2 512.0,182.6 515.3,181.8 518.7,182.1 522.0,177.3 525.3,178.2 528.7,175.8 532.0,166.7 535.3,162.4 538.7,162.7 542.0,157.4 545.3,179.8 548.7,174.9 552.0,179.7 555.3,181.0 558.7,167.5 562.0,162.5 565.3,166.1 568.7,166.1 572.0,161.6 575.3,149.1 578.7,150.7 582.0,146.7 585.3,147.8 588.7,150.8 592.0,132.0 595.3,124.0 598.7,115.6 602.0,108.2 605.3,96.8 608.7,96.7 612.0,72.3 615.3,70.5 618.7,137.0 622.0,147.1 625.3,116.1 628.7,114.3 632.0,120.8 635.3,110.9 638.7,99.9 642.0,105.1 645.3,97.7 648.7,113.9 652.0,103.1 655.3,118.4 658.7,107.0 662.0,108.2 665.3,99.0 668.7,83.0 672.0,88.4 675.3,82.8 678.7,86.1 682.0,80.2 685.3,73.1 688.7,93.7 692.0,92.3 695.3,98.4 698.7,89.5 702.0,95.5 705.3,80.3 708.7,87.1 712.0,92.8 715.3,99.8 718.7,106.2 722.0,105.4 725.3,117.7 728.7,149.5 732.0,152.8 735.3,171.1 738.7,171.6 742.0,155.1 745.3,174.3 748.7,161.4 752.0,157.7 755.3,144.3 758.7,129.4 762.0,143.9 765.3,143.3 768.7,143.3 772.0,133.1 775.3,128.4 778.7,131.7 782.0,133.9 785.3,124.8 788.7,127.5 792.0,129.2 795.3,121.2 798.7,126.8 802.0,138.7 805.3,135.0 808.7,138.0 812.0,136.1 815.3,141.3 818.7,150.5 822.0,155.6 825.3,147.9 828.7,146.3 832.0,158.4 835.3,154.4 838.7,140.5 842.0,138.6 845.3,136.3 848.7,136.5 852.0,141.0 855.3,138.8 858.7,141.0 862.0,154.4 865.3,154.8 868.7,159.9 872.0,157.1 875.3,156.2 878.7,158.2 882.0,160.5 885.3,166.3 888.7,160.6 892.0,153.9 895.3,163.3 898.7,161.8 902.0,159.1" fill="none" stroke="#1f77b4" stroke-width="2.2" stroke-linejoin="round" stroke-linecap="round"/>
<text x="62" y="346" font-family="Arial" font-size="11" fill="#68707a">2025-06-03</text>
<text x="834" y="346" font-family="Arial" font-size="11" fill="#68707a">2026-06-03</text>
<text x="792" y="28" font-family="Arial" font-size="12" fill="#1f77b4">4513.3</text>
</svg>
