<svg xmlns="http://www.w3.org/2000/svg" width="920" height="360" viewBox="0 0 920 360">
<rect width="100%" height="100%" fill="#ffffff"/>
<text x="24" y="26" font-family="Arial" font-size="18" font-weight="700" fill="#101418">XAUUSD 6m</text>
<text x="24" y="44" font-family="Arial" font-size="12" fill="#68707a">Metal; normalized close, start=100, change=+7.5%</text>
<line x1='62' y1='318.0' x2='902' y2='318.0' stroke='#e6e8eb'/><text x='12' y='322.0' font-family='Arial' font-size='11' fill='#68707a'>97.0</text><line x1='62' y1='250.5' x2='902' y2='250.5' stroke='#e6e8eb'/><text x='12' y='254.5' font-family='Arial' font-size='11' fill='#68707a'>105.1</text><line x1='62' y1='183.0' x2='902' y2='183.0' stroke='#e6e8eb'/><text x='12' y='187.0' font-family='Arial' font-size='11' fill='#68707a'>113.2</text><line x1='62' y1='115.5' x2='902' y2='115.5' stroke='#e6e8eb'/><text x='12' y='119.5' font-family='Arial' font-size='11' fill='#68707a'>121.3</text><line x1='62' y1='48.0' x2='902' y2='48.0' stroke='#e6e8eb'/><text x='12' y='52.0' font-family='Arial' font-size='11' fill='#68707a'>129.3</text>
<line x1="62" y1="48" x2="62" y2="318" stroke="#c8cdd2"/>
<line x1="62" y1="318" x2="902" y2="318" stroke="#c8cdd2"/>
<polyline points="62.0,293.1 68.8,290.6 75.5,290.4 82.3,295.5 89.1,291.6 95.9,293.7 102.6,275.9 109.4,273.0 116.2,271.7 123.0,272.2 129.7,263.6 136.5,265.2 143.3,260.9 150.1,244.3 156.8,236.7 163.6,237.1 170.4,227.5 177.2,268.1 183.9,259.1 190.7,268.0 197.5,270.2 204.3,245.8 211.0,236.8 217.8,243.4 224.6,243.3 231.4,235.2 238.1,212.5 244.9,215.5 251.7,208.2 258.5,210.2 265.2,215.7 272.0,181.6 278.8,167.3 285.5,152.0 292.3,138.6 299.1,118.0 305.9,117.9 312.6,73.8 319.4,70.5 326.2,190.7 333.0,208.9 339.7,153.0 346.5,149.7 353.3,161.4 360.1,143.5 366.8,123.7 373.6,133.1 380.4,119.6 387.2,149.0 393.9,129.5 400.7,157.1 407.5,136.5 414.3,138.6 421.0,122.0 427.8,93.1 434.6,102.8 441.4,92.8 448.1,98.7 454.9,88.0 461.7,75.3 468.5,112.5 475.2,109.9 482.0,120.8 488.8,104.8 495.5,115.6 502.3,88.1 509.1,100.5 515.9,110.8 522.6,123.4 529.4,135.0 536.2,133.6 543.0,155.7 549.7,213.3 556.5,219.3 563.3,252.4 570.1,253.3 576.8,223.4 583.6,258.0 590.4,234.9 597.2,228.1 603.9,203.9 610.7,177.0 617.5,203.1 624.3,202.1 631.0,202.0 637.8,183.7 644.6,175.2 651.4,181.2 658.1,185.1 664.9,168.6 671.7,173.6 678.5,176.5 685.2,162.2 692.0,172.3 698.8,193.8 705.5,187.0 712.3,192.5 719.1,189.1 725.9,198.4 732.6,215.1 739.4,224.3 746.2,210.5 753.0,207.4 759.7,229.4 766.5,222.2 773.3,197.1 780.1,193.5 786.8,189.4 793.6,189.8 800.4,198.0 807.2,194.0 813.9,197.9 820.7,222.2 827.5,222.8 834.3,232.0 841.0,227.1 847.8,225.4 854.6,229.1 861.4,233.2 868.1,243.7 874.9,233.4 881.7,221.2 888.5,238.2 895.2,235.5 902.0,230.6" fill="none" stroke="#1f77b4" stroke-width="2.2" stroke-linejoin="round" stroke-linecap="round"/>
<text x="62" y="346" font-family="Arial" font-size="11" fill="#68707a">2025-12-03</text>
<text x="834" y="346" font-family="Arial" font-size="11" fill="#68707a">2026-06-03</text>
<text x="792" y="28" font-family="Arial" font-size="12" fill="#1f77b4">4513.3</text>
</svg>
