<svg xmlns="http://www.w3.org/2000/svg" width="920" height="360" viewBox="0 0 920 360">
<rect width="100%" height="100%" fill="#ffffff"/>
<text x="24" y="26" font-family="Arial" font-size="18" font-weight="700" fill="#101418">XRPUSD 12m</text>
<text x="24" y="44" font-family="Arial" font-size="12" fill="#68707a">Crypto; normalized close, start=100, change=-46.1%</text>
<line x1='62' y1='318.0' x2='902' y2='318.0' stroke='#e6e8eb'/><text x='12' y='322.0' font-family='Arial' font-size='11' fill='#68707a'>43.5</text><line x1='62' y1='250.5' x2='902' y2='250.5' stroke='#e6e8eb'/><text x='12' y='254.5' font-family='Arial' font-size='11' fill='#68707a'>74.8</text><line x1='62' y1='183.0' x2='902' y2='183.0' stroke='#e6e8eb'/><text x='12' y='187.0' font-family='Arial' font-size='11' fill='#68707a'>106.1</text><line x1='62' y1='115.5' x2='902' y2='115.5' stroke='#e6e8eb'/><text x='12' y='119.5' font-family='Arial' font-size='11' fill='#68707a'>137.4</text><line x1='62' y1='48.0' x2='902' y2='48.0' stroke='#e6e8eb'/><text x='12' y='52.0' font-family='Arial' font-size='11' fill='#68707a'>168.7</text>
<line x1="62" y1="48" x2="62" y2="318" stroke="#c8cdd2"/>
<line x1="62" y1="318" x2="902" y2="318" stroke="#c8cdd2"/>
<polyline points="62.0,196.1 64.3,200.4 66.6,210.5 68.9,204.2 71.2,202.7 73.5,194.3 75.8,189.1 78.2,190.5 80.5,193.8 82.8,201.1 85.1,205.5 87.4,206.3 89.7,203.8 92.0,196.6 94.3,204.4 96.6,203.5 98.9,203.9 101.2,208.3 103.5,214.3 105.8,218.5 108.2,203.9 110.5,201.5 112.8,202.0 115.1,209.7 117.4,206.1 119.7,202.0 122.0,200.0 124.3,196.9 126.6,203.3 128.9,197.4 131.2,195.1 133.5,198.6 135.8,198.9 138.2,193.7 140.5,193.5 142.8,190.0 145.1,180.9 147.4,167.4 149.7,149.3 152.0,149.0 154.3,139.6 156.6,128.2 158.9,131.6 161.2,119.9 163.5,76.3 165.8,83.7 168.2,82.6 170.5,79.7 172.8,70.5 175.1,70.9 177.4,106.1 179.7,110.0 182.0,110.2 184.3,107.8 186.6,100.7 188.9,112.7 191.2,111.5 193.5,114.4 195.8,121.4 198.2,127.2 200.5,146.3 202.8,128.7 205.1,116.9 207.4,127.3 209.7,124.6 212.0,93.3 214.3,96.3 216.6,102.0 218.9,105.8 221.2,110.9 223.5,98.3 225.8,96.9 228.2,115.8 230.5,116.3 232.8,113.5 235.1,115.3 237.4,117.9 239.7,138.0 242.0,128.6 244.3,138.2 246.6,116.6 248.9,119.4 251.2,121.4 253.5,137.2 255.8,122.7 258.2,127.1 260.5,127.0 262.8,140.9 265.1,141.3 267.4,145.3 269.7,147.5 272.0,137.1 274.3,138.7 276.6,143.4 278.9,141.5 281.2,142.0 283.5,135.5 285.8,126.7 288.2,129.0 290.5,125.6 292.8,119.9 295.1,113.5 297.4,112.2 299.7,120.7 302.0,124.1 304.3,120.2 306.6,115.7 308.9,116.5 311.2,124.6 313.5,125.9 315.8,126.4 318.2,138.0 320.5,140.3 322.8,130.8 325.1,148.6 327.4,144.4 329.7,142.3 332.0,136.7 334.3,135.1 336.6,138.5 338.9,128.9 341.2,120.1 343.5,119.9 345.8,126.8 348.2,126.7 350.5,124.7 352.8,137.7 355.1,135.3 357.4,142.6 359.7,185.4 362.0,182.8 364.3,168.5 366.6,161.6 368.9,171.3 371.2,180.2 373.5,188.2 375.8,191.6 378.2,185.2 380.5,182.3 382.8,172.5 385.1,179.1 387.4,184.9 389.7,181.9 392.0,171.1 394.3,162.6 396.6,157.9 398.9,158.9 401.2,161.7 403.5,166.8 405.8,177.6 408.2,171.0 410.5,171.3 412.8,169.0 415.1,190.1 417.4,199.6 419.7,186.7 422.0,199.6 424.3,189.7 426.6,192.5 428.9,184.5 431.2,169.3 433.5,182.2 435.8,182.7 438.2,188.0 440.5,196.4 442.8,197.3 445.1,199.0 447.4,204.3 449.7,199.1 452.0,209.5 454.3,219.9 456.6,224.6 458.9,224.7 461.2,215.4 463.5,198.2 465.8,200.8 468.2,198.3 470.5,200.6 472.8,202.5 475.1,200.3 477.4,204.4 479.7,216.9 482.0,204.9 484.3,200.5 486.6,210.5 488.9,216.2 491.2,216.7 493.5,215.7 495.8,212.8 498.2,209.4 500.5,215.7 502.8,216.4 505.1,219.0 507.4,217.5 509.7,221.8 512.0,229.6 514.3,226.5 516.6,233.1 518.9,238.3 521.2,228.7 523.5,226.3 525.8,227.3 528.2,229.2 530.5,232.0 532.8,233.2 535.1,236.0 537.4,234.9 539.7,232.0 542.0,232.9 544.3,234.4 546.6,231.8 548.9,235.2 551.2,231.5 553.5,219.3 555.8,218.2 558.2,211.2 560.5,186.4 562.8,190.4 565.1,203.8 567.4,208.1 569.7,211.0 572.0,211.4 574.3,213.0 576.6,214.8 578.9,204.1 581.2,206.4 583.5,212.3 585.8,213.3 588.2,213.8 590.5,220.5 592.8,221.1 595.1,230.4 597.4,225.1 599.7,227.4 602.0,227.6 604.3,228.2 606.6,235.9 608.9,229.1 611.2,228.1 613.5,228.6 615.8,238.5 618.2,245.5 620.5,253.9 622.8,259.1 625.1,256.3 627.4,260.7 629.7,266.8 632.0,295.3 634.3,270.6 636.6,275.1 638.9,274.3 641.2,274.0 643.5,277.5 645.8,280.5 648.2,281.1 650.5,276.7 652.8,266.9 655.1,270.2 657.4,269.1 659.7,270.3 662.0,275.4 664.3,276.8 666.6,274.6 668.9,274.4 671.2,278.1 673.5,282.1 675.8,282.3 678.2,274.2 680.5,277.2 682.8,281.7 685.1,279.6 687.4,282.1 689.7,278.3 692.0,281.2 694.3,274.5 696.6,277.1 698.9,280.9 701.2,281.6 703.5,283.1 705.8,281.1 708.2,278.7 710.5,278.9 712.8,278.9 715.1,277.5 717.4,276.7 719.7,272.9 722.0,263.6 724.3,266.0 726.6,271.3 728.9,272.9 731.2,273.1 733.5,276.8 735.8,278.9 738.2,274.4 740.5,275.9 742.8,276.1 745.1,281.3 747.4,284.6 749.7,283.9 752.0,284.4 754.3,284.9 756.6,283.2 758.9,282.4 761.2,285.2 763.5,285.3 765.8,285.5 768.2,284.6 770.5,285.0 772.8,279.2 775.1,283.0 777.4,282.8 779.7,281.6 782.0,281.7 784.3,284.6 786.6,279.7 788.9,281.1 791.2,278.2 793.5,272.4 795.8,270.0 798.2,274.1 800.5,277.9 802.8,275.0 805.1,274.4 807.4,274.5 809.7,273.7 812.0,274.2 814.3,275.1 816.6,274.4 818.9,277.3 821.2,279.3 823.5,280.4 825.8,280.6 828.2,278.9 830.5,278.1 832.8,278.6 835.1,278.2 837.4,276.2 839.7,275.1 842.0,278.7 844.3,275.7 846.6,275.5 848.9,270.4 851.2,270.1 853.5,274.0 855.8,274.9 858.2,269.4 860.5,274.2 862.8,276.1 865.1,277.3 867.4,278.5 869.7,281.2 872.0,280.7 874.3,280.1 876.6,283.8 878.9,281.5 881.2,282.2 883.5,282.3 885.8,284.4 888.2,286.4 890.5,285.7 892.8,284.3 895.1,283.3 897.4,284.0 899.7,287.5 902.0,295.5" fill="none" stroke="#d62728" stroke-width="2.2" stroke-linejoin="round" stroke-linecap="round"/>
<text x="62" y="346" font-family="Arial" font-size="11" fill="#68707a">2025-06-03</text>
<text x="834" y="346" font-family="Arial" font-size="11" fill="#68707a">2026-06-03</text>
<text x="792" y="28" font-family="Arial" font-size="12" fill="#d62728">1.2117</text>
</svg>
