<svg xmlns="http://www.w3.org/2000/svg" width="920" height="360" viewBox="0 0 920 360">
<rect width="100%" height="100%" fill="#ffffff"/>
<text x="24" y="26" font-family="Arial" font-size="18" font-weight="700" fill="#101418">XRPUSD 6m</text>
<text x="24" y="44" font-family="Arial" font-size="12" fill="#68707a">Crypto; normalized close, start=100, change=-45.0%</text>
<line x1='62' y1='318.0' x2='902' y2='318.0' stroke='#e6e8eb'/><text x='12' y='322.0' font-family='Arial' font-size='11' fill='#68707a'>49.9</text><line x1='62' y1='250.5' x2='902' y2='250.5' stroke='#e6e8eb'/><text x='12' y='254.5' font-family='Arial' font-size='11' fill='#68707a'>65.4</text><line x1='62' y1='183.0' x2='902' y2='183.0' stroke='#e6e8eb'/><text x='12' y='187.0' font-family='Arial' font-size='11' fill='#68707a'>80.9</text><line x1='62' y1='115.5' x2='902' y2='115.5' stroke='#e6e8eb'/><text x='12' y='119.5' font-family='Arial' font-size='11' fill='#68707a'>96.3</text><line x1='62' y1='48.0' x2='902' y2='48.0' stroke='#e6e8eb'/><text x='12' y='52.0' font-family='Arial' font-size='11' fill='#68707a'>111.8</text>
<line x1="62" y1="48" x2="62" y2="318" stroke="#c8cdd2"/>
<line x1="62" y1="318" x2="902" y2="318" stroke="#c8cdd2"/>
<polyline points="62.0,99.6 66.6,120.3 71.3,132.1 75.9,133.1 80.6,130.9 85.2,125.1 89.8,118.1 94.5,130.9 99.1,132.5 103.8,137.7 108.4,134.8 113.0,143.6 117.7,159.6 122.3,153.4 127.0,166.9 131.6,177.6 136.3,157.8 140.9,152.9 145.5,154.9 150.2,158.8 154.8,164.7 159.5,167.0 164.1,172.8 168.7,170.6 173.4,164.7 178.0,166.4 182.7,169.6 187.3,164.2 191.9,171.2 196.6,163.7 201.2,138.4 205.9,136.1 210.5,121.7 215.1,70.5 219.8,78.8 224.4,106.4 229.1,115.4 233.7,121.4 238.4,122.1 243.0,125.5 247.6,129.1 252.3,107.1 256.9,111.9 261.6,124.1 266.2,126.0 270.8,127.2 275.5,141.0 280.1,142.2 284.8,161.4 289.4,150.3 294.0,155.0 298.7,155.4 303.3,156.7 308.0,172.6 312.6,158.6 317.2,156.5 321.9,157.6 326.5,178.1 331.2,192.5 335.8,209.7 340.5,220.4 345.1,214.6 349.7,223.8 354.4,236.4 359.0,295.1 363.7,244.1 368.3,253.5 372.9,251.9 377.6,251.1 382.2,258.3 386.9,264.6 391.5,265.7 396.1,256.8 400.8,236.5 405.4,243.4 410.1,241.1 414.7,243.5 419.3,254.0 424.0,257.0 428.6,252.4 433.3,252.0 437.9,259.6 442.6,267.8 447.2,268.4 451.8,251.6 456.5,257.8 461.1,267.0 465.8,262.7 470.4,267.8 475.0,260.0 479.7,266.0 484.3,252.3 489.0,257.6 493.6,265.4 498.2,266.9 502.9,269.8 507.5,265.8 512.2,260.9 516.8,261.2 521.4,261.3 526.1,258.5 530.7,256.8 535.4,248.8 540.0,229.8 544.7,234.8 549.3,245.6 553.9,248.9 558.6,249.2 563.2,256.9 567.9,261.2 572.5,251.9 577.1,255.2 581.8,255.4 586.4,266.1 591.1,273.1 595.7,271.5 600.3,272.6 605.0,273.6 609.6,270.1 614.3,268.6 618.9,274.3 623.5,274.5 628.2,274.9 632.8,273.0 637.5,273.8 642.1,261.9 646.8,269.6 651.4,269.3 656.0,266.8 660.7,267.1 665.3,273.1 670.0,262.9 674.6,265.8 679.2,259.9 683.9,247.8 688.5,243.0 693.2,251.4 697.8,259.3 702.4,253.3 707.1,251.9 711.7,252.3 716.4,250.5 721.0,251.6 725.6,253.4 730.3,252.0 734.9,258.1 739.6,262.1 744.2,264.3 748.9,264.7 753.5,261.3 758.1,259.6 762.8,260.7 767.4,259.8 772.1,255.6 776.7,253.3 781.3,260.8 786.0,254.6 790.6,254.3 795.3,243.8 799.9,243.0 804.5,251.1 809.2,253.0 813.8,241.6 818.5,251.6 823.1,255.5 827.7,258.1 832.4,260.4 837.0,266.0 841.7,265.1 846.3,263.8 851.0,271.4 855.6,266.7 860.2,268.1 864.9,268.3 869.5,272.6 874.2,276.8 878.8,275.4 883.4,272.4 888.1,270.4 892.7,271.8 897.4,279.0 902.0,295.5" fill="none" stroke="#d62728" stroke-width="2.2" stroke-linejoin="round" stroke-linecap="round"/>
<text x="62" y="346" font-family="Arial" font-size="11" fill="#68707a">2025-12-03</text>
<text x="834" y="346" font-family="Arial" font-size="11" fill="#68707a">2026-06-03</text>
<text x="792" y="28" font-family="Arial" font-size="12" fill="#d62728">1.2117</text>
</svg>
